<svg width="31" height="30" viewBox="0 0 31 30" fill="none" xmlns="http://www.w3.org/2000/svg">
<g clip-path="url(#clip0_258_534)">
<path d="M28.0586 12.9561C28.0586 13.0481 28.0713 13.1391 28.0713 13.2302C28.0713 16.3026 28.0713 19.3749 28.0713 22.4473C28.0713 23.0157 27.9574 23.5545 27.6378 24.0352C27.1799 24.7242 26.5415 25.1011 25.7092 25.1011C18.923 25.1051 12.1374 25.1051 5.35233 25.1011C4.16498 25.1011 3.19182 24.2148 3.02738 23.0207C2.99958 22.8229 2.98521 22.6235 2.98438 22.4237C2.98438 18.2253 2.98438 14.0271 2.98438 9.82924C2.98438 8.83753 3.30566 7.99172 4.18352 7.47647C4.54769 7.26952 4.95798 7.15731 5.37677 7.15012C8.52223 7.12482 11.6677 7.13578 14.8131 7.13663C14.853 7.13723 14.8928 7.14118 14.932 7.14843C15.185 8.08954 15.4321 8.99523 15.691 9.94055H15.3537C12.85 9.94055 10.3454 9.96922 7.84254 9.9279C6.6164 9.90682 5.95358 10.8285 5.95527 11.7907C5.96201 14.6742 5.96201 17.5571 5.95527 20.4394C5.95527 21.3671 6.55147 22.325 7.86278 22.3191C12.9753 22.2944 18.0882 22.2944 23.2013 22.3191C24.521 22.325 25.1189 21.3603 25.113 20.4108C25.1012 18.5168 25.113 16.6227 25.1037 14.7287C25.1037 14.4909 25.1636 14.3821 25.4014 14.3121C26.2588 14.0538 27.0634 13.6452 27.7778 13.1054C27.8453 13.0556 27.9127 13.0042 27.9819 12.9578C27.9903 12.9485 28.0148 12.9561 28.0586 12.9561Z" fill="#0F5A37"/>
<path d="M23.7462 14.6554V14.9767C23.7462 16.7757 23.7462 18.5747 23.7462 20.3737C23.7462 20.8932 23.6813 20.9547 23.166 20.9547H7.88656C7.36794 20.9547 7.30469 20.894 7.30469 20.3762C7.30469 17.5355 7.30469 14.6947 7.30469 11.854C7.30469 11.3531 7.37468 11.2839 7.86463 11.2839H15.2451C15.0081 12.182 14.7804 13.0439 14.5519 13.9057C14.4794 14.1798 14.4026 14.453 14.3301 14.7271C14.2458 15.0366 14.2879 15.3174 14.5578 15.5214C14.8276 15.7255 15.1017 15.6901 15.3817 15.5214C16.4965 14.8671 17.6141 14.218 18.7346 13.5743C18.8391 13.5144 19.0255 13.4841 19.12 13.5372C20.5468 14.3358 22.0445 14.8198 23.7462 14.6554Z" fill="#0F5A37"/>
<path d="M16.1016 13.5449C16.4043 12.5329 16.664 11.6053 16.9634 10.6878C17.1253 10.1911 17.0874 9.7602 16.8791 9.27109C15.1495 5.2132 17.7502 0.665368 22.1201 0.0624189C26.4006 -0.527881 30.1262 3.12186 29.6253 7.41333C29.502 8.54449 29.0903 9.62505 28.4299 10.5516C27.7694 11.4782 26.8822 12.2197 25.8531 12.7052C24.824 13.1908 23.6876 13.4041 22.5525 13.3248C21.4174 13.2454 20.3216 12.8761 19.3701 12.2521C19.0151 12.0227 18.7107 12.0101 18.3515 12.2293C17.6338 12.6662 16.9027 13.0777 16.1016 13.5449ZM23.6768 2.75081C23.6768 2.2946 23.6835 1.88476 23.6768 1.47661C23.67 1.06846 23.3918 0.790174 23.0089 0.790174C22.6261 0.790174 22.3537 1.06087 22.3436 1.47576C22.3351 1.8232 22.3242 2.17147 22.3436 2.51722C22.3604 2.77021 22.2854 2.92031 22.0425 3.01729C21.889 3.08714 21.7504 3.18592 21.6344 3.30822C20.9252 4.00899 20.6941 4.85059 21.0204 5.7917C21.3578 6.77918 22.11 7.27419 23.1413 7.35515C23.5326 7.38635 23.6658 7.4867 23.7316 7.87208C23.7704 8.09074 23.7744 8.31416 23.7434 8.53406C23.6692 9.01473 23.3555 9.26266 22.8706 9.26519C22.449 9.26519 22.0273 9.26097 21.6057 9.26519C21.184 9.2694 20.8864 9.54516 20.8872 9.93391C20.888 10.3227 21.1731 10.5891 21.6107 10.5976C21.8469 10.5976 22.083 10.5976 22.3368 10.5976C22.3368 11.0083 22.3368 11.3658 22.3368 11.7225C22.3368 12.2681 22.5788 12.5658 23.0114 12.5574C23.4331 12.5523 23.6709 12.2555 23.6726 11.7352C23.6726 11.3877 23.6608 11.0395 23.6802 10.6937C23.6856 10.6376 23.7027 10.5832 23.7305 10.5341C23.7582 10.485 23.7959 10.4423 23.8412 10.4087C24.7781 9.8791 25.2461 8.96751 25.1062 7.90075C24.9889 7.02121 24.6044 6.34068 23.692 6.08516C23.4662 6.03557 23.237 6.00343 23.0064 5.98903C22.5004 5.93 22.2086 5.56738 22.2263 5.01925C22.2441 4.47111 22.5847 4.09669 23.089 4.09163C23.541 4.08573 23.9939 4.09838 24.4459 4.08657C24.5355 4.08727 24.6244 4.06997 24.7072 4.03567C24.79 4.00138 24.8651 3.95081 24.9281 3.88695C24.991 3.82308 25.0404 3.74724 25.0735 3.66391C25.1065 3.58057 25.1225 3.49145 25.1205 3.40183C25.1104 3.0409 24.8321 2.77105 24.4408 2.75587C24.2038 2.7466 23.9635 2.75334 23.6768 2.75334V2.75081Z" fill="#0F5A37"/>
<path d="M30.9781 26.2227C30.9781 26.6932 31.0363 27.1503 30.9671 27.5922C30.7985 28.6825 29.9079 29.4845 28.8032 29.6161C28.6465 29.6343 28.4888 29.6433 28.331 29.643C19.8009 29.643 11.2713 29.643 2.74235 29.643C1.46225 29.643 0.465493 28.9903 0.168657 27.8721C0.0320448 27.3544 0.0556568 26.7944 0 26.1965H0.369359C4.01797 26.1965 7.66743 26.1965 11.3177 26.1965C11.5159 26.1965 11.6281 26.2336 11.7191 26.4402C12.0505 27.1941 12.6467 27.6006 13.4732 27.6124C14.8606 27.631 16.2487 27.631 17.6373 27.6124C18.4856 27.5998 19.0785 27.1655 19.436 26.3939C19.463 26.3449 19.5008 26.3027 19.5465 26.2705C19.5923 26.2384 19.6448 26.2171 19.7 26.2083C23.4234 26.1993 27.1465 26.1974 30.8693 26.2024C30.906 26.2062 30.9424 26.213 30.9781 26.2227Z" fill="#0F5A37"/>
</g>
<defs>
<clipPath id="clip0_258_534">
<rect width="31" height="29.6457" fill="white"/>
</clipPath>
</defs>
</svg>
