<svg width="27" height="24" viewBox="0 0 27 24" fill="none" xmlns="http://www.w3.org/2000/svg">
<g clip-path="url(#clip0_258_557)">
<path d="M23.2864 21.4726C23.2864 21.7259 23.2906 21.9715 23.2864 22.2138C23.2661 23.1998 22.5343 23.9578 21.5491 23.9865C20.8856 24.0068 20.2213 24.0051 19.5578 23.9865C18.6208 23.9612 17.9109 23.2808 17.8298 22.3421C17.8053 22.0602 17.8298 21.7757 17.8298 21.4659H8.12211C8.12211 21.6828 8.12211 21.9091 8.12211 22.1353C8.11367 23.2285 7.36236 23.9823 6.27256 23.9924C5.68335 23.9975 5.09244 23.9975 4.49985 23.9924C3.42862 23.984 2.69253 23.269 2.64779 22.2011C2.64484 22.1697 2.64484 22.138 2.64779 22.1066C2.69591 21.6963 2.6478 21.4161 2.14806 21.254C1.5867 21.0708 1.3132 20.5475 1.30391 19.954C1.28703 18.3608 1.28703 16.7676 1.30391 15.1744C1.30898 14.5515 1.55715 14.0078 1.96825 13.5385C2.27805 13.1856 2.58027 12.8252 2.93312 12.4132H1.17391C0.268138 12.4132 -0.170814 11.8358 0.0613268 10.9545C0.162995 10.5526 0.392489 10.1946 0.715254 9.93442C1.03802 9.67423 1.43658 9.52594 1.85092 9.51189C2.19787 9.49838 2.54649 9.50261 2.89343 9.51189C3.24038 9.52118 3.45142 9.72293 3.44635 10.0277C3.44129 10.3324 3.23194 10.5147 2.87486 10.5215C2.55831 10.5274 2.2426 10.5139 1.92688 10.5257C1.41027 10.546 1.07007 10.8752 1.04222 11.4019H3.05214C3.67006 11.4019 3.6692 11.4019 3.88446 10.8254C4.20186 9.97674 4.51983 9.12893 4.83836 8.28197C5.26634 7.15165 6.15271 6.5388 7.35984 6.53711H12.0373C12.8755 6.53711 12.9439 6.60042 13.014 7.4758H7.10997C6.36797 7.4758 5.99484 7.72905 5.70868 8.42294C5.28041 9.46462 4.85356 10.5074 4.42811 11.5514C4.16305 12.203 4.3859 12.6395 5.0781 12.799C5.28375 12.842 5.49355 12.8618 5.70361 12.8581C9.47414 12.8615 13.2447 12.8637 17.0152 12.8649C17.2129 12.869 17.4086 12.9058 17.5943 12.9737C19.3425 13.5976 21.0798 13.5841 22.8103 12.9104C23.283 12.7264 23.3784 12.7416 23.711 13.1291C24.8329 14.4206 24.7451 14.1784 24.7434 15.8616C24.7434 17.0856 24.7434 18.3099 24.7434 19.5345C24.7426 20.7391 24.4488 21.1384 23.2864 21.4726ZM13.0224 19.1394C14.3274 19.1394 15.6325 19.1394 16.9376 19.1394C17.2946 19.1394 17.5116 18.9486 17.5209 18.654C17.5301 18.3594 17.3031 18.1526 16.9637 18.1298C16.9114 18.1298 16.8582 18.1298 16.8059 18.1298C14.301 18.1298 11.7967 18.1298 9.29293 18.1298C9.15689 18.1241 9.02082 18.1409 8.89027 18.1796C8.78773 18.2114 8.69974 18.2783 8.64181 18.3687C8.58388 18.4591 8.55975 18.567 8.57372 18.6734C8.57594 18.7859 8.61866 18.8937 8.69403 18.9771C8.7694 19.0606 8.87237 19.114 8.98398 19.1276C9.08839 19.1407 9.19372 19.145 9.29885 19.1403L13.0224 19.1394ZM3.66162 21.4558C3.66162 21.7487 3.64473 22.0019 3.66162 22.2518C3.69707 22.6789 3.97395 22.96 4.3994 22.9719C5.05108 22.9893 5.70361 22.9893 6.35698 22.9719C6.53927 22.9736 6.71555 22.9067 6.85071 22.7844C6.98587 22.6621 7.07 22.4933 7.08634 22.3117C7.11335 22.0332 7.09223 21.7495 7.09223 21.4566L3.66162 21.4558ZM22.2684 21.4617H18.8352C18.8352 21.7445 18.8166 22.0078 18.8394 22.267C18.8766 22.6891 19.1593 22.9626 19.5899 22.9727C20.2314 22.989 20.8735 22.989 21.5162 22.9727C21.7034 22.9765 21.8851 22.9088 22.0241 22.7833C22.163 22.6578 22.2489 22.484 22.2641 22.2974C22.2886 22.0264 22.2684 21.7521 22.2684 21.4617ZM6.71912 16.4913C7.15302 16.4913 7.46874 16.4972 7.78445 16.4913C8.13815 16.4829 8.35846 16.2913 8.36521 16C8.37197 15.7088 8.1432 15.4935 7.77431 15.4834C7.33198 15.4741 6.88964 15.4783 6.44731 15.4834C5.76942 15.4943 5.10223 15.3135 4.52264 14.9617C4.15628 14.7389 3.86421 14.7819 3.70044 15.0681C3.53668 15.3543 3.64811 15.6109 4.02038 15.8396C4.83196 16.3282 5.77402 16.5557 6.71912 16.4913ZM19.3181 16.4913C20.6265 16.4913 21.3938 16.309 22.1882 15.8059C22.5123 15.6007 22.6102 15.3357 22.4574 15.0672C22.3046 14.7988 22.0058 14.7355 21.6648 14.9423C21.0684 15.3072 20.3801 15.4938 19.681 15.48C19.2277 15.4758 18.7744 15.4716 18.322 15.4859C17.9986 15.4961 17.7876 15.7164 17.7918 15.9924C17.796 16.2685 18.0096 16.4753 18.338 16.4854C18.6664 16.4955 18.9914 16.4905 19.3181 16.4905V16.4913Z" fill="black"/>
<path d="M20.1057 12.4148C18.4629 12.405 16.891 11.7441 15.7347 10.577C14.5784 9.40999 13.9321 7.83204 13.9375 6.18919C13.9399 5.37316 14.1032 4.5656 14.4181 3.81278C14.733 3.05996 15.1933 2.37666 15.7727 1.80204C16.3521 1.22741 17.0392 0.772742 17.7947 0.464078C18.5501 0.155414 19.3589 -0.00117904 20.175 0.00326587C23.5845 0.0201489 26.3415 2.81682 26.3271 6.24322C26.3184 7.88597 25.6586 9.45822 24.4923 10.6152C23.326 11.7721 21.7485 12.4193 20.1057 12.4148ZM22.0785 2.77967C21.9992 2.85058 21.8253 2.95441 21.7231 3.10298C20.3725 4.99894 19.0278 6.89884 17.6889 8.80268C17.6349 8.8676 17.5898 8.93942 17.5547 9.01625C17.483 9.22307 17.5066 9.41975 17.6991 9.55144C17.7831 9.61727 17.8889 9.64882 17.9953 9.63973C18.1016 9.63065 18.2006 9.5816 18.2722 9.50248C18.33 9.44129 18.382 9.37488 18.4276 9.3041C19.7658 7.41208 21.1032 5.51978 22.4398 3.6272C22.4988 3.55311 22.5484 3.47202 22.5875 3.38577C22.7006 3.08272 22.5006 2.78474 22.0785 2.7763V2.77967ZM22.0034 6.77419C21.8056 6.77218 21.6093 6.80941 21.426 6.88373C21.2426 6.95804 21.0758 7.06797 20.9352 7.20715C20.7946 7.34633 20.683 7.512 20.6069 7.69458C20.5307 7.87716 20.4915 8.07304 20.4915 8.27087C20.4891 8.47169 20.5266 8.67099 20.6019 8.85716C20.6772 9.04333 20.7889 9.21265 20.9303 9.35525C21.0717 9.49785 21.2401 9.61088 21.4256 9.68775C21.6112 9.76462 21.8102 9.8038 22.011 9.803C22.4108 9.79766 22.7922 9.63433 23.072 9.34869C23.3518 9.06304 23.5072 8.6783 23.5043 8.27846C23.5057 8.08064 23.4679 7.88449 23.3931 7.70136C23.3183 7.51823 23.2079 7.35175 23.0683 7.21155C22.9288 7.07135 22.7628 6.96021 22.58 6.88456C22.3972 6.80891 22.2012 6.77025 22.0034 6.77081V6.77419ZM16.7047 4.26284C16.7035 4.46061 16.7416 4.65663 16.8166 4.83962C16.8916 5.0226 17.0021 5.18893 17.1417 5.32901C17.2813 5.46909 17.4473 5.58014 17.63 5.65577C17.8127 5.7314 18.0086 5.7701 18.2064 5.76965C18.4043 5.77054 18.6004 5.7324 18.7835 5.65743C18.9666 5.58245 19.1331 5.4721 19.2736 5.3327C19.414 5.19329 19.5255 5.02757 19.6018 4.84501C19.6782 4.66244 19.7177 4.46662 19.7183 4.26875C19.7196 4.06836 19.6813 3.86969 19.6055 3.68417C19.5298 3.49864 19.4181 3.32994 19.2768 3.18777C19.1356 3.0456 18.9676 2.93277 18.7826 2.85578C18.5976 2.77879 18.3992 2.73915 18.1988 2.73915C17.7994 2.74383 17.4182 2.90634 17.1382 3.19119C16.8583 3.47604 16.7024 3.86009 16.7047 4.25947V4.26284Z" fill="black"/>
<path d="M21.383 8.27848C21.3827 8.19716 21.3986 8.11659 21.43 8.04154C21.4613 7.9665 21.5074 7.89851 21.5655 7.8416C21.6236 7.78469 21.6925 7.74001 21.7682 7.71022C21.8438 7.68043 21.9247 7.66612 22.006 7.66816C22.0874 7.66976 22.1677 7.68767 22.242 7.72084C22.3164 7.75401 22.3833 7.80176 22.4389 7.86127C22.4945 7.92078 22.5375 7.99083 22.5656 8.06728C22.5936 8.14372 22.606 8.22501 22.602 8.30634C22.5987 8.4654 22.5332 8.61686 22.4196 8.72825C22.306 8.83964 22.1533 8.90212 21.9942 8.90231C21.9127 8.90279 21.832 8.88689 21.7568 8.85555C21.6816 8.82421 21.6135 8.77807 21.5565 8.71987C21.4994 8.66168 21.4547 8.59261 21.4249 8.51679C21.3951 8.44096 21.3809 8.35992 21.383 8.27848Z" fill="black"/>
<path d="M18.815 4.26308C18.8149 4.34449 18.7986 4.42506 18.7669 4.50006C18.7353 4.57506 18.689 4.64299 18.6307 4.69984C18.5724 4.75669 18.5034 4.80133 18.4276 4.83114C18.3519 4.86094 18.2709 4.87531 18.1895 4.8734C18.1081 4.87102 18.028 4.85246 17.9538 4.81879C17.8796 4.78513 17.8129 4.73704 17.7575 4.67732C17.7021 4.61761 17.6592 4.54747 17.6312 4.47098C17.6032 4.3945 17.5907 4.31321 17.5944 4.23184C17.5994 4.07283 17.6659 3.92196 17.7799 3.81097C17.8939 3.69997 18.0465 3.63751 18.2056 3.63672C18.287 3.63669 18.3677 3.65299 18.4427 3.68467C18.5178 3.71635 18.5858 3.76276 18.6426 3.82116C18.6994 3.87955 18.7439 3.94875 18.7736 4.02465C18.8032 4.10056 18.8173 4.18163 18.815 4.26308Z" fill="black"/>
</g>
<defs>
<clipPath id="clip0_258_557">
<rect width="26.324" height="24.0009" fill="white"/>
</clipPath>
</defs>
</svg>
