<svg width="31" height="29" viewBox="0 0 31 29" fill="none" xmlns="http://www.w3.org/2000/svg">
<g clip-path="url(#clip0_258_527)">
<path d="M30.4991 22.5844C30.4792 22.6184 30.4632 22.6546 30.4515 22.6922C30.2948 23.4953 29.8343 24.0708 29.136 24.4759C27.3527 25.5117 25.5705 26.5495 23.7892 27.5893C22.1383 28.5532 20.3541 29.0012 18.4477 28.9994C14.5467 28.9967 10.6455 28.9967 6.74411 28.9994H6.41406V28.6503C6.41406 25.861 6.41406 23.0715 6.41406 20.2818C6.41406 19.2905 6.83109 18.7257 7.82242 18.5666C8.85293 18.3978 9.90473 18.4067 10.9322 18.5929C11.4088 18.6804 11.774 18.9443 12.0487 19.3614C12.6307 20.2443 13.4642 20.6982 14.5276 20.7036C15.4909 20.7084 16.4537 20.6965 17.4164 20.7078C18.1188 20.7161 18.5626 21.2505 18.4065 21.8737C18.2969 22.3139 17.9228 22.579 17.3938 22.5796C15.7257 22.5796 14.0576 22.5796 12.3895 22.5826C11.7526 22.5826 11.326 23.1384 11.4923 23.7258C11.5446 23.9138 11.6573 24.0793 11.8129 24.197C11.9686 24.3146 12.1586 24.3779 12.3537 24.377C12.8202 24.3853 13.2867 24.377 13.7531 24.377C15.3813 24.377 17.0095 24.3472 18.6383 24.3853C20.5143 24.4294 22.2676 24.0142 23.959 23.2159C25.8493 22.3223 27.7664 21.4882 29.6716 20.625C29.7252 20.6005 29.7806 20.5815 29.8432 20.5564C30.2227 20.9181 30.3597 21.3905 30.4985 21.8671L30.4991 22.5844Z" fill="black"/>
<path d="M0 19.9034C0.221024 19.3756 0.62673 19.2016 1.18316 19.2153C2.20368 19.2398 3.2254 19.2219 4.24652 19.2219H4.58252V28.9744C4.47826 28.9803 4.3746 28.9916 4.27094 28.9916C3.22957 28.9916 2.18581 28.9767 1.14801 28.9988C0.59754 29.0107 0.210896 28.8201 0 28.3035V19.9034Z" fill="black"/>
<path d="M24.9613 12.9331V13.3132C24.9613 15.6664 24.9559 18.0196 24.9679 20.3722C24.9679 20.6671 24.9029 20.822 24.6104 20.9388C23.5613 21.3558 22.5354 21.8324 21.4833 22.2381C21.0663 22.3996 20.6075 22.4443 20.1726 22.5408C20.1726 21.9778 20.2614 21.4499 20.1548 20.965C19.8855 19.7431 18.7965 18.9186 17.5335 18.9001C16.5404 18.8852 15.5472 18.8924 14.5547 18.8966C14.1442 18.8966 13.8053 18.7464 13.5938 18.4021C12.8491 17.1951 11.6975 16.7459 10.3696 16.697C9.27456 16.6547 8.16944 16.5779 7.0536 16.8877V12.9331H6.70449C5.41409 12.9331 4.1231 12.939 2.8321 12.9331C2.18512 12.9289 1.74486 12.3933 1.92239 11.8012C1.99863 11.5886 2.13175 11.4011 2.30725 11.259C5.25542 8.76401 8.20896 6.27615 11.1679 3.79544C12.5437 2.63889 13.9192 1.48273 15.2946 0.326976C15.8165 -0.110901 16.1966 -0.109114 16.7244 0.331147C17.6149 1.07703 18.5041 1.8243 19.3922 2.57296C19.4518 2.62181 19.5114 2.66649 19.6073 2.74156C19.618 2.61645 19.6305 2.53364 19.6311 2.45024C19.6311 1.94385 19.6216 1.43746 19.6365 0.931068C19.6532 0.365104 20.0237 0.00944068 20.5897 0.00705768C21.7216 0.00229166 22.8535 0.00229166 23.9855 0.00705768C24.5812 0.00705768 24.9542 0.38119 24.9625 0.970388C24.9684 1.36775 24.9625 1.76453 24.9625 2.16189C24.9625 3.77042 24.9625 5.37895 24.9577 6.98748C24.9529 7.07443 24.9697 7.16122 25.0068 7.24005C25.0438 7.31887 25.0998 7.38726 25.1698 7.43906C26.6791 8.69848 28.1845 9.96207 29.6862 11.2298C30.0919 11.5706 30.217 11.9179 30.0782 12.3224C29.9394 12.727 29.6034 12.9331 29.0595 12.9331C27.7095 12.9331 26.3601 12.9331 24.9613 12.9331ZM10.3743 9.62726C10.3773 11.1458 11.6391 12.3969 13.1493 12.3838C13.8768 12.3754 14.572 12.0823 15.0859 11.5673C15.5997 11.0523 15.8913 10.3565 15.8981 9.62904C15.8963 8.89651 15.6049 8.19443 15.0875 7.67583C14.5701 7.15724 13.8687 6.8642 13.1362 6.86059C12.4038 6.86342 11.7022 7.15596 11.1847 7.67434C10.6672 8.19271 10.3759 8.8948 10.3743 9.62726ZM18.8727 12.606C18.1446 12.608 17.4467 12.8976 16.931 13.4116C16.4154 13.9256 16.1236 14.6225 16.1192 15.3506C16.1181 15.7135 16.1886 16.073 16.3267 16.4086C16.4649 16.7441 16.6679 17.0491 16.9242 17.306C17.1804 17.563 17.4849 17.7668 17.8201 17.9058C18.1553 18.0448 18.5146 18.1163 18.8775 18.1161C19.2406 18.1155 19.6 18.0431 19.935 17.9032C20.2701 17.7633 20.5742 17.5586 20.8299 17.3008C21.0856 17.0429 21.2879 16.7372 21.425 16.401C21.5622 16.0648 21.6316 15.7048 21.6293 15.3417C21.6252 14.6135 21.3329 13.9166 20.8163 13.4034C20.2997 12.8902 19.6009 12.6024 18.8727 12.603V12.606ZM19.7943 9.73985C19.7646 9.23168 19.5983 8.93976 19.2474 8.78665C18.8602 8.61865 18.5075 8.70741 18.212 9.00291C16.3112 10.9026 14.4119 12.8034 12.5143 14.7054C12.1264 15.0951 12.1258 15.6479 12.4916 16.0089C12.8574 16.37 13.4049 16.3616 13.7951 15.9732C15.698 14.0755 17.5964 12.1737 19.4905 10.2677C19.6526 10.1039 19.73 9.85543 19.7943 9.73985Z" fill="black"/>
<path d="M13.1329 10.562C13.0087 10.5633 12.8855 10.5401 12.7703 10.4937C12.6551 10.4473 12.5502 10.3785 12.4616 10.2915C12.373 10.2044 12.3025 10.1007 12.2541 9.98628C12.2058 9.87189 12.1805 9.74906 12.1797 9.62486C12.1797 9.374 12.2785 9.13325 12.4549 8.95482C12.6312 8.77638 12.8707 8.67464 13.1216 8.67166C13.2459 8.67071 13.3693 8.6944 13.4844 8.74134C13.5996 8.78828 13.7044 8.85755 13.7926 8.94516C13.8809 9.03277 13.951 9.13699 13.9988 9.25181C14.0466 9.36662 14.0712 9.48977 14.0712 9.61414C14.0738 9.73851 14.0513 9.86212 14.0052 9.97765C13.9591 10.0932 13.8902 10.1983 13.8027 10.2867C13.7152 10.3751 13.6108 10.445 13.4957 10.4923C13.3807 10.5396 13.2573 10.5633 13.1329 10.562Z" fill="black"/>
<path d="M17.9222 15.3758C17.9191 15.252 17.9406 15.1288 17.9856 15.0135C18.0306 14.8981 18.0981 14.7928 18.1841 14.7038C18.2702 14.6147 18.3731 14.5437 18.4868 14.4948C18.6006 14.4459 18.723 14.4201 18.8468 14.419C18.9731 14.4158 19.0988 14.4379 19.2165 14.4839C19.3342 14.53 19.4416 14.5991 19.5322 14.6871C19.6229 14.7752 19.6951 14.8804 19.7445 14.9967C19.794 15.1131 19.8197 15.2381 19.8202 15.3645C19.8148 15.6146 19.7134 15.8532 19.5369 16.0306C19.3605 16.2081 19.1225 16.3108 18.8724 16.3177C18.622 16.3169 18.3821 16.2177 18.2043 16.0414C18.0265 15.8652 17.9251 15.6261 17.9222 15.3758Z" fill="black"/>
</g>
<defs>
<clipPath id="clip0_258_527">
<rect width="30.5025" height="29" fill="white"/>
</clipPath>
</defs>
</svg>
