<svg width="31" height="28" viewBox="0 0 31 28" fill="none" xmlns="http://www.w3.org/2000/svg">
<g clip-path="url(#clip0_258_540)">
<path d="M7.42867 19.3C7.67635 19.6299 7.91364 19.9253 8.12148 20.2379C8.18644 20.3442 8.21417 20.4691 8.20029 20.593C7.95434 22.6287 7.70291 24.6638 7.446 26.6984C7.39317 27.1262 7.33861 27.5549 7.28232 27.9974H3.5905V22.3362H2.56254V27.9965H0C0.0398367 27.3176 0.0779409 26.6447 0.118644 25.9709C0.238154 24.0423 0.372384 22.1137 0.473708 20.1833C0.541257 18.9129 1.33973 17.8875 2.56514 17.5775C3.03538 17.4588 3.51775 17.3714 3.98194 17.2432C4.17159 17.1913 4.27638 17.2432 4.39589 17.3783C4.964 18.0287 5.5425 18.6713 6.11493 19.3182C6.56613 19.8274 6.70988 19.843 7.24075 19.4316C7.29618 19.3935 7.34813 19.358 7.42867 19.3Z" fill="black"/>
<path d="M5.14959 6.75489C6.23558 6.75489 7.28172 6.74796 8.327 6.75489C9.50997 6.76442 10.5258 6.37125 11.352 5.52082C11.4758 5.39351 11.5616 5.38399 11.7062 5.47405C12.2189 5.79361 12.7454 6.09412 13.252 6.42061C13.3041 6.45733 13.3478 6.50462 13.3803 6.55938C13.4129 6.61415 13.4335 6.67516 13.4408 6.73844C13.4538 8.00109 13.4668 9.2646 13.4408 10.5281C13.4018 12.6178 11.6776 14.3914 9.58445 14.5265C7.4402 14.6642 5.51419 13.1331 5.20502 11.0347C5.17015 10.8109 5.15163 10.5849 5.14959 10.3584C5.14699 9.16847 5.14959 7.98203 5.14959 6.75489Z" fill="black"/>
<path d="M14.9944 6.28989L14.5354 6.2232L14.5787 6.17038C14.3795 5.99198 14.2003 5.7824 13.9777 5.64211C13.2477 5.18225 12.5055 4.74578 11.7616 4.30411C11.3597 4.06423 11.1554 4.10493 10.8791 4.47732C10.2579 5.30176 9.43199 5.71456 8.40143 5.71572C7.20286 5.71572 6.0043 5.71572 4.80573 5.71572C4.34934 5.71572 4.24802 5.7876 4.08521 6.21974L3.6522 6.28555C3.6522 5.03849 3.55868 3.79056 3.67732 2.56169C3.81329 1.14749 5.13655 0.0433182 6.56201 0.0190698C8.18146 -0.00950871 9.80177 0.000882842 11.4212 0.0130071C11.8036 0.0209875 12.1694 0.170573 12.4477 0.432795C12.7261 0.695017 12.8973 1.05122 12.9281 1.43241C12.9775 1.93816 13.0788 2.03862 13.5793 2.08711C14.3189 2.15553 14.9537 2.72796 14.9883 3.46148C15.0282 4.39678 14.9944 5.3364 14.9944 6.28989Z" fill="black"/>
<path d="M23.8184 10.8997C24.9174 10.8996 25.9717 11.3349 26.7507 12.1101C27.5297 12.8854 27.97 13.9376 27.9752 15.0366C27.9758 15.5837 27.8684 16.1255 27.6591 16.6309C27.4499 17.1364 27.1429 17.5956 26.7559 17.9821C26.3688 18.3687 25.9092 18.6751 25.4035 18.8837C24.8978 19.0923 24.3559 19.1991 23.8088 19.1978C22.7102 19.1914 21.6586 18.7508 20.8836 17.972C20.1086 17.1933 19.673 16.1396 19.6719 15.0409C19.6771 13.9433 20.1158 12.8922 20.8925 12.1166C21.6691 11.3409 22.7207 10.9035 23.8184 10.8997ZM23.2797 11.9519C23.3975 12.3849 23.2113 12.5875 22.8839 12.8032C22.3773 13.1374 22.1816 13.6752 22.2942 14.2754C22.4128 14.9136 22.8034 15.3345 23.4364 15.5069C23.5811 15.5467 23.7361 15.5432 23.8842 15.5701C24.1483 15.6186 24.3172 15.7788 24.3336 16.0481C24.3487 16.1686 24.3176 16.2903 24.2466 16.3888C24.1756 16.4872 24.0699 16.5552 23.9509 16.579C23.6911 16.6491 23.4858 16.5426 23.3602 16.301C23.3265 16.236 23.3039 16.1642 23.2788 16.1018H22.2673C22.2907 16.6171 22.476 17.0544 22.896 17.3012C23.2347 17.4987 23.3611 17.7265 23.3135 18.0902C23.3135 18.1049 23.336 18.1231 23.3611 18.1577H24.3284C24.3562 17.613 24.3614 17.6199 24.7433 17.3238C25.2369 16.941 25.4647 16.4326 25.3495 15.8152C25.2317 15.1769 24.8411 14.7552 24.2072 14.5837C24.0634 14.5447 23.9084 14.5473 23.7603 14.5205C23.5005 14.4711 23.3273 14.3118 23.31 14.0424C23.2954 13.9219 23.3268 13.8003 23.3979 13.7019C23.469 13.6035 23.5746 13.5355 23.6937 13.5116C23.9535 13.4414 24.1587 13.5479 24.2843 13.7896C24.318 13.8545 24.3397 13.9264 24.3657 13.9887H25.3763C25.3529 13.4743 25.1693 13.0361 24.7493 12.7893C24.4124 12.591 24.2817 12.365 24.331 12.0012C24.331 11.9865 24.3085 11.9683 24.2947 11.9484L23.2797 11.9519Z" fill="black"/>
<path d="M17.6172 24.9101V20.7896C18.9725 20.8232 20.3122 21.0868 21.5792 21.569C21.9888 21.7339 22.4283 21.8112 22.8696 21.7959C23.3329 21.7768 23.7979 21.7881 24.263 21.7959C24.6232 21.7959 24.8501 21.995 24.8597 22.2973C24.8692 22.5995 24.6345 22.8282 24.2621 22.8299C23.2688 22.8299 22.2755 22.8299 21.2571 22.8299V23.8284C21.2692 23.8371 21.2865 23.8587 21.3038 23.8578C22.5881 23.8431 23.875 23.8734 25.155 23.7886C25.7543 23.7487 26.3492 23.5158 26.9286 23.3192C27.7652 23.0334 28.5861 22.7034 29.4123 22.3882C29.628 22.3016 29.8453 22.254 29.9848 22.4904C30.1242 22.7268 30.0194 22.9494 29.8384 23.1261C29.756 23.1958 29.6645 23.2541 29.5665 23.2993C27.876 24.2112 26.1829 25.1179 24.4951 26.0333C23.5832 26.5286 22.6583 26.578 21.6875 26.2125C20.6387 25.8176 19.5804 25.447 18.5196 25.0867C18.2381 24.9871 17.9307 24.9681 17.6172 24.9101Z" fill="black"/>
<path d="M11.1612 19.3062C11.9822 19.863 11.9831 19.8639 12.6334 19.133C13.16 18.5458 13.6857 17.9578 14.2044 17.3637C14.2454 17.3025 14.3056 17.2566 14.3756 17.2334C14.4455 17.2102 14.5212 17.211 14.5906 17.2355C15.0799 17.3654 15.5822 17.4495 16.0707 17.582C17.077 17.8634 17.7213 18.5216 18.0114 19.5253C18.0264 19.5961 18.0368 19.6679 18.0426 19.7401L17.5914 19.7115C17.5914 19.5305 17.5983 19.3651 17.5914 19.2092C17.5749 18.8827 17.3853 18.6783 17.0605 18.6757C16.0346 18.6682 15.0081 18.6682 13.981 18.6757C13.6224 18.6757 13.4458 18.8966 13.4449 19.3019C13.4449 20.6736 13.4449 22.0457 13.4449 23.418C13.4449 24.3799 13.4449 25.3414 13.4449 26.3027C13.4449 26.7912 13.6181 26.9661 14.1074 26.9696C14.388 26.9696 14.6686 26.9696 15.0003 26.9696V27.9854H11.3093C11.1855 27.0155 11.0599 26.0446 10.9387 25.0721C10.7551 23.5938 10.5671 22.1164 10.3991 20.6355C10.392 20.4603 10.4402 20.2873 10.5368 20.141C10.7187 19.8604 10.943 19.5963 11.1612 19.3062Z" fill="black"/>
<path d="M14.5078 19.7322H16.5438V25.9155H14.5078V19.7322Z" fill="black"/>
<path d="M9.35522 20.7627C9.65659 23.1659 9.95709 25.5691 10.2611 27.9948H8.32812C8.63123 25.5752 8.93347 23.1639 9.23484 20.761L9.35522 20.7627Z" fill="black"/>
<path d="M16.0547 27.9991V26.9781H16.8636C17.4386 26.9781 17.5919 26.8265 17.5979 26.2575C17.5979 26.1709 17.5979 26.0895 17.5979 25.9666C17.8629 26.0125 18.095 26.0428 18.3211 26.0973C18.3877 26.1129 18.483 26.1943 18.4873 26.2523C18.5324 26.8274 18.5609 27.405 18.5947 27.9991H16.0547Z" fill="black"/>
<path d="M7.24365 15.1458C7.88982 15.4226 8.58523 15.5661 9.2882 15.5677C9.99117 15.5694 10.6872 15.4291 11.3347 15.1553C11.4092 15.7208 11.41 15.7225 10.9381 15.9078C10.3864 16.1235 9.8339 16.4985 9.28051 16.5002C8.72713 16.5019 8.19626 16.1235 7.655 15.9096C7.18735 15.7199 7.18822 15.7182 7.24365 15.1458Z" fill="black"/>
<path d="M5.42969 16.9869C6.45592 16.3556 7.33491 16.8674 8.25722 17.2892L6.76334 18.4851L5.42969 16.9869Z" fill="black"/>
<path d="M13.2145 16.9263L11.8289 18.4851L10.3203 17.2787C10.8477 17.0666 11.3301 16.8535 11.8272 16.6838C11.9727 16.6344 12.1615 16.6933 12.3269 16.7245C12.6092 16.7782 12.888 16.8509 13.2145 16.9263Z" fill="black"/>
<path d="M10.3639 18.6419C10.111 18.977 9.88499 19.2896 9.64511 19.5945C9.49615 19.7833 9.09519 19.7781 8.9445 19.5867C8.70721 19.2836 8.48032 18.9709 8.23438 18.6427C8.5574 18.3829 8.86223 18.13 9.18006 17.8945C9.21775 17.8743 9.25985 17.8638 9.3026 17.8638C9.34535 17.8638 9.38745 17.8743 9.42515 17.8945C9.73518 18.1266 10.0314 18.3743 10.3639 18.6419Z" fill="black"/>
<path d="M4.09564 7.28394V9.31301C3.83408 9.32053 3.58007 9.22482 3.38852 9.04656C3.19698 8.8683 3.08327 8.62181 3.072 8.36039C3.03996 7.77843 3.46605 7.31944 4.09564 7.28394Z" fill="black"/>
<path d="M14.5 9.32792V7.29711C14.6317 7.29424 14.7627 7.31746 14.8854 7.36544C15.0081 7.41341 15.1201 7.48519 15.2149 7.57664C15.3097 7.66808 15.3855 7.77739 15.4379 7.89826C15.4903 8.01913 15.5183 8.14918 15.5202 8.2809C15.5332 8.85074 15.1079 9.29328 14.5 9.32792Z" fill="black"/>
</g>
<defs>
<clipPath id="clip0_258_540">
<rect width="30.0499" height="28" fill="white"/>
</clipPath>
</defs>
</svg>
