<svg width="23" height="20" viewBox="0 0 23 20" fill="none" xmlns="http://www.w3.org/2000/svg">
<g clip-path="url(#clip0_41_6850)">
<path d="M0 9.43403C0.131172 9.18921 0.333321 9.10386 0.61004 9.11509C1.04174 9.13261 1.47479 9.11958 1.93164 9.11958C1.93164 8.69956 1.93164 8.29796 1.93164 7.89636C1.93164 7.49476 2.09336 7.33798 2.48912 7.33439C2.74383 7.33214 2.99853 7.34112 3.25279 7.32855C3.31568 7.32585 3.40912 7.27329 3.43248 7.21983C3.67551 6.61923 3.90686 6.01413 4.16156 5.35872C3.994 5.1979 3.78062 4.99935 3.57398 4.79495C3.26402 4.48814 3.26762 4.27116 3.58072 3.95761C4.34769 3.18974 5.11495 2.42248 5.88252 1.65581C6.21225 1.32653 6.41754 1.32833 6.75311 1.663C6.92246 1.83191 7.08642 2.00755 7.26476 2.16657C7.29423 2.18695 7.32792 2.20041 7.36331 2.20593C7.39871 2.21145 7.43489 2.2089 7.46916 2.19847C8.02978 1.97416 8.58756 1.74281 9.1425 1.50442C9.17396 1.48672 9.20101 1.46212 9.22163 1.43249C9.24224 1.40285 9.25589 1.36893 9.26154 1.33327C9.27412 1.06374 9.26154 0.79421 9.26828 0.524678C9.27457 0.169346 9.44258 0.00133911 9.79521 0.000889893C10.9332 -0.000906982 12.0713 -0.000906982 13.2093 0.000889893C13.5615 0.000889893 13.7304 0.169347 13.7371 0.524229C13.7421 0.786124 13.7434 1.04802 13.7371 1.30991C13.734 1.42446 13.7726 1.47567 13.8818 1.51925C14.4352 1.74026 14.9837 1.97566 15.5371 2.19712C15.5713 2.20781 15.6074 2.21062 15.6428 2.20533C15.6782 2.20004 15.712 2.18679 15.7415 2.16657C15.941 1.98689 16.1247 1.78878 16.3174 1.60011C16.5712 1.35169 16.8116 1.3454 17.0595 1.59157C17.8663 2.39328 18.6709 3.19753 19.4732 4.00433C19.7279 4.26038 19.7243 4.50251 19.4651 4.76351C19.2495 4.98048 19.0267 5.19026 18.8474 5.36411C19.0994 6.01368 19.3308 6.61878 19.5734 7.21939C19.5949 7.27284 19.6893 7.3254 19.753 7.3281C20.0145 7.34023 20.2768 7.33034 20.5387 7.33439C20.9062 7.33978 21.072 7.50734 21.0742 7.87345C21.0742 8.27775 21.0742 8.68204 21.0742 9.11913H21.7449C21.9619 9.11913 22.1802 9.13306 22.3954 9.11554C22.673 9.09353 22.8742 9.19011 23.0058 9.43359V9.70312C22.8711 9.94524 22.6707 10.023 22.3945 10.0221C19.4158 10.0149 16.4368 10.0134 13.4572 10.0176C13.4047 10.0176 13.3521 10.0176 13.3 10.0176C13.0417 9.9996 12.8575 9.81452 12.8553 9.57329C12.853 9.32308 13.044 9.12632 13.3153 9.12407C13.8692 9.11778 14.4231 9.12407 14.9774 9.12407H15.2222C15.1149 7.65378 13.7762 5.80794 11.4937 5.81423C9.24762 5.82007 7.89996 7.63716 7.78856 9.12407H8.88645C9.16361 9.12407 9.44078 9.11733 9.7175 9.12722C9.77578 9.12786 9.83336 9.14 9.88695 9.16295C9.94053 9.18589 9.98905 9.21918 10.0297 9.26091C10.0704 9.30264 10.1025 9.352 10.1241 9.40614C10.1456 9.46029 10.1563 9.51816 10.1555 9.57644C10.1536 9.68985 10.1091 9.7984 10.0309 9.88054C9.95266 9.96267 9.84641 10.0124 9.73322 10.0198C9.67393 10.0257 9.61328 10.023 9.55354 10.023C6.57432 10.023 3.5945 10.0245 0.614081 10.0275C0.33871 10.0275 0.135664 9.95153 0.00314486 9.70851L0 9.43403ZM6.85014 9.11329C7.1583 6.60171 9.1699 4.96431 11.3819 4.9095C12.4654 4.883 13.4505 5.197 14.3121 5.85735C15.3799 6.67673 15.9778 7.77058 16.1427 9.10296H20.152V8.25214C20.1325 8.24471 20.1123 8.23929 20.0918 8.23597C19.8299 8.23597 19.568 8.23597 19.3061 8.23148C19.0082 8.22698 18.8654 8.12232 18.7953 7.82987C18.6086 7.05861 18.3033 6.32103 17.8901 5.64353C17.7284 5.37669 17.7513 5.20329 17.9732 4.98138C18.1682 4.78552 18.3713 4.59819 18.5572 4.4203L16.6539 2.50708C16.4742 2.69261 16.2923 2.88982 16.1022 3.07983C15.8615 3.31972 15.6935 3.34038 15.4037 3.16474C14.7392 2.75864 14.0151 2.45941 13.2578 2.27798C12.9433 2.20296 12.8396 2.06415 12.8369 1.73667C12.8346 1.4622 12.8369 1.18773 12.8369 0.90921H10.164C10.164 1.19581 10.1663 1.47073 10.164 1.74566C10.1609 2.06011 10.0598 2.20026 9.75568 2.27394C8.98445 2.46201 8.24684 2.76794 7.56889 3.18091C7.3025 3.34128 7.13359 3.31567 6.90853 3.08837C6.71402 2.89296 6.52894 2.68857 6.36947 2.51966L4.4549 4.42704C4.61527 4.58112 4.79586 4.74958 4.97061 4.92118C5.2644 5.21273 5.28236 5.35558 5.07078 5.70732C4.68347 6.34876 4.3964 7.04559 4.21951 7.77372C4.13236 8.1331 4.00613 8.22878 3.63822 8.23058C3.37228 8.23058 3.10635 8.23058 2.8467 8.23058V9.11329H6.85014Z" fill="white"/>
<path d="M13.9756 14.0179C13.3872 15.0679 12.7979 16.1171 12.208 17.1656C12.1533 17.2715 12.0768 17.3646 11.9834 17.4387C11.7511 17.6022 11.4838 17.5056 11.3181 17.2109C10.7529 16.208 10.1892 15.2047 9.62675 14.2012C9.59081 14.1378 9.55263 14.0758 9.4857 13.9622C9.47941 14.0934 9.47312 14.1702 9.47267 14.247C9.47267 15.5497 9.47267 16.8525 9.47267 18.1552C9.47581 18.252 9.46614 18.3488 9.44392 18.4431C9.41675 18.5413 9.3557 18.6267 9.27158 18.6842C9.18747 18.7417 9.08572 18.7675 8.98437 18.7571C8.87929 18.748 8.78089 18.7018 8.7068 18.6267C8.63272 18.5516 8.58779 18.4526 8.58007 18.3475C8.57678 18.3026 8.57573 18.2576 8.57693 18.2127C8.57693 16.2361 8.57693 14.2596 8.57693 12.283C8.57693 11.916 8.80154 11.681 9.10745 11.774C9.25031 11.819 9.39495 11.9605 9.47267 12.0961C10.2004 13.3679 10.9133 14.6486 11.6312 15.9262C11.6667 15.9895 11.7048 16.0519 11.7551 16.1377L12.2695 15.22C12.8511 14.1832 13.433 13.1465 14.0152 12.1101C14.0492 12.0435 14.0885 11.9798 14.1329 11.9196C14.2591 11.7601 14.4311 11.7192 14.6167 11.7749C14.701 11.7969 14.7761 11.8454 14.8309 11.9132C14.8856 11.9811 14.9172 12.0647 14.9208 12.1518C14.9271 12.2183 14.9266 12.2866 14.9266 12.3535C14.9266 14.2846 14.9266 16.2162 14.9266 18.1485C14.9288 18.2234 14.9263 18.2984 14.919 18.3731C14.9072 18.4743 14.8602 18.5682 14.7864 18.6384C14.7125 18.7087 14.6164 18.7508 14.5147 18.7576C14.413 18.767 14.3113 18.74 14.2278 18.6813C14.1443 18.6226 14.0843 18.5361 14.0587 18.4373C14.0367 18.3352 14.0272 18.2308 14.0304 18.1264C14.0286 16.8387 14.0286 15.5509 14.0304 14.2632V14.0246L13.9756 14.0179Z" fill="white"/>
<path d="M2.68948 15.2568C2.68948 14.583 2.63872 13.9065 2.70206 13.2398C2.78472 12.3647 3.57534 11.695 4.45671 11.6828C4.93378 11.6761 5.42073 11.6568 5.88747 11.7358C6.70999 11.8746 7.32227 12.6594 7.32721 13.481C7.32721 13.769 7.17358 13.9599 6.92292 13.9779C6.65339 13.9972 6.46741 13.8278 6.43282 13.5359C6.35645 12.8867 6.01325 12.5768 5.36772 12.5754C5.09055 12.5754 4.81384 12.5718 4.53712 12.5754C3.99042 12.5835 3.56905 12.9689 3.56231 13.5134C3.54794 14.6733 3.54794 15.833 3.56231 16.9926C3.56815 17.5317 3.97514 17.9157 4.51196 17.9315C4.8336 17.9404 5.15524 17.9404 5.47688 17.9315C6.0128 17.9166 6.38251 17.5591 6.43057 17.0213C6.43299 16.9761 6.4387 16.931 6.44765 16.8866C6.46871 16.7751 6.53168 16.676 6.62359 16.6096C6.7155 16.5432 6.82937 16.5145 6.94179 16.5294C7.1664 16.556 7.32003 16.7347 7.32811 16.9787C7.35596 17.8546 6.66102 18.6992 5.76034 18.8016C5.2472 18.8616 4.72874 18.8602 4.21592 18.7976C3.31524 18.6835 2.67466 17.8946 2.65983 16.9607C2.6504 16.392 2.65983 15.8233 2.65983 15.2537L2.68948 15.2568Z" fill="white"/>
<path d="M18.2432 11.4771C18.8641 11.4807 19.4242 11.7349 19.8604 12.2529C20.085 12.5224 20.085 12.7834 19.8667 12.9658C19.6484 13.1482 19.4 13.0974 19.1709 12.831C18.8443 12.4478 18.4265 12.3023 17.9432 12.4146C17.4859 12.5211 17.1844 12.8189 17.0551 13.2767C17.0097 13.4414 16.9999 13.6138 17.0263 13.7826C17.0527 13.9514 17.1147 14.1126 17.2081 14.2556C17.3016 14.3986 17.4244 14.5201 17.5684 14.612C17.7124 14.7039 17.8743 14.7641 18.0433 14.7887C18.2648 14.8206 18.4926 14.8229 18.71 14.8718C19.6439 15.0803 20.3114 15.9073 20.342 16.8753C20.3707 17.7998 19.7405 18.6722 18.8456 18.9418C18.3983 19.0786 17.9183 19.0631 17.4807 18.8979C17.0431 18.7326 16.6727 18.4268 16.4275 18.0285C16.4158 18.0092 16.4041 17.9899 16.3934 17.9705C16.2433 17.701 16.2968 17.4396 16.5281 17.3066C16.7595 17.1736 17.0011 17.2473 17.157 17.5047C17.3601 17.8367 17.639 18.0501 18.0263 18.1152C18.7221 18.2324 19.351 17.7495 19.4364 17.0308C19.5127 16.3852 19.0002 15.7608 18.3344 15.7191C17.8466 15.6881 17.3866 15.5969 16.9845 15.3004C16.6269 15.0419 16.3595 14.6776 16.2201 14.259C16.0807 13.8403 16.0762 13.3884 16.2074 12.9671C16.481 12.0921 17.2464 11.5171 18.2432 11.4771Z" fill="white"/>
<path d="M11.9492 9.56969C11.9472 9.68987 11.8976 9.80434 11.8113 9.88798C11.7249 9.97161 11.609 10.0176 11.4888 10.0158C11.3726 10.0107 11.2629 9.96132 11.182 9.87775C11.1012 9.79417 11.0555 9.6828 11.0544 9.56655C11.0562 9.44665 11.1055 9.33236 11.1915 9.2488C11.2775 9.16524 11.3931 9.11924 11.513 9.12092C11.6295 9.1252 11.7399 9.17424 11.8211 9.25783C11.9024 9.34142 11.9483 9.45313 11.9492 9.56969Z" fill="white"/>
</g>
<defs>
<clipPath id="clip0_41_6850">
<rect width="23" height="19.0334" fill="white"/>
</clipPath>
</defs>
</svg>
