<svg width="20" height="20" viewBox="0 0 20 20" fill="none" xmlns="http://www.w3.org/2000/svg">
<g clip-path="url(#clip0_41_6863)">
<path d="M19.7339 6.19573C19.65 6.54262 19.5214 6.86638 19.2521 7.11594C18.9303 7.41368 18.5448 7.5428 18.1098 7.54232C16.851 7.54232 15.5921 7.54232 14.3331 7.54232H14.1018C14.1018 7.921 14.1066 8.28427 14.1018 8.64705C14.0927 9.15341 13.7901 9.52438 13.3242 9.60388C13.2225 9.61748 13.1199 9.62263 13.0173 9.61929C10.583 9.61929 8.14873 9.61833 5.71443 9.6164C5.65176 9.61346 5.58922 9.62447 5.53131 9.64863C5.47341 9.67279 5.42159 9.70951 5.37959 9.75612C4.97152 10.1738 4.56056 10.5886 4.13755 10.9914C4.03796 11.0871 3.91095 11.1492 3.77429 11.1692C3.5493 11.1894 3.40813 11.003 3.40476 10.7264C3.40042 10.368 3.40476 10.0091 3.40476 9.61833C3.29684 9.61833 3.19711 9.61833 3.09738 9.61833C2.46769 9.61447 2.08563 9.23917 2.08563 8.61429C2.08563 6.63994 2.08563 4.66559 2.08563 2.69123C2.08563 2.07744 2.47106 1.69539 3.08533 1.69442C5.13388 1.69442 7.18275 1.69442 9.23194 1.69442H9.43622C9.50318 1.41932 9.52824 1.14423 9.63616 0.907669C9.92041 0.283758 10.4407 0.00287742 11.1181 0.00239564C12.7883 0.00239564 14.4585 0.00239564 16.1287 0.00239564C16.7839 0.00239564 17.4391 0.0110683 18.0944 -1.26966e-05C18.9288 -0.0139844 19.5879 0.532358 19.7136 1.29695C19.7192 1.31526 19.7275 1.33263 19.7382 1.3485L19.7339 6.19573ZM14.5884 6.77387C15.7572 6.77387 16.926 6.77387 18.0948 6.77387C18.6556 6.77387 18.9621 6.46553 18.9621 5.90377C18.9621 4.48701 18.9621 3.07024 18.9621 1.65347C18.9621 1.0787 18.6581 0.773732 18.0847 0.773251C15.7664 0.773251 13.4479 0.773251 11.1292 0.773251C10.5559 0.773251 10.2519 1.07822 10.2514 1.65299C10.2514 3.06365 10.2514 4.474 10.2514 5.88402C10.2514 6.4718 10.552 6.77339 11.1384 6.77387H14.5884ZM4.17272 9.87897C4.45746 9.59328 4.70702 9.35672 4.93973 9.10475C5.10883 8.92167 5.29769 8.84651 5.55015 8.84747C8.02941 8.8547 10.5087 8.85181 12.9879 8.85181C13.0395 8.85181 13.1026 8.8706 13.1397 8.84747C13.2105 8.80267 13.3175 8.73618 13.3204 8.675C13.3372 8.30547 13.329 7.93497 13.329 7.54377H13.1045C12.456 7.54377 11.8074 7.54377 11.1586 7.54377C10.1228 7.54377 9.48151 6.89962 9.48102 5.86089C9.48102 4.80354 9.48102 3.74586 9.48102 2.68786V2.46624H9.07922C7.09459 2.46624 5.10995 2.46624 3.12532 2.46624C2.96441 2.46624 2.84974 2.4884 2.85022 2.69027C2.85279 4.67105 2.85279 6.65182 2.85022 8.6326C2.85022 8.78581 2.91382 8.85711 3.06944 8.85422C3.25541 8.85037 3.44186 8.85422 3.62831 8.85422C4.05758 8.85422 4.17128 8.96937 4.17176 9.4049L4.17272 9.87897Z" fill="white"/>
<path d="M1.24383e-05 14.5041C0.0337373 14.3827 0.0636073 14.2598 0.101668 14.1399C0.238914 13.6954 0.5132 13.3057 0.885294 13.0266C1.25739 12.7474 1.70823 12.5931 2.17334 12.5856C2.84061 12.5731 3.50837 12.5856 4.17612 12.5789C4.29032 12.5783 4.40346 12.5569 4.50999 12.5158C6.61025 11.6768 8.70955 10.8352 10.8079 9.99076C10.8493 9.9739 10.8903 9.95559 10.9322 9.93969C11.2776 9.80816 11.5219 9.97197 11.5228 10.3415C11.5253 11.187 11.5281 12.0326 11.52 12.8781C11.52 13.0429 11.5551 13.119 11.7257 13.171C12.3949 13.382 12.8714 14.0705 12.8733 14.7874C12.8757 15.5135 12.3915 16.1966 11.717 16.4216C11.6573 16.4419 11.5966 16.4611 11.5243 16.4852V17.6184C11.5243 18.1372 11.5151 18.6566 11.5281 19.175C11.5344 19.4116 11.4607 19.5831 11.255 19.6977H11.0237C10.9983 19.6796 10.9716 19.6635 10.9437 19.6496C8.94691 18.8466 6.94959 18.0436 4.95179 17.2406C4.90704 17.2256 4.86153 17.2129 4.81545 17.2026C4.81545 17.8699 4.81111 18.5227 4.81545 19.1779C4.81545 19.4188 4.74462 19.6028 4.50759 19.6963H2.77316C2.5448 19.6081 2.46097 19.4381 2.46338 19.1991C2.46916 18.5391 2.46338 17.879 2.46338 17.2185V17.0026C2.34967 17.0026 2.26055 17.0026 2.1719 17.0026C1.70704 16.9934 1.25686 16.8382 0.885068 16.5591C0.513276 16.2799 0.238707 15.8908 0.100224 15.447C0.0626452 15.3265 0.0322906 15.2037 -0.00143433 15.0823L1.24383e-05 14.5041ZM9.02769 11.545C8.97517 11.5614 8.94482 11.5681 8.91591 11.5797C7.59004 12.1125 6.2661 12.6478 4.93782 13.1754C4.81786 13.2235 4.814 13.2997 4.81448 13.396C4.81448 14.3249 4.81786 15.2543 4.81448 16.1831C4.81448 16.3103 4.84676 16.3758 4.9701 16.424C6.8452 17.1714 8.71886 17.9219 10.5911 18.6754C10.6393 18.6947 10.6923 18.7077 10.7491 18.7236V10.845C10.4822 10.9519 10.2312 11.0627 9.97295 11.1523C9.83227 11.2005 9.7971 11.2781 9.79806 11.4197C9.80336 12.6757 9.80143 13.9318 9.80095 15.1873C9.80095 15.5462 9.6781 15.7254 9.42805 15.7327C9.178 15.7399 9.0301 15.5467 9.0301 15.1878V11.5455L9.02769 11.545ZM4.03496 13.3555C3.39659 13.3555 2.78232 13.3315 2.16563 13.3613C1.35383 13.4008 0.755932 14.0464 0.770867 14.8139C0.788693 15.6098 1.41549 16.2183 2.2432 16.2328C2.73125 16.2409 3.21881 16.2328 3.70686 16.2328H4.03351L4.03496 13.3555ZM4.03496 17.0171H3.25206V18.9187H4.03496V17.0171ZM11.5325 15.6445C11.8659 15.5356 12.1034 15.1781 12.1034 14.7927C12.1034 14.4073 11.8654 14.0474 11.5325 13.9404V15.6445Z" fill="white"/>
<path d="M15.4725 14.4222C15.8121 14.4222 16.1523 14.4198 16.4919 14.4222C16.7661 14.4251 16.928 14.5667 16.9289 14.8004C16.9299 15.0341 16.7685 15.1858 16.4977 15.1887C15.8052 15.1945 15.1128 15.1945 14.4203 15.1887C14.1543 15.1887 13.9867 15.022 13.99 14.797C13.9934 14.572 14.1601 14.4256 14.4338 14.4227C14.7802 14.4198 15.128 14.4222 15.4725 14.4222Z" fill="white"/>
<path d="M14.5446 18.13C14.4077 18.0491 14.2916 18.0048 14.2073 17.9267C13.9664 17.7051 13.74 17.4719 13.5126 17.2383C13.3271 17.0484 13.3122 16.8177 13.4644 16.6601C13.6268 16.4929 13.858 16.5059 14.0585 16.7011C14.2993 16.9381 14.5402 17.1771 14.7768 17.4204C14.8982 17.5456 14.9483 17.7094 14.8539 17.8574C14.7879 17.9633 14.6592 18.0327 14.5446 18.13Z" fill="white"/>
<path d="M14.9228 11.8418C14.8423 11.982 14.8019 12.0938 14.7272 12.1733C14.5041 12.4113 14.2714 12.6406 14.0358 12.8665C13.8503 13.0438 13.6278 13.0491 13.4697 12.893C13.3117 12.7369 13.3175 12.5076 13.4919 12.3279C13.7227 12.087 13.9611 11.8558 14.1982 11.6221C14.3234 11.4988 14.4848 11.4419 14.6352 11.5301C14.7489 11.5966 14.8235 11.73 14.9228 11.8418Z" fill="white"/>
<path d="M12.9441 3.76033C12.9441 3.27855 12.9417 2.80014 12.9441 2.3198C12.947 1.92666 13.2375 1.76093 13.5829 1.95846C14.4222 2.44024 15.26 2.92299 16.0964 3.4067C16.4394 3.60616 16.437 3.94148 16.0916 4.14191C15.2565 4.62626 14.4188 5.10933 13.5786 5.59111C13.2356 5.7872 12.947 5.61713 12.9446 5.2211C12.9417 4.73257 12.9441 4.24645 12.9441 3.76033ZM15.1931 3.77286L13.7246 2.92733V4.61743L15.1931 3.77286Z" fill="white"/>
<path d="M6.34027 4.04169C6.95695 4.04169 7.57315 4.04169 8.18984 4.04169C8.42639 4.04169 8.58008 4.13805 8.62971 4.31101C8.70438 4.56732 8.53335 4.79713 8.24814 4.80773C7.97882 4.81736 7.70902 4.81014 7.43922 4.81014H4.58802C4.5302 4.81014 4.47239 4.81303 4.41458 4.81014C4.18573 4.7899 4.03638 4.63814 4.03638 4.42808C4.03638 4.21802 4.18476 4.05759 4.41409 4.04699C4.65499 4.03543 4.90214 4.04314 5.14592 4.04314L6.34027 4.04169Z" fill="white"/>
<path d="M5.6128 6.96515C5.24038 6.96515 4.86796 6.96515 4.49554 6.96515C4.20647 6.96515 4.03881 6.82061 4.0364 6.5855C4.03399 6.35039 4.20214 6.20008 4.48687 6.19719C5.23845 6.19526 5.98972 6.19526 6.74066 6.19719C7.02154 6.19719 7.20124 6.34847 7.20462 6.57731C7.20799 6.80616 7.02346 6.96274 6.72958 6.96563C6.35956 6.96611 5.98522 6.96515 5.6128 6.96515Z" fill="white"/>
<path d="M8.26886 6.19815C8.36976 6.19955 8.46599 6.24091 8.53644 6.31317C8.60689 6.38542 8.64581 6.48267 8.64465 6.58358C8.64465 6.68411 8.60498 6.78059 8.53425 6.85204C8.46353 6.92349 8.36746 6.96414 8.26693 6.96515C8.1663 6.96276 8.0706 6.9211 8.00029 6.84908C7.92998 6.77705 7.89063 6.68038 7.89066 6.57972C7.89164 6.47941 7.9317 6.38343 8.00232 6.31218C8.07294 6.24094 8.16856 6.20003 8.26886 6.19815Z" fill="white"/>
<path d="M9.7942 16.9217C9.79423 17.0225 9.75475 17.1193 9.68423 17.1914C9.61371 17.2634 9.51776 17.305 9.41697 17.3071C9.3166 17.3043 9.22111 17.2633 9.15007 17.1923C9.07903 17.1214 9.03783 17.0259 9.03491 16.9256C9.03616 16.8251 9.07659 16.7291 9.1476 16.658C9.21861 16.5869 9.31457 16.5463 9.41504 16.545C9.51507 16.5453 9.61093 16.5851 9.68189 16.6556C9.75284 16.7261 9.79319 16.8217 9.7942 16.9217Z" fill="white"/>
</g>
<defs>
<clipPath id="clip0_41_6863">
<rect width="19.7339" height="19.6978" fill="white"/>
</clipPath>
</defs>
</svg>
