<svg width="21" height="18" viewBox="0 0 21 18" fill="none" xmlns="http://www.w3.org/2000/svg">
<g clip-path="url(#clip0_41_6747)">
<path d="M3.39876 4.77009H11.957C11.7937 4.39175 11.7459 4.01545 11.8447 3.62732C12.0198 2.94042 12.641 2.43229 13.3503 2.41556C13.9054 2.40291 14.4613 2.41148 15.0171 2.41026C15.0902 2.4154 15.1634 2.40133 15.2294 2.36944C15.1673 2.32414 15.1069 2.2768 15.0429 2.23435C13.0936 0.925867 10.9664 0.516506 8.6686 0.971986C8.62208 0.981373 8.57596 0.993209 8.52902 0.998923C8.2723 1.02872 8.08987 0.905052 8.04742 0.672414C8.00661 0.456511 8.12905 0.259789 8.37026 0.209997C8.74084 0.133675 9.11429 0.0467423 9.49018 0.0242949C13.3597 -0.225076 16.2877 1.3238 18.2826 4.65051C18.3083 4.68511 18.3406 4.71414 18.3778 4.73582C18.415 4.7575 18.4562 4.77139 18.499 4.77662C18.7679 4.8007 19.0426 4.77662 19.3087 4.81744C20.1344 4.93743 20.778 5.65085 20.7833 6.48549C20.7972 8.12578 20.7996 9.76649 20.7833 11.4068C20.7731 12.352 19.9952 13.1046 19.001 13.0887C18.5455 13.0814 18.3304 13.2336 18.099 13.6128C16.6232 16.033 14.469 17.4868 11.6651 17.9047C7.93477 18.4602 4.27788 16.5987 2.48208 13.2818C2.40454 13.1385 2.31679 13.1034 2.16578 13.1005C1.876 13.0952 1.57806 13.1005 1.2989 13.0336C0.704245 12.894 0.301007 12.5092 0.0867357 11.9378C0.039181 11.8107 0.0144496 11.6763 0.0136803 11.5407C0.00919085 9.85261 0.0353117 8.16415 -0.00142047 6.47692C-0.0161134 5.79941 0.554869 4.96029 1.39971 4.82234C1.67806 4.77662 1.9662 4.78152 2.24985 4.78479C2.38331 4.78479 2.45147 4.74397 2.51596 4.62561C3.19454 3.39099 4.1551 2.33407 5.31944 1.54093C5.48637 1.42583 5.65493 1.39726 5.82798 1.51807C5.97817 1.62337 6.03939 1.78458 5.97613 1.94661C5.92105 2.0678 5.83346 2.17135 5.72309 2.24578C4.84396 2.86241 4.09193 3.64271 3.50814 4.54399C3.4714 4.60072 3.43671 4.65867 3.40243 4.71704C3.39856 4.73444 3.39732 4.75232 3.39876 4.77009ZM5.56187 15.5392C9.8975 18.7732 15.4857 16.7999 17.4272 13.1026H17.1982C16.3447 13.1026 15.4911 13.1026 14.6376 13.1026C14.5496 13.1052 14.4616 13.0984 14.3752 13.0822C14.1748 13.0377 14.0572 12.8695 14.0703 12.663C14.0745 12.5708 14.1118 12.4833 14.1752 12.4163C14.2387 12.3493 14.3241 12.3074 14.416 12.2982C14.4974 12.2907 14.5791 12.288 14.6608 12.29C16.0836 12.29 17.5064 12.29 18.9291 12.29C19.5854 12.29 19.9748 11.8925 19.9752 11.235C19.9752 9.70336 19.9752 8.1715 19.9752 6.63936C19.9752 5.99532 19.5805 5.59494 18.9401 5.59453C13.2358 5.59453 7.53113 5.59453 1.82621 5.59453C1.18095 5.59453 0.784649 5.99083 0.78424 6.6316C0.78424 8.17027 0.78424 9.70881 0.78424 11.2472C0.781596 11.3352 0.787611 11.4232 0.802198 11.51C0.903416 12.0063 1.28951 12.2904 1.86335 12.2904H11.0301C11.1181 12.2872 11.2062 12.2907 11.2937 12.3006C11.3506 12.3094 11.4048 12.3306 11.4526 12.3626C11.5004 12.3947 11.5405 12.4369 11.5702 12.4862C11.5998 12.5354 11.6183 12.5907 11.6243 12.6479C11.6303 12.7051 11.6236 12.7629 11.6047 12.8173C11.5398 13.0136 11.3962 13.103 11.1211 13.103C10.4162 13.103 9.7118 13.103 9.00695 13.103H8.76696C8.79349 13.1752 8.81063 13.2254 8.82982 13.2736C9.24652 14.3323 8.55555 15.4514 7.42216 15.5236C6.9226 15.5555 6.42018 15.5359 5.91859 15.5392C5.80104 15.5396 5.68268 15.5392 5.56432 15.5392H5.56187ZM3.33468 13.1026C3.34156 13.1368 3.35267 13.1699 3.36774 13.2014C3.73506 13.6846 4.10238 14.169 4.47909 14.6458C4.5199 14.6968 4.6199 14.7204 4.69336 14.7221C5.07211 14.7294 5.45127 14.727 5.83002 14.7249C6.35774 14.7225 6.88628 14.7368 7.41236 14.7074C7.84948 14.6829 8.16374 14.2894 8.13966 13.8585C8.11558 13.4185 7.7205 13.0887 7.32339 13.0952C6.07204 13.1157 4.81988 13.1026 3.56854 13.1026H3.33468ZM17.4125 4.7803C17.0939 4.23676 16.7101 3.73417 16.2697 3.28366C16.224 3.24554 16.166 3.22537 16.1065 3.22693C15.1996 3.22367 14.2923 3.22122 13.3854 3.22693C13.0377 3.22979 12.7528 3.45753 12.6434 3.78894C12.4732 4.30604 12.8132 4.77948 13.3552 4.77948H17.4129L17.4125 4.7803Z" fill="white"/>
<path d="M7.29624 1.12564C7.29712 1.17987 7.28691 1.2337 7.26625 1.28385C7.24559 1.33399 7.21491 1.37939 7.17609 1.41726C7.13726 1.45512 7.09112 1.48467 7.04047 1.50407C6.98983 1.52348 6.93576 1.53233 6.88157 1.5301C6.77552 1.52967 6.67396 1.48727 6.59908 1.41217C6.52421 1.33706 6.48211 1.23537 6.48201 1.12932C6.48527 1.01994 6.53073 0.916065 6.60886 0.839453C6.68699 0.762841 6.79174 0.719434 6.90116 0.718323C7.00719 0.721096 7.10792 0.765283 7.18176 0.841417C7.25561 0.917552 7.2967 1.01958 7.29624 1.12564Z" fill="white"/>
<path d="M10.1087 7.99373C10.7793 7.68926 11.3515 7.78191 11.7723 8.25331C11.9527 8.45792 12.0639 8.71425 12.09 8.98578C12.1162 9.2573 12.056 9.53016 11.918 9.76545C11.5821 10.3266 11.0756 10.4715 10.1667 10.2552C10.1667 10.556 10.1667 10.8527 10.1667 11.1494C10.1691 11.2304 10.1619 11.3114 10.145 11.3906C10.1239 11.477 10.0731 11.5532 10.0016 11.606C9.93012 11.6588 9.84236 11.6848 9.75362 11.6796C9.6615 11.6735 9.57475 11.6341 9.50961 11.5686C9.44448 11.5032 9.40543 11.4163 9.39977 11.3241C9.38997 11.169 9.39446 11.0127 9.39446 10.8568C9.39446 9.99618 9.39446 9.13556 9.39446 8.27494C9.39446 8.08801 9.39446 7.89374 9.60629 7.8117C9.80913 7.73293 9.97238 7.81823 10.1087 7.99373ZM11.3572 9.08305C11.3572 8.93594 11.2997 8.79467 11.1968 8.68948C11.094 8.58429 10.9541 8.52353 10.807 8.52023C10.7324 8.51947 10.6584 8.53342 10.5892 8.56128C10.52 8.58914 10.4569 8.63035 10.4036 8.68258C10.3503 8.7348 10.3078 8.79701 10.2786 8.86566C10.2494 8.9343 10.2339 9.00803 10.2332 9.08264C10.2347 9.23354 10.2958 9.37772 10.4033 9.4837C10.5107 9.58968 10.6557 9.64886 10.8066 9.64831C10.9537 9.64377 11.0933 9.5823 11.196 9.47686C11.2987 9.37142 11.3565 9.23024 11.3572 9.08305Z" fill="white"/>
<path d="M3.09203 7.9709C3.2961 7.90845 3.46548 7.83499 3.6422 7.80764C4.25441 7.70928 4.74703 8.11783 4.76172 8.73615C4.77315 9.2104 4.76784 9.68507 4.76172 10.1593C4.76172 10.4164 4.59479 10.594 4.37521 10.5928C4.15564 10.5915 3.99279 10.4197 3.99075 10.1605C3.98789 9.7471 3.99361 9.33366 3.98789 8.92022C3.98463 8.68513 3.8581 8.51576 3.65649 8.46229C3.45487 8.40883 3.28672 8.47331 3.17693 8.63983C3.12319 8.73228 3.09502 8.83737 3.0953 8.9443C3.08591 9.35244 3.0953 9.75771 3.08918 10.1642C3.08305 10.4826 2.82103 10.6707 2.5586 10.5552C2.40963 10.4903 2.32188 10.3756 2.32147 10.2087C2.32147 9.14429 2.31821 8.08028 2.32147 7.01586C2.32064 6.96655 2.32975 6.91759 2.34825 6.87188C2.36675 6.82617 2.39426 6.78465 2.42915 6.7498C2.46404 6.71495 2.50559 6.68748 2.55132 6.66903C2.59705 6.65058 2.64602 6.64153 2.69533 6.64242C2.91205 6.63833 3.07897 6.78853 3.08673 7.02239C3.09979 7.33869 3.09203 7.65622 3.09203 7.9709Z" fill="white"/>
<path d="M15.9871 10.3291C16.0013 10.2701 16.0189 10.2119 16.0397 10.1548C16.4683 9.08754 16.9001 8.02149 17.3262 6.9534C17.3976 6.77504 17.5009 6.6477 17.6984 6.62362C18.0184 6.58281 18.2326 6.90524 18.1012 7.23583C17.8425 7.88884 17.5768 8.54186 17.3135 9.19488C17.1315 9.64709 16.9515 10.1005 16.7642 10.5499C16.7304 10.6399 16.6644 10.7143 16.579 10.7586C16.4936 10.8029 16.3949 10.8141 16.3017 10.7899C16.1112 10.745 15.985 10.5768 15.9871 10.3291Z" fill="white"/>
<path d="M14.2194 10.2899C14.2452 10.2009 14.2603 10.1267 14.2868 10.0597C14.7174 8.98592 15.1459 7.9117 15.5867 6.84239C15.6336 6.72852 15.7402 6.59179 15.8459 6.562C15.9863 6.53275 16.1326 6.55909 16.254 6.63546C16.4021 6.73505 16.434 6.91667 16.365 7.09339C16.2315 7.43337 16.0936 7.77171 15.9569 8.11047C15.6491 8.87613 15.3439 9.64301 15.0333 10.4054C14.8986 10.7352 14.5206 10.8038 14.326 10.5368C14.2709 10.4654 14.2513 10.3687 14.2194 10.2899Z" fill="white"/>
<path d="M8.38351 8.55371V9.94342C8.38351 10.0177 8.38637 10.0924 8.38351 10.1667C8.37249 10.4148 8.21699 10.5834 8.00231 10.5826C7.78763 10.5817 7.6252 10.4095 7.62234 10.1654C7.61703 9.69853 7.62234 9.23163 7.62234 8.76431V8.54963C7.27134 8.48923 7.13258 8.37699 7.14074 8.17292C7.14768 7.97661 7.28359 7.87254 7.61867 7.82438C7.61867 7.69785 7.61622 7.56562 7.61867 7.43338C7.62438 7.18279 7.77253 7.01831 7.9917 7.01382C8.21781 7.00933 8.37861 7.18075 8.38474 7.43665C8.38759 7.56399 8.38474 7.69132 8.38474 7.83091C8.64839 7.84519 8.92715 7.83336 8.95327 8.18272C8.96878 8.40026 8.8296 8.48719 8.38351 8.55371Z" fill="white"/>
<path d="M5.56085 7.82192C5.56085 7.68724 5.55636 7.55949 5.56085 7.43256C5.57146 7.16891 5.72696 7.00606 5.95511 7.01381C6.17264 7.02116 6.31631 7.18809 6.31957 7.4395C6.32161 7.56684 6.31957 7.69418 6.31957 7.81825C6.7926 7.89661 6.89994 7.97008 6.89096 8.20108C6.8828 8.42229 6.76362 8.49739 6.3163 8.5484C6.3163 8.61534 6.3163 8.68676 6.3163 8.75778C6.3163 9.20673 6.31957 9.65159 6.31957 10.0985C6.31957 10.4071 6.18774 10.5777 5.95225 10.5817C5.71675 10.5858 5.56901 10.4058 5.56819 10.092C5.56819 9.65159 5.56819 9.21162 5.56819 8.77165V8.55657C5.19353 8.47494 5.08578 8.38597 5.08741 8.18027C5.08904 7.97457 5.20944 7.87906 5.56085 7.82192Z" fill="white"/>
<path d="M13.6415 10.3009C13.6422 10.3566 13.6315 10.4118 13.6103 10.4633C13.589 10.5147 13.5576 10.5613 13.5179 10.6003C13.4782 10.6393 13.431 10.6699 13.3791 10.6902C13.3273 10.7105 13.2719 10.7201 13.2162 10.7185C13.1039 10.7175 12.9964 10.6728 12.9166 10.5939C12.8367 10.5149 12.7907 10.4079 12.7885 10.2956C12.791 10.18 12.8388 10.07 12.9216 9.98928C13.0045 9.90858 13.1157 9.86367 13.2313 9.86423C13.287 9.86592 13.3417 9.87856 13.3924 9.90143C13.4432 9.9243 13.4889 9.95695 13.527 9.99752C13.5651 10.0381 13.5948 10.0858 13.6145 10.1378C13.6341 10.1899 13.6433 10.2453 13.6415 10.3009Z" fill="white"/>
<path d="M13.6415 8.69778C13.6441 8.75338 13.6353 8.80892 13.6157 8.86103C13.5962 8.91313 13.5662 8.96072 13.5277 9.00091C13.4892 9.0411 13.4429 9.07304 13.3917 9.09481C13.3405 9.11658 13.2854 9.12772 13.2297 9.12755C13.114 9.12996 13.002 9.08637 12.9184 9.00633C12.8348 8.9263 12.7863 8.81636 12.7836 8.70064C12.7881 8.58857 12.8353 8.48245 12.9155 8.40405C12.9957 8.32566 13.1029 8.28093 13.215 8.27904C13.2706 8.27823 13.3258 8.28845 13.3774 8.30911C13.429 8.32977 13.476 8.36046 13.5157 8.3994C13.5553 8.43835 13.5869 8.48477 13.6085 8.53599C13.6301 8.5872 13.6413 8.6422 13.6415 8.69778Z" fill="white"/>
<path d="M12.4473 12.6857C12.4472 12.6332 12.4576 12.5813 12.4779 12.5329C12.4982 12.4845 12.528 12.4407 12.5655 12.404C12.603 12.3673 12.6475 12.3385 12.6963 12.3193C12.7451 12.3001 12.7973 12.2909 12.8497 12.2922C12.9039 12.291 12.9577 12.3007 13.008 12.3208C13.0582 12.3408 13.104 12.3707 13.1425 12.4088C13.1809 12.4469 13.2113 12.4924 13.2319 12.5424C13.2524 12.5925 13.2626 12.6462 13.262 12.7004C13.258 12.8064 13.2134 12.9068 13.1374 12.9808C13.0614 13.0548 12.9599 13.0967 12.8538 13.0979C12.7998 13.0986 12.7461 13.0883 12.6961 13.0678C12.6461 13.0472 12.6008 13.0168 12.5628 12.9783C12.5249 12.9398 12.4951 12.8941 12.4752 12.8438C12.4554 12.7935 12.4459 12.7397 12.4473 12.6857Z" fill="white"/>
</g>
<defs>
<clipPath id="clip0_41_6747">
<rect width="20.7949" height="18" fill="white"/>
</clipPath>
</defs>
</svg>
