<svg width="24" height="18" viewBox="0 0 24 18" fill="none" xmlns="http://www.w3.org/2000/svg">
<g clip-path="url(#clip0_41_6732)">
<path d="M23.3477 13.2541C23.313 13.3921 23.2808 13.5307 23.2437 13.6675C23.0705 14.3022 22.6948 14.863 22.1738 15.2647C21.6527 15.6663 21.0147 15.8869 20.3569 15.8928C19.3774 15.9007 18.3972 15.8977 17.4171 15.8928C17.2663 15.8928 17.1812 15.9299 17.0985 16.0716C16.5325 17.0444 15.6812 17.5789 14.5449 17.5776C13.4085 17.5764 12.5579 17.0468 11.9912 16.0704C11.9085 15.9281 11.8222 15.8928 11.672 15.8928C8.84597 15.8965 6.0175 15.8709 3.1951 15.9044C1.41545 15.9257 0.192131 14.6434 0.0334396 13.3118C0.0334396 13.2918 0.0121611 13.2735 0.00121689 13.251V12.7038C0.167812 12.2916 0.473034 12.1238 0.913235 12.1517C1.2367 12.173 1.56198 12.156 1.91098 12.156V7.75277C1.91098 7.69197 1.91098 7.63117 1.91098 7.57036C1.91949 7.33689 2.04657 7.19644 2.24904 7.19644C2.4515 7.19644 2.58952 7.33628 2.59196 7.56793C2.59743 8.11514 2.59196 8.66235 2.59196 9.20592V9.47952C2.68437 9.48378 2.76402 9.49047 2.84367 9.49047C6.62065 9.49047 10.3974 9.48905 14.174 9.48621C14.2907 9.4821 14.4028 9.43932 14.4926 9.36461C15.635 8.3699 17.2633 8.37476 18.4021 9.38163C18.46 9.43866 18.5349 9.47518 18.6155 9.4856C19.3141 9.49351 20.0139 9.49047 20.7484 9.49047V1.1607C20.7484 0.775218 20.6536 0.681585 20.262 0.680977C19.3275 0.680977 18.393 0.684017 17.4585 0.676721C17.3442 0.676721 17.1958 0.648144 17.1277 0.573967C17.0596 0.499789 17.0025 0.31921 17.0438 0.235912C17.0773 0.177452 17.1233 0.127093 17.1784 0.0884198C17.2336 0.0497469 17.2966 0.0237103 17.363 0.0121632C17.7643 -0.0151974 18.168 0.00121881 18.5705 0.000610795C19.1558 0.000610795 19.7411 0.000610795 20.3265 0.000610795C21.0178 0.000610795 21.4306 0.412843 21.4306 1.10537C21.4306 4.67764 21.4306 8.24972 21.4306 11.8216V12.156C21.7225 12.156 22.0076 12.156 22.2922 12.156C22.429 12.156 22.567 12.1481 22.7026 12.1615C23.0364 12.1961 23.2163 12.4205 23.3428 12.7038L23.3477 13.2541ZM2.61445 10.1842V12.1602H10.6773C11.0318 12.1602 11.1941 12.2636 11.1996 12.4928C11.2051 12.7221 11.0336 12.843 10.67 12.843H0.686444C0.686444 12.9136 0.686444 12.9513 0.686444 12.989C0.717453 14.2159 1.76992 15.2094 3.05769 15.2113C5.85455 15.2161 8.65141 15.2161 11.4483 15.2113H11.6586C11.4981 13.6389 12.1347 12.5579 13.552 11.9073C13.4748 11.3157 13.5848 10.7442 13.8505 10.1824L2.61445 10.1842ZM17.2773 13.6025C18.3559 13.22 18.9426 11.9505 18.5669 10.836C18.1759 9.67591 16.9179 9.03567 15.77 9.41325C14.7437 9.7507 13.9946 10.9059 14.2548 11.7529C15.6612 11.7073 16.6699 12.3147 17.2773 13.6025ZM14.5412 16.9009C15.1321 16.9037 15.7 16.6717 16.12 16.2561C16.54 15.8404 16.7778 15.275 16.7811 14.6841C16.7826 14.3896 16.7259 14.0977 16.6143 13.8252C16.5028 13.5526 16.3385 13.3047 16.131 13.0957C15.9235 12.8868 15.6768 12.7208 15.4051 12.6073C15.1333 12.4938 14.8418 12.4351 14.5473 12.4345C13.9567 12.434 13.3898 12.6671 12.9704 13.083C12.551 13.4988 12.3131 14.0637 12.3086 14.6543C12.3062 14.949 12.3622 15.2412 12.4735 15.5141C12.5848 15.787 12.7491 16.035 12.9569 16.244C13.1647 16.4529 13.4119 16.6186 13.6842 16.7313C13.9564 16.8441 14.2484 16.9017 14.543 16.9009H14.5412ZM22.6521 12.8698C22.6343 12.8601 22.6153 12.8528 22.5956 12.8479C21.4568 12.8479 20.3186 12.8424 19.1798 12.8479C19.1416 12.8534 19.1051 12.8671 19.0727 12.8881C19.0404 12.9091 19.013 12.9369 18.9925 12.9695C18.6705 13.5331 18.1742 13.9769 17.5782 14.2342C17.5501 14.2465 17.525 14.2649 17.5047 14.288C17.4845 14.3112 17.4695 14.3384 17.4609 14.3679C17.45 14.644 17.456 14.92 17.456 15.2131H20.1988C20.3205 15.2164 20.4423 15.2129 20.5636 15.2027C21.7614 15.0726 22.6995 14.0287 22.6539 12.8698H22.6521ZM19.308 12.1402H20.7399V10.1945H19.0375C19.3438 10.7951 19.4395 11.4812 19.3093 12.1426L19.308 12.1402Z" fill="white"/>
<path d="M13.0796 7.60927C13.2449 8.05859 13.2012 8.32247 12.9373 8.52129C12.8311 8.6032 12.7014 8.64868 12.5673 8.65098C12.4332 8.65328 12.302 8.61228 12.1931 8.53406C11.9164 8.34132 11.869 8.08535 12.0271 7.60745H10.7339C10.8895 8.09933 10.8384 8.35652 10.5514 8.54379C10.4406 8.61919 10.3083 8.65668 10.1744 8.65065C10.0405 8.64462 9.91208 8.5954 9.80846 8.51035C9.54701 8.30058 9.50445 8.0288 9.68685 7.61475C9.63396 7.60745 9.5841 7.59772 9.53485 7.59529C9.31232 7.58374 9.19436 7.47369 9.15302 7.25055C8.93414 6.07404 8.70856 4.89936 8.48421 3.72407C8.38145 3.18112 8.26897 2.63938 8.1802 2.09399C8.14919 1.90794 8.06407 1.85383 7.89139 1.86538C7.74 1.87511 7.58739 1.87085 7.43538 1.86538C7.19218 1.85748 7.04018 1.71581 7.04626 1.51334C7.05234 1.31087 7.19522 1.1917 7.43234 1.18745C7.61475 1.18441 7.79715 1.18745 7.97955 1.18745C8.4386 1.19353 8.73227 1.43065 8.83442 1.8818C8.85935 1.99124 8.87941 2.1019 8.90495 2.22472H13.8165C14.3223 2.22472 14.4591 2.38341 14.3679 2.87651C14.1855 3.84933 14.0031 4.8264 13.8159 5.80105C13.7611 6.09046 13.6602 6.17254 13.3434 6.17315C12.2117 6.17315 11.0798 6.17315 9.94769 6.17315H9.64976C9.68085 6.39125 9.72327 6.60759 9.77684 6.82129C9.79082 6.86993 9.9179 6.91128 9.99329 6.91128C11.0488 6.91736 12.1049 6.91553 13.161 6.91553C13.2291 6.91553 13.2978 6.91553 13.3659 6.91918C13.4471 6.91947 13.5249 6.95139 13.583 7.00815C13.641 7.06491 13.6746 7.14205 13.6766 7.22319C13.6924 7.41471 13.5891 7.54178 13.3982 7.57948C13.2926 7.59522 13.1862 7.60516 13.0796 7.60927ZM10.2146 3.85784C10.1952 3.56295 10.1812 3.29239 10.1538 3.02243C10.1463 2.99678 10.1324 2.97343 10.1135 2.95453C10.0946 2.93562 10.0712 2.92175 10.0456 2.9142C9.71421 2.90569 9.38224 2.90934 9.03081 2.90934C9.08431 3.20362 9.12748 3.47053 9.18585 3.73441C9.19603 3.76303 9.21303 3.78872 9.23539 3.80928C9.25774 3.82983 9.28478 3.84462 9.31414 3.85237C9.6066 3.86331 9.89966 3.85784 10.2146 3.85784ZM13.4912 3.8475C13.552 3.53012 13.6043 3.23037 13.6602 2.92454H12.5737C12.5518 3.23827 12.5311 3.5362 12.5099 3.8475H13.4912ZM10.9017 3.83777H11.8246C11.8465 3.52525 11.8672 3.2328 11.8897 2.92575H10.8378C10.8567 3.23766 10.8779 3.53681 10.8986 3.83777H10.9017ZM9.3409 4.55219C9.39501 4.84586 9.44122 5.11278 9.49655 5.37787C9.50506 5.41921 9.55735 5.48123 9.58836 5.48245C9.83156 5.49157 10.079 5.48731 10.3356 5.48731L10.2632 4.55219H9.3409ZM12.3919 5.49096C12.6381 5.49096 12.843 5.49947 13.0461 5.48549C13.0784 5.47934 13.1087 5.46545 13.1345 5.44501C13.1602 5.42457 13.1806 5.39819 13.1939 5.36814C13.2547 5.10548 13.2997 4.83917 13.352 4.56252H12.457C12.432 4.87504 12.412 5.16689 12.3889 5.49096H12.3919ZM10.9509 4.55584C10.9777 4.88234 11.002 5.17966 11.0275 5.49035C11.2342 5.49035 11.4087 5.49825 11.5814 5.48488C11.6104 5.47848 11.6373 5.46495 11.6597 5.44552C11.6821 5.42609 11.6993 5.40137 11.7097 5.37361C11.7383 5.10548 11.7504 4.83552 11.7705 4.54185C11.5565 4.54185 11.368 4.54185 11.1801 4.54185C11.109 4.54307 11.0421 4.54854 10.9479 4.55584H10.9509Z" fill="white"/>
<path d="M9.22233 0.0048631C11.2896 0.0048631 13.3556 0.0048631 15.4204 0.0048631C15.4962 0.00171053 15.5722 0.00313133 15.6478 0.0091187C15.729 0.0127345 15.8057 0.0476913 15.8617 0.106647C15.9177 0.165602 15.9487 0.243969 15.9482 0.325285C15.9569 0.402203 15.9363 0.479582 15.8904 0.541928C15.8445 0.604275 15.7767 0.646988 15.7007 0.661517C15.6043 0.680939 15.5059 0.688494 15.4076 0.684013H3.12579C3.02751 0.675817 2.92855 0.682168 2.83212 0.702861C2.6333 0.763662 2.59439 0.927825 2.595 1.11874C2.59864 2.61243 2.59864 4.10591 2.595 5.59918C2.595 5.65999 2.595 5.72079 2.595 5.78159C2.58588 6.02479 2.4509 6.17254 2.24235 6.16768C2.0338 6.16281 1.91402 6.02297 1.91341 5.78524C1.91341 4.19346 1.90916 2.60168 1.91341 1.0093C1.91341 0.420743 2.36213 0.0048625 2.97622 0.00425449C5.05846 0.00263313 7.1405 0.00283639 9.22233 0.0048631Z" fill="white"/>
<path d="M14.0785 14.3193C14.3619 14.3862 14.799 14.1916 14.8081 14.6628C14.8148 15.1444 14.3673 14.9668 14.0931 15.0276C14.2439 15.3809 14.7255 15.5086 15.0246 15.2793C15.0605 15.252 15.0903 15.2185 15.1255 15.1875C15.2818 15.0659 15.4715 15.0696 15.5979 15.2009C15.7244 15.3322 15.7232 15.5177 15.5979 15.6733C15.3037 16.0381 14.7467 16.1719 14.2451 16.0035C14.0484 15.9417 13.8681 15.8364 13.7176 15.6954C13.5672 15.5543 13.4505 15.3811 13.3763 15.1888C13.3337 15.0836 13.2978 15.0118 13.1647 14.9991C13.1222 14.9983 13.0804 14.9887 13.0419 14.9708C13.0034 14.9529 12.969 14.9272 12.9411 14.8952C12.9131 14.8633 12.8922 14.8258 12.8796 14.7852C12.867 14.7447 12.863 14.702 12.868 14.6598C12.8747 14.4707 12.9896 14.3692 13.1811 14.3284C13.2217 14.3133 13.2588 14.2901 13.2902 14.2602C13.3215 14.2303 13.3465 14.1944 13.3635 14.1545C13.6979 13.3641 14.6118 13.0285 15.3529 13.4359C15.5961 13.5684 15.6752 13.763 15.5688 13.9533C15.4624 14.1436 15.2879 14.1643 15.0343 14.0396C14.6531 13.8511 14.2597 13.96 14.0785 14.3193Z" fill="white"/>
</g>
<defs>
<clipPath id="clip0_41_6732">
<rect width="23.3477" height="17.5776" fill="white"/>
</clipPath>
</defs>
</svg>
