<svg width="19" height="20" viewBox="0 0 19 20" fill="none" xmlns="http://www.w3.org/2000/svg">
<g clip-path="url(#clip0_41_6773)">
<path d="M9.47696 19.6133H1.10053C0.380848 19.6133 0.000865485 19.2365 -0.000873566 18.5189C-0.000873566 15.0837 0.000673248 11.6485 0.00376489 8.21327C0.00376489 8.11212 0.044342 7.97763 0.115353 7.91503C2.98942 5.37891 5.86727 2.84763 8.74887 0.321172C9.2332 -0.104026 9.76332 -0.106344 10.2508 0.321172C13.1319 2.84898 16.01 5.38026 18.8852 7.91503C18.953 7.98366 18.9922 8.07542 18.9951 8.17183C19.0005 11.6434 19.0017 15.1148 18.9988 18.5861C18.9988 19.2148 18.5931 19.6128 17.9621 19.613C15.1338 19.6138 12.3054 19.6139 9.47696 19.6133ZM0.880246 9.16917V18.1175C2.12888 16.8691 3.34564 15.6538 4.54356 14.4541L5.20526 15.0793L1.55326 18.7313H17.4998L13.8391 15.0718L14.4767 14.4263L18.1174 18.0653V9.18482C18.0392 9.2483 17.9847 9.28946 17.9337 9.33438C15.403 11.559 12.872 13.7841 10.3407 16.0097C9.74738 16.5314 9.26247 16.5358 8.6738 16.0187C6.21208 13.8567 3.75152 11.6935 1.29211 9.52916C1.16371 9.41699 1.03676 9.30511 0.880246 9.16917ZM17.8969 8.20922C17.8572 8.16719 17.8389 8.14458 17.818 8.12603C15.1132 5.74778 12.4082 3.36934 9.70303 0.990707C9.53927 0.845786 9.42826 0.872452 9.27812 1.00491C6.59767 3.36596 3.91509 5.72537 1.23038 8.08314C1.18893 8.11937 1.15386 8.16284 1.11096 8.20806C1.15821 8.25269 1.19327 8.28834 1.23066 8.32139L7.01562 13.4078C7.77095 14.0716 8.52946 14.7315 9.2787 15.4019C9.44275 15.5486 9.57115 15.559 9.72013 15.399C9.7781 15.3358 9.84969 15.2831 9.91491 15.2266L15.9619 9.91175C16.6013 9.34887 17.2418 8.78542 17.8969 8.20922Z" fill="white"/>
<path d="M10.9818 11.0554L11.3792 11.8189C10.6807 12.1757 9.9552 12.3357 9.19118 12.2667C7.29416 12.0957 5.85104 10.7847 5.48352 8.91843C5.04528 6.69187 6.68868 4.43023 8.94017 4.16155C11.1664 3.89605 13.0942 5.28208 13.5049 7.47937C13.5929 7.94884 13.6098 8.42887 13.555 8.90336C13.4307 9.93259 12.3087 10.4418 11.4131 9.9152L11.2948 9.84593C10.992 10.2717 10.6042 10.5653 10.0966 10.6937C8.86771 11.0053 7.66197 10.3679 7.46575 9.19552C7.35387 8.53092 7.37445 7.81906 7.47618 7.14982C7.60893 6.2774 8.44135 5.67713 9.32943 5.64032C10.1033 5.60815 10.7549 5.82901 11.2282 6.46898C11.5006 6.83766 11.6067 7.25793 11.6067 7.71153C11.6067 8.06572 11.6067 8.42049 11.6258 8.77351C11.6421 9.05872 11.8612 9.2474 12.1423 9.25465C12.4235 9.2619 12.6748 9.06915 12.7038 8.78656C12.9159 6.69969 11.6412 5.3812 10.1616 5.05716C8.41991 4.67573 6.63564 5.8722 6.33565 7.63038C6.02813 9.43609 7.26518 11.1412 9.04336 11.3789C9.71811 11.4682 10.3514 11.3551 10.9818 11.0554ZM10.7227 8.24861H10.7369C10.7369 8.08224 10.7369 7.91616 10.7369 7.74979C10.7328 6.95157 10.2836 6.50811 9.48044 6.50927C8.74888 6.51072 8.27933 6.94983 8.26542 7.65849C8.2576 8.04862 8.2518 8.44106 8.2718 8.82916C8.30078 9.39464 8.70656 9.80883 9.27001 9.88158C9.93665 9.96853 10.4752 9.68738 10.6668 9.15118C10.6983 9.06288 10.7163 8.97036 10.7204 8.8767C10.7282 8.66743 10.7227 8.45787 10.7227 8.24861Z" fill="white"/>
</g>
<defs>
<clipPath id="clip0_41_6773">
<rect width="19" height="19.6136" fill="white"/>
</clipPath>
</defs>
</svg>
