<svg width="20" height="18" viewBox="0 0 20 18" fill="none" xmlns="http://www.w3.org/2000/svg">
<g clip-path="url(#clip0_41_6867)">
<path d="M10.8445 14.8435C10.9587 15.8444 11.3573 16.6389 12.2072 17.1676C12.3303 17.2416 12.4588 17.3064 12.5916 17.3614C12.77 17.4388 12.8776 17.559 12.8304 17.7594C12.7832 17.9598 12.6338 18.001 12.4521 18.001C10.9313 18.001 9.41065 18.001 7.89019 18.001H5.8769C5.62324 18.001 5.50026 17.9247 5.46457 17.7501C5.42889 17.5755 5.50685 17.4536 5.73909 17.3515C6.77676 16.8903 7.28571 16.0514 7.44438 14.9627C7.44597 14.9232 7.44413 14.8837 7.43889 14.8446H7.18853C5.34598 14.8446 3.50343 14.8243 1.66143 14.8534C0.716 14.8682 -0.00323131 14.1474 0.00225901 13.192C0.0225732 9.8704 0.00994511 6.54876 0.0104941 3.22547C0.0104941 2.19823 0.646822 1.5652 1.68065 1.5652C6.40671 1.5652 11.1328 1.56629 15.8588 1.56849C15.9352 1.57129 16.0112 1.55691 16.0812 1.5264C16.1512 1.4959 16.2135 1.45005 16.2635 1.39225C16.6138 1.02605 16.9772 0.670824 17.3357 0.313954C17.7629 -0.108252 18.307 -0.107154 18.7374 0.313954C18.9378 0.510507 19.1377 0.708158 19.3315 0.9113C19.7229 1.32088 19.7191 1.86167 19.3216 2.2696C19.0251 2.57322 18.7259 2.87354 18.4195 3.16892C18.3752 3.2099 18.3405 3.26022 18.318 3.31624C18.2955 3.37226 18.2857 3.43258 18.2894 3.49285C18.2927 6.73286 18.2927 9.97215 18.2894 13.2107C18.2894 14.0343 17.8156 14.6486 17.0585 14.8067C16.9169 14.8308 16.7732 14.8404 16.6297 14.8353C14.7937 14.8375 12.9581 14.8375 11.1229 14.8353L10.8445 14.8435ZM15.4268 2.2707L15.3905 2.19823H1.69383C0.980084 2.19823 0.63584 2.53918 0.63584 3.25402V13.158C0.63584 13.8717 0.983379 14.2154 1.69602 14.2154H16.5929C17.3226 14.2154 17.6635 13.8772 17.6635 13.1503C17.6635 10.1709 17.6635 7.19131 17.6635 4.21153V3.94854C17.5702 4.03749 17.5153 4.08745 17.4631 4.13961C15.715 5.88845 13.966 7.6362 12.216 9.38286C12.122 9.48097 12.0027 9.5511 11.8712 9.58545C11.2958 9.70514 10.7183 9.80506 10.1363 9.90608C9.82443 9.96099 9.66192 9.78859 9.71792 9.48058C9.81894 8.93155 9.91338 8.37593 10.032 7.828C10.066 7.67111 10.1419 7.52636 10.2516 7.40909C11.9115 5.73674 13.576 4.06933 15.245 2.40686C15.3023 2.35728 15.3631 2.31178 15.4268 2.2707ZM11.9261 8.82284C11.9691 8.75973 12.0161 8.6994 12.0667 8.64221C12.7189 7.98704 13.3721 7.33314 14.0262 6.68052C15.6191 5.08797 17.2113 3.49577 18.8027 1.90395C19.0575 1.6492 19.0564 1.52951 18.8027 1.27146C18.6627 1.13036 18.5216 0.99036 18.3816 0.850357C18.095 0.563214 17.9841 0.561567 17.7036 0.842122C15.4529 3.09388 13.2019 5.34491 10.9505 7.59521C10.9044 7.64188 10.8621 7.69184 10.8308 7.72588L11.9261 8.82284ZM6.91896 17.3367H11.2876C11.0499 16.96 10.7633 16.5949 10.5766 16.1837C10.3899 15.7725 10.2961 15.3053 10.1555 14.8413H8.54684C8.10212 14.8413 8.10212 14.8413 8.02031 15.2849C8.01537 15.3118 8.00933 15.3398 8.00329 15.3651C7.84243 16.12 7.50862 16.7811 6.91951 17.3367H6.91896ZM11.1761 9.0743L10.5492 8.46433C10.5085 8.68833 10.463 8.93759 10.4124 9.2143L11.1761 9.0743Z" fill="white"/>
<path d="M4.82763 8.5572C4.7837 8.10974 4.78974 7.6502 4.68707 7.21646C4.44715 6.20185 3.51105 5.46396 2.47118 5.41564C2.19667 5.40246 1.92215 5.4118 1.64764 5.40741C1.39893 5.40356 1.25014 5.28058 1.25178 5.08732C1.25343 4.89406 1.40277 4.77272 1.65148 4.77218C2.178 4.77218 2.70562 4.74747 3.21951 4.90614C3.85309 5.09991 4.40839 5.49061 4.80479 6.02148C5.2012 6.55235 5.41806 7.19577 5.42388 7.85828C5.43211 8.36504 5.42387 8.87179 5.42662 9.37855C5.43211 10.223 5.98883 10.7989 6.83269 10.8203C7.07183 10.8333 7.31165 10.816 7.54643 10.7687C8.1059 10.6386 8.49241 10.1823 8.56818 9.61573C8.57587 9.55479 8.58081 9.4933 8.58849 9.43235C8.61375 9.2369 8.73399 9.11941 8.90528 9.1227C9.07658 9.126 9.21713 9.26216 9.21274 9.462C9.211 9.73668 9.15228 10.008 9.04029 10.2588C8.9283 10.5096 8.76549 10.7345 8.56214 10.9191C8.00432 11.444 7.31968 11.5231 6.60594 11.4407C5.53149 11.3139 4.81445 10.4964 4.79029 9.40381C4.78425 9.12325 4.79029 8.84215 4.79029 8.56159L4.82763 8.5572Z" fill="white"/>
</g>
<defs>
<clipPath id="clip0_41_6867">
<rect width="19.6246" height="18" fill="white"/>
</clipPath>
</defs>
</svg>
