<svg width="21" height="18" viewBox="0 0 21 18" fill="none" xmlns="http://www.w3.org/2000/svg">
<g clip-path="url(#clip0_41_6768)">
<path d="M1.07927 2.88094H1.32101C2.82964 2.88094 4.33646 2.88094 5.84509 2.88094C5.99077 2.88727 6.13621 2.86377 6.27248 2.81189C6.40876 2.76001 6.533 2.68083 6.63758 2.57922C6.93115 2.30035 7.32337 2.14934 7.72816 2.15935H18.2831C18.5721 2.15935 18.7285 2.29203 18.7248 2.52287C18.7212 2.75371 18.5649 2.8864 18.2741 2.8864C14.8169 2.8864 11.3586 2.8864 7.89902 2.8864C7.73877 2.8775 7.5784 2.90146 7.42774 2.95678C7.27708 3.0121 7.13932 3.09763 7.02292 3.20812C6.87283 3.34531 6.69718 3.45157 6.50599 3.52081C6.3148 3.59005 6.11184 3.62091 5.90871 3.61163C4.39402 3.61163 2.87933 3.61163 1.36463 3.61163H1.08654V13.5686C1.08654 14.1139 1.36282 14.4011 1.91356 14.4011H4.32192C4.62183 14.4011 4.78541 14.5338 4.77996 14.7646C4.77451 14.9955 4.61638 15.1136 4.32374 15.1154C3.49853 15.1154 2.67332 15.1154 1.84812 15.1154C1.65235 15.1217 1.45737 15.0879 1.27516 15.016C1.09296 14.9441 0.927378 14.8357 0.788621 14.6975C0.649864 14.5592 0.540862 14.394 0.468311 14.2121C0.395761 14.0302 0.361196 13.8353 0.366752 13.6395C0.366752 9.58255 0.366752 5.52318 0.366752 1.46138C0.361012 1.26733 0.39488 1.07415 0.466286 0.893633C0.537693 0.713113 0.64514 0.54904 0.78207 0.41143C0.918999 0.27382 1.08254 0.16556 1.2627 0.0932598C1.44287 0.0209591 1.63588 -0.0138663 1.82995 -0.00908876H19.0684C19.2603 -0.0127935 19.4511 0.0222876 19.6292 0.0940516C19.8073 0.165816 19.969 0.272787 20.1048 0.408558C20.2406 0.544329 20.3476 0.706107 20.4193 0.884202C20.4911 1.0623 20.5262 1.25304 20.5225 1.44502C20.5225 5.51772 20.5225 9.59043 20.5225 13.6631C20.5259 13.855 20.4907 14.0457 20.4188 14.2236C20.347 14.4016 20.24 14.5633 20.1043 14.699C19.9685 14.8347 19.8069 14.9417 19.6289 15.0136C19.4509 15.0854 19.2603 15.1207 19.0684 15.1172C18.2504 15.1172 17.4325 15.1172 16.6146 15.1172C16.3383 15.1172 16.1674 14.9682 16.1747 14.7537C16.182 14.5392 16.3565 14.4047 16.6146 14.4047H18.9993C19.521 14.4047 19.8081 14.1194 19.8081 13.5977V1.53408C19.8081 0.999697 19.5228 0.719782 18.9829 0.719782H1.8972C1.36282 0.719782 1.07926 1.00697 1.07745 1.53953C1.07745 1.97395 1.07927 2.40836 1.07927 2.88094Z" fill="white"/>
<path d="M13.3555 13.6304L14.1171 14.3884C14.7115 14.9809 15.3095 15.5717 15.8984 16.1715C16.052 16.3279 16.1539 16.5277 16.1903 16.7438C16.2267 16.96 16.1959 17.1821 16.102 17.3802C16.0103 17.5749 15.8625 17.7378 15.6776 17.8479C15.4926 17.958 15.279 18.0104 15.0641 17.9982C14.769 17.9763 14.4936 17.8416 14.2953 17.6219C13.5464 16.8658 12.7866 16.1188 12.0414 15.3572C12.016 15.3187 11.9829 15.2858 11.9443 15.2606C11.9057 15.2354 11.8623 15.2183 11.8168 15.2105C11.7714 15.2027 11.7248 15.2042 11.6799 15.2151C11.6351 15.2259 11.5929 15.2458 11.5561 15.2736C8.31162 16.9785 5.0417 14.6428 4.6909 11.6038C4.42371 9.29356 6.14501 6.99426 8.44794 6.57075C9.40313 6.38043 10.3939 6.49356 11.2816 6.89429C11.3977 6.93974 11.4928 7.02649 11.5488 7.13785C11.5609 7.20048 11.5604 7.26488 11.5473 7.3273C11.5341 7.38972 11.5087 7.4489 11.4725 7.50138C11.3725 7.64679 11.2071 7.62316 11.0435 7.57045C10.6788 7.43695 10.3053 7.32885 9.92567 7.24691C8.14439 6.93973 6.48308 8.01577 5.78148 9.49168C4.67272 11.7892 6.06503 14.5193 8.60426 15.0318C9.11463 15.1454 9.64307 15.1516 10.156 15.0499C10.6688 14.9482 11.155 14.7409 11.5834 14.4411C11.8542 14.2593 11.9723 14.2702 12.2086 14.5065C13.0738 15.3717 13.9354 16.2387 14.806 17.0985C14.8996 17.1916 15.0207 17.2522 15.1514 17.2711C15.2095 17.2716 15.2669 17.2571 15.3178 17.2289C15.3687 17.2008 15.4115 17.16 15.442 17.1104C15.4725 17.0609 15.4898 17.0043 15.492 16.9462C15.4943 16.8881 15.4815 16.8303 15.4549 16.7786C15.4064 16.6944 15.3451 16.6184 15.2731 16.5532C14.437 15.7134 13.5991 14.8749 12.7594 14.0376C12.4704 13.7486 12.4722 13.6741 12.683 13.3232C13.5373 11.9255 13.5609 10.5114 12.7412 9.08999C12.7121 9.03909 12.6721 8.99547 12.6267 8.93185L11.8996 9.65891L9.95112 11.591C9.70938 11.831 9.52216 11.8292 9.28042 11.591C8.97142 11.2839 8.66606 10.9749 8.34252 10.6513C7.96263 11.0349 7.58093 11.4275 7.18832 11.7964C7.08988 11.8896 6.96028 11.9427 6.82479 11.9455C6.76116 11.9368 6.70124 11.9105 6.65182 11.8694C6.6024 11.8284 6.56547 11.7744 6.54522 11.7134C6.52497 11.6525 6.52221 11.5871 6.53725 11.5247C6.55229 11.4622 6.58453 11.4052 6.63031 11.3602C7.11017 10.864 7.60093 10.3769 8.0935 9.8952C8.26618 9.72434 8.45703 9.74252 8.64788 9.93155C8.96778 10.2478 9.28041 10.5695 9.64212 10.9331L14.0353 6.49077C13.8081 6.49077 13.6246 6.49077 13.4428 6.49077C13.1847 6.49077 13.0211 6.33809 13.0284 6.12725C13.0304 6.07627 13.0431 6.02629 13.0657 5.98056C13.0883 5.93482 13.1202 5.89435 13.1595 5.86177C13.1988 5.8292 13.2444 5.80525 13.2936 5.79149C13.3427 5.77773 13.3941 5.77446 13.4446 5.7819C13.9002 5.7819 14.3577 5.7819 14.8169 5.7819C15.1477 5.7819 15.2677 5.90186 15.2695 6.2254C15.2695 6.68344 15.2695 7.14088 15.2695 7.59771C15.2695 7.87217 15.1386 8.02304 14.9169 8.02667C14.6951 8.03031 14.5534 7.87036 14.5534 7.60316C14.5534 7.43231 14.5534 7.25963 14.5534 7.1324L13.2029 8.4829C14.2734 10.0915 14.3334 11.8328 13.3555 13.6304Z" fill="white"/>
<path d="M2.69151 1.79761C2.69302 1.84576 2.68465 1.89371 2.66692 1.9385C2.64918 1.98329 2.62246 2.02397 2.5884 2.05803C2.55434 2.0921 2.51366 2.11882 2.46887 2.13655C2.42408 2.15429 2.37613 2.16265 2.32798 2.16114C2.28076 2.1626 2.23374 2.15456 2.18969 2.1375C2.14564 2.12043 2.10547 2.09469 2.07156 2.0618C2.03765 2.02891 2.0107 1.98954 1.9923 1.94603C1.9739 1.90252 1.96443 1.85576 1.96445 1.80852C1.96294 1.76037 1.97131 1.71242 1.98904 1.66763C2.00678 1.62284 2.0335 1.58216 2.06756 1.5481C2.10162 1.51404 2.1423 1.48731 2.18709 1.46958C2.23188 1.45185 2.27983 1.44348 2.32798 1.44499C2.37526 1.44328 2.4224 1.45114 2.46656 1.46812C2.51073 1.48509 2.551 1.51082 2.58496 1.54376C2.61892 1.5767 2.64587 1.61617 2.66418 1.6598C2.68249 1.70342 2.69178 1.7503 2.69151 1.79761Z" fill="white"/>
<path d="M3.77118 2.15569C3.72424 2.15523 3.67788 2.1454 3.63479 2.12679C3.59171 2.10817 3.55277 2.08114 3.52027 2.04729C3.48776 2.01343 3.46234 1.97342 3.4455 1.92961C3.42866 1.8858 3.42074 1.83907 3.42219 1.79216C3.42264 1.74531 3.43248 1.69902 3.45112 1.65604C3.46975 1.61305 3.49681 1.57423 3.5307 1.54187C3.56458 1.50951 3.60461 1.48426 3.64841 1.46763C3.69221 1.45099 3.73889 1.44329 3.78572 1.44499C3.87991 1.44829 3.96913 1.48804 4.03458 1.55586C4.10003 1.62368 4.13658 1.71427 4.13652 1.80852C4.1323 1.90239 4.09189 1.99097 4.02377 2.05569C3.95566 2.12042 3.86514 2.15625 3.77118 2.15569Z" fill="white"/>
<path d="M5.21438 2.15568C5.16714 2.1557 5.12038 2.14623 5.07687 2.12783C5.03336 2.10944 4.99399 2.08248 4.9611 2.04857C4.92821 2.01467 4.90247 1.9745 4.88541 1.93045C4.86834 1.8864 4.8603 1.83937 4.86176 1.79215C4.86506 1.69796 4.90481 1.60873 4.97263 1.54329C5.04045 1.47784 5.13104 1.44129 5.22529 1.44135C5.2726 1.44107 5.31948 1.45037 5.3631 1.46868C5.40673 1.48699 5.4462 1.51394 5.47914 1.5479C5.51208 1.58186 5.53781 1.62213 5.55478 1.66629C5.57176 1.71046 5.57962 1.7576 5.57791 1.80488C5.57769 1.85196 5.56804 1.89853 5.54953 1.94182C5.53102 1.98512 5.50403 2.02427 5.47015 2.05697C5.43627 2.08967 5.39618 2.11525 5.35225 2.1322C5.30832 2.14915 5.26144 2.15714 5.21438 2.15568Z" fill="white"/>
</g>
<defs>
<clipPath id="clip0_41_6768">
<rect width="20.1666" height="18" fill="white" transform="translate(0.357666)"/>
</clipPath>
</defs>
</svg>
