<svg width="17" height="22" viewBox="0 0 17 22" fill="none" xmlns="http://www.w3.org/2000/svg">
<g clip-path="url(#clip0_41_6843)">
<path d="M1.41668 15.6131H0.501988C0.107611 15.6131 0 15.5073 0 15.1176V4.38723C0 4.01296 0.111159 3.90475 0.491346 3.90357C0.778703 3.90357 1.06626 3.90239 1.35401 3.90002C1.37583 3.89459 1.39689 3.88644 1.41668 3.87578V2.98296C1.41668 2.59095 1.41668 2.19953 1.41668 1.80752C1.42496 0.772794 2.19125 0.00295863 3.22715 0.00177609C6.36247 -0.00137736 9.49778 -0.00137736 12.6331 0.00177609C12.898 -0.00820579 13.1632 0.00445396 13.426 0.0396174C13.8306 0.109018 14.1978 0.319119 14.4626 0.632842C14.7274 0.946566 14.8729 1.34375 14.8734 1.7543C14.8823 2.38223 14.8734 3.01075 14.8734 3.63868V3.90594C15.2033 3.90594 15.5179 3.90594 15.8325 3.90594C16.1665 3.90594 16.2895 4.02419 16.2895 4.35649C16.2895 7.95535 16.2895 11.5544 16.2895 15.1537C16.2895 15.4972 16.1713 15.6137 15.8206 15.6149H14.8746V15.8715C14.8746 17.2826 14.8746 18.6942 14.8746 20.1062C14.8746 21.2568 14.1272 22.0012 12.9743 22.0018C9.75064 22.0018 6.52684 22.0018 3.30284 22.0018C2.16582 22.0018 1.41609 21.2526 1.4155 20.1168C1.4155 18.7049 1.4155 17.2933 1.4155 15.8821L1.41668 15.6131ZM0.724307 7.46184V14.8858H15.5717V7.46184H0.724307ZM14.168 3.89529C14.168 3.19346 14.168 2.51468 14.168 1.8359C14.168 1.15712 13.7204 0.712484 13.0446 0.712484C9.77804 0.712484 6.51147 0.712484 3.24489 0.712484C2.58149 0.712484 2.13035 1.16185 2.12739 1.82112C2.12384 2.45673 2.12739 3.09176 2.12739 3.72737C2.12739 3.78295 2.13685 3.83912 2.14276 3.89707L14.168 3.89529ZM0.718394 6.7263H15.5664V4.62433H0.718394V6.7263ZM14.1651 18.4678H2.12503V20.0784C2.12503 20.876 2.53892 21.2899 3.34245 21.2905H12.95C13.0239 21.2905 13.0978 21.2905 13.1717 21.2905C13.6997 21.2568 14.1438 20.8322 14.1609 20.3031C14.1799 19.6952 14.1651 19.091 14.1651 18.4678ZM14.1574 15.6297H2.14336V17.731H14.1574V15.6297Z" fill="white"/>
<path d="M9.56793 8.5285C9.55592 8.57837 9.54112 8.62752 9.52358 8.67572C8.82549 10.3155 8.12483 11.9543 7.42162 13.5921C7.35421 13.7494 7.23064 13.8671 7.06685 13.8245C6.93864 13.7869 6.82955 13.7019 6.76176 13.5868C6.7186 13.504 6.76176 13.3562 6.80196 13.2539C7.05207 12.6479 7.31401 12.0466 7.57062 11.4441C7.98805 10.4685 8.40529 9.49286 8.82234 8.51726C8.84983 8.44109 8.88699 8.36875 8.9329 8.30204C9.03342 8.17374 9.18006 8.10988 9.32255 8.19207C9.43608 8.2577 9.51412 8.38364 9.60754 8.48297L9.56793 8.5285Z" fill="white"/>
<path d="M12.0684 10.9941C11.57 10.4956 11.084 10.022 10.6163 9.5301C10.5685 9.47824 10.5315 9.4174 10.5075 9.35112C10.4834 9.28484 10.4728 9.21443 10.4761 9.144C10.5187 8.86256 10.8563 8.78924 11.0798 9.00387C11.3205 9.23269 11.5528 9.47216 11.7858 9.70748C12.1146 10.0362 12.4445 10.3638 12.7709 10.6949C12.9855 10.9137 12.9861 11.0881 12.7709 11.3069C12.219 11.8619 11.6662 12.4155 11.1123 12.9677C10.9155 13.1641 10.7056 13.18 10.5512 13.0186C10.3969 12.8572 10.4206 12.6585 10.621 12.4569C11.0471 12.0272 11.4744 11.5986 11.9029 11.1709C11.9531 11.1194 12.0016 11.0656 12.0684 10.9941Z" fill="white"/>
<path d="M4.2193 11.013C4.34347 11.1313 4.46113 11.2412 4.57406 11.3548C4.95484 11.735 5.33739 12.114 5.71344 12.4989C5.87722 12.6674 5.88018 12.8643 5.73946 13.0121C5.59874 13.1599 5.39002 13.1712 5.22742 13.0121C4.63969 12.4319 4.0565 11.8475 3.47785 11.259C3.3188 11.097 3.31821 10.9042 3.47785 10.7458C4.0565 10.1561 4.63871 9.5711 5.22446 8.99087C5.38765 8.83005 5.59401 8.83832 5.7365 8.98673C5.879 9.13514 5.87663 9.33263 5.71285 9.49995C5.28004 9.94223 4.83955 10.378 4.4026 10.8167C4.34879 10.8723 4.29558 10.9314 4.2193 11.013Z" fill="white"/>
<path d="M8.14652 1.42022C8.59648 1.42022 9.04644 1.42022 9.49699 1.42022C9.75715 1.42022 9.9156 1.55917 9.9156 1.77498C9.9156 1.9908 9.75596 2.12975 9.49639 2.12975C8.59648 2.12975 7.69637 2.12975 6.79606 2.12975C6.53531 2.12975 6.37744 1.99021 6.37744 1.77498C6.37744 1.55976 6.53472 1.42318 6.79665 1.42022C7.24661 1.41845 7.69657 1.42022 8.14652 1.42022Z" fill="white"/>
<path d="M10.9787 1.422C11.0728 1.422 11.163 1.45937 11.2296 1.5259C11.2961 1.59244 11.3335 1.68267 11.3335 1.77676C11.3335 1.87024 11.2966 1.95994 11.2308 2.02637C11.1651 2.0928 11.0757 2.13059 10.9823 2.13152C10.8882 2.13152 10.7979 2.09415 10.7314 2.02761C10.6649 1.96108 10.6275 1.87085 10.6275 1.77676C10.6275 1.68328 10.6644 1.59358 10.7302 1.52715C10.7959 1.46072 10.8852 1.42293 10.9787 1.422Z" fill="white"/>
<path d="M11.6859 6.03095C11.5927 6.02955 11.5038 5.99156 11.4384 5.92518C11.3731 5.8588 11.3364 5.76936 11.3364 5.67618C11.3375 5.58281 11.3754 5.49364 11.4418 5.428C11.5082 5.36236 11.5978 5.32556 11.6912 5.32556C11.7845 5.32681 11.8735 5.36473 11.939 5.43113C12.0045 5.49752 12.0412 5.58705 12.0412 5.68032C12.0401 5.7738 12.0022 5.86306 11.9357 5.92872C11.8691 5.99437 11.7793 6.03111 11.6859 6.03095Z" fill="white"/>
<path d="M13.0961 5.32498C13.1894 5.32323 13.2796 5.3583 13.3472 5.4226C13.4148 5.4869 13.4544 5.57525 13.4573 5.66851C13.4594 5.76191 13.4246 5.85236 13.3604 5.92022C13.2961 5.98808 13.2078 6.02787 13.1144 6.03096C13.021 6.03272 12.9307 5.99756 12.863 5.93314C12.7954 5.86871 12.7559 5.78021 12.7531 5.68684C12.7512 5.59355 12.7861 5.50325 12.8503 5.43552C12.9145 5.36779 13.0028 5.32807 13.0961 5.32498Z" fill="white"/>
<path d="M14.8746 5.68507C14.8715 5.77829 14.8321 5.86662 14.7649 5.93123C14.6976 5.99584 14.6078 6.03163 14.5145 6.03096C14.4211 6.02833 14.3326 5.98898 14.268 5.92146C14.2035 5.85393 14.1682 5.76368 14.1698 5.67029C14.1723 5.57702 14.2114 5.48849 14.2787 5.42386C14.346 5.35923 14.436 5.32371 14.5293 5.32498C14.6227 5.32746 14.7113 5.36667 14.7759 5.43408C14.8406 5.50149 14.876 5.59168 14.8746 5.68507Z" fill="white"/>
<path d="M8.12761 20.9345C7.84802 20.9288 7.58192 20.8132 7.38686 20.6129C7.19179 20.4125 7.08343 20.1434 7.0852 19.8637C7.08627 19.7234 7.11511 19.5846 7.17004 19.4554C7.22497 19.3262 7.30491 19.2092 7.40527 19.1111C7.50562 19.0129 7.6244 18.9356 7.75476 18.8835C7.88512 18.8315 8.0245 18.8057 8.16486 18.8077C8.44444 18.8135 8.71054 18.929 8.9056 19.1294C9.10067 19.3298 9.20903 19.5989 9.20727 19.8785C9.20619 20.0189 9.17736 20.1577 9.12242 20.2868C9.06749 20.416 8.98755 20.5331 8.88719 20.6312C8.78684 20.7294 8.66807 20.8067 8.5377 20.8587C8.40734 20.9108 8.26796 20.9366 8.12761 20.9345ZM8.49892 19.8785C8.50055 19.786 8.46598 19.6965 8.40258 19.6292C8.33918 19.5618 8.25197 19.5218 8.15954 19.5178C8.11206 19.5164 8.06478 19.5245 8.0205 19.5417C7.97622 19.5589 7.93585 19.5848 7.90177 19.6179C7.86769 19.651 7.84061 19.6906 7.82212 19.7343C7.80362 19.7781 7.79411 19.8251 7.79413 19.8726C7.79536 19.9652 7.83271 20.0536 7.89822 20.119C7.96372 20.1844 8.0522 20.2216 8.14475 20.2226C8.23692 20.2225 8.32543 20.1865 8.39154 20.1223C8.45765 20.0581 8.49616 19.9706 8.49892 19.8785Z" fill="white"/>
<path d="M4.58234 20.2256C4.36121 20.2256 4.13948 20.2303 3.91834 20.2256C3.69721 20.2209 3.54407 20.0742 3.54407 19.8708C3.54407 19.6674 3.69189 19.5214 3.91834 19.5161C4.3752 19.5101 4.83245 19.5101 5.29009 19.5161C5.51655 19.5161 5.66496 19.6668 5.66555 19.8708C5.66614 20.0748 5.51655 20.2185 5.29068 20.2256C5.05476 20.2303 4.81885 20.2256 4.58234 20.2256Z" fill="white"/>
<path d="M11.6888 19.5167C11.9171 19.5167 12.1459 19.5119 12.3747 19.5167C12.6035 19.5214 12.7496 19.6686 12.749 19.8714C12.7484 20.0742 12.6 20.2215 12.3741 20.2262C11.9173 20.2317 11.4598 20.2317 11.0018 20.2262C10.7759 20.2262 10.6275 20.0742 10.6275 19.8714C10.6275 19.6686 10.7759 19.5255 11.0024 19.5167C11.2288 19.5078 11.46 19.5167 11.6888 19.5167Z" fill="white"/>
</g>
<defs>
<clipPath id="clip0_41_6843">
<rect width="16.2931" height="22" fill="white"/>
</clipPath>
</defs>
</svg>
