<svg width="19" height="19" viewBox="0 0 19 19" fill="none" xmlns="http://www.w3.org/2000/svg">
<g clip-path="url(#clip0_41_6883)">
<path d="M7.5332 0H8.57227C8.79195 0.0285742 9.01275 0.0512112 9.23133 0.086094C11.4072 0.435912 13.1616 1.48846 14.4946 3.24373C14.5163 3.27124 14.5396 3.2975 14.5643 3.3224L16.4023 1.484C16.052 1.484 15.6898 1.48846 15.3262 1.48215C15.1921 1.48425 15.0602 1.44808 14.946 1.37788C14.8318 1.30768 14.7399 1.20637 14.6812 1.08582C14.5454 0.829766 14.5461 0.558868 14.7265 0.335469C14.84 0.194825 15.0234 0.109844 15.1744 0.00148469H18.4029C18.7035 0.0968558 18.8994 0.29836 18.9967 0.595235V3.82375C18.9885 3.83266 18.977 3.84008 18.9725 3.85084C18.8059 4.2698 18.5009 4.4624 18.119 4.38893C17.7372 4.31545 17.5138 4.01783 17.5127 3.57846C17.5127 3.24707 17.5127 2.91605 17.5127 2.55201C17.4633 2.5932 17.4403 2.6099 17.4206 2.62957C16.7604 3.28938 16.1025 3.95178 15.4375 4.60676C15.3458 4.69693 15.3837 4.76076 15.4186 4.84871C16.5775 7.78369 16.2298 10.5187 14.3287 13.0469C14.2964 13.0903 14.2667 13.1352 14.2222 13.1991C14.2804 13.2488 14.3354 13.2896 14.3832 13.3375C15.8001 14.7528 17.2153 16.1699 18.6289 17.5887C18.7773 17.7372 18.8753 17.9357 18.997 18.1109V18.4077C18.9563 18.5488 18.8805 18.6773 18.7767 18.7811C18.6729 18.885 18.5444 18.9608 18.4033 19.0015H18.1064C17.9316 18.8798 17.7353 18.7811 17.5869 18.633C16.1646 17.2228 14.7475 15.8071 13.3356 14.3858C13.2848 14.335 13.2592 14.2589 13.2221 14.1943C13.1126 14.2823 13.0629 14.3179 13.015 14.3561C10.4214 16.4061 6.8259 16.6669 3.9733 14.9729C1.89258 13.7342 0.614161 11.9047 0.142501 9.52189C0.0805283 9.20795 0.0467578 8.88881 0 8.57227V7.49609C0.0111328 7.44934 0.0259767 7.40295 0.0326564 7.35545C0.0764455 7.0441 0.0920302 6.72459 0.165878 6.42178C0.972265 3.10271 3.0285 1.01309 6.34756 0.187402C6.73424 0.0898048 7.13762 0.0604883 7.5332 0ZM1.8885 10.2719C1.93258 10.205 1.98092 10.141 2.03322 10.0804C3.33057 8.78057 4.62939 7.48174 5.92971 6.18391C6.40285 5.71113 6.76615 5.71262 7.24412 6.19059C7.94697 6.89467 8.64945 7.59951 9.35156 8.30508C9.39758 8.35147 9.41502 8.42643 9.43172 8.45982L13.4852 4.406C11.6835 1.65359 8.01303 0.65795 5.01979 2.22174C2.02654 3.78553 0.776329 7.31648 1.8885 10.2719ZM2.58949 11.6542C4.30469 14.3417 8.00078 15.4817 11.0916 13.8403C14.2723 12.1507 15.2397 8.4858 14.1717 5.83656C14.1186 5.88443 14.0904 5.95791 14.04 6.00875C12.73 7.32267 11.4188 8.6351 10.1064 9.94605C9.7067 10.3457 9.29664 10.345 8.89623 9.94605C8.17309 9.22316 7.45094 8.50126 6.72978 7.78035C6.68266 7.73359 6.63367 7.68869 6.59322 7.65047L2.58949 11.6542Z" fill="white"/>
</g>
<defs>
<clipPath id="clip0_41_6883">
<rect width="19" height="19" fill="white"/>
</clipPath>
</defs>
</svg>
