<svg width="21" height="18" viewBox="0 0 21 18" fill="none" xmlns="http://www.w3.org/2000/svg">
<g clip-path="url(#clip0_41_6880)">
<path d="M0 14.1363V1.51708C0.114666 1.23989 0.186457 0.933279 0.352472 0.690487C0.701454 0.180475 1.22941 -0.000497519 1.83864 1.02684e-06C7.41969 0.0029923 13.0007 0.0029923 18.5818 1.02684e-06C18.6551 1.02684e-06 18.7284 1.33089e-06 18.8012 0.00498679C19.041 0.0163165 19.2756 0.078597 19.4895 0.187683C19.7034 0.296769 19.8916 0.450158 20.0415 0.637642C20.2549 0.895888 20.3511 1.2 20.4224 1.51708V14.1363C20.4095 14.1586 20.3993 14.1823 20.392 14.2071C20.2385 15.0132 19.6302 15.5721 18.8136 15.6085C18.184 15.6369 17.5518 15.6199 16.9192 15.6229H16.6749C16.6749 16.289 16.6749 16.9251 16.6749 17.5613C16.6749 17.7218 16.6559 17.8669 16.5014 17.9551C16.3468 18.0434 16.2092 17.985 16.0726 17.9028C15.6354 17.6391 15.1952 17.3798 14.76 17.1126C14.7243 17.0849 14.6805 17.0698 14.6353 17.0698C14.5902 17.0698 14.5463 17.0849 14.5107 17.1126C14.07 17.3843 13.6253 17.649 13.1796 17.9103C12.849 18.1057 12.5978 17.9651 12.5958 17.5837C12.5928 17.0069 12.5958 16.4296 12.5958 15.8528C12.5958 15.7825 12.5903 15.7127 12.5863 15.6229H8.24645C6.11367 15.6229 3.98089 15.6194 1.84811 15.6229C1.23091 15.6229 0.701455 15.4385 0.34649 14.925C0.18546 14.6931 0.112173 14.4015 0 14.1363ZM16.6749 14.9295C17.4302 14.9295 18.16 14.9295 18.8899 14.9295C18.9162 14.9268 18.942 14.9208 18.9667 14.9115C19.4652 14.7789 19.7409 14.3865 19.7409 13.8007C19.7409 9.81238 19.7409 5.82501 19.7409 1.83864C19.7409 1.08733 19.3356 0.680517 18.5853 0.680517H1.83415C1.08633 0.680517 0.679019 1.08733 0.679019 1.83914C0.679019 5.82003 0.685002 9.80042 0.673037 13.7813C0.673037 14.415 1.0649 14.9534 1.84911 14.9499C5.35239 14.9349 8.85517 14.9434 12.3585 14.9434H12.5938C12.5938 14.4708 12.5938 14.0216 12.5938 13.5724C12.5905 13.5401 12.5793 13.5092 12.5614 13.4822C12.3764 13.1541 12.1835 12.8301 12.0075 12.4976C11.9333 12.3415 11.8078 12.2157 11.652 12.1411C11.3883 12.017 11.1265 11.8858 10.8738 11.7423C10.451 11.498 10.272 11.0553 10.4017 10.5836C10.4789 10.303 10.5901 10.0307 10.6574 9.74857C10.6928 9.59784 10.6938 9.44108 10.6604 9.28991C10.5991 9.02618 10.4949 8.77291 10.4171 8.51267C10.2546 7.96776 10.4475 7.5101 10.9511 7.24138C11.1734 7.12273 11.3968 7.00407 11.6256 6.89888C11.7975 6.82577 11.9351 6.68994 12.0105 6.51899C12.1206 6.27819 12.2433 6.04238 12.3704 5.81006C12.6282 5.33893 13.0853 5.14898 13.6023 5.29755C13.87 5.37433 14.1303 5.48002 14.4 5.54333C14.5511 5.57831 14.7082 5.57916 14.8597 5.54583C15.1239 5.48451 15.3776 5.38031 15.6384 5.30353C16.1868 5.14101 16.642 5.33295 16.9122 5.83748C17.0343 6.06481 17.157 6.29315 17.2646 6.52796C17.3386 6.69203 17.471 6.82266 17.6361 6.89439C17.8993 7.02003 18.162 7.14915 18.4133 7.29672C18.607 7.4041 18.7582 7.5745 18.8417 7.77963C18.9252 7.98476 18.9361 8.21228 18.8725 8.42443C18.7947 8.71159 18.681 8.98978 18.6117 9.27844C18.5766 9.42953 18.5756 9.58656 18.6087 9.7381C18.6661 9.98737 18.7633 10.2307 18.8405 10.4769C19.025 11.0642 18.8351 11.5184 18.2852 11.8046C18.0558 11.9242 17.8165 12.0279 17.5967 12.162C17.4748 12.2366 17.3715 12.3378 17.2946 12.4582C17.0857 12.7952 16.8957 13.1447 16.7033 13.4902C16.6869 13.5182 16.6777 13.5499 16.6764 13.5824C16.6739 14.0231 16.6749 14.4658 16.6749 14.9295ZM11.0473 10.7806C11.0353 11.0094 11.1295 11.1126 11.2686 11.1844C11.5219 11.3155 11.7752 11.4471 12.0309 11.5727C12.2666 11.6851 12.4568 11.8748 12.5698 12.1102C12.6895 12.354 12.8156 12.5948 12.9418 12.8356C13.0784 13.0968 13.1975 13.1472 13.4752 13.0604C13.709 12.9871 13.9448 12.9168 14.1732 12.8316C14.4675 12.7187 14.7932 12.7187 15.0875 12.8316C15.2989 12.9089 15.5157 12.9722 15.7306 13.0415C16.0921 13.1581 16.1833 13.1192 16.3608 12.7742C16.464 12.5748 16.5737 12.3754 16.6684 12.172C16.7946 11.8896 17.0214 11.6643 17.3045 11.5398C17.5393 11.4317 17.7677 11.309 17.996 11.1879C18.2243 11.0667 18.2732 10.9386 18.1979 10.6953C18.1122 10.4171 18.0244 10.1389 17.9317 9.86273C17.8532 9.63551 17.8532 9.38851 17.9317 9.16128C18.0241 8.88442 18.1135 8.6069 18.1999 8.32871C18.2747 8.08692 18.2209 7.9553 17.997 7.83664C17.7512 7.70553 17.5034 7.5774 17.2532 7.45526C17.0107 7.34227 16.8152 7.14836 16.7003 6.90686C16.5846 6.66855 16.461 6.43424 16.3388 6.19892C16.1993 5.9302 16.0766 5.87836 15.7904 5.9676C15.5546 6.04038 15.3183 6.10669 15.0885 6.18995C14.801 6.30193 14.4822 6.30282 14.1941 6.19244C13.9767 6.11168 13.7534 6.04686 13.532 5.97607C13.194 5.86789 13.0833 5.91375 12.9228 6.22534C12.8261 6.41429 12.7234 6.59975 12.6351 6.79319C12.4997 7.11463 12.2441 7.37045 11.9227 7.50611C11.6984 7.60582 11.483 7.72447 11.2671 7.84063C11.0513 7.95679 11.0024 8.08991 11.0707 8.31974C11.1078 8.46766 11.1552 8.61276 11.2128 8.75397C11.4456 9.26199 11.4386 9.76203 11.2128 10.2705C11.1474 10.4371 11.0922 10.6074 11.0473 10.7806ZM15.9879 13.8217C15.6145 13.707 15.2585 13.6068 14.9095 13.4857C14.7357 13.4202 14.5442 13.419 14.3696 13.4822C14.0151 13.6048 13.6537 13.707 13.2897 13.8192V17.0543C13.6278 16.8548 13.9543 16.6764 14.2594 16.4695C14.5197 16.294 14.7445 16.2885 15.0072 16.4695C15.3158 16.6804 15.6474 16.8578 15.9884 17.0612L15.9879 13.8217Z" fill="white"/>
<path d="M5.43417 14.2634C4.49042 14.2634 3.54667 14.2684 2.60292 14.2634C1.9264 14.2589 1.45976 13.8496 1.37152 13.203C1.28676 12.5868 1.77384 11.9691 2.39403 11.9068C2.49374 11.8973 2.59345 11.8908 2.69316 11.8908C4.52781 11.8908 6.36196 11.8908 8.19611 11.8878C8.72507 11.8878 9.14634 12.0638 9.39811 12.5464C9.78597 13.2897 9.26499 14.2275 8.42544 14.2509C7.42835 14.2788 6.43126 14.2574 5.43417 14.2574V14.2634ZM5.44264 13.5834C6.09408 13.5834 6.74551 13.5834 7.39694 13.5834C7.71601 13.5834 8.03508 13.5879 8.35415 13.5804C8.47455 13.5754 8.58942 13.5285 8.67884 13.4477C8.76826 13.367 8.82659 13.2574 8.84372 13.1382C8.855 13.0251 8.82854 12.9114 8.76849 12.8149C8.70843 12.7185 8.61814 12.6445 8.51169 12.6047C8.40249 12.5769 8.2897 12.5658 8.17717 12.5718C6.35581 12.5698 4.53462 12.5698 2.7136 12.5718C2.64081 12.5718 2.55955 12.5569 2.49624 12.5823C2.37808 12.6321 2.24696 12.682 2.16171 12.7712C2.09467 12.8374 2.05161 12.924 2.03933 13.0174C2.02705 13.1107 2.04625 13.2055 2.09391 13.2867C2.13509 13.3785 2.20264 13.4559 2.28795 13.5092C2.37326 13.5625 2.47249 13.5891 2.57301 13.5859C3.53022 13.5832 4.48726 13.5824 5.44414 13.5834H5.44264Z" fill="white"/>
<path d="M2.72655 6.10869C2.37762 6.10907 2.04184 5.97557 1.78843 5.7357C1.53502 5.49583 1.38329 5.16788 1.36453 4.81945C1.35206 4.60558 1.47819 4.44106 1.66914 4.42361C1.86008 4.40616 2.00566 4.5308 2.03806 4.75464C2.10138 5.19037 2.35165 5.43316 2.73254 5.42868C2.89673 5.42814 3.05497 5.36707 3.17694 5.25715C3.29891 5.14722 3.37606 4.99617 3.39361 4.83292C3.41329 4.66675 3.37037 4.49922 3.27322 4.36298C3.17607 4.22675 3.03165 4.13159 2.86814 4.09606C2.58098 4.02726 2.26989 3.99636 2.01662 3.86075C1.45426 3.56761 1.22742 2.85369 1.45127 2.23998C1.56173 1.95257 1.76608 1.71092 2.03115 1.55427C2.29623 1.39761 2.60647 1.33514 2.91151 1.377C3.55564 1.47321 4.04172 1.99719 4.07263 2.62834C4.08459 2.87762 3.98139 3.02469 3.78048 3.04762C3.57956 3.07056 3.43748 2.94043 3.3976 2.68368C3.3268 2.22652 2.98929 1.97226 2.57699 2.06499C2.42299 2.09731 2.28525 2.18271 2.18783 2.30628C2.09042 2.42985 2.03952 2.58373 2.04404 2.74102C2.05005 2.90205 2.1138 3.05554 2.22365 3.17344C2.33349 3.29134 2.4821 3.36578 2.6423 3.38314C2.9843 3.41754 3.30935 3.47936 3.58455 3.70969C3.80282 3.89057 3.95908 4.13516 4.03149 4.40923C4.1039 4.6833 4.08882 4.97315 3.98837 5.23823C3.80391 5.75124 3.28742 6.1067 2.72655 6.10869Z" fill="white"/>
<path d="M6.12265 6.10869C5.7739 6.10871 5.43868 5.97377 5.1872 5.73214C4.93572 5.49051 4.7875 5.16094 4.77359 4.81247C4.76462 4.5971 4.8733 4.44853 5.06025 4.4246C5.24721 4.40067 5.39278 4.51334 5.43616 4.72373C5.45062 4.79502 5.4541 4.8693 5.47305 4.9391C5.5573 5.25618 5.86092 5.45659 6.20342 5.42469C6.36326 5.40759 6.51171 5.33385 6.6219 5.2168C6.73209 5.09975 6.79674 4.94713 6.80417 4.78655C6.81168 4.62895 6.76342 4.47376 6.66787 4.34821C6.57232 4.22266 6.43559 4.1348 6.28169 4.10005C6.20379 4.08358 6.12482 4.07258 6.04538 4.06714C5.318 4.01031 4.78805 3.45892 4.7686 2.73752C4.76388 2.40922 4.87856 2.09038 5.09131 1.8403C5.30407 1.59022 5.60041 1.42593 5.92523 1.37799C6.25682 1.32753 6.59533 1.40222 6.8749 1.58753C7.15447 1.77284 7.35512 2.05551 7.43782 2.38056C7.46453 2.48322 7.47942 2.5886 7.48219 2.69465C7.48788 2.78159 7.45937 2.86732 7.40274 2.93354C7.34611 2.99976 7.26585 3.04124 7.17907 3.04911C7.13603 3.05458 7.09232 3.05118 7.05064 3.03913C7.00895 3.02707 6.97018 3.00662 6.93669 2.97902C6.90321 2.95142 6.87573 2.91726 6.85594 2.87864C6.83615 2.84003 6.82447 2.79777 6.82162 2.75447C6.78173 2.41496 6.64713 2.15622 6.29017 2.06947C6.20341 2.04678 6.11298 2.04175 6.02424 2.05468C5.9355 2.06761 5.85027 2.09823 5.77359 2.14473C5.69691 2.19123 5.63036 2.25266 5.57788 2.32537C5.52539 2.39808 5.48805 2.4806 5.46806 2.56802C5.44798 2.65892 5.44687 2.753 5.46481 2.84435C5.48275 2.93571 5.51935 3.02238 5.57232 3.09894C5.6253 3.17549 5.6935 3.2403 5.77267 3.28928C5.85184 3.33827 5.94027 3.37039 6.03242 3.38364C6.12415 3.3971 6.21688 3.40557 6.30911 3.41804C6.9986 3.51077 7.53005 4.13694 7.48269 4.79951C7.42835 5.5583 6.85502 6.11168 6.12265 6.10869Z" fill="white"/>
<path d="M5.45759 10.1928H9.02369C9.09675 10.1891 9.16999 10.1919 9.24255 10.2013C9.3197 10.2109 9.39067 10.2484 9.44209 10.3067C9.49352 10.365 9.52184 10.4401 9.52173 10.5178C9.52887 10.5919 9.50868 10.666 9.46498 10.7263C9.42127 10.7865 9.35706 10.8287 9.28443 10.8449C9.20082 10.8645 9.11498 10.8728 9.02917 10.8698C6.63615 10.8698 4.24446 10.8698 1.8541 10.8698C1.81421 10.8698 1.77433 10.8698 1.73444 10.8698C1.51209 10.8563 1.36253 10.7202 1.36103 10.5328C1.35954 10.3453 1.51558 10.1943 1.7489 10.1938C2.98563 10.1918 4.22186 10.1915 5.45759 10.1928Z" fill="white"/>
<path d="M8.8512 5.43214C9.36919 5.43214 9.86574 5.43214 10.3618 5.43214C10.4478 5.43102 10.5337 5.43769 10.6185 5.45208C10.7935 5.48598 10.8788 5.60464 10.8848 5.77564C10.8912 5.93916 10.7686 6.07177 10.5961 6.10069C10.5503 6.1081 10.5039 6.11176 10.4575 6.11166C9.94601 6.11166 9.4345 6.11614 8.92349 6.11166C8.43292 6.10667 8.17318 5.84444 8.17218 5.35885C8.17019 4.17231 8.17019 2.98577 8.17218 1.79924C8.16999 1.74624 8.17283 1.69316 8.18065 1.6407C8.19066 1.56717 8.22602 1.49944 8.28063 1.4492C8.33524 1.39895 8.40568 1.36935 8.47978 1.3655C8.5532 1.35374 8.62837 1.36946 8.69092 1.40965C8.75347 1.44985 8.799 1.5117 8.81879 1.58337C8.84379 1.67236 8.85489 1.76468 8.8517 1.85707C8.85369 2.97082 8.85369 4.08424 8.8517 5.19732L8.8512 5.43214Z" fill="white"/>
<path d="M4.2466 9.16824C3.41569 9.16824 2.58478 9.16824 1.75387 9.16824C1.60431 9.16824 1.45873 9.13035 1.41137 8.98328C1.37847 8.88357 1.37498 8.72603 1.43281 8.65474C1.5046 8.5665 1.64967 8.50817 1.76933 8.49471C1.99267 8.47028 2.22051 8.48773 2.44635 8.48773H6.63164C6.69822 8.48532 6.76489 8.48799 6.83106 8.4957C7.03048 8.52811 7.14864 8.66671 7.13966 8.84818C7.13069 9.02965 7.00157 9.15927 6.79716 9.16376C6.43871 9.17173 6.07975 9.16725 5.7208 9.16774L4.2466 9.16824Z" fill="white"/>
<path d="M6.63065 7.47521H4.29945C4.2461 7.47521 4.19276 7.47521 4.13991 7.47521C3.89413 7.46174 3.75105 7.3386 3.74706 7.14018C3.74307 6.93378 3.89114 6.79818 4.14589 6.79718C5.16891 6.79319 6.18993 6.79718 7.21494 6.79718C7.8132 6.79718 8.41145 6.79718 9.00971 6.79718C9.08926 6.79541 9.16881 6.80041 9.24751 6.81214C9.32476 6.81994 9.39614 6.85685 9.44716 6.91537C9.49818 6.97389 9.52501 7.04963 9.52221 7.12722C9.52856 7.20478 9.50497 7.28183 9.4563 7.34256C9.40763 7.40328 9.33756 7.44307 9.26048 7.45377C9.1824 7.4683 9.10308 7.47514 9.02367 7.47421C8.22599 7.47587 7.42832 7.4762 6.63065 7.47521Z" fill="white"/>
<path d="M2.20208 7.47322C2.04354 7.47322 1.88401 7.4812 1.72597 7.47322C1.50362 7.45926 1.36004 7.31618 1.36353 7.12972C1.36702 6.94326 1.50861 6.80517 1.73644 6.79968C2.05352 6.79171 2.37159 6.79171 2.68866 6.79968C2.9155 6.80517 3.05759 6.94127 3.06108 7.13022C3.06457 7.31917 2.92099 7.45926 2.69814 7.47322C2.53361 7.4812 2.3676 7.47322 2.20208 7.47322Z" fill="white"/>
<path d="M8.68118 9.16525C8.50918 9.16525 8.33669 9.17223 8.16519 9.16525C8.0781 9.1654 7.99444 9.13138 7.93216 9.07051C7.86989 9.00964 7.83398 8.92676 7.83216 8.8397C7.82779 8.75565 7.85675 8.67328 7.91276 8.61046C7.96877 8.54764 8.04729 8.50945 8.13128 8.50418C8.49373 8.48723 8.85866 8.48623 9.22111 8.50418C9.26436 8.50688 9.30664 8.51819 9.34548 8.53743C9.38432 8.55666 9.41893 8.58345 9.44729 8.61622C9.47566 8.649 9.4972 8.6871 9.51066 8.72829C9.52413 8.76949 9.52925 8.81295 9.52572 8.85615C9.51126 9.03513 9.37615 9.15927 9.17674 9.16774C9.01172 9.17472 8.8462 9.16774 8.68068 9.16774L8.68118 9.16525Z" fill="white"/>
<path d="M11.9153 9.51971C11.9136 9.16241 11.9826 8.80831 12.1183 8.47778C12.254 8.14724 12.4537 7.8468 12.706 7.59373C12.9582 7.34066 13.258 7.13996 13.5881 7.00317C13.9182 6.86637 14.272 6.79619 14.6293 6.79665C15.3475 6.79374 16.0375 7.07589 16.5478 7.58119C17.0582 8.08648 17.3472 8.77363 17.3514 9.49179C17.354 9.84903 17.2861 10.2033 17.1516 10.5342C17.017 10.8651 16.8184 11.1663 16.5673 11.4203C16.3161 11.6744 16.0172 11.8763 15.6879 12.0146C15.3585 12.1529 15.005 12.2249 14.6478 12.2263C14.2906 12.2284 13.9364 12.1599 13.6057 12.0249C13.2749 11.89 12.974 11.6911 12.7202 11.4397C12.4664 11.1883 12.2647 10.8893 12.1266 10.5599C11.9884 10.2304 11.9166 9.87694 11.9153 9.51971ZM12.5953 9.51522C12.5991 10.0557 12.8164 10.5727 13.1999 10.9535C13.5834 11.3344 14.1018 11.5482 14.6423 11.5483C15.1791 11.5427 15.6923 11.3269 16.0718 10.9471C16.4512 10.5674 16.6667 10.054 16.6719 9.51722C16.672 8.97664 16.4575 8.45812 16.0756 8.0756C15.6936 7.69307 15.1754 7.47783 14.6348 7.47717C14.0945 7.47796 13.5766 7.69294 13.1946 8.07498C12.8125 8.45701 12.5976 8.97494 12.5968 9.51522H12.5953Z" fill="white"/>
</g>
<defs>
<clipPath id="clip0_41_6880">
<rect width="20.4204" height="18" fill="white"/>
</clipPath>
</defs>
</svg>
