<svg width="16" height="21" viewBox="0 0 16 21" fill="none" xmlns="http://www.w3.org/2000/svg">
<g clip-path="url(#clip0_41_6717)">
<path d="M11.1198 0.712402C11.2307 0.748857 11.3443 0.780556 11.4531 0.822822C12.1067 1.07536 12.4923 1.66497 12.4929 2.42259C12.495 4.66127 12.495 6.89977 12.4929 9.1381C12.4929 9.7256 12.4929 10.3131 12.4929 10.9011C12.4929 10.9793 12.504 11.0823 12.4612 11.1299C12.3856 11.2139 12.2773 11.3053 12.1732 11.318C12.0338 11.3349 11.9297 11.2297 11.9091 11.0786C11.9012 10.9998 11.8989 10.9206 11.9022 10.8414C11.9022 8.04201 11.9022 5.24189 11.9022 2.44108C11.9022 1.83192 11.5741 1.38443 11.0305 1.3242C10.6263 1.28035 10.2142 1.30624 9.80581 1.31205C9.76883 1.31205 9.71283 1.38866 9.70015 1.43885C9.65207 1.63697 9.62196 1.83984 9.57811 2.03955C9.43968 2.66773 8.90978 3.12473 8.26945 3.12948C6.92539 3.14005 5.58099 3.14005 4.23623 3.12948C3.60224 3.12473 3.07709 2.67829 2.93338 2.05857C2.88689 1.85992 2.84779 1.65863 2.81662 1.45681C2.79972 1.34692 2.76115 1.29831 2.64069 1.30307C2.29834 1.31099 1.95387 1.30043 1.61257 1.30729C1.35284 1.31247 1.10475 1.41604 0.918424 1.59707C0.732098 1.7781 0.621423 2.0231 0.608759 2.28258C0.60559 2.33541 0.608759 2.38824 0.608759 2.44108C0.608759 8.05363 0.608759 13.6662 0.608759 19.2787C0.608759 19.8683 0.922056 20.2826 1.44985 20.3882C1.54081 20.4031 1.63298 20.4093 1.72511 20.4067C4.74359 20.4067 7.76191 20.4067 10.78 20.4067C11.4785 20.4067 11.9033 19.9841 11.9054 19.2882C11.9054 18.3901 11.9054 17.492 11.9054 16.5732C11.8256 16.5695 11.7569 16.5637 11.6877 16.5637C11.1594 16.5637 10.6311 16.561 10.1059 16.5637C9.70437 16.5637 9.39583 16.4052 9.17922 16.0634C9.15749 16.0345 9.12984 16.0107 9.09812 15.9935C9.0664 15.9763 9.03137 15.9661 8.99537 15.9635C7.43998 15.9579 5.88477 15.9579 4.32974 15.9635C4.27427 15.9635 4.18868 15.992 4.17125 16.0322C3.95992 16.4681 3.59854 16.6493 3.10879 16.6519C3.10879 16.9541 3.09135 17.2558 3.11513 17.5548C3.12992 17.744 3.2826 17.8274 3.47069 17.8274C3.79983 17.8274 4.12951 17.8274 4.45918 17.8274C4.69059 17.8274 4.82901 17.9394 4.82901 18.1207C4.82901 18.3019 4.68953 18.4186 4.46182 18.4202C4.12581 18.4202 3.78927 18.425 3.45325 18.4202C2.90116 18.4118 2.51706 18.0197 2.51072 17.4618C2.50755 17.1977 2.51072 16.9335 2.51072 16.6662C2.3767 16.6531 2.24353 16.6325 2.11184 16.6044C1.88787 16.549 1.69073 16.4161 1.55535 16.2293C1.41997 16.0424 1.35508 15.8137 1.37219 15.5836C1.41709 15.0918 1.76896 14.7198 2.26611 14.6855C2.6213 14.6625 2.9776 14.6625 3.33279 14.6855C3.6947 14.7061 3.96678 14.9 4.12528 15.2276C4.14118 15.273 4.1721 15.3116 4.21292 15.3371C4.25375 15.3625 4.30204 15.3733 4.34982 15.3676C4.78991 15.3612 5.23053 15.3649 5.68912 15.3649C5.69334 15.2883 5.70021 15.2254 5.70021 15.162C5.70021 14.7658 5.70021 14.3696 5.70021 13.9738C5.70338 13.3927 6.08642 13.007 6.66916 13.0033C7.40071 12.9991 8.13226 12.9991 8.86381 13.0033C8.99536 13.0033 9.06616 12.9817 9.12216 12.8374C9.27749 12.4354 9.59396 12.2166 10.0203 12.2145C11.47 12.2057 12.9199 12.2057 14.37 12.2145C14.6275 12.2158 14.8741 12.3185 15.0564 12.5003C15.2387 12.6822 15.3419 12.9286 15.3437 13.1861C15.346 13.4468 15.2446 13.6978 15.0619 13.8838C14.8793 14.0699 14.6302 14.1758 14.3695 14.1783C13.8227 14.1905 13.2758 14.1815 12.7285 14.182H12.5029V14.5967H12.7142C13.2426 14.5967 13.7709 14.5967 14.296 14.5967C14.8978 14.5999 15.3411 15.0168 15.3437 15.5757C15.3469 16.1442 14.9015 16.5616 14.2871 16.5637C13.7587 16.5637 13.2304 16.5637 12.7053 16.5637H12.4939V19.2116C12.4939 20.169 12.0713 20.7242 11.1499 20.9778C11.1382 20.981 11.1298 20.9937 11.1198 21.0016H1.39121C0.297049 20.7253 -0.0014534 19.9296 -0.0014534 19.0188C0.0191512 13.5242 0.00858539 8.02968 0.00911371 2.53512C0.00911371 2.449 0.00594377 2.36288 0.00911371 2.27782C0.0513796 1.64701 0.349354 1.1768 0.907263 0.884636C1.05625 0.806972 1.22426 0.768933 1.38645 0.712402H11.1198ZM6.29563 15.3628C7.20805 15.3628 8.09563 15.3628 8.98321 15.3586C9.02389 15.3586 9.08254 15.3015 9.1005 15.2582C9.287 14.7986 9.63252 14.5915 10.1186 14.5936C10.639 14.5936 11.1594 14.5936 11.6792 14.5936C11.7485 14.5936 11.8177 14.5856 11.8858 14.5814V14.1815C11.2856 14.1815 10.6997 14.1815 10.1144 14.1815C9.71547 14.1815 9.39953 14.0346 9.18239 13.6896C9.16807 13.6663 9.14909 13.6462 9.12663 13.6305C9.10418 13.6149 9.07873 13.6041 9.0519 13.5987C8.23511 13.5945 7.41832 13.5924 6.60206 13.5987C6.4182 13.5987 6.29986 13.7372 6.29775 13.9247C6.29193 14.396 6.29563 14.8641 6.29563 15.3628ZM9.11582 1.31733H3.38457C3.4374 1.56617 3.4654 1.81184 3.54782 2.03744C3.66141 2.34703 3.90708 2.53406 4.24204 2.53617C5.58046 2.54463 6.91888 2.54463 8.2573 2.53617C8.41728 2.53449 8.57259 2.48207 8.70086 2.38646C8.82914 2.29085 8.92375 2.15698 8.97106 2.00415C9.03288 1.78596 9.06669 1.55613 9.11582 1.31733ZM12.2076 12.8052C11.5023 12.8052 10.7969 12.8052 10.0943 12.8052C9.78732 12.8052 9.60452 13.0091 9.65788 13.2807C9.69751 13.4793 9.85812 13.5882 10.1244 13.5882C11.5086 13.5882 12.8926 13.5882 14.2765 13.5882C14.3553 13.5901 14.4338 13.5781 14.5084 13.5528C14.5814 13.5286 14.6446 13.4815 14.6887 13.4185C14.7328 13.3554 14.7553 13.2799 14.753 13.203C14.7574 13.1262 14.7369 13.05 14.6946 12.9858C14.6522 12.9215 14.5903 12.8726 14.5179 12.8464C14.4371 12.8186 14.3518 12.8061 14.2664 12.8094C13.5765 12.8036 12.8928 12.8052 12.2076 12.8052ZM12.2076 15.9677C12.9129 15.9677 13.6182 15.9677 14.3235 15.9677C14.5787 15.9677 14.7562 15.7987 14.7536 15.5752C14.7509 15.3517 14.5819 15.2027 14.3341 15.19C14.2944 15.19 14.2548 15.19 14.2157 15.19H10.182C10.1097 15.1875 10.0374 15.1914 9.96589 15.2017C9.91676 15.209 9.86957 15.226 9.82709 15.2518C9.7846 15.2775 9.74768 15.3115 9.71846 15.3517C9.68925 15.3919 9.66833 15.4375 9.65693 15.4858C9.64553 15.5342 9.64388 15.5843 9.65207 15.6333C9.67743 15.8446 9.83751 15.9672 10.0922 15.9683C10.7969 15.9704 11.5023 15.9704 12.207 15.9704L12.2076 15.9677ZM2.77647 16.047H3.21075C3.22396 16.047 3.23717 16.047 3.25038 16.047C3.46857 16.0311 3.63077 15.8758 3.63975 15.6735C3.64188 15.6221 3.63365 15.5708 3.61556 15.5227C3.59747 15.4745 3.56989 15.4305 3.53445 15.3933C3.49902 15.356 3.45645 15.3262 3.40928 15.3058C3.36211 15.2853 3.31131 15.2745 3.25989 15.274C2.95769 15.2619 2.65443 15.2624 2.3517 15.274C2.3003 15.2729 2.24921 15.2823 2.20155 15.3016C2.15388 15.3209 2.11065 15.3497 2.07446 15.3862C2.03828 15.4227 2.00992 15.4662 1.99109 15.5141C1.97227 15.5619 1.96338 15.6131 1.96497 15.6645C1.96761 15.8758 2.1298 16.0375 2.36174 16.0475C2.4991 16.0512 2.64016 16.0465 2.77594 16.047H2.77647Z" fill="white"/>
<path d="M8.282 7.44219C7.77375 6.77069 7.27395 6.11451 6.7805 5.45675C6.72397 5.3812 6.65476 5.27131 6.67167 5.19259C6.69386 5.09274 6.78103 4.95749 6.86609 4.93477C6.92424 4.92535 6.98378 4.92952 7.04005 4.94693C7.09633 4.96434 7.14781 4.99454 7.19048 5.03515C7.45464 5.34686 7.69239 5.68076 7.93964 6.00621L8.65552 6.94927L9.50084 5.82975C9.69156 5.57721 9.87965 5.32256 10.0725 5.0716C10.2072 4.89673 10.3726 4.86028 10.5152 4.96118C10.6674 5.07055 10.6822 5.24595 10.5443 5.42981C10.0445 6.09549 9.54363 6.75854 9.03327 7.43479C9.06497 7.48182 9.09456 7.53148 9.1289 7.57691C9.66215 8.28134 10.1954 8.98578 10.7287 9.69021C10.7683 9.74304 10.8111 9.79587 10.8454 9.8487C10.9337 9.99082 10.9241 10.1277 10.8 10.2423C10.6853 10.348 10.5126 10.3332 10.3895 10.2138C10.3531 10.1757 10.3197 10.1349 10.2896 10.0917C9.8011 9.44647 9.31187 8.79963 8.82194 8.1512C8.76911 8.08463 8.71628 8.01912 8.65552 7.93987C8.24554 8.48352 7.84877 9.0092 7.45253 9.53541C7.31781 9.71451 7.18837 9.89625 7.04783 10.0727C6.91892 10.2375 6.73665 10.2745 6.59929 10.172C6.46192 10.0695 6.44713 9.88886 6.57604 9.71662C7.09344 9.02522 7.61314 8.33488 8.13512 7.6456C8.18003 7.58272 8.22599 7.51721 8.282 7.44219Z" fill="white"/>
<path d="M5.47237 6.98887V8.35353C5.47237 9.26806 4.98579 9.92952 4.10824 10.2069C3.04473 10.5429 1.83645 9.8825 1.61403 8.84382C1.59616 8.75317 1.58749 8.66095 1.58814 8.56856C1.58814 7.48603 1.58814 6.40244 1.58497 5.32096C1.58497 5.14291 1.63252 5.00396 1.81743 4.95694C2.02136 4.90411 2.17775 5.05838 2.17881 5.30986C2.18145 5.91057 2.17881 6.51127 2.17881 7.11197V8.39897C2.17881 9.03666 2.57135 9.53486 3.20322 9.66695C3.79072 9.78793 4.28047 9.59457 4.66615 9.13862C4.81293 8.9576 4.88814 8.72899 4.87748 8.49618C4.87378 7.47282 4.87748 6.44946 4.87748 5.42662C4.87748 5.36692 4.87431 5.30722 4.88012 5.24805C4.89809 5.06102 5.01643 4.9469 5.18444 4.9506C5.35244 4.9543 5.46656 5.07212 5.46867 5.2639C5.47343 5.69924 5.46867 6.1351 5.46867 6.57097L5.47237 6.98887Z" fill="white"/>
<path d="M7.86779 19.1007C7.4594 19.1007 7.05153 19.1039 6.64314 19.1007C6.07149 19.0954 5.63932 18.678 5.63298 18.1275C5.62664 17.577 6.05934 17.1475 6.6294 17.1422C7.45887 17.1344 8.28834 17.1344 9.11781 17.1422C9.69262 17.148 10.1079 17.5759 10.1021 18.1328C10.0963 18.6775 9.6736 19.0938 9.11199 19.1002C8.69726 19.1049 8.28253 19.1007 7.86779 19.1007ZM7.85722 18.5069C8.25822 18.5069 8.65975 18.5069 9.06075 18.5069C9.34128 18.5069 9.50824 18.3579 9.50771 18.1191C9.50718 17.8803 9.34921 17.7366 9.07712 17.7355C8.27513 17.7323 7.47278 17.7323 6.67008 17.7355C6.40169 17.7355 6.23369 17.8861 6.2284 18.1122C6.22312 18.3383 6.40275 18.5047 6.67325 18.5063C7.06791 18.5063 7.46257 18.5063 7.85722 18.5063V18.5069Z" fill="white"/>
<path d="M10.9099 2.27412C10.9055 2.35073 10.8717 2.42268 10.8154 2.47488C10.7592 2.52708 10.6849 2.55548 10.6082 2.55413C10.5702 2.55311 10.5328 2.54455 10.4981 2.52894C10.4635 2.51334 10.4322 2.491 10.4063 2.46323C10.3803 2.43545 10.3602 2.4028 10.3469 2.36716C10.3337 2.33152 10.3277 2.29361 10.3292 2.25563C10.3303 2.2177 10.3388 2.18035 10.3544 2.14575C10.37 2.11115 10.3923 2.07999 10.42 2.05408C10.4477 2.02818 10.4803 2.00804 10.5159 1.99484C10.5515 1.98164 10.5893 1.97565 10.6272 1.9772C10.7039 1.97955 10.7766 2.01204 10.8295 2.06762C10.8824 2.1232 10.9113 2.19739 10.9099 2.27412Z" fill="white"/>
<path d="M6.24478 2.26568C6.05406 2.26568 5.8628 2.27149 5.67208 2.26568C5.48135 2.25987 5.36671 2.13994 5.36724 1.97246C5.36776 1.80498 5.48769 1.68136 5.67472 1.67766C6.05687 1.67096 6.43903 1.67096 6.82118 1.67766C7.02194 1.68136 7.13818 1.80657 7.13289 1.98514C7.12761 2.16371 7.0156 2.26093 6.8159 2.26727C6.61619 2.27361 6.43392 2.26727 6.24267 2.26727L6.24478 2.26568Z" fill="white"/>
</g>
<defs>
<clipPath id="clip0_41_6717">
<rect width="15.3473" height="20.2876" fill="white" transform="translate(0 0.712402)"/>
</clipPath>
</defs>
</svg>
