<svg width="19" height="19" viewBox="0 0 19 19" fill="none" xmlns="http://www.w3.org/2000/svg">
<g clip-path="url(#clip0_41_6696)">
<path d="M19 13.8157C18.8451 14.2402 18.5631 14.4896 18.0891 14.4856C18.0569 14.4856 18.0134 14.5351 17.9936 14.5702C17.9609 14.6291 17.952 14.7009 17.9194 14.7592C17.7853 14.9943 17.7417 15.1858 17.9585 15.4346C18.1885 15.6989 18.1188 16.1224 17.8778 16.3901C17.7041 16.5826 17.5201 16.7666 17.3281 16.9408C17.1751 17.0844 16.9726 17.1634 16.7627 17.1613C16.5529 17.1592 16.352 17.0761 16.202 16.9294C16.103 16.8349 16.0248 16.8191 15.9184 16.8908C15.913 16.8941 15.9072 16.8966 15.9011 16.8982C15.5939 16.9893 15.3702 17.111 15.3351 17.5053C15.3049 17.8408 14.9338 18.064 14.58 18.0734C14.3509 18.0793 14.1223 18.0778 13.8933 18.0734C13.4282 18.0674 13.0793 17.7517 13.0521 17.2857C13.0427 17.1268 12.9794 17.0759 12.8438 17.0195C12.5677 16.9047 12.3431 16.7834 12.0472 17.0506C11.8023 17.2723 11.3827 17.1808 11.1249 16.9472C10.9319 16.7738 10.7479 16.5907 10.5737 16.3985C10.4292 16.2464 10.3498 16.0439 10.3523 15.8342C10.3548 15.6244 10.439 15.4239 10.5871 15.2753C10.6821 15.1764 10.6934 15.1016 10.6242 14.9908C10.5824 14.9152 10.5474 14.8361 10.5198 14.7543C10.4109 14.4802 10.4114 14.4802 10.1071 14.4802C9.17954 14.4802 8.25181 14.4802 7.32391 14.4802C7.07997 14.4802 6.92313 14.3545 6.90086 14.1531C6.87464 13.9097 7.03643 13.7385 7.30461 13.7375C7.9419 13.735 8.5787 13.7375 9.2155 13.7375H9.43766C9.43766 13.4995 9.43766 13.2793 9.43766 13.0591C9.44063 12.4951 9.73453 12.1809 10.3001 12.1294C10.3323 12.1232 10.3629 12.11 10.3895 12.0908C10.4162 12.0715 10.4383 12.0467 10.4545 12.0181C10.5391 11.841 10.6054 11.6549 10.6826 11.461C10.644 11.4184 10.597 11.3699 10.5539 11.319C10.4172 11.1646 10.3433 10.9647 10.3466 10.7585C10.35 10.5524 10.4305 10.3549 10.5722 10.2052C10.732 10.0335 10.9003 9.86922 11.067 9.70643C11.4094 9.37839 11.8859 9.3675 12.2352 9.68961C12.3297 9.77719 12.4024 9.79797 12.5054 9.72375C12.5407 9.69865 12.5805 9.68051 12.6226 9.67031C12.8918 9.60401 13.0472 9.4818 13.0719 9.16018C13.0971 8.82818 13.4148 8.58177 13.7522 8.55258C14.0173 8.53205 14.2833 8.52808 14.5489 8.5407C15.0263 8.55951 15.3405 8.86727 15.3757 9.34474C15.3846 9.46943 15.4202 9.52781 15.5414 9.56443C15.6898 9.60797 15.8244 9.68714 15.9704 9.73662C16.0199 9.75393 16.1084 9.74997 16.1416 9.71781C16.2371 9.62146 16.3527 9.54734 16.4801 9.50073C16.6075 9.45412 16.7437 9.43617 16.8788 9.44815V5.69813H0.746147V5.9005C0.746147 8.05482 0.742188 10.2091 0.751589 12.363C0.752011 12.6027 0.796802 12.8402 0.883697 13.0636C1.06281 13.5089 1.39878 13.7499 1.90495 13.74C2.56005 13.7276 3.21615 13.7365 3.87174 13.74C4.15576 13.74 4.32547 13.8825 4.3225 14.114C4.31953 14.3456 4.14932 14.4832 3.86383 14.4832C3.22654 14.4832 2.58825 14.4599 1.95294 14.4886C0.81492 14.5381 0.17466 13.6717 0.0356236 12.8652C0.0261057 12.8241 0.0142121 12.7836 0 12.744V1.74128C0.0128646 1.69477 0.0291932 1.64925 0.0376047 1.60175C0.208308 0.652241 0.92823 0.00158957 1.81885 0.00109477C6.49167 0.00109477 11.1648 0.00109477 15.8383 0.00109477C16.0675 -0.00308724 16.295 0.0412103 16.5058 0.131084C16.7167 0.220959 16.9062 0.35438 17.0619 0.522605C17.4983 0.977319 17.6492 1.53396 17.6482 2.14899C17.6453 4.67242 17.6482 7.19586 17.6438 9.7193C17.639 9.8006 17.6523 9.88194 17.6826 9.95754C17.7128 10.0331 17.7594 10.1011 17.8189 10.1567C18.1727 10.506 18.1737 10.9825 17.8427 11.3506C17.81 11.3867 17.7784 11.4239 17.7526 11.4535C17.8313 11.6455 17.8981 11.8316 17.9852 12.0077C18.0022 12.0387 18.0258 12.0655 18.0542 12.0865C18.0827 12.1074 18.1153 12.1219 18.1499 12.1289C18.3607 12.1443 18.5636 12.1878 18.7071 12.3437C18.8244 12.4708 18.905 12.6331 18.9995 12.7796L19 13.8157ZM16.8957 4.92526C16.8957 4.70755 16.8957 4.51063 16.8957 4.3137C16.8957 3.50471 16.9085 2.69573 16.8843 1.88922C16.8625 1.17573 16.3895 0.745756 15.6785 0.745756H9.36987C6.87117 0.745756 4.37247 0.744767 1.87378 0.742787C1.44232 0.742787 1.12417 0.92685 0.944559 1.29794C0.830836 1.52961 0.766312 1.78231 0.755053 2.04013C0.733282 2.95352 0.746145 3.8674 0.747134 4.78078C0.747134 4.83026 0.755051 4.87529 0.759999 4.92922L16.8957 4.92526ZM11.5682 11.3768C11.5138 11.5005 11.4727 11.5891 11.4351 11.6787C11.3208 11.9503 11.1922 12.2175 11.0997 12.4961C11.0007 12.7929 10.9102 12.88 10.6004 12.883C10.1892 12.887 10.1892 12.887 10.1892 13.2961C10.1892 13.7335 10.1892 13.7335 10.6346 13.737C10.9141 13.7395 11.0047 13.8271 11.0962 14.0942C11.1957 14.3846 11.3132 14.6685 11.448 14.9443C11.5806 15.214 11.5781 15.3342 11.3624 15.5514C11.0695 15.8458 11.0695 15.8458 11.3698 16.1452C11.6702 16.4445 11.6707 16.4455 11.9784 16.1452C12.1887 15.9388 12.303 15.9368 12.5722 16.0695C12.8363 16.2015 13.1093 16.3153 13.3891 16.4099C13.7196 16.5187 13.7923 16.5949 13.7938 16.9502C13.7938 17.3807 13.7503 17.3332 14.1842 17.3317C14.7186 17.3317 14.6458 17.4004 14.6518 16.875C14.6547 16.6058 14.7393 16.5182 14.9981 16.4267C15.2946 16.3245 15.5849 16.205 15.8675 16.069C16.1371 15.9373 16.2485 15.9368 16.4612 16.1457C16.7705 16.448 16.7705 16.448 17.0708 16.1457C17.3711 15.8433 17.3707 15.8448 17.0668 15.5371C16.8605 15.3283 16.859 15.2125 16.9926 14.9433C17.1247 14.6795 17.2388 14.4071 17.334 14.1279C17.4424 13.8048 17.5132 13.7365 17.8615 13.736C18.2934 13.736 18.2524 13.7726 18.2529 13.3516C18.2529 12.8934 18.2529 12.8934 17.8041 12.882C17.5399 12.8756 17.4409 12.783 17.3533 12.5317C17.2546 12.2414 17.1379 11.9575 17.004 11.6816C16.8556 11.3848 16.8556 11.2818 17.0901 11.0443C17.4157 10.7123 17.4137 10.8083 17.0861 10.4768C16.7764 10.1626 16.7744 10.1646 16.4513 10.4768C16.2564 10.6639 16.1267 10.6678 15.8858 10.552C15.6043 10.4142 15.3146 10.2937 15.0184 10.1913C14.7215 10.0924 14.6354 10.0053 14.6325 9.69208C14.6295 9.2913 14.6295 9.2913 14.2277 9.2913C13.7824 9.2913 13.7824 9.2913 13.775 9.73662C13.771 10.0038 13.68 10.0978 13.4286 10.1874C13.1326 10.2906 12.8428 10.4111 12.5608 10.5481C12.3055 10.6733 12.1788 10.6728 11.9789 10.4803C11.6598 10.1725 11.6598 10.1725 11.3401 10.4907C11.0616 10.7688 11.066 10.7648 11.3337 11.0478C11.4252 11.1453 11.492 11.2685 11.5682 11.3768Z" fill="white"/>
<path d="M8.3699 9.7088C8.07302 9.37581 7.7905 9.05914 7.50896 8.74099C7.3249 8.53318 7.32143 8.30557 7.49758 8.15615C7.67372 8.00672 7.88451 8.04383 8.0651 8.24422C8.38672 8.60146 8.70685 8.96018 9.0255 9.32039C9.25607 9.58164 9.25706 9.8325 9.0255 10.0947C8.70355 10.4602 8.37946 10.8231 8.05323 11.1833C7.87906 11.3763 7.64651 11.399 7.48323 11.2471C7.31995 11.0952 7.32638 10.8785 7.49461 10.6875C7.78109 10.3669 8.06906 10.0487 8.3699 9.7088Z" fill="white"/>
<path d="M2.94549 9.7088C3.23099 10.0294 3.50708 10.3362 3.77971 10.6489C3.83937 10.711 3.8885 10.7823 3.92518 10.8602C3.95443 10.9393 3.95516 11.0261 3.92725 11.1057C3.89934 11.1853 3.84454 11.2526 3.77229 11.2961C3.69787 11.342 3.60969 11.3603 3.52315 11.3478C3.4366 11.3354 3.35719 11.2929 3.29877 11.2278C3.10432 11.021 2.91877 10.8062 2.72927 10.594C2.57291 10.4188 2.41409 10.2476 2.26218 10.0675C2.06823 9.83893 2.06427 9.5851 2.25576 9.36294C2.59221 8.97634 2.93312 8.59371 3.27849 8.21503C3.43831 8.03888 3.66344 8.02255 3.82276 8.16555C3.98208 8.30854 3.99049 8.53169 3.83711 8.70982C3.69263 8.87904 3.54023 9.04232 3.3918 9.20807C3.24336 9.37383 3.1063 9.52771 2.94549 9.7088Z" fill="white"/>
<path d="M6.39815 8.21799C6.3269 8.51486 6.24477 8.85726 6.16362 9.19916L5.66883 11.2674C5.66339 11.2911 5.65498 11.3169 5.64755 11.3381C5.57977 11.5554 5.3957 11.6726 5.19779 11.6236C5.14931 11.6127 5.10357 11.592 5.06338 11.5627C5.02319 11.5335 4.9894 11.4964 4.96406 11.4536C4.93872 11.4109 4.92238 11.3634 4.91603 11.3141C4.90968 11.2648 4.91346 11.2147 4.92714 11.1669C5.08003 10.5005 5.24133 9.83546 5.40065 9.16997C5.48972 8.79838 5.57432 8.42778 5.67328 8.05668C5.69543 7.96816 5.75035 7.89135 5.82695 7.84175C5.90354 7.79216 5.99611 7.77348 6.08594 7.7895C6.27445 7.82215 6.40211 7.979 6.39815 8.21799Z" fill="white"/>
<path d="M5.61391 13.7379C5.66334 13.7364 5.71255 13.745 5.75858 13.7631C5.8046 13.7812 5.84648 13.8084 5.88168 13.8431C5.91688 13.8779 5.94467 13.9194 5.96336 13.9652C5.98205 14.0109 5.99127 14.06 5.99044 14.1095C5.99033 14.159 5.98031 14.208 5.961 14.2536C5.94168 14.2992 5.91344 14.3404 5.87795 14.375C5.84246 14.4095 5.80042 14.4366 5.75431 14.4546C5.7082 14.4727 5.65895 14.4813 5.60945 14.4801C5.51287 14.4769 5.42103 14.4375 5.35224 14.3696C5.28346 14.3018 5.24279 14.2105 5.23836 14.1139C5.2381 14.0645 5.24763 14.0155 5.2664 13.9698C5.28518 13.9241 5.31282 13.8826 5.34774 13.8476C5.38266 13.8127 5.42416 13.785 5.46984 13.7661C5.51553 13.7473 5.56449 13.7377 5.61391 13.7379Z" fill="white"/>
<path d="M12.7948 4.10825C12.2258 4.10825 11.6568 4.11963 11.0883 4.10528C10.4584 4.08945 9.95867 3.61445 9.8805 2.98508C9.80727 2.39677 10.2051 1.81341 10.7959 1.65161C10.8966 1.62145 11.0009 1.60481 11.1061 1.60213C12.2313 1.59867 13.3569 1.58927 14.4816 1.60461C15.0793 1.61302 15.5414 2.01677 15.673 2.58776C15.7947 3.1157 15.5538 3.6857 15.062 3.93607C14.8578 4.03609 14.635 4.09238 14.4078 4.10133C13.871 4.12458 13.3327 4.10875 12.7948 4.10875V4.10825ZM12.7988 2.35075C12.2486 2.35075 11.6984 2.34531 11.1486 2.35075C10.8379 2.35521 10.6187 2.57786 10.6232 2.85841C10.6236 2.92534 10.6374 2.99151 10.6637 3.05304C10.69 3.11458 10.7284 3.17024 10.7765 3.21678C10.8246 3.26332 10.8815 3.29979 10.9439 3.32407C11.0062 3.34834 11.0728 3.35993 11.1397 3.35815C12.2397 3.36508 13.3401 3.3631 14.44 3.35815C14.5401 3.36157 14.6389 3.33424 14.723 3.27984C14.8072 3.22544 14.8726 3.14657 14.9105 3.05385C15.0654 2.7075 14.82 2.35521 14.4118 2.34877C13.8745 2.34432 13.3366 2.35026 12.7988 2.35075Z" fill="white"/>
<path d="M7.9795 2.85939C7.97807 3.1907 7.84593 3.50805 7.6118 3.74246C7.37766 3.97687 7.06047 4.10939 6.72916 4.11121C6.39539 4.11108 6.07527 3.97871 5.83889 3.74307C5.6025 3.50742 5.46912 3.18772 5.46794 2.85395C5.47129 2.52329 5.60417 2.20713 5.83804 1.97336C6.0719 1.73958 6.38812 1.60683 6.71877 1.60361C7.05244 1.60308 7.37267 1.73506 7.60908 1.97054C7.84548 2.20601 7.97872 2.52572 7.9795 2.85939ZM6.7257 2.35272C6.65915 2.35245 6.59322 2.36547 6.53177 2.39102C6.47032 2.41657 6.41459 2.45414 6.36786 2.50152C6.32112 2.5489 6.28433 2.60514 6.25962 2.66693C6.23491 2.72872 6.2228 2.79483 6.22398 2.86137C6.22524 2.99271 6.27761 3.1184 6.36998 3.21179C6.46234 3.30517 6.58745 3.35891 6.71877 3.3616C6.85318 3.36178 6.98234 3.30941 7.07866 3.21567C7.17499 3.12193 7.23086 2.99425 7.23435 2.85988C7.23382 2.72528 7.18002 2.59636 7.0847 2.50132C6.98938 2.40628 6.86031 2.35285 6.7257 2.35272Z" fill="white"/>
<path d="M4.72427 2.8495C4.72558 3.01501 4.69405 3.17914 4.63151 3.33239C4.56897 3.48564 4.47666 3.62497 4.35992 3.74231C4.24318 3.85965 4.10433 3.95267 3.9514 4.01599C3.79847 4.07931 3.6345 4.11168 3.46898 4.11122C3.13843 4.11017 2.82172 3.97844 2.58794 3.74475C2.35416 3.51106 2.22229 3.1944 2.22112 2.86385C2.2204 2.69859 2.25233 2.53481 2.31506 2.38191C2.37779 2.22902 2.4701 2.09002 2.58668 1.97288C2.70326 1.85575 2.84183 1.76279 2.99442 1.69933C3.14702 1.63588 3.31065 1.60318 3.47591 1.60312C3.80609 1.60493 4.12227 1.73677 4.35593 1.97006C4.5896 2.20335 4.72193 2.51932 4.72427 2.8495ZM2.96825 2.8495C2.96824 2.98378 3.02107 3.11267 3.11532 3.20832C3.20958 3.30396 3.33768 3.35867 3.47195 3.36062C3.60621 3.35905 3.73442 3.30452 3.82866 3.20888C3.9229 3.11325 3.97556 2.98426 3.97516 2.84999C3.97477 2.71856 3.92263 2.59258 3.83002 2.49932C3.73741 2.40606 3.61179 2.35304 3.48036 2.35174C3.41389 2.35056 3.34785 2.36258 3.28605 2.3871C3.22425 2.41161 3.16794 2.44815 3.12035 2.49458C3.07277 2.54101 3.03487 2.59642 3.00885 2.65759C2.98282 2.71877 2.9692 2.7845 2.96875 2.85098L2.96825 2.8495Z" fill="white"/>
<path d="M11.9359 13.3074C11.9355 13.0074 11.9945 12.7103 12.1094 12.4331C12.2244 12.156 12.3929 11.9043 12.6055 11.6925C12.818 11.4808 13.0703 11.3131 13.3479 11.1992C13.6254 11.0854 13.9228 11.0275 14.2228 11.0289C14.8286 11.0298 15.4093 11.2709 15.8377 11.6993C16.266 12.1277 16.507 12.7085 16.5077 13.3143C16.5015 13.9172 16.2589 14.4935 15.832 14.9191C15.4051 15.3448 14.8281 15.5859 14.2253 15.5904C13.6193 15.5901 13.0381 15.3497 12.609 14.9218C12.1799 14.4939 11.9378 13.9134 11.9359 13.3074ZM12.6855 13.2965C12.6844 13.4991 12.7235 13.6999 12.8003 13.8874C12.8772 14.0749 12.9903 14.2453 13.1333 14.3889C13.2763 14.5324 13.4462 14.6463 13.6334 14.724C13.8205 14.8016 14.0212 14.8415 14.2238 14.8413C14.6296 14.838 15.0178 14.6754 15.3048 14.3884C15.5918 14.1015 15.7544 13.7132 15.7576 13.3074C15.7568 12.9011 15.5949 12.5117 15.3073 12.2247C15.0198 11.9377 14.6301 11.7765 14.2238 11.7765C14.0229 11.7751 13.8237 11.8133 13.6376 11.8889C13.4515 11.9646 13.2822 12.0762 13.1393 12.2174C12.9964 12.3586 12.8828 12.5266 12.8049 12.7118C12.727 12.8969 12.6864 13.0956 12.6855 13.2965Z" fill="white"/>
</g>
<defs>
<clipPath id="clip0_41_6696">
<rect width="19" height="18.0777" fill="white"/>
</clipPath>
</defs>
</svg>
