<svg width="52" height="52" viewBox="0 0 52 52" fill="none" xmlns="http://www.w3.org/2000/svg">
<g clip-path="url(#clip0_262_4958)">
<path d="M51.9964 16.3261C51.7755 17.2402 51.4365 18.0933 50.7269 18.7509C49.8788 19.5355 48.8632 19.8757 47.7168 19.8745C44.3999 19.8745 41.0827 19.8745 37.7649 19.8745H37.1556C37.1556 20.8723 37.1683 21.8295 37.1556 22.7855C37.1315 24.1198 36.3342 25.0973 35.1065 25.3068C34.8386 25.3426 34.5681 25.3562 34.2979 25.3474C27.8833 25.3474 21.4688 25.3449 15.0543 25.3398C14.8892 25.3321 14.7243 25.3611 14.5718 25.4247C14.4192 25.4884 14.2826 25.5851 14.172 25.708C13.0967 26.8086 12.0138 27.9017 10.8991 28.963C10.6367 29.2152 10.302 29.3789 9.9419 29.4315C9.34903 29.4848 8.97705 28.9935 8.96817 28.2648C8.95674 27.3203 8.96817 26.3745 8.96817 25.3449C8.68379 25.3449 8.421 25.3449 8.1582 25.3449C6.49893 25.3347 5.49219 24.3458 5.49219 22.6992C5.49219 17.4966 5.49219 12.2941 5.49219 7.09156C5.49219 5.47417 6.50781 4.46744 8.12647 4.4649C13.5245 4.4649 18.9234 4.4649 24.3231 4.4649H24.8614C25.0379 3.73999 25.1039 3.01509 25.3883 2.39175C26.1373 0.747711 27.5084 0.0075735 29.2934 0.00630397C33.6944 0.00630397 38.0954 0.00630397 42.4965 0.00630397C44.2231 0.00630397 45.9496 0.0291571 47.6762 -4.2137e-05C49.875 -0.0368585 51.6117 1.40279 51.9431 3.41753C51.9578 3.46578 51.9796 3.51156 52.0078 3.55337L51.9964 16.3261ZM38.4378 17.8496C41.5177 17.8496 44.5976 17.8496 47.6775 17.8496C49.1552 17.8496 49.9626 17.0371 49.9626 15.5568C49.9626 11.8235 49.9626 8.09026 49.9626 4.35699C49.9626 2.84244 49.1615 2.03882 47.6508 2.03755C41.5418 2.03755 35.4324 2.03755 29.3226 2.03755C27.8118 2.03755 27.0107 2.84117 27.0095 4.35572C27.0095 8.0729 27.0095 11.7892 27.0095 15.5047C27.0095 17.0536 27.8017 17.8483 29.3467 17.8496H38.4378ZM10.9918 26.0317C11.7421 25.2789 12.3997 24.6555 13.0129 23.9916C13.4585 23.5091 13.9562 23.3111 14.6214 23.3136C21.1544 23.3327 27.6874 23.3251 34.2204 23.3251C34.3563 23.3251 34.5226 23.3746 34.6203 23.3136C34.8069 23.1956 35.0888 23.0204 35.0964 22.8591C35.1408 21.8854 35.1192 20.9091 35.1192 19.8783H34.5276C32.8189 19.8783 31.1096 19.8783 29.4 19.8783C26.6705 19.8783 24.9808 18.1809 24.9795 15.4438C24.9795 12.6576 24.9795 9.87056 24.9795 7.08267V6.49869H23.9207C18.6911 6.49869 13.4615 6.49869 8.23184 6.49869C7.80781 6.49869 7.50566 6.55708 7.50693 7.08902C7.5137 12.3085 7.5137 17.528 7.50693 22.7474C7.50693 23.1511 7.67452 23.339 8.08458 23.3314C8.57462 23.3212 9.06592 23.3314 9.55723 23.3314C10.6884 23.3314 10.988 23.6348 10.9893 24.7825L10.9918 26.0317Z" fill="white"/>
<path d="M0.00381231 38.2193C0.0926795 37.8994 0.171389 37.5756 0.271682 37.2595C0.633331 36.0883 1.35609 35.0615 2.33658 34.3259C3.31708 33.5903 4.50507 33.1836 5.73067 33.164C7.48897 33.131 9.24854 33.164 11.0081 33.1462C11.309 33.1447 11.6072 33.0884 11.8879 32.9799C17.4222 30.7693 22.954 28.5514 28.4832 26.3263C28.5924 26.2819 28.7003 26.2336 28.8107 26.1918C29.721 25.8452 30.3647 26.2768 30.3672 27.2505C30.3735 29.4786 30.3812 31.7066 30.3596 33.9346C30.3596 34.3688 30.4522 34.5694 30.9017 34.7065C32.665 35.2626 33.9206 37.0767 33.9257 38.9658C33.932 40.879 32.6562 42.6792 30.8788 43.272C30.7214 43.3253 30.5614 43.3761 30.371 43.4396V46.4255C30.371 47.7928 30.3469 49.1614 30.3812 50.5274C30.3977 51.1507 30.2034 51.6027 29.6613 51.9048H29.052C28.9851 51.8571 28.9146 51.8147 28.8412 51.7779C23.5794 49.662 18.3164 47.5461 13.0521 45.4302C12.9341 45.3905 12.8142 45.357 12.6928 45.3299C12.6928 47.0882 12.6814 48.8085 12.6928 50.535C12.6928 51.1698 12.5062 51.6547 11.8815 51.901H7.31123C6.70948 51.6687 6.48858 51.2206 6.49493 50.5909C6.51016 48.8516 6.49493 47.1124 6.49493 45.3718V44.8031C6.19532 44.8031 5.96045 44.8031 5.72686 44.8031C4.50194 44.7788 3.31568 44.3699 2.33599 43.6342C1.35629 42.8985 0.632788 41.8733 0.267877 40.7038C0.168854 40.3864 0.0888672 40.0627 0 39.7427L0.00381231 38.2193ZM23.7923 30.4218C23.6539 30.465 23.5739 30.4828 23.4978 30.5132C20.004 31.9173 16.5153 33.3278 13.0152 34.7179C12.6991 34.8449 12.689 35.0455 12.6902 35.2994C12.6902 37.747 12.6991 40.196 12.6902 42.6436C12.6902 42.9788 12.7753 43.1514 13.1003 43.2784C18.0413 45.2478 22.9785 47.2253 27.9119 49.2109C28.0389 49.2617 28.1785 49.296 28.3283 49.3378V28.5772C27.625 28.859 26.9636 29.151 26.2831 29.3872C25.9124 29.5141 25.8197 29.7185 25.8223 30.0918C25.8362 33.4014 25.8312 36.7111 25.8299 40.0195C25.8299 40.9653 25.5062 41.4376 24.8473 41.4566C24.1884 41.4756 23.7986 40.9666 23.7986 40.0208V30.4231L23.7923 30.4218ZM10.6361 35.1927C8.95401 35.1927 7.33536 35.1293 5.71036 35.208C3.5712 35.3121 1.99571 37.0132 2.03506 39.0356C2.08204 41.1329 3.73369 42.7363 5.91475 42.7744C7.20078 42.796 8.48555 42.7744 9.77159 42.7744H10.6323L10.6361 35.1927ZM10.6361 44.8412H8.57315V49.852H10.6361V44.8412ZM30.3926 41.2243C31.2711 40.9374 31.897 39.9954 31.897 38.9797C31.897 37.9641 31.2698 37.0158 30.3926 36.7339V41.2243Z" fill="white"/>
<path d="M40.7737 38.0033C41.6687 38.0033 42.565 37.997 43.46 38.0033C44.1824 38.0109 44.6089 38.3842 44.6115 38.9999C44.614 39.6156 44.1887 40.0155 43.4752 40.0231C41.6505 40.0384 39.8257 40.0384 38.001 40.0231C37.3002 40.0231 36.8584 39.5839 36.8673 38.991C36.8762 38.3981 37.3155 38.0122 38.0366 38.0046C38.9493 37.997 39.866 38.0033 40.7737 38.0033Z" fill="white"/>
<path d="M38.3226 47.7736C37.962 47.5603 37.6561 47.4435 37.4339 47.2379C36.7991 46.6539 36.2025 46.0394 35.6032 45.4237C35.1145 44.9235 35.0751 44.3154 35.4763 43.9003C35.9041 43.4597 36.5135 43.494 37.0416 44.0082C37.6764 44.6328 38.3112 45.2625 38.9345 45.9036C39.2544 46.2337 39.3864 46.6653 39.1376 47.0551C38.9637 47.3344 38.6247 47.5172 38.3226 47.7736Z" fill="white"/>
<path d="M39.3241 31.2038C39.1121 31.5732 39.0054 31.8677 38.8087 32.0772C38.2209 32.7044 37.6077 33.3087 36.9869 33.9041C36.4981 34.3713 35.9116 34.3852 35.4952 33.9739C35.0788 33.5626 35.094 32.9583 35.5536 32.4847C36.1617 31.85 36.7901 31.2406 37.4147 30.6249C37.7448 30.2999 38.1701 30.1501 38.5662 30.3824C38.8658 30.5576 39.0626 30.9092 39.3241 31.2038Z" fill="white"/>
<path d="M34.1122 9.9088C34.1122 8.63927 34.1058 7.37863 34.1122 6.11291C34.1198 5.07697 34.8853 4.64025 35.7956 5.16076C38.0071 6.43029 40.2148 7.70236 42.4187 8.97697C43.3226 9.50255 43.3163 10.3861 42.406 10.9143C40.2055 12.1906 37.9982 13.4635 35.7842 14.733C34.8803 15.2497 34.1198 14.8016 34.1135 13.758C34.1058 12.4707 34.1122 11.1898 34.1122 9.9088ZM40.0384 9.94181L36.1688 7.71378V12.1673L40.0384 9.94181Z" fill="white"/>
<path d="M16.7037 10.65C18.3287 10.65 19.9524 10.65 21.5774 10.65C22.2008 10.65 22.6058 10.9039 22.7365 11.3597C22.9333 12.0351 22.4826 12.6407 21.7311 12.6686C21.0214 12.694 20.3104 12.6749 19.5995 12.6749H12.0864C11.9341 12.6749 11.7817 12.6826 11.6294 12.6749C11.0264 12.6216 10.6328 12.2217 10.6328 11.6682C10.6328 11.1147 11.0238 10.6919 11.6281 10.664C12.2629 10.6335 12.9142 10.6538 13.5565 10.6538L16.7037 10.65Z" fill="white"/>
<path d="M14.7868 18.3536C13.8054 18.3536 12.8241 18.3536 11.8427 18.3536C11.081 18.3536 10.6392 17.9728 10.6329 17.3532C10.6265 16.7337 11.0696 16.3376 11.8199 16.33C13.8004 16.3249 15.78 16.3249 17.7588 16.33C18.4989 16.33 18.9724 16.7286 18.9813 17.3316C18.9902 17.9347 18.504 18.3473 17.7296 18.3549C16.7546 18.3562 15.7681 18.3536 14.7868 18.3536Z" fill="white"/>
<path d="M21.7856 16.3325C22.0515 16.3362 22.3051 16.4452 22.4908 16.6356C22.6764 16.826 22.7789 17.0822 22.7759 17.3481C22.7759 17.6131 22.6714 17.8673 22.485 18.0556C22.2986 18.2438 22.0455 18.3509 21.7806 18.3536C21.5154 18.3473 21.2632 18.2375 21.078 18.0477C20.8927 17.858 20.789 17.6032 20.7891 17.338C20.7917 17.0737 20.8972 16.8208 21.0833 16.633C21.2694 16.4453 21.5213 16.3375 21.7856 16.3325Z" fill="white"/>
<path d="M25.8055 44.5897C25.8055 44.8554 25.7015 45.1105 25.5157 45.3003C25.3298 45.4902 25.077 45.5997 24.8114 45.6053C24.547 45.598 24.2953 45.4897 24.1081 45.3028C23.9209 45.1158 23.8124 44.8643 23.8047 44.5999C23.808 44.3351 23.9145 44.0821 24.1016 43.8948C24.2887 43.7074 24.5416 43.6005 24.8063 43.5969C25.0699 43.5979 25.3225 43.7026 25.5095 43.8884C25.6965 44.0742 25.8028 44.3261 25.8055 44.5897Z" fill="white"/>
</g>
<defs>
<clipPath id="clip0_262_4958">
<rect width="52" height="51.9048" fill="white"/>
</clipPath>
</defs>
</svg>
