<svg width="63" height="55" viewBox="0 0 63 55" fill="none" xmlns="http://www.w3.org/2000/svg">
<g clip-path="url(#clip0_262_4912)">
<path d="M10.2942 14.4513H36.222C35.7274 13.3051 35.5827 12.165 35.8819 10.9891C36.4124 8.90813 38.2943 7.36871 40.4433 7.31802C42.1249 7.27969 43.809 7.30565 45.4931 7.30194C45.7145 7.31752 45.9362 7.2749 46.1361 7.1783C45.9481 7.04105 45.7651 6.89761 45.571 6.76902C39.6656 2.80486 33.221 1.56467 26.2596 2.94458C26.1187 2.97302 25.9789 3.00888 25.8367 3.02619C25.059 3.11645 24.5063 2.7418 24.3777 2.037C24.254 1.3829 24.625 0.78692 25.3557 0.636069C26.4785 0.404847 27.6099 0.141476 28.7487 0.0734691C40.4717 -0.682021 49.3423 4.01043 55.3862 14.089C55.4638 14.1938 55.5619 14.2818 55.6745 14.3474C55.7872 14.4131 55.9121 14.4552 56.0415 14.4711C56.8564 14.544 57.6885 14.4711 58.4947 14.5947C60.9961 14.9582 62.946 17.1196 62.9621 19.6482C63.0042 24.6176 63.0116 29.5883 62.9621 34.5577C62.9312 37.4214 60.5745 39.7015 57.5624 39.6533C56.1825 39.631 55.5308 40.0922 54.8298 41.2409C50.3586 48.5732 43.8325 52.9776 35.3379 54.2437C24.0364 55.9266 12.9575 50.287 7.51702 40.2381C7.28209 39.8041 7.01624 39.6978 6.55874 39.6891C5.68084 39.673 4.77821 39.6891 3.93246 39.4863C2.1309 39.0635 0.909257 37.8975 0.260104 36.1664C0.116033 35.7815 0.0411066 35.3742 0.0387761 34.9633C0.0251748 29.8492 0.10431 24.7339 -0.00697309 19.6222C-0.0514864 17.5697 1.67835 15.0275 4.23787 14.6096C5.08115 14.4711 5.9541 14.4859 6.81346 14.4958C7.21779 14.4958 7.42428 14.3721 7.61965 14.0136C9.67546 10.2732 12.5856 7.07115 16.113 4.66824C16.6188 4.31955 17.1294 4.233 17.6537 4.59899C18.1087 4.91801 18.2942 5.40642 18.1025 5.8973C17.9357 6.26444 17.6703 6.57817 17.3359 6.80364C14.6725 8.67179 12.3942 11.0358 10.6255 13.7663C10.5143 13.9381 10.4092 14.1137 10.3053 14.2905C10.2935 14.3433 10.2898 14.3974 10.2942 14.4513ZM16.8475 47.0771C29.9827 56.875 46.9126 50.8966 52.7945 39.6953H52.1008C49.515 39.6953 46.9291 39.6953 44.3432 39.6953C44.0767 39.7033 43.8101 39.6826 43.5481 39.6335C42.941 39.4987 42.5849 38.9893 42.6245 38.3636C42.6373 38.0843 42.7502 37.819 42.9424 37.6161C43.1347 37.4131 43.3936 37.2861 43.6718 37.2582C43.9184 37.2356 44.1661 37.2273 44.4136 37.2335C48.724 37.2335 53.0344 37.2335 57.3448 37.2335C59.333 37.2335 60.5126 36.0291 60.5139 34.0372C60.5139 29.3971 60.5139 24.7561 60.5139 20.1144C60.5139 18.1632 59.3182 16.9502 57.3782 16.949C40.0963 16.949 22.8135 16.949 5.52999 16.949C3.57511 16.949 2.37449 18.1496 2.37325 20.0909C2.37325 24.7524 2.37325 29.4135 2.37325 34.0743C2.36524 34.3408 2.38347 34.6075 2.42766 34.8705C2.73431 36.3741 3.90402 37.2347 5.64251 37.2347H33.4139C33.6806 37.2251 33.9475 37.2355 34.2127 37.2656C34.3849 37.2922 34.5492 37.3564 34.694 37.4535C34.8387 37.5507 34.9603 37.6784 35.0502 37.8278C35.1401 37.9771 35.196 38.1444 35.2141 38.3177C35.2322 38.4911 35.212 38.6663 35.1549 38.831C34.9583 39.4257 34.523 39.6965 33.6896 39.6965C31.5542 39.6965 29.4201 39.6965 27.2847 39.6965H26.5576C26.638 39.9154 26.6899 40.0675 26.748 40.2134C28.0105 43.4208 25.9171 46.8113 22.4834 47.0301C20.9699 47.1266 19.4478 47.0672 17.9282 47.0771C17.5721 47.0783 17.2135 47.0771 16.8549 47.0771H16.8475ZM10.1 39.6953C10.1209 39.7988 10.1545 39.8993 10.2002 39.9945C11.313 41.4585 12.4258 42.9262 13.5671 44.3704C13.6908 44.525 13.9937 44.5967 14.2163 44.6017C15.3637 44.6239 16.5124 44.6165 17.6599 44.6103C19.2587 44.6029 20.8599 44.6462 22.4537 44.5571C23.778 44.483 24.7301 43.291 24.6571 41.9853C24.5842 40.6523 23.3873 39.6533 22.1842 39.673C18.3931 39.7349 14.5996 39.6953 10.8085 39.6953H10.1ZM52.75 14.4822C51.7848 12.8355 50.6222 11.3129 49.2879 9.94802C49.1494 9.83252 48.9735 9.77142 48.7933 9.77614C46.0458 9.76625 43.2971 9.75883 40.5496 9.77614C39.4962 9.7848 38.6331 10.4748 38.3017 11.4788C37.7861 13.0454 38.8161 14.4797 40.4581 14.4797H52.7512L52.75 14.4822Z" fill="white"/>
<path d="M22.1074 3.41028C22.1101 3.57456 22.0792 3.73766 22.0166 3.88958C21.954 4.04149 21.861 4.17903 21.7434 4.29375C21.6258 4.40848 21.486 4.49797 21.3326 4.55676C21.1791 4.61555 21.0153 4.64239 20.8511 4.63563C20.5299 4.63433 20.2222 4.50586 19.9953 4.27833C19.7685 4.05079 19.6409 3.7427 19.6406 3.42141C19.6505 3.09004 19.7882 2.77535 20.0249 2.54324C20.2617 2.31114 20.579 2.17964 20.9105 2.17627C21.2317 2.18467 21.5369 2.31854 21.7606 2.5492C21.9843 2.77985 22.1088 3.08895 22.1074 3.41028Z" fill="white"/>
<path d="M30.6279 24.2177C32.6594 23.2953 34.393 23.5759 35.6678 25.0041C36.2143 25.624 36.5513 26.4006 36.6305 27.2232C36.7098 28.0458 36.5273 28.8724 36.1092 29.5852C35.0916 31.2854 33.5571 31.7244 30.8035 31.069C30.8035 31.9803 30.8035 32.8792 30.8035 33.7782C30.8109 34.0235 30.7889 34.2688 30.7379 34.5089C30.6739 34.7705 30.5202 35.0013 30.3035 35.1613C30.0869 35.3212 29.821 35.4002 29.5522 35.3844C29.2731 35.3659 29.0102 35.2464 28.8129 35.0482C28.6156 34.8499 28.4973 34.5866 28.4801 34.3074C28.4504 33.8375 28.464 33.3639 28.464 32.8916C28.464 30.2843 28.464 27.6769 28.464 25.0696C28.464 24.5033 28.464 23.9147 29.1058 23.6662C29.7203 23.4276 30.2149 23.686 30.6279 24.2177ZM34.4103 27.5179C34.4104 27.0722 34.236 26.6442 33.9245 26.3255C33.613 26.0068 33.1891 25.8228 32.7435 25.8127C32.5175 25.8105 32.2932 25.8527 32.0835 25.9371C31.8738 26.0215 31.6828 26.1464 31.5214 26.3046C31.3599 26.4628 31.2312 26.6513 31.1426 26.8593C31.054 27.0672 31.0073 27.2906 31.005 27.5166C31.0096 27.9738 31.1948 28.4106 31.5203 28.7317C31.8458 29.0528 32.2851 29.232 32.7423 29.2304C33.188 29.2166 33.611 29.0304 33.9221 28.7109C34.2332 28.3915 34.4083 27.9638 34.4103 27.5179Z" fill="white"/>
<path d="M9.37013 24.1485C9.98837 23.9593 10.5015 23.7368 11.0369 23.6539C12.8916 23.3559 14.3841 24.5937 14.4286 26.4669C14.4632 27.9037 14.4471 29.3418 14.4286 30.7785C14.4286 31.5575 13.9229 32.0954 13.2576 32.0917C12.5924 32.088 12.099 31.5674 12.0929 30.7823C12.0842 29.5297 12.1015 28.2771 12.0842 27.0246C12.0743 26.3124 11.691 25.7992 11.0802 25.6373C10.4694 25.4753 9.95993 25.6706 9.62732 26.1751C9.46453 26.4552 9.37918 26.7736 9.38002 27.0975C9.35158 28.334 9.38002 29.5618 9.36147 30.7934C9.34292 31.7578 8.5491 32.3279 7.75404 31.9779C7.30273 31.7813 7.03688 31.4339 7.03565 30.9282C7.03565 27.7034 7.02575 24.4799 7.03565 21.2552C7.03313 21.1058 7.06072 20.9574 7.11677 20.819C7.17281 20.6805 7.25617 20.5547 7.36186 20.4491C7.46756 20.3435 7.59343 20.2603 7.73198 20.2044C7.87052 20.1485 8.0189 20.1211 8.16827 20.1238C8.82484 20.1114 9.33056 20.5664 9.35405 21.2749C9.39362 22.2332 9.37013 23.1952 9.37013 24.1485Z" fill="white"/>
<path d="M48.4376 31.2928C48.4808 31.1139 48.5341 30.9377 48.5971 30.7648C49.8954 27.5314 51.2036 24.3017 52.4945 21.0658C52.7109 20.5255 53.0237 20.1397 53.6221 20.0668C54.5915 19.9431 55.2407 20.9199 54.8426 21.9215C54.0586 23.8999 53.2537 25.8782 52.4561 27.8566C51.9047 29.2266 51.3594 30.6004 50.7918 31.9617C50.6894 32.2346 50.4896 32.4598 50.2309 32.5941C49.9722 32.7283 49.673 32.7621 49.3909 32.6888C48.8135 32.5528 48.4314 32.0433 48.4376 31.2928Z" fill="white"/>
<path d="M43.0781 31.1743C43.156 30.9047 43.2018 30.6797 43.2821 30.4769C44.5866 27.2237 45.8849 23.9693 47.2203 20.7297C47.3625 20.3847 47.6853 19.9705 48.0055 19.8803C48.4309 19.7916 48.8742 19.8714 49.242 20.1028C49.6908 20.4045 49.7873 20.9548 49.5783 21.4902C49.174 22.5201 48.7561 23.5452 48.3418 24.5715C47.4095 26.8911 46.4846 29.2145 45.5437 31.5242C45.1356 32.5233 43.9907 32.731 43.4008 31.9223C43.2339 31.706 43.1746 31.4129 43.0781 31.1743Z" fill="white"/>
<path d="M25.3989 25.9143V30.1245C25.3989 30.3495 25.4076 30.5758 25.3989 30.8009C25.3655 31.5526 24.8944 32.0633 24.2441 32.0608C23.5937 32.0584 23.1015 31.5366 23.0929 30.7972C23.0768 29.3826 23.0929 27.9681 23.0929 26.5523V25.9019C22.0295 25.7189 21.6091 25.3789 21.6338 24.7606C21.6549 24.1659 22.0666 23.8506 23.0818 23.7047C23.0818 23.3214 23.0743 22.9208 23.0818 22.5201C23.0991 21.7609 23.5479 21.2626 24.2119 21.249C24.8969 21.2354 25.3841 21.7548 25.4026 22.53C25.4113 22.9158 25.4026 23.3016 25.4026 23.7245C26.2014 23.7678 27.0459 23.7319 27.1251 24.7903C27.172 25.4494 26.7504 25.7127 25.3989 25.9143Z" fill="white"/>
<path d="M16.8484 23.6971C16.8484 23.289 16.8348 22.902 16.8484 22.5175C16.8806 21.7187 17.3517 21.2254 18.0429 21.2489C18.7019 21.2711 19.1372 21.7768 19.1471 22.5385C19.1532 22.9243 19.1471 23.3101 19.1471 23.686C20.5801 23.9234 20.9053 24.1459 20.8781 24.8458C20.8534 25.5159 20.4923 25.7435 19.1372 25.898C19.1372 26.1008 19.1372 26.3172 19.1372 26.5323C19.1372 27.8925 19.1471 29.2402 19.1471 30.5942C19.1471 31.529 18.7477 32.0458 18.0342 32.0582C17.3208 32.0705 16.8732 31.5253 16.8707 30.5744C16.8707 29.2402 16.8707 27.9073 16.8707 26.5744V25.9228C15.7356 25.6755 15.4092 25.4059 15.4141 24.7827C15.4191 24.1595 15.7838 23.8702 16.8484 23.6971Z" fill="white"/>
<path d="M41.3264 31.2076C41.3283 31.3762 41.2961 31.5435 41.2318 31.6994C41.1674 31.8552 41.0722 31.9965 40.9518 32.1146C40.8315 32.2328 40.6885 32.3254 40.5315 32.3869C40.3744 32.4484 40.2066 32.4775 40.038 32.4725C39.6978 32.4697 39.372 32.3343 39.1301 32.095C38.8881 31.8558 38.7489 31.5317 38.7422 31.1915C38.7496 30.8412 38.8945 30.5079 39.1454 30.2634C39.3964 30.0189 39.7334 29.8828 40.0838 29.8845C40.2523 29.8897 40.4181 29.9279 40.5718 29.9972C40.7255 30.0665 40.8641 30.1654 40.9795 30.2883C41.0949 30.4112 41.185 30.5557 41.2445 30.7134C41.304 30.8711 41.3319 31.0391 41.3264 31.2076Z" fill="white"/>
<path d="M41.3256 26.3506C41.3333 26.519 41.3068 26.6873 41.2475 26.8451C41.1882 27.003 41.0975 27.1471 40.9808 27.2689C40.8642 27.3906 40.724 27.4874 40.5688 27.5534C40.4136 27.6193 40.2467 27.6531 40.078 27.6526C39.7274 27.6599 39.3882 27.5278 39.1349 27.2853C38.8815 27.0429 38.7347 26.7098 38.7266 26.3592C38.7401 26.0197 38.883 25.6982 39.1261 25.4607C39.3691 25.2232 39.6938 25.0877 40.0335 25.0819C40.2019 25.0795 40.3691 25.1104 40.5255 25.173C40.6818 25.2356 40.8242 25.3286 40.9443 25.4466C41.0645 25.5646 41.1601 25.7052 41.2255 25.8604C41.291 26.0155 41.325 26.1821 41.3256 26.3506Z" fill="white"/>
<path d="M37.7114 38.4323C37.711 38.2734 37.7425 38.116 37.8039 37.9694C37.8654 37.8228 37.9556 37.6901 38.0693 37.5789C38.1829 37.4678 38.3177 37.3806 38.4656 37.3225C38.6136 37.2643 38.7716 37.2364 38.9305 37.2404C39.0945 37.2367 39.2575 37.2661 39.4099 37.3268C39.5622 37.3875 39.7008 37.4782 39.8174 37.5936C39.9339 37.709 40.026 37.8466 40.0882 37.9984C40.1504 38.1501 40.1814 38.3129 40.1794 38.4768C40.1673 38.798 40.0322 39.1021 39.802 39.3263C39.5718 39.5505 39.2642 39.6776 38.9429 39.6812C38.7791 39.6832 38.6166 39.6522 38.4652 39.5899C38.3137 39.5277 38.1763 39.4355 38.0613 39.3189C37.9463 39.2023 37.856 39.0636 37.7959 38.9113C37.7358 38.759 37.707 38.596 37.7114 38.4323Z" fill="white"/>
</g>
<defs>
<clipPath id="clip0_262_4912">
<rect width="63" height="54.5326" fill="white"/>
</clipPath>
</defs>
</svg>
