<svg width="56" height="42" viewBox="0 0 56 42" fill="none" xmlns="http://www.w3.org/2000/svg">
<g clip-path="url(#clip0_262_4906)">
<path d="M55.784 31.6694C55.7012 31.9991 55.6242 32.3304 55.5356 32.6573C55.1218 34.1738 54.2241 35.5138 52.9791 36.4735C51.734 37.4333 50.2097 37.9603 48.6378 37.9744C46.2973 37.9933 43.9554 37.9861 41.6136 37.9744C41.2533 37.9744 41.0499 38.0631 40.8523 38.4016C39.4998 40.726 37.4659 42.003 34.7506 42.0001C32.0353 41.9972 30.0029 40.7318 28.6489 38.3987C28.4513 38.0587 28.245 37.9744 27.8862 37.9744C21.1337 37.9832 14.3753 37.9221 7.63147 38.0021C3.37917 38.0529 0.45617 34.989 0.076993 31.8074C0.076993 31.7594 0.0261501 31.7159 0 31.6621V30.3546C0.398063 29.3696 1.12736 28.9686 2.17918 29.0355C2.95206 29.0863 3.72929 29.0456 4.56319 29.0456V18.5246C4.56319 18.3793 4.56319 18.234 4.56319 18.0887C4.58353 17.5309 4.88716 17.1953 5.37094 17.1953C5.85472 17.1953 6.1845 17.5294 6.19031 18.0829C6.20339 19.3904 6.19031 20.6979 6.19031 21.9967V22.6505C6.41114 22.6606 6.60145 22.6766 6.79177 22.6766C15.8165 22.6766 24.8407 22.6732 33.8644 22.6665C34.1433 22.6566 34.4111 22.5544 34.6257 22.3759C37.3554 19.9991 41.246 20.0108 43.9671 22.4166C44.1054 22.5528 44.2845 22.6401 44.477 22.665C46.1462 22.6839 47.8184 22.6766 49.5734 22.6766V2.77348C49.5734 1.85241 49.3467 1.62869 48.4111 1.62723C46.1782 1.62723 43.9453 1.6345 41.7123 1.61706C41.4392 1.61706 41.0847 1.54878 40.922 1.37154C40.7593 1.1943 40.6228 0.762827 40.7215 0.563796C40.8016 0.424111 40.9114 0.303783 41.0432 0.211377C41.1751 0.118972 41.3256 0.0567605 41.4843 0.0291697C42.4431 -0.0362056 43.4077 0.00301924 44.3695 0.00156645C45.768 0.00156645 47.1666 0.00156645 48.5651 0.00156645C50.2169 0.00156645 51.2034 0.986554 51.2034 2.64128C51.2034 11.1769 51.2034 19.712 51.2034 28.2466V29.0456C51.9007 29.0456 52.5821 29.0456 53.262 29.0456C53.5889 29.0456 53.9186 29.0267 54.2426 29.0587C55.0402 29.1415 55.4702 29.6776 55.7724 30.3546L55.784 31.6694ZM6.24406 24.3343V29.0558H25.5094C26.3564 29.0558 26.7443 29.3028 26.7574 29.8505C26.7705 30.3982 26.3608 30.6873 25.492 30.6873H1.63728C1.63728 30.8558 1.63728 30.9459 1.63728 31.0359C1.71137 33.9677 4.22614 36.3415 7.30314 36.3459C13.9859 36.3575 20.6688 36.3575 27.3516 36.3459H27.8542C27.4707 32.589 28.9918 30.0059 32.3782 28.4514C32.1937 27.0379 32.4566 25.6723 33.0915 24.3299L6.24406 24.3343ZM41.2794 32.5018C43.8567 31.588 45.2586 28.5546 44.3608 25.8916C43.4266 23.1197 40.4208 21.5899 37.678 22.4921C35.2257 23.2984 33.4358 26.0587 34.0576 28.0824C37.4179 27.9735 39.8281 29.4248 41.2794 32.5018ZM34.7419 40.3832C36.1538 40.3897 37.5106 39.8355 38.5141 38.8424C39.5176 37.8492 40.0859 36.4982 40.0939 35.0863C40.0974 34.3826 39.9619 33.6852 39.6954 33.0339C39.4288 32.3827 39.0364 31.7904 38.5406 31.2911C38.0448 30.7918 37.4553 30.3952 36.8059 30.124C36.1566 29.8529 35.4601 29.7125 34.7564 29.711C33.3451 29.7098 31.9907 30.2668 30.9886 31.2605C29.9864 32.2542 29.418 33.6039 29.4073 35.0151C29.4015 35.7192 29.5354 36.4175 29.8013 37.0695C30.0672 37.7215 30.4598 38.3142 30.9564 38.8135C31.4529 39.3127 32.0435 39.7085 32.6941 39.9779C33.3446 40.2474 34.0421 40.3851 34.7462 40.3832H34.7419ZM54.122 30.7512C54.0794 30.7281 54.034 30.7105 53.9869 30.6989C51.2659 30.6989 48.5462 30.6858 45.8252 30.6989C45.734 30.712 45.6467 30.7447 45.5694 30.7949C45.4922 30.8451 45.4268 30.9115 45.3777 30.9895C44.6083 32.3361 43.4225 33.3965 41.9985 34.0113C41.9313 34.0408 41.8713 34.0847 41.8229 34.14C41.7744 34.1952 41.7387 34.2603 41.7182 34.3309C41.692 34.9904 41.7065 35.65 41.7065 36.3502H48.26C48.5508 36.3581 48.8418 36.3499 49.1317 36.3255C51.9937 36.0146 54.2353 33.5202 54.1264 30.7512H54.122ZM46.1317 29.0079H49.553V24.359H45.4852C46.2171 25.7939 46.4458 27.4332 46.1346 29.0137L46.1317 29.0079Z" fill="white"/>
<path d="M31.2523 18.1815C31.6475 19.2551 31.5429 19.8856 30.9124 20.3607C30.6587 20.5564 30.3487 20.6651 30.0283 20.6706C29.708 20.6761 29.3944 20.5781 29.1342 20.3912C28.4732 19.9307 28.3598 19.3191 28.7376 18.1772H25.6475C26.0194 19.3525 25.8974 19.967 25.2117 20.4145C24.9468 20.5946 24.6307 20.6842 24.3107 20.6698C23.9907 20.6554 23.684 20.5378 23.4364 20.3346C22.8117 19.8333 22.71 19.1839 23.1458 18.1946C23.0194 18.1772 22.9003 18.1539 22.7826 18.1481C22.2509 18.1205 21.969 17.8576 21.8703 17.3244C21.3473 14.5132 20.8083 11.7065 20.2722 8.89823C20.0267 7.60089 19.7579 6.30646 19.5458 5.00332C19.4717 4.55876 19.2683 4.42946 18.8557 4.45707C18.494 4.48031 18.1293 4.47014 17.7661 4.45707C17.185 4.43818 16.8218 4.09968 16.8364 3.61591C16.8509 3.13213 17.1923 2.84738 17.7589 2.83721C18.1947 2.82995 18.6305 2.83721 19.0664 2.83721C20.1632 2.85174 20.8649 3.41833 21.109 4.49629C21.1686 4.75779 21.2165 5.0222 21.2775 5.31566H33.0131C34.2218 5.31566 34.5487 5.69484 34.3308 6.87305C33.8949 9.1975 33.4591 11.5321 33.0117 13.8609C32.8809 14.5525 32.6397 14.7486 31.8828 14.75C29.1787 14.75 26.4741 14.75 23.769 14.75H23.0572C23.1315 15.2712 23.2328 15.7881 23.3608 16.2987C23.3942 16.4149 23.6979 16.5137 23.878 16.5137C26.4 16.5283 28.9235 16.5239 31.447 16.5239C31.6097 16.5239 31.7739 16.5239 31.9366 16.5326C32.1305 16.5333 32.3165 16.6096 32.4552 16.7452C32.5938 16.8808 32.6741 17.0651 32.679 17.259C32.7167 17.7166 32.4698 18.0203 32.0136 18.1103C31.7613 18.1479 31.5072 18.1717 31.2523 18.1815ZM24.4068 9.21784C24.3603 8.51324 24.3269 7.86675 24.2615 7.22172C24.2435 7.16043 24.2104 7.10465 24.1652 7.05947C24.12 7.01429 24.0642 6.98117 24.0029 6.96312C23.2112 6.94278 22.418 6.9515 21.5782 6.9515C21.7061 7.65465 21.8092 8.29242 21.9487 8.92293C21.973 8.9913 22.0136 9.0527 22.0671 9.10182C22.1205 9.15093 22.1851 9.18627 22.2552 9.20477C22.954 9.23092 23.6543 9.21784 24.4068 9.21784ZM32.2359 9.19314C32.3812 8.43479 32.5061 7.71857 32.6397 6.98782H30.0436C29.9913 7.73745 29.9419 8.44932 29.8911 9.19314H32.2359ZM26.0485 9.1699H28.2538C28.3061 8.42317 28.3555 7.72438 28.4092 6.99072H25.8959C25.941 7.736 25.9918 8.45077 26.0412 9.1699H26.0485ZM22.3192 10.8769C22.4485 11.5786 22.5589 12.2164 22.6911 12.8498C22.7114 12.9486 22.8364 13.0968 22.9104 13.0997C23.4916 13.1215 24.0828 13.1113 24.6959 13.1113L24.523 10.8769H22.3192ZM29.6092 13.12C30.1976 13.12 30.6872 13.1404 31.1724 13.1069C31.2496 13.0923 31.322 13.0591 31.3835 13.0102C31.445 12.9614 31.4937 12.8984 31.5255 12.8266C31.6707 12.199 31.7782 11.5626 31.9032 10.9016H29.7647C29.7051 11.6483 29.6572 12.3457 29.602 13.12H29.6092ZM26.1661 10.8856C26.2301 11.6658 26.2882 12.3762 26.3492 13.1186C26.8431 13.1186 27.2601 13.1375 27.6727 13.1055C27.7419 13.0902 27.8061 13.0579 27.8597 13.0114C27.9132 12.965 27.9543 12.906 27.9792 12.8396C28.0475 12.199 28.0765 11.5539 28.1245 10.8522C27.6131 10.8522 27.1627 10.8522 26.7138 10.8522C26.5439 10.8551 26.3841 10.8682 26.1589 10.8856H26.1661Z" fill="white"/>
<path d="M22.0388 0.0116047C26.9782 0.0116047 31.9148 0.0116047 36.8484 0.0116047C37.0296 0.00407197 37.211 0.00746681 37.3918 0.021773C37.5859 0.0304125 37.7691 0.113938 37.9029 0.254807C38.0368 0.395675 38.1108 0.582924 38.1095 0.777221C38.1303 0.961008 38.081 1.1459 37.9714 1.29487C37.8617 1.44384 37.6999 1.5459 37.5182 1.58061C37.2878 1.62702 37.0527 1.64507 36.8179 1.63436H7.47168C7.23684 1.61478 7.00041 1.62996 6.77 1.6794C6.29494 1.82468 6.20195 2.21693 6.20341 2.67311C6.21212 6.24211 6.21212 9.81064 6.20341 13.3787C6.20341 13.524 6.20341 13.6692 6.20341 13.8145C6.18161 14.3956 5.8591 14.7487 5.36079 14.737C4.86249 14.7254 4.57629 14.3913 4.57483 13.8232C4.57483 10.0198 4.56466 6.21645 4.57483 2.4116C4.57483 1.00531 5.64699 0.0116033 7.11431 0.0101505C12.0896 0.0062764 17.0644 0.00676208 22.0388 0.0116047Z" fill="white"/>
<path d="M33.6396 34.2146C34.3166 34.3744 35.3611 33.9095 35.3829 35.0354C35.3989 36.186 34.3297 35.7618 33.6745 35.9071C34.0348 36.7512 35.1854 37.0562 35.9001 36.5085C35.9858 36.4432 36.057 36.3633 36.1413 36.2892C36.5147 35.9986 36.9679 36.0073 37.2701 36.3211C37.5723 36.6349 37.5694 37.078 37.2701 37.45C36.567 38.3216 35.2362 38.6412 34.0377 38.2388C33.5675 38.0912 33.1367 37.8396 32.7773 37.5025C32.4179 37.1655 32.1391 36.7518 31.9616 36.2921C31.8599 36.0407 31.7742 35.8693 31.4561 35.8388C31.3546 35.8371 31.2547 35.8141 31.1626 35.7714C31.0706 35.7286 30.9886 35.6671 30.9218 35.5907C30.855 35.5144 30.8049 35.4248 30.7749 35.3279C30.7448 35.231 30.7353 35.1289 30.7471 35.0282C30.7631 34.5763 31.0377 34.3337 31.4953 34.2364C31.5923 34.2003 31.6809 34.1448 31.7559 34.0734C31.8308 34.002 31.8904 33.9161 31.9311 33.8209C32.7302 31.9323 34.9137 31.1303 36.6846 32.1037C37.2657 32.4204 37.4546 32.8853 37.2004 33.34C36.9461 33.7947 36.5292 33.8441 35.9234 33.5463C35.0125 33.096 34.0725 33.356 33.6396 34.2146Z" fill="white"/>
</g>
<defs>
<clipPath id="clip0_262_4906">
<rect width="55.7869" height="42" fill="white"/>
</clipPath>
</defs>
</svg>
