<svg width="57" height="58" viewBox="0 0 57 58" fill="none" xmlns="http://www.w3.org/2000/svg">
<g clip-path="url(#clip0_262_4932)">
<path d="M28.0272 57.9992H3.25698C1.1288 57.9992 0.0051426 56.885 0 54.7628C0 44.6045 0.00457413 34.4461 0.0137165 24.2877C0.0137165 23.9886 0.133709 23.5909 0.343698 23.4058C8.84271 15.9062 17.3529 8.42081 25.8742 0.949748C27.3064 -0.307618 28.874 -0.314475 30.3157 0.949748C38.8352 8.42481 47.3462 15.9102 55.8487 23.4058C56.0491 23.6087 56.1651 23.8801 56.1735 24.1652C56.1895 34.431 56.1932 44.6964 56.1847 54.9617C56.1847 56.8207 54.9847 57.9975 53.1188 57.9984C44.7552 58.0006 36.3914 58.0009 28.0272 57.9992ZM2.60559 27.1145V53.5757C6.29798 49.8842 9.89609 46.2904 13.4385 42.7428L15.3952 44.5916L4.59577 55.3911H51.7517L40.9266 44.5693L42.8122 42.6605L53.5782 53.4214V27.1607C53.3468 27.3484 53.1857 27.4702 53.0348 27.603C45.5512 34.1815 38.0667 40.7615 30.5814 47.3429C28.8269 48.8857 27.3929 48.8985 25.6522 47.3695C18.3725 40.9761 11.0963 34.5792 3.82353 28.179C3.44384 27.8473 3.06842 27.5164 2.60559 27.1145ZM52.926 24.2757C52.8085 24.1515 52.7545 24.0846 52.6928 24.0298C44.6944 16.997 36.6953 9.96359 28.6957 2.92965C28.2115 2.5011 27.8832 2.57995 27.4392 2.97165C19.5128 9.95359 11.58 16.9307 3.64097 23.9029C3.51841 24.01 3.4147 24.1386 3.28785 24.2723C3.42755 24.4043 3.53125 24.5097 3.64182 24.6074L20.7487 39.6487C22.9823 41.6115 25.2253 43.5631 27.4409 45.5455C27.9261 45.9792 28.3058 46.0101 28.7463 45.537C28.9177 45.3501 29.1294 45.1941 29.3223 45.027L47.204 29.3103C49.0947 27.6459 50.9889 25.9797 52.926 24.2757Z" fill="white"/>
<path d="M32.477 32.6923L33.6521 34.9499C31.5865 36.005 29.4412 36.4781 27.1819 36.2742C21.5721 35.7685 17.3046 31.8918 16.2178 26.3729C14.9219 19.7887 19.7816 13.1007 26.4396 12.3062C33.023 11.5211 38.7236 15.6197 39.9381 22.1174C40.1982 23.5057 40.2482 24.9252 40.0864 26.3284C39.7187 29.3719 36.4008 30.8779 33.7524 29.3205L33.4027 29.1157C32.507 30.3747 31.3602 31.243 29.8594 31.6227C26.2253 32.5441 22.6598 30.6593 22.0795 27.1923C21.7487 25.227 21.8095 23.1219 22.1104 21.1429C22.5029 18.563 24.9645 16.788 27.5907 16.6791C29.8791 16.584 31.8059 17.2371 33.2056 19.1296C34.0112 20.2198 34.3249 21.4626 34.3249 22.804C34.3249 23.8513 34.3249 24.9004 34.3815 25.9444C34.4295 26.7878 35.0775 27.3457 35.9088 27.3672C36.7402 27.3886 37.4833 26.8186 37.5691 25.983C38.1965 19.8118 34.4269 15.9129 30.0514 14.9546C24.9011 13.8267 19.6248 17.3648 18.7377 22.564C17.8283 27.9037 21.4864 32.946 26.7447 33.6489C28.7401 33.9128 30.6128 33.5786 32.477 32.6923ZM31.7108 24.3922H31.7528C31.7528 23.9002 31.7528 23.4091 31.7528 22.9171C31.7408 20.5566 30.4123 19.2453 28.0372 19.2487C25.8739 19.253 24.4854 20.5515 24.4443 22.6471C24.4211 23.8008 24.404 24.9613 24.4631 26.1089C24.5488 27.7811 25.7488 29.0059 27.415 29.2211C29.3863 29.4782 30.9788 28.6468 31.5454 27.0612C31.6385 26.8001 31.6919 26.5265 31.7039 26.2495C31.7271 25.6307 31.7108 25.011 31.7108 24.3922Z" fill="white"/>
</g>
<defs>
<clipPath id="clip0_262_4932">
<rect width="56.1855" height="58" fill="white"/>
</clipPath>
</defs>
</svg>
