<svg width="56" height="51" viewBox="0 0 56 51" fill="none" xmlns="http://www.w3.org/2000/svg">
<g clip-path="url(#clip0_262_4971)">
<path d="M30.7277 42.0565C31.0512 44.8924 32.1806 47.1433 34.5886 48.6414C34.9375 48.8512 35.3015 49.0347 35.6776 49.1905C36.1831 49.4098 36.488 49.7505 36.3542 50.3183C36.2205 50.8861 35.7973 51.0027 35.2824 51.0027C30.9735 51.0027 26.665 51.0027 22.357 51.0027H16.6527C15.934 51.0027 15.5856 50.7865 15.4845 50.2918C15.3833 49.7972 15.6042 49.4518 16.2623 49.1625C19.2023 47.8558 20.6443 45.4788 21.0939 42.3941C21.0984 42.2824 21.0932 42.1705 21.0784 42.0597H20.369C15.1484 42.0597 9.92789 42.0021 4.70889 42.0845C2.03017 42.1265 -0.00765493 40.0841 0.00790096 37.3773C0.0654578 27.966 0.0296783 18.5547 0.0312339 9.13872C0.0312339 6.22821 1.83416 4.43462 4.76334 4.43462C18.1539 4.43462 31.5444 4.43773 44.9349 4.44395C45.1512 4.45188 45.3665 4.41113 45.5649 4.3247C45.7634 4.23828 45.9398 4.10838 46.0813 3.94461C47.0738 2.90703 48.1036 1.90056 49.1194 0.889428C50.3297 -0.30682 51.8712 -0.303709 53.0908 0.889428C53.6586 1.44633 54.2249 2.00634 54.774 2.58191C55.8831 3.74238 55.8722 5.27464 54.746 6.43044C53.906 7.29068 53.0582 8.14159 52.1901 8.97849C52.0645 9.0946 51.9663 9.23717 51.9025 9.3959C51.8388 9.55463 51.8111 9.72555 51.8215 9.89629C51.8308 19.0763 51.8308 28.2543 51.8215 37.4302C51.8215 39.7636 50.479 41.5043 48.3338 41.9523C47.9327 42.0206 47.5256 42.0477 47.1189 42.0332C41.917 42.0394 36.7162 42.0394 31.5164 42.0332L30.7277 42.0565ZM43.7106 6.43355L43.608 6.22821H4.80067C2.7784 6.22821 1.80305 7.19423 1.80305 9.21961V37.2809C1.80305 39.3032 2.78774 40.277 4.80689 40.277H47.0147C49.0821 40.277 50.0481 39.3187 50.0481 37.2591C50.0481 28.8174 50.0481 20.3753 50.0481 11.9326V11.1874C49.7836 11.4394 49.6281 11.581 49.4803 11.7288C44.5273 16.6838 39.5717 21.6358 34.6135 26.5847C34.3473 26.8627 34.0091 27.0614 33.6366 27.1587C32.0064 27.4978 30.3699 27.7809 28.721 28.0671C27.8374 28.2227 27.3769 27.7342 27.5356 26.8615C27.8218 25.306 28.0894 23.7317 28.4254 22.1792C28.522 21.7347 28.737 21.3246 29.0476 20.9923C33.7507 16.254 38.4667 11.5297 43.1957 6.81934C43.3581 6.67885 43.5302 6.54994 43.7106 6.43355ZM33.7922 24.998C33.914 24.8191 34.047 24.6482 34.1904 24.4862C36.0385 22.6298 37.8891 20.7771 39.7423 18.928C44.2556 14.4158 48.7668 9.90459 53.2759 5.39441C53.9977 4.67262 53.9946 4.3335 53.2759 3.60238C52.8793 3.20259 52.4795 2.80591 52.0828 2.40924C51.2708 1.59567 50.9566 1.591 50.1617 2.38591C43.7848 8.7659 37.4069 15.1438 31.0279 21.5197C30.8972 21.6519 30.7775 21.7934 30.6888 21.8899L33.7922 24.998ZM19.6052 49.1205H31.983C31.3095 48.0533 30.4975 47.0189 29.9686 45.8537C29.4397 44.6886 29.1736 43.3648 28.7754 42.0503H24.2175C22.9575 42.0503 22.9575 42.0503 22.7257 43.3072C22.7117 43.3835 22.6946 43.4628 22.6775 43.5344C22.2217 45.6733 21.2759 47.5462 19.6068 49.1205H19.6052ZM31.6673 25.7104L29.8908 23.9822C29.7757 24.6168 29.6465 25.3231 29.5034 26.1071L31.6673 25.7104Z" fill="white"/>
<path d="M13.6785 24.2455C13.554 22.9777 13.5711 21.6757 13.2802 20.4468C12.6004 17.572 9.94817 15.4813 7.00188 15.3444C6.22409 15.3071 5.44629 15.3335 4.6685 15.3211C3.96381 15.3102 3.54225 14.9618 3.54691 14.4142C3.55158 13.8666 3.9747 13.5228 4.67938 13.5213C6.17119 13.5213 7.66612 13.4513 9.12215 13.9008C10.9173 14.4499 12.4906 15.5568 13.6138 17.061C14.7369 18.5651 15.3513 20.3881 15.3678 22.2652C15.3912 23.7011 15.3678 25.1369 15.3756 26.5727C15.3912 28.9652 16.9685 30.597 19.3595 30.6577C20.037 30.6945 20.7165 30.6454 21.3818 30.5114C22.9669 30.1428 24.062 28.8501 24.2767 27.2447C24.2985 27.072 24.3125 26.8978 24.3343 26.7251C24.4058 26.1713 24.7465 25.8384 25.2318 25.8478C25.7172 25.8571 26.1154 26.2429 26.103 26.8091C26.098 27.5874 25.9316 28.3561 25.6143 29.0668C25.297 29.7774 24.8357 30.4145 24.2596 30.9377C22.6791 32.4248 20.7393 32.6488 18.717 32.4155C15.6727 32.0561 13.6411 29.7399 13.5727 26.6442C13.5556 25.8493 13.5727 25.0529 13.5727 24.258L13.6785 24.2455Z" fill="white"/>
</g>
<defs>
<clipPath id="clip0_262_4971">
<rect width="55.603" height="51" fill="white"/>
</clipPath>
</defs>
</svg>
