<svg width="51" height="46" viewBox="0 0 51 46" fill="none" xmlns="http://www.w3.org/2000/svg">
<g clip-path="url(#clip0_262_4925)">
<path d="M1.82692 7.28562H2.43827C6.2535 7.28562 10.0641 7.28562 13.8794 7.28562C14.2478 7.30162 14.6156 7.2422 14.9602 7.11099C15.3048 6.97978 15.619 6.77954 15.8835 6.52258C16.6259 5.81732 17.6178 5.43544 18.6415 5.46075H45.3344C46.0652 5.46075 46.4605 5.7963 46.4513 6.38008C46.4422 6.96386 46.0468 7.29941 45.3114 7.29941C36.5685 7.29941 27.8226 7.29941 19.0736 7.29941C18.6683 7.27692 18.2628 7.33749 17.8818 7.4774C17.5008 7.61731 17.1524 7.83361 16.858 8.11302C16.4785 8.45997 16.0342 8.72869 15.5507 8.90379C15.0672 9.07889 14.554 9.15694 14.0403 9.13348C10.2097 9.13348 6.37915 9.13348 2.5486 9.13348H1.84531V34.314C1.84531 35.693 2.54399 36.4193 3.93678 36.4193H10.0274C10.7858 36.4193 11.1995 36.7548 11.1857 37.3386C11.1719 37.9224 10.772 38.2212 10.032 38.2258C7.94508 38.2258 5.85818 38.2258 3.7713 38.2258C3.27621 38.2416 2.78311 38.1561 2.32233 37.9743C1.86154 37.7925 1.4428 37.5184 1.0919 37.1688C0.740988 36.8191 0.465329 36.4014 0.281854 35.9413C0.0983786 35.4812 0.0109681 34.9884 0.025017 34.4933C0.025017 24.2335 0.025017 13.9676 0.025017 3.69563C0.0105024 3.2049 0.0961508 2.71637 0.276734 2.25985C0.457317 1.80332 0.729043 1.38839 1.07533 1.04039C1.42161 0.692381 1.8352 0.4186 2.29082 0.235757C2.74644 0.0529134 3.23455 -0.0351577 3.72534 -0.0230756H47.3201C47.8056 -0.0324446 48.288 0.056273 48.7384 0.237759C49.1888 0.419246 49.5979 0.689768 49.9412 1.03312C50.2846 1.37648 50.5551 1.78561 50.7366 2.23599C50.9181 2.68638 51.0068 3.16877 50.9974 3.65426C50.9974 13.9539 50.9974 24.2534 50.9974 34.553C51.0062 35.0384 50.917 35.5205 50.7353 35.9705C50.5536 36.4206 50.283 36.8295 49.9398 37.1727C49.5966 37.516 49.1877 37.7865 48.7376 37.9682C48.2875 38.1499 47.8054 38.2391 47.3201 38.2304C45.2516 38.2304 43.1831 38.2304 41.1146 38.2304C40.4159 38.2304 39.9838 37.8534 40.0022 37.311C40.0206 36.7686 40.4619 36.4285 41.1146 36.4285H47.1454C48.4647 36.4285 49.191 35.7068 49.191 34.3876V3.87949C49.191 2.52807 48.4693 1.82019 47.1041 1.82019H3.89542C2.544 1.82019 1.82691 2.54646 1.82231 3.89328C1.82231 4.99189 1.82692 6.09049 1.82692 7.28562Z" fill="white"/>
<path d="M32.8721 34.4703L34.7981 36.3871C36.3013 37.8856 37.8136 39.3795 39.3029 40.8964C39.6913 41.2919 39.949 41.7972 40.0411 42.3438C40.1331 42.8905 40.0552 43.4523 39.8177 43.9532C39.5858 44.4456 39.212 44.8576 38.7444 45.136C38.2767 45.4145 37.7365 45.5469 37.193 45.5161C36.4466 45.4608 35.7503 45.12 35.2486 44.5646C33.3548 42.6523 31.4334 40.7631 29.5488 38.8371C29.4844 38.7398 29.4008 38.6567 29.3031 38.5929C29.2055 38.5291 29.0958 38.486 28.9808 38.4662C28.8658 38.4464 28.748 38.4503 28.6346 38.4777C28.5212 38.5052 28.4147 38.5555 28.3214 38.6257C20.1164 42.9373 11.847 37.0306 10.9598 29.345C10.2841 23.5026 14.6372 17.6879 20.4612 16.6168C22.8768 16.1355 25.3824 16.4216 27.6273 17.435C27.9208 17.55 28.1615 17.7694 28.3031 18.051C28.3336 18.2094 28.3322 18.3722 28.2991 18.5301C28.2659 18.6879 28.2017 18.8376 28.11 18.9703C27.8572 19.3381 27.4389 19.2783 27.0252 19.145C26.1029 18.8074 25.1583 18.534 24.1982 18.3268C19.6935 17.55 15.4922 20.2712 13.7178 24.0037C10.9139 29.8139 14.4349 36.7181 20.8565 38.0143C22.1472 38.3017 23.4836 38.3172 24.7806 38.06C26.0777 37.8028 27.307 37.2785 28.3904 36.5204C29.0753 36.0607 29.3741 36.0883 29.9716 36.6859C32.1597 38.8739 34.3385 41.0665 36.5403 43.2407C36.7769 43.4764 37.0832 43.6295 37.4137 43.6774C37.5608 43.6786 37.7058 43.6419 37.8345 43.5707C37.9633 43.4995 38.0715 43.3963 38.1487 43.271C38.2259 43.1457 38.2695 43.0027 38.2752 42.8556C38.2809 42.7086 38.2485 42.5626 38.1813 42.4317C38.0586 42.219 37.9035 42.0267 37.7216 41.8617C35.6072 39.7381 33.4881 37.6175 31.3644 35.4999C30.6336 34.7691 30.6382 34.5806 31.1714 33.6934C33.3318 30.1586 33.3916 26.5824 31.3185 22.9878C31.2449 22.8591 31.1438 22.7488 31.0289 22.5879L29.1902 24.4266L24.2626 29.3128C23.6512 29.9196 23.1778 29.915 22.5664 29.3128C21.785 28.536 21.0127 27.7546 20.1945 26.9363C19.2338 27.9062 18.2685 28.8991 17.2757 29.8322C17.0267 30.0678 16.699 30.2021 16.3563 30.2092C16.1954 30.1872 16.0438 30.1206 15.9189 30.0169C15.7939 29.9131 15.7005 29.7765 15.6493 29.6223C15.5981 29.4682 15.5911 29.3028 15.6291 29.1449C15.6672 28.987 15.7487 28.8429 15.8645 28.729C17.078 27.4742 18.3191 26.2423 19.5648 25.0241C20.0015 24.592 20.4841 24.638 20.9668 25.1161C21.7758 25.9159 22.5664 26.7295 23.4812 27.6488L34.5913 16.4146C34.0167 16.4146 33.5524 16.4146 33.0928 16.4146C32.4401 16.4146 32.0264 16.0285 32.0447 15.4952C32.0498 15.3663 32.082 15.2399 32.1391 15.1243C32.1962 15.0086 32.2771 14.9063 32.3763 14.8239C32.4756 14.7415 32.5911 14.6809 32.7154 14.6461C32.8396 14.6113 32.9698 14.6031 33.0974 14.6219C34.2496 14.6219 35.4064 14.6219 36.5679 14.6219C37.4045 14.6219 37.7078 14.9253 37.7124 15.7435C37.7124 16.9018 37.7124 18.0587 37.7124 19.2139C37.7124 19.908 37.3815 20.2896 36.8207 20.2988C36.2599 20.308 35.9013 19.9034 35.9013 19.2277C35.9013 18.7957 35.9013 18.359 35.9013 18.0372L32.486 21.4525C35.1935 25.5206 35.3451 29.9242 32.8721 34.4703Z" fill="white"/>
<path d="M5.90161 4.54615C5.90543 4.66791 5.88427 4.78917 5.83942 4.90244C5.79457 5.01571 5.727 5.11859 5.64086 5.20473C5.55471 5.29087 5.45184 5.35845 5.33857 5.4033C5.2253 5.44814 5.10404 5.46931 4.98227 5.46548C4.86287 5.46917 4.74394 5.44884 4.63254 5.40568C4.52115 5.36252 4.41956 5.29742 4.33381 5.21425C4.24805 5.13107 4.17989 5.03151 4.13336 4.92148C4.08683 4.81145 4.06288 4.69319 4.06294 4.57373C4.05911 4.45196 4.08028 4.3307 4.12513 4.21743C4.16997 4.10416 4.23755 4.00128 4.32369 3.91514C4.40983 3.829 4.51271 3.76142 4.62598 3.71657C4.73925 3.67173 4.86051 3.65056 4.98227 3.65439C5.10184 3.65005 5.22106 3.66994 5.33275 3.71287C5.44443 3.75579 5.54628 3.82086 5.63216 3.90417C5.71804 3.98748 5.78618 4.08729 5.83249 4.19762C5.8788 4.30795 5.90231 4.4265 5.90161 4.54615Z" fill="white"/>
<path d="M8.63299 5.45169C8.51431 5.45052 8.39705 5.42567 8.28809 5.3786C8.17913 5.33152 8.08065 5.26317 7.99846 5.17755C7.91626 5.09192 7.85198 4.99075 7.80939 4.87996C7.7668 4.76917 7.74675 4.65099 7.75043 4.53236C7.75158 4.41387 7.77645 4.29682 7.82358 4.1881C7.87071 4.07939 7.93915 3.98122 8.02484 3.89938C8.11053 3.81755 8.21175 3.7537 8.32251 3.71163C8.43328 3.66955 8.55135 3.65009 8.66976 3.65439C8.90796 3.66274 9.13361 3.76326 9.29912 3.93478C9.46463 4.10629 9.55707 4.33538 9.55693 4.57373C9.54624 4.81111 9.44405 5.03512 9.2718 5.19881C9.09954 5.36249 8.87061 5.45312 8.63299 5.45169Z" fill="white"/>
<path d="M12.2828 5.45152C12.1633 5.45158 12.0451 5.42763 11.9351 5.3811C11.825 5.33457 11.7255 5.26641 11.6423 5.18066C11.5591 5.09491 11.494 4.99332 11.4509 4.88193C11.4077 4.77053 11.3874 4.6516 11.3911 4.53219C11.3994 4.29399 11.4999 4.06834 11.6714 3.90283C11.8429 3.73732 12.072 3.64489 12.3104 3.64503C12.43 3.64434 12.5486 3.66785 12.6589 3.71415C12.7692 3.76046 12.8691 3.8286 12.9524 3.91449C13.0357 4.00037 13.1007 4.10222 13.1437 4.2139C13.1866 4.32558 13.2065 4.4448 13.2021 4.56437C13.2016 4.68344 13.1772 4.8012 13.1304 4.9107C13.0836 5.02019 13.0153 5.1192 12.9296 5.20189C12.8439 5.28458 12.7426 5.34927 12.6315 5.39214C12.5204 5.43502 12.4018 5.45521 12.2828 5.45152Z" fill="white"/>
</g>
<defs>
<clipPath id="clip0_262_4925">
<rect width="51" height="45.5208" fill="white"/>
</clipPath>
</defs>
</svg>
