<svg width="38" height="51" viewBox="0 0 38 51" fill="none" xmlns="http://www.w3.org/2000/svg">
<g clip-path="url(#clip0_262_4936)">
<path d="M3.28413 36.1939H1.1637C0.249461 36.1939 0 35.9485 0 35.0452V10.1703C0 9.30264 0.257686 9.05181 1.13903 9.04906C1.80518 9.04906 2.47178 9.04632 3.13884 9.04084C3.18942 9.02824 3.23823 9.00936 3.28413 8.98464V6.91493C3.28413 6.00617 3.28413 5.09878 3.28413 4.19003C3.30332 1.79135 5.07971 0.00673379 7.48113 0.00399245C14.7494 -0.00331781 22.0176 -0.00331781 29.2858 0.00399245C29.8999 -0.0191474 30.5148 0.0102002 31.1239 0.0917154C32.0619 0.2526 32.913 0.73965 33.5269 1.46692C34.1408 2.19419 34.4781 3.11493 34.4793 4.06667C34.4998 5.52232 34.4793 6.97935 34.4793 8.435V9.05455C35.2441 9.05455 35.9733 9.05455 36.7025 9.05455C37.4769 9.05455 37.762 9.32868 37.762 10.099C37.762 18.4418 37.762 26.7851 37.762 35.1289C37.762 35.9252 37.4879 36.1952 36.6751 36.198H34.482V36.7929C34.482 40.0642 34.482 43.3364 34.482 46.6096C34.482 49.2769 32.7495 51.0026 30.0767 51.004C22.6038 51.004 15.1304 51.004 7.65658 51.004C5.02077 51.004 3.28276 49.2673 3.28139 46.6343C3.28139 43.3611 3.28139 40.0889 3.28139 36.8175L3.28413 36.1939ZM1.67907 17.2978V34.5079H36.098V17.2978H1.67907ZM32.8441 9.02987C32.8441 7.40289 32.8441 5.82935 32.8441 4.25582C32.8441 2.68229 31.8065 1.65154 30.2398 1.65154C22.6673 1.65154 15.0948 1.65154 7.52225 1.65154C5.98435 1.65154 4.93853 2.69325 4.93168 4.22155C4.92345 5.69503 4.93168 7.16713 4.93168 8.6406C4.93168 8.76945 4.95361 8.89966 4.96732 9.03399L32.8441 9.02987ZM1.66537 15.5927H36.0857V10.7199H1.66537V15.5927ZM32.8372 42.8115H4.92619V46.5452C4.92619 48.3942 5.88567 49.3537 7.74841 49.3551H30.0205C30.1918 49.3551 30.3631 49.3551 30.5345 49.3551C31.7585 49.2769 32.7879 48.2928 32.8276 47.066C32.8715 45.657 32.8372 44.2562 32.8372 42.8115ZM32.8194 36.2322H4.96869V41.1036H32.8194V36.2322Z" fill="white"/>
<path d="M22.1796 19.7707C22.1518 19.8863 22.1175 20.0002 22.0768 20.1119C20.4585 23.9133 18.8343 27.7123 17.2041 31.5091C17.0478 31.8737 16.7614 32.1465 16.3817 32.0478C16.0845 31.9607 15.8316 31.7636 15.6744 31.4968C15.5744 31.3049 15.6744 30.9622 15.7676 30.7251C16.3474 29.3201 16.9546 27.9262 17.5495 26.5294C18.5172 24.2678 19.4844 22.0062 20.4512 19.7446C20.515 19.568 20.6011 19.4003 20.7075 19.2457C20.9406 18.9482 21.2805 18.8002 21.6108 18.9907C21.874 19.1429 22.0549 19.4348 22.2715 19.6651L22.1796 19.7707Z" fill="white"/>
<path d="M27.9766 25.4862C26.8211 24.3308 25.6944 23.2328 24.6102 22.0924C24.4995 21.9722 24.4137 21.8312 24.358 21.6775C24.3022 21.5239 24.2775 21.3607 24.2854 21.1974C24.3841 20.545 25.1667 20.375 25.6848 20.8725C26.2427 21.403 26.7814 21.9581 27.3214 22.5036C28.0835 23.2657 28.8483 24.0251 29.6049 24.7927C30.1025 25.2998 30.1039 25.7042 29.6049 26.2113C28.3257 27.4979 27.0441 28.7813 25.7602 30.0615C25.3038 30.5166 24.8172 30.5536 24.4594 30.1794C24.1017 29.8052 24.1565 29.3447 24.6212 28.8773C25.609 27.8813 26.5995 26.8875 27.5928 25.8961C27.7093 25.7768 27.8217 25.6521 27.9766 25.4862Z" fill="white"/>
<path d="M9.78493 25.5302C10.0728 25.8043 10.3455 26.0593 10.6073 26.3224C11.4901 27.2038 12.3769 28.0824 13.2486 28.9747C13.6283 29.3653 13.6352 29.8218 13.3089 30.1644C12.9827 30.5071 12.4989 30.5331 12.1219 30.1644C10.7595 28.8193 9.40754 27.4647 8.06611 26.1004C7.6974 25.7248 7.69603 25.278 8.06611 24.9106C9.40754 23.5436 10.7572 22.1876 12.1151 20.8425C12.4934 20.4697 12.9717 20.4888 13.3021 20.8329C13.6324 21.1769 13.6269 21.6347 13.2473 22.0226C12.2439 23.0479 11.2228 24.0581 10.2098 25.0751C10.0851 25.204 9.96175 25.341 9.78493 25.5302Z" fill="white"/>
<path d="M18.8823 3.29235C19.9254 3.29235 20.9685 3.29235 22.0129 3.29235C22.616 3.29235 22.9834 3.61446 22.9834 4.11476C22.9834 4.61505 22.6133 4.93716 22.0115 4.93716C19.9254 4.93716 17.8388 4.93716 15.7517 4.93716C15.1472 4.93716 14.7812 4.61368 14.7812 4.11476C14.7812 3.61583 15.1458 3.29921 15.7531 3.29235C16.7961 3.28824 17.8392 3.29235 18.8823 3.29235Z" fill="white"/>
<path d="M25.447 3.29639C25.6651 3.29639 25.8743 3.38303 26.0285 3.53726C26.1827 3.69149 26.2694 3.90068 26.2694 4.11879C26.2694 4.33549 26.1839 4.54343 26.0314 4.69743C25.879 4.85143 25.6719 4.93903 25.4552 4.94119C25.2371 4.94119 25.0279 4.85455 24.8737 4.70032C24.7195 4.54609 24.6328 4.33691 24.6328 4.11879C24.6328 3.90209 24.7183 3.69415 24.8708 3.54015C25.0232 3.38615 25.2303 3.29855 25.447 3.29639Z" fill="white"/>
<path d="M27.0913 13.9809C26.8753 13.9777 26.6693 13.8896 26.5178 13.7357C26.3662 13.5818 26.2812 13.3745 26.2813 13.1585C26.2838 12.9421 26.3715 12.7353 26.5255 12.5832C26.6795 12.431 26.8872 12.3457 27.1037 12.3457C27.3199 12.3486 27.5262 12.4365 27.6781 12.5904C27.83 12.7443 27.9151 12.9519 27.9151 13.1681C27.9126 13.3848 27.8246 13.5917 27.6704 13.7439C27.5161 13.8961 27.308 13.9813 27.0913 13.9809Z" fill="white"/>
<path d="M30.3577 12.3444C30.5739 12.3403 30.7831 12.4216 30.9399 12.5707C31.0966 12.7197 31.1883 12.9245 31.1951 13.1407C31.2 13.3573 31.1192 13.5669 30.9703 13.7242C30.8215 13.8816 30.6166 13.9738 30.4002 13.981C30.1837 13.985 29.9743 13.9035 29.8175 13.7542C29.6607 13.6048 29.5691 13.3997 29.5627 13.1832C29.5582 12.967 29.6392 12.7576 29.788 12.6006C29.9368 12.4436 30.1415 12.3515 30.3577 12.3444Z" fill="white"/>
<path d="M34.4855 13.1791C34.4784 13.3952 34.3871 13.5999 34.2312 13.7497C34.0753 13.8995 33.867 13.9824 33.6508 13.9809C33.4343 13.9748 33.229 13.8836 33.0794 13.727C32.9298 13.5705 32.848 13.3613 32.8517 13.1448C32.8574 12.9286 32.9481 12.7233 33.1041 12.5735C33.2601 12.4237 33.4688 12.3414 33.6851 12.3443C33.9015 12.3501 34.1069 12.4409 34.2568 12.5972C34.4067 12.7535 34.4889 12.9626 34.4855 13.1791Z" fill="white"/>
<path d="M18.8384 48.5299C18.1903 48.5166 17.5734 48.2488 17.1212 47.7842C16.669 47.3197 16.4178 46.6959 16.4219 46.0476C16.4244 45.7222 16.4913 45.4006 16.6186 45.1011C16.7459 44.8016 16.9313 44.5303 17.1639 44.3028C17.3965 44.0752 17.6719 43.896 17.9741 43.7753C18.2763 43.6546 18.5994 43.5949 18.9248 43.5996C19.5729 43.6129 20.1898 43.8808 20.642 44.3453C21.0942 44.8098 21.3454 45.4337 21.3413 46.0819C21.3388 46.4073 21.2719 46.729 21.1446 47.0285C21.0172 47.3279 20.8319 47.5992 20.5993 47.8268C20.3667 48.0543 20.0913 48.2336 19.7891 48.3543C19.4869 48.4749 19.1638 48.5346 18.8384 48.5299ZM19.6992 46.0819C19.703 45.8675 19.6228 45.66 19.4759 45.5039C19.3289 45.3477 19.1267 45.2551 18.9124 45.2458C18.8024 45.2425 18.6928 45.2613 18.5901 45.3012C18.4875 45.341 18.3939 45.4011 18.3149 45.4778C18.2359 45.5545 18.1731 45.6463 18.1302 45.7477C18.0874 45.8491 18.0653 45.9581 18.0654 46.0682C18.0682 46.2828 18.1548 46.4877 18.3067 46.6393C18.4585 46.7909 18.6636 46.8772 18.8782 46.8796C19.0918 46.8794 19.297 46.796 19.4503 46.6471C19.6035 46.4982 19.6928 46.2955 19.6992 46.0819Z" fill="white"/>
<path d="M10.6257 46.8865C10.113 46.8865 9.59902 46.8975 9.08639 46.8865C8.57376 46.8756 8.21875 46.5356 8.21875 46.0641C8.21875 45.5926 8.56142 45.2541 9.08639 45.2417C10.1455 45.228 11.2054 45.228 12.2663 45.2417C12.7913 45.2417 13.1354 45.5912 13.1367 46.0641C13.1381 46.537 12.7913 46.8701 12.2677 46.8865C11.7208 46.8975 11.1739 46.8865 10.6257 46.8865Z" fill="white"/>
<path d="M27.0932 45.2433C27.6222 45.2433 28.1527 45.2323 28.6831 45.2433C29.2136 45.2542 29.5522 45.5955 29.5508 46.0657C29.5494 46.5358 29.2054 46.8771 28.6818 46.8881C27.6227 46.9009 26.5623 46.9009 25.5004 46.8881C24.9769 46.8881 24.6328 46.5358 24.6328 46.0657C24.6328 45.5955 24.9769 45.2638 25.5018 45.2433C26.0268 45.2227 26.5627 45.2433 27.0932 45.2433Z" fill="white"/>
</g>
<defs>
<clipPath id="clip0_262_4936">
<rect width="37.7703" height="51" fill="white"/>
</clipPath>
</defs>
</svg>
