<svg width="49" height="49" viewBox="0 0 49 49" fill="none" xmlns="http://www.w3.org/2000/svg">
<g clip-path="url(#clip0_262_4988)">
<path d="M19.4277 0H22.1074C22.674 0.0736914 23.2434 0.132071 23.8071 0.222032C29.4185 1.12419 33.943 3.83865 37.3807 8.36541C37.4368 8.43635 37.4969 8.50409 37.5606 8.5683L42.3008 3.82717C41.3973 3.82717 40.4633 3.83865 39.5254 3.82238C39.1797 3.82779 38.8395 3.73451 38.5449 3.55348C38.2503 3.37244 38.0134 3.11116 37.8621 2.80027C37.5118 2.13992 37.5137 1.44129 37.9788 0.865157C38.2717 0.502442 38.7445 0.283282 39.134 0.00382894H47.4601C48.2353 0.249786 48.7407 0.769454 48.9914 1.53508V9.86125C48.9703 9.88422 48.9407 9.90336 48.9292 9.93111C48.4995 11.0116 47.7128 11.5083 46.728 11.3188C45.7432 11.1293 45.1671 10.3618 45.1642 9.22865C45.1642 8.37402 45.1642 7.52035 45.1642 6.5815C45.0369 6.68773 44.9776 6.7308 44.9269 6.78152C43.2243 8.48312 41.5275 10.1914 39.8125 11.8806C39.5761 12.1131 39.6737 12.2778 39.7637 12.5046C42.7525 20.0737 41.8558 27.1271 36.9529 33.6473C36.8696 33.7593 36.7931 33.8751 36.6782 34.0397C36.8285 34.1679 36.9701 34.2732 37.0936 34.3967C40.7475 38.0468 44.3973 41.7014 48.043 45.3604C48.4258 45.7432 48.6784 46.2552 48.9923 46.707V47.4726C48.8874 47.8365 48.6919 48.1678 48.4241 48.4356C48.1563 48.7034 47.825 48.8989 47.4611 49.0038H46.6955C46.2447 48.6899 45.7384 48.4353 45.3556 48.0535C41.6876 44.4168 38.0331 40.7657 34.3919 37.1003C34.2608 36.9692 34.1947 36.773 34.099 36.6064C33.8167 36.8333 33.6885 36.9251 33.565 37.0237C26.8763 42.3103 17.6036 42.9831 10.2469 38.6143C4.88086 35.4197 1.58389 30.7016 0.367503 24.5565C0.207678 23.7468 0.120586 22.9238 0 22.1074V19.332C0.0287109 19.2114 0.0669927 19.0918 0.0842192 18.9693C0.197149 18.1664 0.237341 17.3424 0.42779 16.5614C2.50742 8.00174 7.81033 2.6127 16.37 0.483301C17.3672 0.231602 18.4075 0.155996 19.4277 0ZM4.87033 26.4906C4.98402 26.3182 5.10869 26.1532 5.24357 25.9968C8.58935 22.6446 11.939 19.295 15.2924 15.948C16.5126 14.7287 17.4496 14.7325 18.6822 15.9652C20.4948 17.781 22.3065 19.5987 24.1172 21.4184C24.2359 21.538 24.2808 21.7313 24.3239 21.8174L34.7776 11.3628C30.1312 4.26453 20.6652 1.69682 12.9458 5.72975C5.22635 9.76268 2.00211 18.8688 4.87033 26.4906ZM6.67817 30.0556C11.1016 36.9864 20.6336 39.9264 28.6047 35.6934C36.8074 31.3361 39.3024 21.8844 36.5481 15.0522C36.4112 15.1756 36.3385 15.3651 36.2083 15.4963C32.83 18.8848 29.4485 22.2695 26.0638 25.6504C25.0331 26.6811 23.9755 26.6792 22.9429 25.6504C21.078 23.7861 19.2156 21.9243 17.3558 20.0651C17.2342 19.9445 17.1079 19.8287 17.0036 19.7302L6.67817 30.0556Z" fill="white"/>
</g>
<defs>
<clipPath id="clip0_262_4988">
<rect width="49" height="49" fill="white"/>
</clipPath>
</defs>
</svg>
