<svg width="62" height="54" viewBox="0 0 62 54" fill="none" xmlns="http://www.w3.org/2000/svg">
<g clip-path="url(#clip0_262_4975)">
<path d="M0 42.4086V4.55099C0.343997 3.71941 0.55937 2.79959 1.05742 2.07122C2.10436 0.541181 3.68824 -0.0017367 5.51591 -0.00024106C22.2591 0.00873277 39.0022 0.00873277 55.7454 -0.00024106C55.9653 -0.00024106 56.1851 -0.000240148 56.4035 0.0147162C57.1229 0.0487053 57.8269 0.235547 58.4685 0.562805C59.1102 0.890063 59.6747 1.35023 60.1246 1.91268C60.7648 2.68742 61.0534 3.59976 61.2673 4.55099V42.4086C61.2286 42.4755 61.198 42.5468 61.1761 42.6209C60.7154 45.0394 58.8907 46.716 56.4409 46.8252C54.5519 46.9104 52.6554 46.8596 50.7575 46.8686H50.0246C50.0246 48.8667 50.0246 50.7752 50.0246 52.6836C50.0246 53.1652 49.9678 53.6004 49.5041 53.8652C49.0405 54.1299 48.6277 53.9549 48.2179 53.7081C46.9062 52.9169 45.5855 52.1392 44.2799 51.3375C44.173 51.2543 44.0414 51.2091 43.9059 51.2091C43.7705 51.2091 43.6389 51.2543 43.532 51.3375C42.2099 52.1526 40.8758 52.9468 39.5387 53.7305C38.5471 54.3168 37.7933 53.8951 37.7873 52.7509C37.7783 51.0204 37.7873 49.2885 37.7873 47.5581C37.7873 47.3472 37.7708 47.1378 37.7589 46.8686H24.7393C18.341 46.8686 11.9427 46.8581 5.54433 46.8686C3.69273 46.8686 2.10436 46.3152 1.03947 44.7747C0.556379 44.0792 0.336518 43.2042 0 42.4086ZM50.0246 44.7881C52.2905 44.7881 54.4801 44.7881 56.6697 44.7881C56.7485 44.7802 56.8259 44.7621 56.9 44.7343C58.3957 44.3364 59.2228 43.1594 59.2228 41.402C59.2228 29.4369 59.2228 17.4748 59.2228 5.51567C59.2228 3.26175 58.0068 2.04131 55.7559 2.04131H5.50245C3.25899 2.04131 2.03706 3.26175 2.03706 5.51717C2.03706 17.4598 2.05501 29.401 2.01911 41.3437C2.01911 43.2446 3.19469 44.8599 5.54732 44.8494C16.0572 44.8046 26.5655 44.83 37.0754 44.83H37.7813C37.7813 43.4121 37.7813 42.0646 37.7813 40.717C37.7714 40.6202 37.738 40.5273 37.6841 40.4463C37.1292 39.4622 36.5504 38.49 36.0224 37.4924C35.7999 37.0243 35.4235 36.6469 34.956 36.423C34.1649 36.0506 33.3796 35.6573 32.6214 35.2265C31.3531 34.4937 30.8161 33.1655 31.205 31.7507C31.4368 30.9086 31.7703 30.092 31.9722 29.2455C32.0784 28.7933 32.0814 28.323 31.9812 27.8695C31.7973 27.0783 31.4847 26.3185 31.2514 25.5378C30.7638 23.903 31.3426 22.53 32.8532 21.7239C33.5202 21.3679 34.1903 21.012 34.8768 20.6964C35.3925 20.4771 35.8054 20.0696 36.0314 19.5567C36.3619 18.8343 36.7299 18.1269 37.1113 17.4299C37.8845 16.0165 39.256 15.4467 40.807 15.8924C41.6101 16.1227 42.3909 16.4398 43.2 16.6298C43.6534 16.7347 44.1245 16.7372 44.579 16.6372C45.3717 16.4533 46.1329 16.1407 46.9152 15.9104C48.5604 15.4228 49.9259 15.9986 50.7365 17.5122C51.1029 18.1942 51.4709 18.8792 51.7939 19.5836C52.0158 20.0758 52.413 20.4677 52.9082 20.6829C53.6979 21.0598 54.4861 21.4472 55.2399 21.8899C55.821 22.2121 56.2745 22.7233 56.525 23.3386C56.7756 23.954 56.8082 24.6366 56.6174 25.273C56.384 26.1345 56.043 26.9691 55.8351 27.8351C55.7297 28.2884 55.7267 28.7594 55.8262 29.2141C55.9982 29.9619 56.2898 30.6917 56.5216 31.4306C57.075 33.1924 56.5052 34.555 54.8555 35.4135C54.1675 35.7724 53.4496 36.0835 52.79 36.4858C52.4244 36.7094 52.1145 37.0132 51.8837 37.3743C51.257 38.3853 50.6872 39.4337 50.1098 40.4702C50.0608 40.5545 50.0331 40.6495 50.0291 40.7469C50.0216 42.0691 50.0246 43.3972 50.0246 44.7881ZM33.1418 32.3414C33.1059 33.0279 33.3886 33.3375 33.8059 33.5529C34.5657 33.9463 35.3255 34.3411 36.0927 34.718C36.7999 35.0551 37.3705 35.624 37.7095 36.3303C38.0685 37.0617 38.4469 37.7841 38.8253 38.5064C39.2351 39.2902 39.5925 39.4412 40.4256 39.181C41.127 38.9611 41.8345 38.7502 42.5195 38.4945C43.4024 38.1557 44.3795 38.1557 45.2625 38.4945C45.8966 38.7263 46.5472 38.9163 47.1919 39.1241C48.2762 39.4741 48.5499 39.3575 49.0823 38.3225C49.3919 37.7242 49.721 37.126 50.0052 36.5158C50.3839 35.6687 51.0642 34.9927 51.9136 34.6193C52.618 34.2947 53.303 33.9268 53.988 33.5634C54.673 33.1999 54.8196 32.8155 54.5938 32.0857C54.3365 31.2511 54.0733 30.4165 53.7951 29.588C53.5595 28.9063 53.5595 28.1653 53.7951 27.4836C54.0723 26.653 54.3405 25.8204 54.5998 24.9859C54.8241 24.2605 54.6626 23.8657 53.991 23.5097C53.2537 23.1163 52.5103 22.732 51.7595 22.3655C51.0322 22.0266 50.4457 21.4448 50.1009 20.7203C49.7539 20.0054 49.383 19.3025 49.0165 18.5965C48.5978 17.7904 48.2298 17.6348 47.3713 17.9025C46.6639 18.1209 45.955 18.3198 45.2655 18.5696C44.4031 18.9055 43.4465 18.9082 42.5823 18.5771C41.9302 18.3348 41.2602 18.1404 40.5961 17.928C39.5821 17.6034 39.25 17.741 38.7684 18.6758C38.4783 19.2426 38.1702 19.799 37.9054 20.3793C37.4991 21.3436 36.7322 22.1111 35.7682 22.5181C35.0951 22.8172 34.449 23.1732 33.8014 23.5217C33.1538 23.8701 33.0072 24.2695 33.2121 24.959C33.3233 25.4027 33.4657 25.838 33.6384 26.2617C34.3369 27.7857 34.3159 29.2858 33.6384 30.8114C33.4423 31.311 33.2765 31.8219 33.1418 32.3414ZM47.9636 41.4648C46.8434 41.1208 45.7755 40.8202 44.7285 40.4568C44.2071 40.2605 43.6327 40.2568 43.1088 40.4463C42.0454 40.8142 40.961 41.1208 39.8692 41.4573V51.1625C40.8833 50.5643 41.8629 50.0288 42.7782 49.4082C43.559 48.8817 44.2335 48.8652 45.0217 49.4082C45.9475 50.0408 46.9421 50.5733 47.9651 51.1835L47.9636 41.4648Z" fill="white"/>
<path d="M16.3027 42.7903C13.4715 42.7903 10.6402 42.8052 7.80899 42.7903C5.77941 42.7768 4.37949 41.5489 4.11476 39.6091C3.8605 37.7605 5.32174 35.9074 7.18232 35.7204C7.48144 35.692 7.78057 35.6725 8.0797 35.6725C13.5836 35.6725 19.0861 35.6725 24.5885 35.6636C26.1754 35.6636 27.4392 36.1915 28.1945 37.6393C29.3581 39.8693 27.7952 42.6826 25.2765 42.7529C22.2853 42.8367 19.294 42.7723 16.3027 42.7723V42.7903ZM16.3281 40.7502C18.2824 40.7502 20.2367 40.7502 22.191 40.7502C23.1482 40.7502 24.1055 40.7637 25.0627 40.7413C25.4239 40.7264 25.7685 40.5856 26.0367 40.3433C26.305 40.101 26.48 39.7725 26.5314 39.4146C26.5652 39.0754 26.4858 38.7344 26.3057 38.445C26.1255 38.1555 25.8546 37.9338 25.5353 37.8143C25.2077 37.7309 24.8693 37.6976 24.5317 37.7156C19.0676 37.7096 13.6041 37.7096 8.14102 37.7156C7.92265 37.7156 7.67887 37.6707 7.48892 37.747C7.13445 37.8966 6.7411 38.0461 6.48534 38.3138C6.28423 38.5123 6.15504 38.7721 6.1182 39.0522C6.08136 39.3323 6.13897 39.6167 6.28194 39.8603C6.40549 40.1356 6.60813 40.3679 6.86406 40.5277C7.12 40.6875 7.41768 40.7676 7.71924 40.7577C10.5909 40.7497 13.462 40.7472 16.3326 40.7502H16.3281Z" fill="white"/>
<path d="M8.18238 18.3261C7.13558 18.3273 6.12825 17.9268 5.36801 17.2072C4.60778 16.4876 4.1526 15.5037 4.09629 14.4584C4.0589 13.8168 4.4373 13.3232 5.01012 13.2709C5.58295 13.2185 6.01968 13.5924 6.1169 14.264C6.30685 15.5712 7.05766 16.2996 8.20032 16.2861C8.69291 16.2845 9.16761 16.1013 9.53354 15.7715C9.89946 15.4417 10.1309 14.9886 10.1835 14.4988C10.2426 14.0003 10.1138 13.4977 9.82237 13.089C9.53091 12.6803 9.09767 12.3948 8.60714 12.2883C7.74565 12.0819 6.81237 11.9891 6.05259 11.5823C4.36551 10.7029 3.68499 8.56112 4.35653 6.71999C4.6879 5.85776 5.30096 5.13283 6.09618 4.66287C6.8914 4.1929 7.82212 4.00549 8.73726 4.13105C10.6696 4.4197 12.1279 5.99162 12.2206 7.8851C12.2565 8.63291 11.9469 9.07413 11.3442 9.14293C10.7414 9.21173 10.3152 8.82136 10.1955 8.05111C9.98312 6.67961 8.97058 5.91684 7.73368 6.19503C7.27169 6.29198 6.85846 6.5482 6.56621 6.91891C6.27396 7.28962 6.12128 7.75125 6.13485 8.22311C6.15286 8.7062 6.34412 9.16668 6.67366 9.52038C7.00319 9.87408 7.449 10.0974 7.92961 10.1495C8.95562 10.2527 9.93078 10.4381 10.7564 11.1291C11.4112 11.6718 11.88 12.4055 12.0972 13.2277C12.3144 14.05 12.2692 14.9195 11.9678 15.7148C11.4144 17.2538 9.86497 18.3202 8.18238 18.3261Z" fill="white"/>
<path d="M18.3673 18.3261C17.321 18.3262 16.3153 17.9214 15.5609 17.1965C14.8065 16.4716 14.3618 15.4829 14.3201 14.4375C14.2931 13.7914 14.6192 13.3457 15.1801 13.2739C15.7409 13.2021 16.1777 13.5401 16.3078 14.1712C16.3511 14.3851 16.3616 14.608 16.4184 14.8174C16.6712 15.7686 17.5821 16.3698 18.6096 16.2741C19.0891 16.2228 19.5344 16.0016 19.865 15.6505C20.1956 15.2993 20.3895 14.8414 20.4118 14.3597C20.4343 13.8869 20.2895 13.4213 20.0029 13.0447C19.7162 12.6681 19.3061 12.4045 18.8444 12.3002C18.6107 12.2508 18.3738 12.2178 18.1354 12.2015C15.9533 12.031 14.3634 10.3768 14.3051 8.21263C14.2909 7.22772 14.635 6.27119 15.2732 5.52096C15.9115 4.77072 16.8005 4.27785 17.775 4.13402C18.7698 3.98266 19.7853 4.20673 20.624 4.76265C21.4627 5.31857 22.0647 6.16659 22.3128 7.14175C22.3929 7.44973 22.4376 7.76587 22.4459 8.084C22.4629 8.34484 22.3774 8.60203 22.2075 8.80069C22.0376 8.99935 21.7968 9.12377 21.5365 9.1474C21.4074 9.1638 21.2763 9.15361 21.1512 9.11744C21.0262 9.08128 20.9098 9.01991 20.8094 8.93711C20.7089 8.85431 20.6265 8.75184 20.5671 8.63599C20.5077 8.52014 20.4727 8.39337 20.4641 8.26348C20.3445 7.24495 19.9407 6.46871 18.8698 6.20847C18.6095 6.14041 18.3382 6.12532 18.072 6.16411C17.8058 6.2029 17.5501 6.29476 17.3201 6.43426C17.09 6.57376 16.8904 6.75804 16.7329 6.97618C16.5755 7.19431 16.4634 7.44185 16.4035 7.70411C16.3432 7.97683 16.3399 8.25905 16.3937 8.53312C16.4475 8.80718 16.5573 9.06719 16.7163 9.29687C16.8752 9.52655 17.0798 9.72095 17.3173 9.86791C17.5548 10.0149 17.8201 10.1112 18.0966 10.151C18.3717 10.1914 18.6499 10.2168 18.9266 10.2542C20.9951 10.5324 22.5894 12.4109 22.4474 14.3986C22.2843 16.6749 20.5644 18.3351 18.3673 18.3261Z" fill="white"/>
<path d="M16.3756 30.5784H27.0739C27.2931 30.5674 27.5128 30.5759 27.7305 30.6038C27.962 30.6327 28.1749 30.7452 28.3292 30.9201C28.4834 31.095 28.5684 31.3203 28.5681 31.5536C28.5895 31.7758 28.5289 31.9982 28.3978 32.1789C28.2667 32.3596 28.0741 32.4861 27.8561 32.5347C27.6053 32.5934 27.3478 32.6186 27.0904 32.6095C19.9113 32.6095 12.7362 32.6095 5.56516 32.6095C5.44551 32.6095 5.32585 32.6095 5.2062 32.6095C4.53915 32.5691 4.09046 32.1608 4.08597 31.5984C4.08148 31.0361 4.54962 30.5829 5.24958 30.5814C8.95976 30.5754 12.6684 30.5744 16.3756 30.5784Z" fill="white"/>
<path d="M26.5572 16.2965C28.1111 16.2965 29.6008 16.2965 31.089 16.2965C31.347 16.2932 31.6048 16.3132 31.8592 16.3564C32.3842 16.4581 32.6399 16.814 32.6579 17.327C32.6773 17.8176 32.3094 18.2154 31.7919 18.3022C31.6544 18.3244 31.5154 18.3354 31.3761 18.3351C29.8416 18.3351 28.3071 18.3486 26.774 18.3351C25.3023 18.3201 24.5231 17.5334 24.5201 16.0767C24.5141 12.5171 24.5141 8.95745 24.5201 5.39783C24.5135 5.23884 24.522 5.07959 24.5455 4.92222C24.5755 4.70163 24.6816 4.49844 24.8455 4.34771C25.0093 4.19698 25.2206 4.10818 25.4429 4.09662C25.6632 4.06133 25.8887 4.1085 26.0763 4.22908C26.264 4.34967 26.4006 4.53522 26.46 4.75022C26.535 5.0172 26.5682 5.29417 26.5587 5.57132C26.5646 8.91258 26.5646 12.2528 26.5587 15.5921L26.5572 16.2965Z" fill="white"/>
<path d="M12.7407 27.5047C10.248 27.5047 7.75523 27.5047 5.2625 27.5047C4.81381 27.5047 4.37708 27.3911 4.23499 26.9498C4.13628 26.6507 4.12581 26.1781 4.29931 25.9642C4.51468 25.6995 4.94991 25.5245 5.30886 25.4841C5.97891 25.4108 6.66242 25.4632 7.33994 25.4632H19.8958C20.0956 25.456 20.2956 25.464 20.4941 25.4871C21.0923 25.5843 21.4468 26.0001 21.4199 26.5445C21.393 27.0889 21.0056 27.4778 20.3924 27.4913C19.317 27.5152 18.2401 27.5017 17.1633 27.5032L12.7407 27.5047Z" fill="white"/>
<path d="M19.8932 22.4256H12.8996C12.7396 22.4256 12.5795 22.4256 12.421 22.4256C11.6836 22.3852 11.2544 22.0158 11.2424 21.4205C11.2305 20.8014 11.6747 20.3945 12.4389 20.3915C15.508 20.3796 18.571 20.3915 21.6461 20.3915C23.4408 20.3915 25.2356 20.3915 27.0304 20.3915C27.269 20.3862 27.5077 20.4012 27.7438 20.4364C27.9755 20.4598 28.1897 20.5705 28.3427 20.7461C28.4958 20.9217 28.5763 21.1489 28.5679 21.3817C28.5869 21.6144 28.5162 21.8455 28.3702 22.0277C28.2241 22.2098 28.0139 22.3292 27.7827 22.3613C27.5484 22.4049 27.3105 22.4254 27.0723 22.4226C24.6792 22.4276 22.2862 22.4286 19.8932 22.4256Z" fill="white"/>
<path d="M6.6096 22.4197C6.13399 22.4197 5.65539 22.4436 5.18127 22.4197C4.51421 22.3778 4.08347 21.9485 4.09394 21.3892C4.10441 20.8298 4.52917 20.4155 5.21268 20.3991C6.16391 20.3751 7.11812 20.3751 8.06934 20.3991C8.74986 20.4155 9.17612 20.8238 9.18659 21.3907C9.19706 21.9575 8.76631 22.3778 8.09776 22.4197C7.6042 22.4436 7.10615 22.4197 6.6096 22.4197Z" fill="white"/>
<path d="M26.0406 27.4959C25.5246 27.4959 25.0071 27.5168 24.4926 27.4959C24.2313 27.4963 23.9803 27.3943 23.7935 27.2117C23.6067 27.029 23.499 26.7804 23.4935 26.5192C23.4804 26.2671 23.5673 26.02 23.7353 25.8315C23.9033 25.643 24.1389 25.5285 24.3909 25.5127C25.4782 25.4618 26.573 25.4588 27.6603 25.5127C27.7901 25.5208 27.9169 25.5547 28.0335 25.6124C28.15 25.6701 28.2538 25.7505 28.3389 25.8488C28.424 25.9471 28.4886 26.0614 28.529 26.185C28.5694 26.3086 28.5848 26.439 28.5742 26.5686C28.5308 27.1055 28.1255 27.4779 27.5272 27.5034C27.0322 27.5243 26.5356 27.5034 26.0391 27.5034L26.0406 27.4959Z" fill="white"/>
<path d="M35.7423 28.5591C35.7373 27.4872 35.9444 26.4249 36.3515 25.4333C36.7586 24.4417 37.3577 23.5404 38.1144 22.7812C38.8712 22.022 39.7705 21.4199 40.7607 21.0095C41.751 20.5991 42.8126 20.3886 43.8845 20.39C46.039 20.3812 48.109 21.2277 49.64 22.7436C51.171 24.2595 52.038 26.3209 52.0507 28.4754C52.0586 29.5471 51.8549 30.6098 51.4512 31.6026C51.0475 32.5954 50.4518 33.4988 49.6983 34.2609C48.9448 35.0231 48.0483 35.629 47.0601 36.0439C46.0719 36.4588 45.0116 36.6747 43.9399 36.679C42.8682 36.6851 41.8058 36.4798 40.8135 36.0748C39.8213 35.6699 38.9186 35.0732 38.1572 34.3191C37.3958 33.5649 36.7906 32.6679 36.3762 31.6796C35.9618 30.6912 35.7464 29.6308 35.7423 28.5591ZM37.7823 28.5457C37.7938 30.167 38.4458 31.718 39.5962 32.8606C40.7466 34.0031 42.302 34.6445 43.9234 34.6449C45.5338 34.6281 47.0735 33.9806 48.2119 32.8414C49.3502 31.7022 49.9966 30.1621 50.0122 28.5517C50.0126 26.9299 49.3691 25.3744 48.2232 24.2268C47.0773 23.0792 45.5227 22.4335 43.901 22.4315C42.2801 22.4339 40.7263 23.0788 39.5802 24.2249C38.4341 25.371 37.7892 26.9248 37.7868 28.5457H37.7823Z" fill="white"/>
</g>
<defs>
<clipPath id="clip0_262_4975">
<rect width="61.2613" height="54" fill="white"/>
</clipPath>
</defs>
</svg>
