<svg width="40" height="52" viewBox="0 0 40 52" fill="none" xmlns="http://www.w3.org/2000/svg">
<g clip-path="url(#clip0_262_4898)">
<path d="M28.4598 0C28.7438 0.0933143 29.0346 0.174458 29.3132 0.282648C30.9861 0.929086 31.9733 2.43834 31.9746 4.37766C31.98 10.1081 31.98 15.8382 31.9746 21.5678C31.9746 23.0716 31.9746 24.5755 31.9746 26.0807C31.9746 26.2808 32.003 26.5445 31.8935 26.6662C31.7001 26.8813 31.4229 27.1152 31.1565 27.1477C30.7994 27.191 30.533 26.9218 30.4803 26.5351C30.4602 26.3333 30.4543 26.1304 30.4627 25.9278C30.4627 18.762 30.4627 11.5944 30.4627 4.42499C30.4627 2.8657 29.6229 1.72023 28.2313 1.56606C27.1967 1.45381 26.1418 1.52008 25.0964 1.53495C25.0018 1.53495 24.8584 1.73105 24.826 1.85952C24.7029 2.36667 24.6258 2.88598 24.5136 3.39718C24.1592 5.00516 22.8028 6.17497 21.1637 6.18714C17.7233 6.21419 14.2819 6.21419 10.8396 6.18714C9.21678 6.17497 7.87251 5.03221 7.50466 3.44587C7.38565 2.93737 7.28558 2.42211 7.20579 1.90551C7.16251 1.62421 7.06379 1.49979 6.75545 1.51196C5.8791 1.53225 4.99735 1.5052 4.12371 1.52278C3.45885 1.53604 2.8238 1.80114 2.34685 2.26453C1.8699 2.72793 1.5866 3.35507 1.55419 4.01928C1.54607 4.15451 1.55419 4.28975 1.55419 4.42499C1.55419 18.7918 1.55419 33.1586 1.55419 47.5254C1.55419 49.0346 2.35615 50.0949 3.70718 50.3654C3.94 50.4035 4.17593 50.4194 4.41177 50.4127C12.1384 50.4127 19.8645 50.4127 27.5902 50.4127C29.3781 50.4127 30.4654 49.3308 30.4708 47.5497C30.4708 45.2507 30.4708 42.9516 30.4708 40.5998C30.2666 40.5904 30.0908 40.5755 29.9136 40.5755C28.5612 40.5755 27.2089 40.5687 25.8646 40.5755C24.8368 40.5755 24.047 40.1698 23.4925 39.2948C23.4369 39.221 23.3661 39.16 23.2849 39.1159C23.2037 39.0719 23.114 39.0457 23.0219 39.0392C19.0405 39.0247 15.0595 39.0247 11.079 39.0392C10.937 39.0392 10.7179 39.1122 10.6733 39.215C10.1323 40.3307 9.20731 40.7946 7.95365 40.8013C7.95365 41.5749 7.90902 42.3471 7.96988 43.1125C8.00775 43.5967 8.39859 43.8104 8.88003 43.8104C9.72257 43.8104 10.5665 43.8104 11.4103 43.8104C12.0027 43.8104 12.357 44.0971 12.357 44.5609C12.357 45.0248 12 45.3237 11.4171 45.3277C10.557 45.3277 9.69552 45.3399 8.83541 45.3277C7.42217 45.3061 6.43899 44.3026 6.42276 42.8745C6.41464 42.1983 6.42276 41.5221 6.42276 40.8378C6.0797 40.8044 5.73881 40.7515 5.40171 40.6796C4.8284 40.5378 4.32377 40.1977 3.97723 39.7195C3.63069 39.2412 3.46459 38.6558 3.50838 38.0668C3.62333 36.8077 4.52402 35.8557 5.79661 35.7678C6.70581 35.7089 7.61786 35.7089 8.52706 35.7678C9.45344 35.8205 10.1499 36.3168 10.5556 37.1553C10.5963 37.2715 10.6755 37.3704 10.78 37.4356C10.8845 37.5008 11.0081 37.5283 11.1304 37.5137C12.2569 37.4975 13.3848 37.5069 14.5587 37.5069C14.5695 37.3108 14.5871 37.1499 14.5871 36.9876C14.5871 35.9733 14.5871 34.959 14.5871 33.9461C14.5952 32.4585 15.5757 31.4713 17.0673 31.4618C18.9399 31.451 20.8125 31.451 22.6851 31.4618C23.0219 31.4618 23.2031 31.4063 23.3465 31.0371C23.7441 30.008 24.5541 29.4481 25.6455 29.4427C29.3564 29.4201 33.0678 29.4201 36.7796 29.4427C37.4388 29.4459 38.0701 29.7087 38.5366 30.1743C39.0032 30.6399 39.2675 31.2706 39.2721 31.9297C39.2779 32.5971 39.0184 33.2395 38.5508 33.7157C38.0832 34.1919 37.4457 34.4631 36.7783 34.4695C35.3786 34.5006 33.9789 34.4776 32.5778 34.479H32.0003V35.5406H32.5413C33.8937 35.5406 35.2461 35.5406 36.5903 35.5406C38.1307 35.5487 39.2653 36.6157 39.2721 38.0465C39.2802 39.5017 38.1401 40.5701 36.5673 40.5755C35.2149 40.5755 33.8626 40.5755 32.5183 40.5755H31.9773V47.3536C31.9773 49.8041 30.8954 51.2255 28.5369 51.8746C28.5071 51.8827 28.4855 51.9152 28.4598 51.9355H3.55706C0.756281 51.2282 -0.0078125 49.1915 -0.0078125 46.86C0.0449304 32.7952 0.0178844 18.7305 0.0192368 4.66571C0.0192368 4.44528 0.0111225 4.22484 0.0192368 4.0071C0.127427 2.39236 0.89017 1.18874 2.31828 0.440876C2.69966 0.242076 3.12971 0.144705 3.54489 0H28.4598ZM16.1112 37.5015C18.4468 37.5015 20.7188 37.5015 22.9908 37.4907C23.0949 37.4907 23.245 37.3446 23.291 37.2337C23.7684 36.0572 24.6528 35.527 25.897 35.5325C27.2291 35.5325 28.5612 35.5325 29.892 35.5325C30.0691 35.5325 30.2463 35.5122 30.4208 35.5014V34.4776C28.8845 34.4776 27.3847 34.4776 25.8862 34.4776C24.8652 34.4776 24.0564 34.1016 23.5006 33.2185C23.464 33.1588 23.4154 33.1074 23.3579 33.0673C23.3004 33.0273 23.2353 32.9996 23.1666 32.9859C21.0758 32.9751 18.985 32.9697 16.8956 32.9859C16.425 32.9859 16.122 33.3402 16.1166 33.8203C16.1017 35.0267 16.1112 36.2249 16.1112 37.5015ZM23.3302 1.54848H8.6596C8.79483 2.18545 8.86651 2.8143 9.07748 3.39177C9.36824 4.18427 9.9971 4.66301 10.8545 4.66842C14.2805 4.69006 17.7066 4.69006 21.1326 4.66842C21.5421 4.66411 21.9397 4.52992 22.268 4.28518C22.5964 4.04044 22.8386 3.69778 22.9597 3.30657C23.1179 2.74804 23.2045 2.15975 23.3302 1.54848ZM31.2444 30.9546C29.4389 30.9546 27.6335 30.9546 25.8348 30.9546C25.0491 30.9546 24.5812 31.4767 24.7178 32.1718C24.8192 32.6803 25.2303 32.9589 25.9119 32.9589C29.4552 32.9589 32.9979 32.9589 36.5403 32.9589C36.742 32.9637 36.9429 32.933 37.134 32.8683C37.3208 32.8063 37.4827 32.6857 37.5955 32.5244C37.7083 32.3631 37.766 32.1697 37.7601 31.973C37.7714 31.7763 37.7189 31.5813 37.6105 31.4169C37.502 31.2524 37.3435 31.1273 37.1583 31.0601C36.9515 30.989 36.7332 30.9569 36.5146 30.9655C34.7484 30.9506 32.9984 30.9546 31.2444 30.9546ZM31.2444 39.05C33.0498 39.05 34.8552 39.05 36.6606 39.05C37.3138 39.05 37.7682 38.6172 37.7615 38.0452C37.7547 37.4731 37.322 37.0917 36.6877 37.0593C36.5863 37.0593 36.4848 37.0593 36.3848 37.0593H26.0593C25.8744 37.0529 25.6893 37.0629 25.5062 37.089C25.3804 37.1078 25.2596 37.1514 25.1509 37.2173C25.0421 37.2832 24.9476 37.3702 24.8728 37.473C24.7981 37.5759 24.7445 37.6926 24.7153 37.8164C24.6862 37.9402 24.6819 38.0685 24.7029 38.1939C24.7678 38.7349 25.1776 39.0486 25.8294 39.0513C27.6335 39.0568 29.4389 39.0568 31.243 39.0568L31.2444 39.05ZM7.103 39.2529H8.21466C8.24847 39.2529 8.28228 39.2529 8.31609 39.2529C8.87462 39.2123 9.28981 38.8147 9.3128 38.2967C9.31824 38.1652 9.29718 38.0339 9.25088 37.9107C9.20457 37.7875 9.13397 37.6749 9.04326 37.5795C8.95255 37.4841 8.84358 37.4079 8.72284 37.3555C8.60211 37.3031 8.47206 37.2755 8.34044 37.2743C7.56687 37.2432 6.79061 37.2446 6.01569 37.2743C5.88412 37.2715 5.75334 37.2955 5.63134 37.3449C5.50933 37.3942 5.39865 37.4679 5.30604 37.5614C5.21342 37.6549 5.14081 37.7663 5.09262 37.8887C5.04443 38.0112 5.02168 38.1422 5.02575 38.2737C5.03251 38.8147 5.44769 39.2285 6.04139 39.2542C6.39301 39.2637 6.75409 39.2515 7.10165 39.2529H7.103Z" fill="white"/>
<path d="M21.2034 17.2266C19.9024 15.5077 18.623 13.8281 17.3599 12.1444C17.2152 11.951 17.038 11.6697 17.0813 11.4682C17.1381 11.2126 17.3613 10.8664 17.579 10.8082C17.7278 10.7841 17.8802 10.7948 18.0243 10.8393C18.1683 10.8839 18.3001 10.9612 18.4093 11.0652C19.0855 11.8631 19.6941 12.7178 20.327 13.5508L22.1595 15.9648L24.3233 13.0991C24.8115 12.4527 25.293 11.8009 25.7866 11.1585C26.1314 10.7108 26.5547 10.6175 26.9199 10.8758C27.3094 11.1558 27.3472 11.6048 26.9943 12.0754C25.7149 13.7794 24.4328 15.4766 23.1264 17.2077C23.2076 17.328 23.2833 17.4552 23.3712 17.5715C24.7362 19.3746 26.1012 21.1778 27.4662 22.981C27.5677 23.1162 27.6772 23.2515 27.7651 23.3867C27.991 23.7505 27.9666 24.1008 27.6488 24.3942C27.3553 24.6647 26.9131 24.6268 26.598 24.3212C26.5048 24.2238 26.4194 24.1194 26.3424 24.0088C25.0919 22.3571 23.8396 20.7013 22.5855 19.0415C22.4503 18.8711 22.315 18.7034 22.1595 18.5005C21.11 19.8921 20.0944 21.2378 19.0801 22.5847C18.7353 23.0432 18.4039 23.5084 18.0442 23.9601C17.7142 24.3821 17.2476 24.4767 16.896 24.2144C16.5444 23.952 16.5065 23.4895 16.8365 23.0486C18.161 21.2788 19.4912 19.5117 20.8274 17.7473C20.9424 17.5863 21.06 17.4186 21.2034 17.2266Z" fill="white"/>
<path d="M14.0055 16.0664V19.5596C14.0055 21.9005 12.76 23.5937 10.5137 24.3037C7.79132 25.1638 4.69842 23.4734 4.12907 20.8146C4.08334 20.5825 4.06114 20.3465 4.0628 20.11C4.0628 17.339 4.0628 14.5652 4.05469 11.7969C4.05469 11.3412 4.17641 10.9855 4.64974 10.8651C5.17176 10.7299 5.57206 11.1248 5.57477 11.7685C5.58153 13.3062 5.57477 14.8438 5.57477 16.3815V19.6759C5.57477 21.3082 6.57958 22.5835 8.19703 22.9216C9.70088 23.2313 10.9545 22.7363 11.9418 21.5692C12.3175 21.1058 12.51 20.5206 12.4827 19.9247C12.4733 17.3052 12.4827 14.6856 12.4827 12.0674C12.4827 11.9146 12.4746 11.7617 12.4895 11.6103C12.5355 11.1315 12.8384 10.8394 13.2685 10.8489C13.6985 10.8584 13.9906 11.1599 13.996 11.6508C14.0082 12.7652 13.996 13.8809 13.996 14.9966L14.0055 16.0664Z" fill="white"/>
<path d="M20.1426 47.0697C19.0972 47.0697 18.0532 47.0778 17.0078 47.0697C15.5445 47.0561 14.4383 45.9878 14.4221 44.5786C14.4058 43.1694 15.5134 42.0699 16.9726 42.0564C19.0959 42.0365 21.2191 42.0365 23.3424 42.0564C24.8137 42.0713 25.8767 43.1667 25.8618 44.5921C25.847 45.9864 24.7651 47.0521 23.3275 47.0683C22.2659 47.0805 21.2042 47.0697 20.1426 47.0697ZM20.1156 45.5496C21.142 45.5496 22.1698 45.5496 23.1963 45.5496C23.9144 45.5496 24.3418 45.1682 24.3404 44.5569C24.3391 43.9457 23.9347 43.5778 23.2382 43.5751C21.1853 43.567 19.1315 43.567 17.0768 43.5751C16.3898 43.5751 15.9597 43.9605 15.9462 44.5394C15.9327 45.1182 16.3925 45.5442 17.0849 45.5482C18.0951 45.5482 19.1053 45.5482 20.1156 45.5482V45.5496Z" fill="white"/>
<path d="M27.9244 3.99771C27.9132 4.19382 27.8266 4.37799 27.6826 4.51161C27.5387 4.64524 27.3486 4.71794 27.1522 4.71447C27.0549 4.71187 26.9591 4.68996 26.8704 4.65001C26.7817 4.61007 26.7018 4.55288 26.6353 4.48179C26.5689 4.4107 26.5172 4.32711 26.4834 4.23588C26.4495 4.14465 26.4341 4.04761 26.4381 3.95038C26.4407 3.85329 26.4626 3.75768 26.5025 3.66911C26.5424 3.58055 26.5994 3.50079 26.6704 3.43448C26.7414 3.36817 26.8248 3.31662 26.9159 3.28283C27.0069 3.24905 27.1038 3.2337 27.2009 3.23768C27.3972 3.24369 27.5833 3.32685 27.7187 3.46912C27.8541 3.6114 27.928 3.80132 27.9244 3.99771Z" fill="white"/>
<path d="M15.9885 3.97606C15.5003 3.97606 15.0107 3.99093 14.5225 3.97606C14.0343 3.96118 13.7408 3.65419 13.7422 3.22548C13.7435 2.79678 14.0505 2.48032 14.5293 2.47086C15.5075 2.45373 16.4857 2.45373 17.4639 2.47086C17.9779 2.48032 18.2754 2.80084 18.2619 3.25794C18.2483 3.71505 17.9616 3.96388 17.4504 3.98011C16.9392 3.99634 16.4727 3.98011 15.9831 3.98011L15.9885 3.97606Z" fill="white"/>
</g>
<defs>
<clipPath id="clip0_262_4898">
<rect width="39.2853" height="51.9314" fill="white"/>
</clipPath>
</defs>
</svg>
