<svg width="56" height="52" viewBox="0 0 56 52" fill="none" xmlns="http://www.w3.org/2000/svg">
<g clip-path="url(#clip0_262_4887)">
<path d="M55.1068 39.7744C54.6646 40.9863 53.8595 41.6982 52.5064 41.6869C52.4145 41.6869 52.2902 41.8281 52.2337 41.9284C52.1405 42.0965 52.1151 42.3013 52.0219 42.468C51.6391 43.1389 51.5148 43.6856 52.1335 44.396C52.7903 45.1503 52.5911 46.3594 51.9032 47.1236C51.4074 47.673 50.882 48.1985 50.334 48.6956C49.8972 49.1057 49.319 49.3312 48.72 49.3252C48.121 49.3191 47.5475 49.0819 47.1191 48.6632C46.8366 48.3934 46.6135 48.3482 46.3098 48.553C46.2944 48.5623 46.2777 48.5694 46.2603 48.5742C45.3832 48.8341 44.7447 49.1815 44.6444 50.3073C44.5583 51.265 43.4989 51.902 42.489 51.9288C41.835 51.9458 41.1824 51.9415 40.5285 51.9288C39.2007 51.9119 38.2049 51.0107 38.1272 49.6802C38.1004 49.2267 37.9196 49.0813 37.5326 48.9202C36.7444 48.5925 36.1031 48.2465 35.2585 49.0092C34.5593 49.642 33.3615 49.3807 32.6256 48.714C32.0746 48.2191 31.5495 47.6963 31.0521 47.1476C30.6397 46.7134 30.413 46.1354 30.4201 45.5366C30.4272 44.9379 30.6676 44.3655 31.0902 43.9412C31.3614 43.6587 31.3939 43.4454 31.1961 43.129C31.0769 42.9133 30.9771 42.6874 30.8981 42.4539C30.5874 41.6713 30.5888 41.6713 29.7201 41.6713C27.0721 41.6713 24.4237 41.6713 21.7748 41.6713C21.0785 41.6713 20.6307 41.3126 20.5672 40.7377C20.4923 40.0427 20.9542 39.554 21.7198 39.5512C23.539 39.5441 25.3569 39.5512 27.1748 39.5512H27.809C27.809 38.8718 27.809 38.2432 27.809 37.6147C27.8175 36.0044 28.6565 35.1075 30.271 34.9606C30.3631 34.9428 30.4502 34.9051 30.5263 34.8502C30.6024 34.7953 30.6656 34.7246 30.7117 34.6428C30.9532 34.1371 31.1425 33.606 31.3628 33.0523C31.2526 32.9309 31.1185 32.7924 30.9956 32.647C30.6053 32.2063 30.3942 31.6356 30.4039 31.047C30.4136 30.4585 30.6433 29.895 31.0478 29.4674C31.5041 28.9773 31.9843 28.5084 32.4603 28.0437C33.4378 27.1072 34.798 27.0761 35.7952 27.9956C36.065 28.2456 36.2726 28.305 36.5664 28.0931C36.6673 28.0214 36.7809 27.9696 36.9012 27.9405C37.6696 27.7513 38.1131 27.4024 38.1837 26.4843C38.2558 25.5365 39.1626 24.8331 40.1259 24.7497C40.8825 24.6911 41.642 24.6798 42.4 24.7158C43.7631 24.7695 44.66 25.6481 44.7603 27.0111C44.7857 27.3671 44.8874 27.5337 45.2335 27.6383C45.6572 27.7626 46.0414 27.9886 46.4581 28.1298C46.5993 28.1793 46.8522 28.1679 46.9468 28.0761C47.2195 27.8011 47.5495 27.5895 47.9132 27.4564C48.277 27.3234 48.6656 27.2721 49.0514 27.3063V16.6011H2.99722V17.1788C2.99722 23.3288 2.98592 29.4787 3.01276 35.6273C3.01396 36.3116 3.14183 36.9897 3.38989 37.6274C3.90121 38.8986 4.86029 39.5865 6.30527 39.5583C8.1754 39.5229 10.0484 39.5484 11.9199 39.5583C12.7307 39.5583 13.2152 39.9651 13.2067 40.6261C13.1982 41.2871 12.7123 41.6798 11.8973 41.6798C10.078 41.6798 8.25591 41.6134 6.44228 41.6954C3.19355 41.8366 1.36579 39.3633 0.968883 37.061C0.941712 36.9438 0.907759 36.8282 0.867188 36.7149V5.30541C0.903912 5.17264 0.950526 5.04269 0.974538 4.90709C1.46185 2.19652 3.51702 0.3391 6.0595 0.337687C19.399 0.337687 32.7395 0.337687 46.081 0.337687C46.7352 0.325749 47.3846 0.452205 47.9866 0.70877C48.5886 0.965335 49.1295 1.34622 49.574 1.82645C50.8198 3.12453 51.2507 4.71358 51.2478 6.4693C51.2394 13.673 51.2478 20.8767 51.2351 28.0804C51.2216 28.3125 51.2594 28.5447 51.3458 28.7605C51.4322 28.9763 51.5652 29.1704 51.7351 29.329C52.7451 30.3262 52.7479 31.6865 51.8029 32.7374C51.7097 32.8405 51.6193 32.9464 51.5459 33.0312C51.7705 33.5792 51.9611 34.1103 52.2097 34.6131C52.2583 34.7015 52.3256 34.7782 52.4068 34.838C52.488 34.8977 52.5813 34.9391 52.6801 34.9592C53.2818 35.003 53.8609 35.1273 54.2706 35.5722C54.6053 35.9352 54.8356 36.3985 55.1053 36.8166L55.1068 39.7744ZM49.0994 14.3948C49.0994 13.7733 49.0994 13.2111 49.0994 12.6489C49.0994 10.3395 49.1362 8.0301 49.0669 5.72774C49.0048 3.69093 47.6545 2.46348 45.6247 2.46348H27.6155C20.4824 2.46348 13.3493 2.46066 6.21628 2.45501C4.98459 2.45501 4.07637 2.98045 3.56363 4.03982C3.23899 4.70115 3.05479 5.42254 3.02265 6.15855C2.9605 8.76601 2.99722 11.3749 3.00004 13.9823C3.00004 14.1236 3.02264 14.2521 3.03677 14.4061L49.0994 14.3948ZM33.8912 32.8122C33.7358 33.1653 33.6186 33.4182 33.5112 33.6738C33.1849 34.4493 32.8177 35.212 32.5535 36.0073C32.271 36.8548 32.0126 37.1034 31.1283 37.1118C29.9546 37.1231 29.9546 37.1231 29.9546 38.2913C29.9546 39.5399 29.9546 39.5399 31.2258 39.5498C32.0239 39.5568 32.2823 39.8069 32.5437 40.5696C32.8278 41.3985 33.1632 42.209 33.5479 42.9963C33.9265 43.7661 33.9194 44.1093 33.3036 44.7294C32.4674 45.5698 32.4674 45.5698 33.3248 46.4244C34.1821 47.2789 34.1836 47.2817 35.0621 46.4244C35.6624 45.8354 35.9887 45.8297 36.7571 46.2083C37.5112 46.5853 38.2904 46.91 39.0891 47.18C40.0327 47.4908 40.2403 47.7083 40.2445 48.7225C40.2445 49.9514 40.1203 49.8158 41.359 49.8115C42.8845 49.8115 42.6769 50.0079 42.6938 48.5078C42.7023 47.7394 42.9438 47.4894 43.6825 47.2281C44.529 46.9362 45.3576 46.5952 46.1643 46.2068C46.9341 45.8311 47.2519 45.8297 47.8593 46.4258C48.7421 47.2888 48.7421 47.2888 49.5995 46.4258C50.4568 45.5627 50.4554 45.567 49.5882 44.6884C48.9991 44.0924 48.9949 43.7618 49.3763 42.9934C49.7534 42.2404 50.079 41.4627 50.3509 40.6656C50.6602 39.7433 50.8622 39.5484 51.8566 39.547C53.0897 39.547 52.9725 39.6515 52.9739 38.4495C52.9739 37.1415 52.9739 37.1415 51.6928 37.109C50.9385 37.0906 50.656 36.8265 50.406 36.109C50.124 35.2803 49.791 34.4698 49.4088 33.6823C48.985 32.8348 48.985 32.541 49.6545 31.863C50.584 30.9152 50.5783 31.1893 49.6432 30.2429C48.759 29.346 48.7534 29.3516 47.831 30.2429C47.2745 30.7768 46.9044 30.7881 46.2165 30.4576C45.413 30.0641 44.5861 29.7202 43.7405 29.4279C42.893 29.1454 42.6472 28.8968 42.6387 28.0027C42.6302 26.8586 42.6302 26.8586 41.4833 26.8586C40.2121 26.8586 40.2121 26.8586 40.1909 28.1298C40.1796 28.8926 39.9197 29.1609 39.2021 29.4166C38.357 29.7113 37.5297 30.0551 36.7246 30.4463C35.9958 30.8037 35.6342 30.8022 35.0635 30.2528C34.1525 29.3742 34.1525 29.3742 33.24 30.2824C32.4448 31.0763 32.4575 31.065 33.2217 31.8729C33.483 32.1512 33.6736 32.5029 33.8912 32.8122Z" fill="white"/>
<path d="M24.7607 28.05C23.9132 27.0994 23.1067 26.1954 22.303 25.2872C21.7775 24.694 21.7676 24.0442 22.2705 23.6176C22.7733 23.1911 23.3751 23.297 23.8906 23.8691C24.8087 24.8889 25.7226 25.9129 26.6323 26.9412C27.2905 27.687 27.2933 28.4032 26.6323 29.1518C25.7132 30.1951 24.788 31.231 23.8567 32.2593C23.3595 32.8101 22.6956 32.8751 22.2295 32.4415C21.7634 32.0078 21.7818 31.3892 22.262 30.8439C23.0798 29.9286 23.9019 29.0204 24.7607 28.05Z" fill="white"/>
<path d="M9.27878 28.0501C10.0938 28.9654 10.882 29.8411 11.6602 30.7338C11.8305 30.9109 11.9708 31.1147 12.0755 31.3369C12.159 31.5627 12.1611 31.8106 12.0814 32.0378C12.0017 32.2649 11.8453 32.4572 11.639 32.5813C11.4266 32.7124 11.1749 32.7647 10.9278 32.7291C10.6807 32.6935 10.454 32.5722 10.2873 32.3864C9.73218 31.796 9.2025 31.183 8.66152 30.577C8.21517 30.077 7.76176 29.5883 7.32813 29.0741C6.77443 28.4216 6.76314 27.697 7.30977 27.0627C8.27026 25.9591 9.24347 24.8668 10.2294 23.7858C10.6856 23.2829 11.3283 23.2363 11.7831 23.6445C12.2379 24.0527 12.262 24.6898 11.8241 25.1983C11.4116 25.6813 10.9766 26.1475 10.5528 26.6206C10.1291 27.0938 9.73784 27.5331 9.27878 28.0501Z" fill="white"/>
<path d="M19.1302 23.7944C18.9268 24.6418 18.6923 25.6193 18.4607 26.5953L17.0482 32.4995C17.0327 32.5673 17.0087 32.6408 16.9875 32.7015C16.794 33.3216 16.2685 33.6564 15.7035 33.5165C15.5651 33.4853 15.4346 33.4261 15.3198 33.3427C15.2051 33.2592 15.1086 33.1532 15.0363 33.0311C14.9639 32.9091 14.9173 32.7735 14.8992 32.6328C14.881 32.4921 14.8918 32.3492 14.9309 32.2128C15.3673 30.3102 15.8278 28.4118 16.2826 26.512C16.5369 25.4512 16.7784 24.3933 17.0609 23.3339C17.1241 23.0812 17.2809 22.8619 17.4996 22.7203C17.7182 22.5787 17.9825 22.5254 18.2389 22.5711C18.7771 22.6644 19.1415 23.1121 19.1302 23.7944Z" fill="white"/>
<path d="M16.8924 39.552C17.0335 39.5478 17.174 39.5722 17.3054 39.6238C17.4368 39.6755 17.5563 39.7532 17.6568 39.8524C17.7573 39.9515 17.8366 40.0701 17.89 40.2008C17.9434 40.3314 17.9697 40.4716 17.9673 40.6128C17.967 40.7541 17.9384 40.894 17.8833 41.0241C17.8281 41.1543 17.7475 41.2721 17.6462 41.3707C17.5449 41.4692 17.4249 41.5465 17.2932 41.5981C17.1616 41.6496 17.021 41.6743 16.8797 41.6707C16.604 41.6618 16.3418 41.5492 16.1454 41.3554C15.9491 41.1617 15.833 40.901 15.8203 40.6255C15.8196 40.4844 15.8468 40.3446 15.9004 40.2141C15.954 40.0836 16.0329 39.965 16.1326 39.8652C16.2323 39.7654 16.3507 39.6863 16.4812 39.6326C16.6116 39.5788 16.7513 39.5514 16.8924 39.552Z" fill="white"/>
<path d="M37.3912 12.0621C35.7668 12.0621 34.1425 12.0946 32.5195 12.0536C30.7214 12.0084 29.2948 10.6524 29.0716 8.85575C28.8626 7.17631 29.9982 5.51098 31.6847 5.0491C31.9724 4.963 32.2702 4.9155 32.5704 4.90785C35.7824 4.89796 38.9958 4.87112 42.2064 4.91491C43.9127 4.93892 45.2319 6.09151 45.6076 7.72153C45.9551 9.22865 45.2672 10.8558 43.8632 11.5706C43.2804 11.8561 42.6444 12.0168 41.9959 12.0423C40.4634 12.1087 38.9266 12.0635 37.3912 12.0635V12.0621ZM37.4025 7.04494C35.8318 7.04494 34.2611 7.02941 32.6918 7.04494C31.8048 7.05766 31.1791 7.69328 31.1918 8.49416C31.193 8.68522 31.2324 8.87411 31.3075 9.04978C31.3827 9.22545 31.4921 9.38436 31.6294 9.51721C31.7668 9.65006 31.9292 9.75418 32.1073 9.82347C32.2853 9.89277 32.4754 9.92585 32.6664 9.92077C35.8064 9.94055 38.9478 9.9349 42.0877 9.92077C42.3735 9.93054 42.6555 9.85253 42.8957 9.69722C43.1358 9.54191 43.3227 9.31677 43.431 9.05209C43.8731 8.06335 43.1725 7.05766 42.0072 7.03929C40.4732 7.02658 38.9379 7.04353 37.4025 7.04494Z" fill="white"/>
<path d="M23.6464 8.49701C23.6423 9.4428 23.265 10.3487 22.5967 11.0179C21.9283 11.6871 21.0228 12.0654 20.077 12.0706C19.1242 12.0702 18.2103 11.6923 17.5355 11.0197C16.8607 10.347 16.4799 9.43429 16.4766 8.48147C16.4861 7.53754 16.8655 6.635 17.5331 5.96764C18.2007 5.30027 19.1034 4.92131 20.0473 4.91211C20.9999 4.91061 21.914 5.28738 22.5889 5.95959C23.2638 6.63181 23.6441 7.54448 23.6464 8.49701ZM20.0671 7.05062C19.8771 7.04984 19.6889 7.08701 19.5135 7.15995C19.3381 7.2329 19.179 7.34014 19.0456 7.47539C18.9122 7.61065 18.8071 7.77119 18.7366 7.94759C18.666 8.124 18.6315 8.31271 18.6348 8.50266C18.6384 8.87761 18.7879 9.23641 19.0516 9.503C19.3153 9.76959 19.6724 9.92299 20.0473 9.93069C20.431 9.93118 20.7997 9.78168 21.0747 9.51408C21.3497 9.24648 21.5092 8.88199 21.5191 8.49842C21.5177 8.11417 21.3641 7.74614 21.0919 7.47483C20.8198 7.20351 20.4514 7.05099 20.0671 7.05062Z" fill="white"/>
<path d="M14.3567 8.4687C14.3605 8.9412 14.2705 9.40975 14.0919 9.84723C13.9134 10.2847 13.6499 10.6824 13.3166 11.0174C12.9834 11.3524 12.587 11.6179 12.1504 11.7987C11.7139 11.9795 11.2458 12.0719 10.7733 12.0706C9.82964 12.0676 8.92551 11.6915 8.25813 11.0244C7.59075 10.3573 7.21432 9.45328 7.21097 8.50967C7.20893 8.03789 7.30006 7.57035 7.47914 7.13388C7.65822 6.69741 7.92173 6.3006 8.25454 5.96621C8.58736 5.63182 8.98292 5.36645 9.41854 5.18531C9.85416 5.00417 10.3213 4.91083 10.793 4.91064C11.7356 4.91582 12.6382 5.29217 13.3053 5.95816C13.9723 6.62415 14.3501 7.52613 14.3567 8.4687ZM9.34383 8.4687C9.34379 8.85204 9.4946 9.21999 9.76367 9.49303C10.0327 9.76606 10.3984 9.92224 10.7817 9.92781C11.165 9.92334 11.531 9.76765 11.8 9.49465C12.0691 9.22164 12.2194 8.85341 12.2182 8.47012C12.2171 8.09492 12.0683 7.73527 11.8039 7.46904C11.5395 7.20281 11.1809 7.05145 10.8058 7.04774C10.616 7.04437 10.4275 7.07868 10.251 7.14867C10.0746 7.21866 9.91386 7.32295 9.77803 7.4555C9.6422 7.58805 9.534 7.74622 9.45971 7.92087C9.38542 8.09551 9.34652 8.28316 9.34524 8.47294L9.34383 8.4687Z" fill="white"/>
<path d="M34.9375 38.3232C34.9366 37.4667 35.105 36.6185 35.433 35.8274C35.7611 35.0362 36.2423 34.3177 36.849 33.7132C37.4558 33.1087 38.176 32.6301 38.9684 32.305C39.7607 31.9799 40.6096 31.8146 41.466 31.8187C43.1954 31.8213 44.8533 32.5096 46.076 33.7326C47.2988 34.9556 47.9867 36.6135 47.9889 38.343C47.9712 40.0639 47.2784 41.709 46.0598 42.9242C44.8411 44.1394 43.194 44.8275 41.4731 44.8404C39.7431 44.8397 38.084 44.1534 36.859 42.9319C35.6341 41.7103 34.9431 40.0531 34.9375 38.3232ZM37.0774 38.2921C37.0744 38.8705 37.1859 39.4438 37.4053 39.9789C37.6247 40.5141 37.9477 41.0006 38.3559 41.4104C38.764 41.8203 39.2492 42.1454 39.7834 42.367C40.3177 42.5887 40.8905 42.7025 41.4689 42.7019C42.6273 42.6927 43.7357 42.2284 44.5549 41.4092C45.374 40.59 45.8383 39.4816 45.8476 38.3232C45.8453 37.1634 45.383 36.0518 44.5621 35.2324C43.7412 34.4131 42.6287 33.9529 41.4689 33.9529C40.8954 33.9489 40.3268 34.0579 39.7956 34.2739C39.2643 34.4899 38.7809 34.8085 38.373 35.2116C37.9651 35.6146 37.6407 36.0942 37.4184 36.6228C37.1961 37.1514 37.0802 37.7187 37.0774 38.2921Z" fill="white"/>
</g>
<defs>
<clipPath id="clip0_262_4887">
<rect width="54.2396" height="51.6067" fill="white" transform="translate(0.867188 0.334229)"/>
</clipPath>
</defs>
</svg>
