<svg width="70" height="70" viewBox="0 0 70 70" fill="none" xmlns="http://www.w3.org/2000/svg">
<circle cx="35" cy="35" r="35" fill="#BCF5DB"/>
<g clip-path="url(#clip0_229_32)">
<path d="M22.1734 47.1949H23.1066C24.0352 47.1895 24.9665 47.2254 25.8925 47.1679C27.4177 47.0728 28.3571 45.5475 27.8089 44.1174C27.6559 43.711 27.3848 43.3596 27.0305 43.1086C26.6762 42.8576 26.2548 42.7183 25.8207 42.7087C24.7243 42.6935 23.627 42.7033 22.5296 42.7024H22.1474V40.2575C22.2704 40.2512 22.3879 40.2404 22.5063 40.2396C23.6144 40.2396 24.7234 40.2521 25.8261 40.2288C26.2957 40.2194 26.7496 40.0575 27.1191 39.7674C27.4887 39.4774 27.7538 39.075 27.8744 38.621C28.006 38.165 27.9906 37.6793 27.8303 37.2326C27.67 36.786 27.3731 36.4012 26.9817 36.1329C26.576 35.8684 26.0983 35.7358 25.6143 35.7534C24.5843 35.7534 23.5507 35.7534 22.5243 35.7534H22.1456V33.2582C22.2766 33.2519 22.4058 33.2412 22.5341 33.2412C23.6422 33.2412 24.7512 33.2573 25.8584 33.2241C26.726 33.1981 27.3684 32.7531 27.7381 31.968C28.1077 31.1829 28.0395 30.4131 27.5407 29.7052C27.3398 29.4056 27.0664 29.1616 26.7459 28.9959C26.4254 28.8303 26.0683 28.7484 25.7076 28.7577H22.1546V26.1989H22.5261C23.5785 26.1989 24.631 26.2105 25.6825 26.1989C26.7341 26.1872 27.5577 25.5816 27.8547 24.652C27.9977 24.2115 28.0019 23.7376 27.8668 23.2945C27.7317 22.8515 27.4637 22.4606 27.0992 22.1748C26.709 21.867 26.2252 21.702 25.7283 21.7073H22.125V20.1471C22.125 19.9344 22.125 19.7209 22.125 19.5082C22.134 18.5814 22.7136 18.0027 23.644 18.0027C27.4608 18.0027 31.2776 18.0027 35.0944 18.0027H45.3703C46.386 18.0027 46.9342 18.541 46.9351 19.5513C46.9351 23.1193 46.9351 26.6872 46.9351 30.2552V30.6428H46.5215C43.9357 30.6428 41.349 30.6913 38.765 30.6249C37.0602 30.5818 36.0114 31.8128 36.0257 33.3883C36.0724 38.6165 36.0446 43.8455 36.0419 49.0736C36.0419 49.7241 36.0105 50.3773 36.4609 51.0018H23.6772C22.6687 51.0018 22.1277 50.4634 22.1259 49.4424C22.1259 48.7363 22.1259 48.0293 22.1331 47.3223C22.1426 47.2786 22.1561 47.236 22.1734 47.1949Z" fill="#0F5A37"/>
<path d="M52.8121 41.3298C52.8121 44.0215 52.8121 46.7131 52.8121 49.4048C52.8121 50.4815 52.3536 50.9427 51.2868 50.9427H38.6952C37.6858 50.9427 37.1923 50.4492 37.1914 49.4371C37.1914 44.0191 37.1914 38.6013 37.1914 33.1839C37.1914 32.1637 37.6777 31.6765 38.6907 31.6765H51.3129C52.324 31.6765 52.8103 32.1655 52.8112 33.1856C52.813 35.9007 52.8133 38.6154 52.8121 41.3298ZM44.9452 38.8812C46.4795 38.8812 48.0132 38.8812 49.5462 38.8812C50.0576 38.8812 50.212 38.7341 50.2138 38.2236C50.2185 37.0799 50.2185 35.9356 50.2138 34.7908C50.2138 34.2937 50.0603 34.143 49.5704 34.143C46.4918 34.143 43.4134 34.143 40.3353 34.143C39.8427 34.143 39.6929 34.2937 39.692 34.7827C39.692 35.9276 39.692 37.0721 39.692 38.2164C39.692 38.7314 39.84 38.8812 40.3461 38.8812C41.8791 38.8824 43.4122 38.8824 44.9452 38.8812ZM42.6815 47.1025C42.852 46.9644 42.9337 46.9042 43.0081 46.8334C43.0832 46.7665 43.1542 46.6952 43.2208 46.6198C43.4343 46.3749 43.4388 46.1102 43.2378 45.8967C43.0368 45.6831 42.7336 45.667 42.4949 45.8967C42.3363 46.0713 42.1885 46.2556 42.0526 46.4485C41.8552 46.2179 41.7412 46.0644 41.604 45.9325C41.342 45.6759 41.0585 45.6634 40.8368 45.885C40.6152 46.1066 40.6305 46.391 40.8772 46.6566C41.01 46.8011 41.1464 46.941 41.3169 47.1187C41.167 47.2479 41.0414 47.3439 40.931 47.4542C40.6359 47.7494 40.6027 48.0419 40.8297 48.2743C41.0567 48.5067 41.3527 48.4879 41.6461 48.1954C41.77 48.0724 41.8803 47.9361 42.0472 47.7467C42.1915 47.9343 42.3458 48.114 42.5093 48.2851C42.5556 48.334 42.6115 48.3728 42.6736 48.3991C42.7356 48.4254 42.8024 48.4386 42.8697 48.4379C42.9371 48.4373 43.0036 48.4227 43.0651 48.3952C43.1266 48.3676 43.1817 48.3277 43.227 48.2779C43.4325 48.0679 43.4415 47.7907 43.2217 47.5601C43.0498 47.3982 42.8695 47.2454 42.6815 47.1025ZM42.5864 42.5688C43.0063 42.4549 43.6882 42.7573 43.6793 42.009C43.6703 41.2607 42.9875 41.5882 42.5891 41.4706C42.4545 41.0642 42.7919 40.3545 42.0131 40.3715C41.2711 40.3877 41.6067 41.0714 41.4748 41.4985C41.3052 41.4985 41.1293 41.4985 40.9535 41.4985C40.5802 41.5074 40.3801 41.6779 40.3721 42.0027C40.3631 42.3427 40.5515 42.5222 40.9562 42.541C41.1356 42.5473 41.3079 42.541 41.4793 42.541C41.6031 42.9798 41.2801 43.6599 42.0248 43.6697C42.7695 43.6796 42.4725 42.9995 42.5864 42.5688ZM47.8801 46.409C48.2497 46.409 48.6185 46.4135 48.9872 46.409C49.3838 46.4018 49.5794 46.2215 49.5776 45.8796C49.5776 45.553 49.391 45.3655 49.0124 45.3601C48.2629 45.3488 47.5152 45.3488 46.7693 45.3601C46.3934 45.3664 46.2085 45.5602 46.2112 45.8886C46.2139 46.217 46.4077 46.4 46.7774 46.4081C47.147 46.4162 47.5113 46.4108 47.8801 46.4108V46.409ZM47.8639 48.4986C48.2443 48.4986 48.6239 48.5049 49.0043 48.4986C49.3847 48.4923 49.5722 48.3111 49.5776 47.9872C49.583 47.6633 49.3982 47.4587 49.0285 47.4489C48.2683 47.4375 47.5083 47.4375 46.7487 47.4489C46.3799 47.4542 46.1969 47.6579 46.2103 47.9872C46.2193 48.2958 46.4104 48.4789 46.7603 48.4887C47.1264 48.5076 47.4952 48.4995 47.8639 48.5004V48.4986ZM47.8899 41.5002C47.5212 41.5002 47.1524 41.5002 46.7837 41.5002C46.4149 41.5002 46.213 41.6797 46.2067 42.0054C46.2005 42.3311 46.3817 42.5303 46.7567 42.5348C47.5164 42.5455 48.276 42.5455 49.0357 42.5348C49.4107 42.5294 49.5875 42.3374 49.574 41.9964C49.5651 41.6824 49.3775 41.5056 49.0258 41.4985C48.6499 41.4922 48.2695 41.5002 47.8899 41.4994V41.5002Z" fill="#0F5A37"/>
<path d="M23.5033 43.7935C24.23 43.7935 24.9568 43.7935 25.6835 43.7935C26.439 43.798 26.9495 44.2654 26.9719 44.9599C26.9935 45.6247 26.4641 46.1846 25.7347 46.1945C24.2148 46.2142 22.6943 46.2142 21.1732 46.1945C20.4554 46.1855 19.9825 45.6561 20.0005 44.9536C20.0175 44.2825 20.5137 43.8024 21.2225 43.7935C21.9825 43.7863 22.7433 43.7935 23.5033 43.7935Z" fill="#0F5A37"/>
<path d="M23.4388 25.2066C22.7121 25.2066 21.9853 25.2066 21.2595 25.2066C20.4816 25.2004 20.0114 24.7517 20.0078 24.025C20.0042 23.2982 20.4852 22.803 21.2595 22.7985C22.7237 22.7895 24.1892 22.7895 25.6559 22.7985C26.4176 22.803 26.9416 23.3189 26.9299 24.0205C26.9183 24.7221 26.4015 25.2004 25.6559 25.2066C24.9103 25.2129 24.1764 25.2066 23.4388 25.2066Z" fill="#0F5A37"/>
<path d="M23.4454 32.205C22.7276 32.205 22.0098 32.205 21.2974 32.205C20.5195 32.2005 20.0063 31.7258 20 31.0134C19.9947 30.2831 20.5097 29.7977 21.3046 29.7959C22.7593 29.7959 24.214 29.7959 25.6687 29.7959C26.1667 29.7959 26.5659 29.9942 26.792 30.4527C26.8963 30.6472 26.9432 30.8673 26.9273 31.0874C26.9114 31.3076 26.8334 31.5187 26.7023 31.6962C26.4556 32.0551 26.0895 32.2032 25.6615 32.2041L23.4454 32.205Z" fill="#0F5A37"/>
<path d="M23.4373 39.2042C22.7195 39.2042 22.0071 39.2042 21.292 39.2042C20.5186 39.2042 20.0027 38.7197 20 38.01C19.9973 37.3003 20.5303 36.7988 21.2812 36.7961C22.7348 36.7913 24.1877 36.7913 25.64 36.7961C26.4008 36.7961 26.9329 37.3066 26.9248 38.0055C26.9167 38.7045 26.3649 39.1997 25.6166 39.2042C24.8908 39.2069 24.164 39.2042 23.4373 39.2042Z" fill="#0F5A37"/>
</g>
<defs>
<clipPath id="clip0_229_32">
<rect width="32.8125" height="33" fill="white" transform="translate(20 18)"/>
</clipPath>
</defs>
</svg>
