<svg width="70" height="70" viewBox="0 0 70 70" fill="none" xmlns="http://www.w3.org/2000/svg">
<circle cx="35" cy="35" r="35" fill="#BCF5DB"/>
<g clip-path="url(#clip0_215_3137)">
<path d="M34.7967 47.5678C32.3021 46.2192 29.6374 45.2124 26.8742 44.5745C24.1432 43.9401 21.3546 43.5858 18.5518 43.5171V19C19.2651 19.0532 19.9757 19.0811 20.6806 19.1595C23.8865 19.5119 26.9498 20.34 29.778 21.9318C31.6611 22.9684 33.3074 24.3861 34.6121 26.0944C34.7355 26.2558 34.8067 26.451 34.8163 26.6539C34.8275 33.5431 34.8275 40.4333 34.8163 47.3244C34.8247 47.3832 34.8107 47.4419 34.7967 47.5678Z" fill="#0F5A37"/>
<path d="M36.1729 47.5259V46.9999C36.1729 40.286 36.1729 33.5721 36.1729 26.8581C36.177 26.5501 36.2746 26.2507 36.4526 25.9993C38.5619 23.2634 41.3762 21.5373 44.5961 20.4183C46.9859 19.5962 49.4838 19.1305 52.0094 19.0364C52.1353 19.0364 52.2611 19.0364 52.4206 19.0364V43.4835C41.3426 44.5242 40.6572 45.6544 36.1729 47.5259Z" fill="#0F5A37"/>
<path d="M40.2486 50.0045C41.2445 49.6995 42.2292 49.3471 43.2391 49.1009C46.6296 48.2616 50.0845 48.0462 53.5646 48.0882C53.7688 48.0882 54.0317 48.119 54.1632 48.0099C54.3479 47.8588 54.5633 47.5651 54.5325 47.372C54.4978 47.242 54.4328 47.1219 54.3429 47.0218C54.2529 46.9216 54.1406 46.8442 54.015 46.7958C53.5754 46.7124 53.127 46.6851 52.6806 46.7146C49.0438 46.7538 45.4295 47.0307 41.9159 48.0462C39.8849 48.6309 37.977 49.445 36.4356 50.9724C36.319 51.096 36.179 51.1953 36.0237 51.2644C35.8684 51.3335 35.7009 51.3712 35.531 51.3751C35.3611 51.379 35.1921 51.3491 35.0338 51.2872C34.8755 51.2252 34.7311 51.1325 34.6089 51.0144C32.5499 48.9974 29.9455 48.1665 27.2375 47.5846C24.1009 46.9475 20.9038 46.6576 17.7037 46.7202C17.4802 46.7217 17.257 46.7357 17.0351 46.7622C16.9501 46.7656 16.8667 46.7863 16.7901 46.8231C16.7134 46.8599 16.645 46.912 16.5892 46.9762C16.5334 47.0404 16.4913 47.1153 16.4655 47.1964C16.4397 47.2775 16.4308 47.3629 16.4393 47.4476C16.4369 47.5329 16.4521 47.6179 16.4838 47.6972C16.5155 47.7765 16.563 47.8485 16.6235 47.9087C16.6841 47.969 16.7562 48.0162 16.8357 48.0476C16.9151 48.0789 17.0001 48.0937 17.0855 48.091C17.4352 48.1134 17.7876 48.0742 18.1401 48.077C22.0706 48.1134 25.9731 48.3987 29.7245 49.6744C30.0769 49.7871 30.4121 49.9481 30.7204 50.1527C30.5889 50.1527 30.4574 50.1835 30.3259 50.1835C25.2569 50.1835 20.187 50.1835 15.1161 50.1835C14.2377 50.1835 13.9971 49.9457 13.9971 49.0813V21.7807C13.9971 20.9415 14.2544 20.6981 15.0881 20.6953H17.1694V43.7801C17.1694 44.6893 17.3401 44.8543 18.2632 44.8711C23.4413 44.9662 28.4181 45.9537 33.0898 48.2281C33.75 48.5498 34.3823 48.9274 35.0117 49.3051C35.1481 49.4022 35.3114 49.4544 35.4789 49.4544C35.6463 49.4544 35.8096 49.4022 35.9461 49.3051C39.2247 47.2685 42.8223 46.074 46.6044 45.4698C48.6634 45.1369 50.7643 45.0445 52.8484 44.8739C53.5953 44.8151 53.8107 44.6445 53.8107 43.8864V20.7177C54.678 20.7177 55.52 20.6841 56.3565 20.7177C56.5273 20.7383 56.6846 20.8208 56.7986 20.9498C56.9126 21.0787 56.9752 21.245 56.9747 21.4171C56.9831 21.5764 56.9831 21.7361 56.9747 21.8954V48.9554C56.9747 49.9625 56.7733 50.1667 55.7746 50.1667H40.285L40.2486 50.0045Z" fill="#0F5A37"/>
</g>
<defs>
<clipPath id="clip0_215_3137">
<rect width="43" height="32.3808" fill="white" transform="translate(14 19)"/>
</clipPath>
</defs>
</svg>
