<svg width="70" height="70" viewBox="0 0 70 70" fill="none" xmlns="http://www.w3.org/2000/svg">
<circle cx="35" cy="35" r="35" fill="#BCF5DB"/>
<g clip-path="url(#clip0_229_34)">
<path d="M59 37.3178C58.8802 38.1443 58.7951 38.9781 58.6406 39.7975C57.9147 43.6325 56.0524 47.1606 53.2955 49.9235C52.8846 50.3415 52.4989 50.3044 52.0221 49.8276C48.6983 46.5046 45.3741 43.1804 42.0494 39.855C41.012 38.8176 39.9782 37.7754 38.9349 36.7404C38.6569 36.4661 38.4725 36.175 38.6258 35.7821C38.7791 35.3891 39.1217 35.3185 39.5111 35.3197C45.6939 35.3244 51.8771 35.3244 58.0608 35.3197C58.2445 35.3115 58.4272 35.3505 58.5916 35.4329C58.756 35.5153 58.8966 35.6384 59 35.7904V37.3178Z" fill="#0F5A37"/>
<path d="M13 33.1848C13.3031 32.3175 13.4911 31.3879 13.932 30.5949C15.3695 28.0206 18.3762 26.8059 21.2489 27.5342C24.0687 28.253 26.1112 30.8225 26.1903 33.7634C26.2813 37.1175 23.6746 40.1495 20.4175 40.4645C16.7878 40.8155 13.6517 38.4784 13.0886 35.0056C13.0656 34.9059 13.036 34.8079 13 34.7121V33.1848ZM18.8458 37.5356C18.8458 37.7333 18.8458 37.9261 18.8458 38.119C18.859 38.6401 19.1333 38.9575 19.5742 38.9659C20.015 38.9743 20.3516 38.6653 20.3205 38.1501C20.2953 37.7129 20.481 37.5811 20.8488 37.447C21.2764 37.2997 21.6452 37.0183 21.9003 36.6448C22.1554 36.2712 22.2832 35.8253 22.2647 35.3734C22.2383 34.5001 21.6657 33.7885 20.7349 33.4855C20.4798 33.4028 20.2127 33.3573 19.9575 33.2746C19.6185 33.1644 19.2615 33.077 18.9548 32.9045C18.8638 32.8517 18.7876 32.7768 18.7334 32.6866C18.6792 32.5965 18.6487 32.494 18.6447 32.3889C18.6408 32.2838 18.6635 32.1793 18.7108 32.0854C18.7581 31.9914 18.8285 31.9109 18.9153 31.8515C19.5047 31.4238 20.4367 31.6706 20.7349 32.3307C20.935 32.7763 21.3052 32.9596 21.7089 32.8098C22.091 32.6709 22.2659 32.254 22.1209 31.8024C21.9281 31.2034 21.5603 30.7243 20.9793 30.4907C20.5385 30.3134 20.2678 30.1313 20.3133 29.5826C20.3504 29.143 19.9671 28.8531 19.5586 28.8723C19.1717 28.8891 18.883 29.1801 18.8518 29.6042C18.8362 29.8258 18.8518 30.0486 18.8518 30.2523C17.6982 30.7135 17.1316 31.4562 17.164 32.4229C17.1927 33.422 17.8216 34.1755 18.9453 34.5348C19.349 34.6546 19.7515 34.7493 20.1552 34.8559C20.4942 34.9445 20.8128 35.0859 20.7865 35.4932C20.7601 35.9005 20.4439 36.0682 20.0869 36.146C19.3681 36.303 18.7787 35.9855 18.3739 35.2332C18.1079 34.7373 17.7246 34.5744 17.3185 34.7828C16.9124 34.9912 16.8142 35.4105 17.0502 35.9065C17.226 36.2838 17.4754 36.6223 17.7838 36.902C18.0921 37.1818 18.4532 37.3972 18.8458 37.5356Z" fill="#0F5A37"/>
<path d="M13 43.0688C13.3007 42.2818 13.8709 41.9811 14.7094 41.9907C17.9714 42.0147 21.2333 42.0003 24.4964 42.0015C24.6458 41.9955 24.7953 41.9979 24.9444 42.0087C25.2827 42.0448 25.5962 42.2033 25.8258 42.4544C26.0555 42.7054 26.1855 43.0317 26.1915 43.3719C26.1851 43.7122 26.0525 44.0379 25.8194 44.2859C25.5863 44.5338 25.2693 44.6863 24.9301 44.7136C24.7663 44.7267 24.602 44.7315 24.4377 44.7279C21.2201 44.7279 18.0037 44.7124 14.7861 44.7399C13.9475 44.7471 13.3366 44.4931 13 43.7013V43.0688Z" fill="#0F5A37"/>
<path d="M12.9992 47.2016C13.373 46.4146 14.0031 46.187 14.8524 46.1966C18.1419 46.2301 21.4314 46.2062 24.7197 46.2122C25.7738 46.2122 26.4495 47.1345 26.0913 48.0581C25.8768 48.6116 25.3917 48.923 24.7077 48.9242C22.3294 48.9242 19.952 48.9242 17.5753 48.9242C16.6481 48.9242 15.7197 48.8859 14.7949 48.935C13.9564 48.9805 13.3466 48.7026 12.998 47.9192L12.9992 47.2016Z" fill="#0F5A37"/>
<path d="M13.0004 51.4256C13.3598 50.6541 13.9588 50.4025 14.7973 50.4121C18.1167 50.4469 21.4362 50.4277 24.7556 50.4265C25.3546 50.4265 25.7954 50.6805 26.0506 51.2195C26.2901 51.7286 26.2482 52.2509 25.8493 52.6307C25.5894 52.8703 25.1892 53.1098 24.849 53.117C21.3511 53.1518 17.852 53.1386 14.3529 53.1386C13.6605 53.1386 13.2903 52.693 12.998 52.1455L13.0004 51.4256Z" fill="#0F5A37"/>
<path d="M27.0808 53.5554C27.9593 52.1778 27.8583 50.8884 26.7778 49.6873C27.9865 48.0941 27.9853 47.1022 26.7778 45.4503C27.693 44.462 27.9601 43.336 27.3635 42.1069C26.7778 40.8994 25.7128 40.4538 24.352 40.5173C28.7076 37.1415 28.1661 31.7569 26.0291 29.0173C23.7123 26.0452 19.3686 24.7431 15.4023 26.9904C15.4646 26.8203 15.497 26.6969 15.5521 26.5867C18.7577 20.1767 23.8836 16.4044 30.9932 15.3838C31.7057 15.295 32.4221 15.2422 33.1399 15.2257C33.8898 15.1945 34.1354 15.4485 34.1354 16.2032C34.1354 21.0396 34.1354 25.8755 34.1354 30.7111C34.1354 31.8492 34.1473 32.9872 34.1282 34.1252C34.1199 34.2798 34.1464 34.4343 34.2057 34.5774C34.265 34.7204 34.3555 34.8483 34.4708 34.9518C38.6691 39.1373 42.8618 43.33 47.0489 47.5299C47.7257 48.2079 47.7293 48.499 47.0285 49.1531C42.7005 53.1972 37.571 55.0157 31.6772 54.5437C30.2158 54.4239 28.7807 53.9783 27.3348 53.6788C27.246 53.6469 27.1608 53.6055 27.0808 53.5554Z" fill="#0F5A37"/>
<path d="M46.2897 33.4472H37.0861C36.2476 33.4472 36.0176 33.2196 36.0176 32.3835V14.0637C36.0176 13.2084 36.2679 12.9712 37.1257 13.0036C43.8052 13.2539 49.1144 16.0858 52.9789 21.5327C55.304 24.809 56.3989 28.5118 56.4684 32.5212C56.4804 33.1669 56.1977 33.4448 55.5376 33.446C52.4558 33.4484 49.3732 33.4488 46.2897 33.4472Z" fill="#0F5A37"/>
</g>
<defs>
<clipPath id="clip0_229_34">
<rect width="46" height="41.6072" fill="white" transform="translate(13 13)"/>
</clipPath>
</defs>
</svg>
