<svg width="70" height="70" viewBox="0 0 70 70" fill="none" xmlns="http://www.w3.org/2000/svg">
<circle cx="35" cy="35" r="35" fill="#BCF5DB"/>
<g clip-path="url(#clip0_215_3136)">
<path d="M50.5955 42.977L50.5955 46.9601C50.5955 48.4327 50.5955 49.9054 50.5955 51.378C50.5873 53.4817 49.0831 54.9906 46.9817 54.9917C38.1889 54.9917 29.3968 54.9917 20.6055 54.9917C18.566 54.9917 17.0104 53.4922 17.0081 51.496C16.998 42.9665 16.998 34.437 17.0081 25.9075C17.0081 25.8222 17.0163 25.7369 17.0221 25.599L25.8555 25.599C28.1345 25.599 29.6036 24.131 29.6048 21.859C29.6048 19.0875 29.6048 16.3172 29.6048 13.5481L29.6048 13.0034L46.88 13.0034C49.1252 13.0034 50.599 14.4807 50.6001 16.7317C50.6001 20.8434 50.6001 24.955 50.6072 29.0666C50.6124 29.2018 50.5879 29.3364 50.5354 29.461C50.4829 29.5856 50.4036 29.6971 50.3033 29.7878C47.2879 32.7938 44.2803 35.8068 41.2806 38.8268C40.9463 39.1698 40.6654 39.561 40.4473 39.9874C39.5321 41.7604 38.6322 43.5415 37.7591 45.3367C36.8078 47.3026 38.2617 49.5173 40.4087 49.3794C40.8155 49.3448 41.2121 49.2334 41.5774 49.051C43.41 48.1604 45.2333 47.2504 47.0472 46.3208C47.3669 46.1485 47.6596 45.9299 47.9155 45.6722C48.7851 44.8155 49.6383 43.9401 50.5955 42.977ZM38.7257 31.1984C36.622 31.1984 34.5276 31.1914 32.4297 31.1984C32.2437 31.1956 32.0591 31.2299 31.8865 31.2991C31.7139 31.3683 31.5568 31.4712 31.4243 31.6017C31.2919 31.7322 31.1867 31.8878 31.1149 32.0593C31.0431 32.2309 31.0061 32.415 31.0061 32.6009C31.0072 32.784 31.0443 32.965 31.1154 33.1337C31.1865 33.3024 31.2901 33.4554 31.4204 33.5841C31.5506 33.7127 31.7049 33.8144 31.8745 33.8833C32.0441 33.9523 32.2256 33.9871 32.4086 33.9859C36.606 33.9937 40.8033 33.9898 45.0007 33.9742C45.3316 33.9489 45.6478 33.827 45.91 33.6236C46.3775 33.28 46.513 32.6699 46.3202 32.1276C46.2239 31.8503 46.0424 31.6105 45.8016 31.4426C45.5608 31.2747 45.2731 31.1872 44.9796 31.1926C42.8876 31.1938 40.8037 31.1984 38.7257 31.1984ZM23.9645 32.0399C23.8382 31.888 23.7459 31.7559 23.6325 31.6449C23.0482 31.0675 22.1973 31.0453 21.6351 31.5853C21.073 32.1252 21.0508 33.0053 21.6351 33.6131C22.0501 34.0408 22.4801 34.4604 22.9009 34.88C23.6021 35.5719 24.3922 35.5812 25.0888 34.8905C25.9583 34.0334 26.8228 33.1689 27.6822 32.2971C28.3321 31.6437 28.3718 30.7859 27.7886 30.205C27.2054 29.6241 26.3499 29.6685 25.6965 30.316L23.9645 32.0399ZM23.975 39.0395C23.8394 38.8818 23.7412 38.752 23.6243 38.641C23.033 38.066 22.188 38.0449 21.627 38.5872C21.066 39.1295 21.0531 40.0073 21.6386 40.615C22.0524 41.0451 22.479 41.4623 22.9032 41.8819C23.6045 42.5715 24.3945 42.5832 25.0923 41.8819C25.9603 41.0248 26.8248 40.1604 27.6857 39.2885C28.3332 38.6363 28.3706 37.775 27.7851 37.1964C27.1995 36.6179 26.3475 36.6646 25.6942 37.3133C25.1379 37.8708 24.5839 38.4259 23.9691 39.0395L23.975 39.0395ZM23.9867 46.0356C23.8581 45.8895 23.7775 45.7855 23.6851 45.6932C23.0575 45.0668 22.2043 45.027 21.6258 45.5927C21.0473 46.1584 21.066 47.0244 21.6807 47.6532C22.0781 48.0599 22.4813 48.4584 22.8845 48.8582C23.6173 49.584 24.4039 49.5816 25.1367 48.8476C25.9829 48.0061 26.8267 47.1623 27.6682 46.3161C28.3391 45.6418 28.3835 44.7781 27.7851 44.1925C27.1867 43.607 26.3499 43.6701 25.6942 44.3246C25.132 44.8774 24.5839 45.4337 23.9808 46.0356L23.9867 46.0356ZM34.5054 38.1969C33.8205 38.1969 33.1356 38.1899 32.4519 38.1969C31.6338 38.2074 31.0132 38.8093 31.0085 39.5842C31.0085 39.77 31.0454 39.954 31.1171 40.1255C31.1888 40.297 31.2939 40.4525 31.4263 40.583C31.5586 40.7135 31.7156 40.8164 31.888 40.8857C32.0605 40.955 32.245 40.9893 32.4308 40.9867C33.8146 40.9976 35.1984 40.9976 36.5822 40.9867C36.768 40.9891 36.9524 40.9547 37.1247 40.8853C37.297 40.816 37.4538 40.713 37.586 40.5826C37.7183 40.4521 37.8232 40.2966 37.8949 40.1252C37.9665 39.9538 38.0034 39.7699 38.0034 39.5842C37.9976 38.8093 37.3781 38.2074 36.56 38.1969C35.8669 38.1899 35.1821 38.1969 34.4972 38.1969L34.5054 38.1969ZM33.817 45.1953C33.3495 45.1953 32.882 45.1883 32.4145 45.1953C31.6034 45.2105 30.9851 45.8264 30.9909 46.5978C30.9949 46.9671 31.1445 47.32 31.4071 47.5797C31.6696 47.8395 32.0241 47.9851 32.3934 47.9851C33.3284 47.9991 34.2607 47.9991 35.1902 47.9851C35.5588 47.9851 35.9125 47.8401 36.175 47.5814C36.4375 47.3226 36.5875 46.971 36.5927 46.6025C36.5938 46.4162 36.5578 46.2316 36.4868 46.0594C36.4158 45.8873 36.3112 45.7309 36.1791 45.5996C36.047 45.4683 35.8901 45.3646 35.7175 45.2946C35.5449 45.2246 35.3601 45.1896 35.1739 45.1918C34.7251 45.1871 34.2728 45.1953 33.817 45.1953Z" fill="#0F5A37"/>
<path d="M51.8159 32.2563L54.5963 35.0228C54.5379 35.0882 54.4561 35.1864 54.3626 35.2752C51.6043 38.0366 48.8441 40.7983 46.082 43.5604C45.9866 43.6703 45.8746 43.7646 45.7501 43.8398C43.9724 44.7362 42.1901 45.6256 40.3154 46.5629C40.3891 46.3654 40.4218 46.2509 40.4744 46.1469C41.2855 44.5192 42.0997 42.8927 42.9171 41.2674C43.0009 41.0983 43.1105 40.9434 43.242 40.8081C46.0306 38.0109 48.8223 35.2179 51.6172 32.4293C51.6885 32.358 51.768 32.2961 51.8159 32.2563Z" fill="#0F5A37"/>
<path d="M17.8989 22.7671L26.7639 13.9045C26.7811 14.0106 26.7924 14.1175 26.7977 14.2248C26.7977 16.789 26.7977 19.354 26.7977 21.9198C26.7977 22.5042 26.5488 22.7952 26.0123 22.7963C23.3632 22.8026 20.7109 22.8026 18.0555 22.7963C18.0026 22.7908 17.9503 22.7811 17.8989 22.7671Z" fill="#0F5A37"/>
<path d="M53.9102 30.1549C54.4618 29.5962 55.0286 28.9698 55.6504 28.4018C56.4942 27.6304 57.7542 27.6702 58.4846 28.4439C59.2151 29.2176 59.1683 30.4167 58.3794 31.2418C57.8184 31.8262 57.2341 32.3919 56.6929 32.933L53.9102 30.1549Z" fill="#0F5A37"/>
</g>
<defs>
<clipPath id="clip0_215_3136">
<rect width="42" height="41.9942" fill="white" transform="translate(17 13)"/>
</clipPath>
</defs>
</svg>
