<svg width="70" height="70" viewBox="0 0 70 70" fill="none" xmlns="http://www.w3.org/2000/svg">
<circle cx="35" cy="35" r="35" fill="#BCF5DB"/>
<g clip-path="url(#clip0_229_35)">
<path d="M54.9992 22.7344C54.7648 23.1938 54.3826 23.3479 53.8794 23.3313C53.1503 23.3073 52.4294 23.325 51.6596 23.325V23.8354C51.6596 27.6896 51.7523 31.5438 51.6263 35.3979C51.4253 41.5208 48.5951 46.1885 43.3805 49.3771C40.8273 50.9396 38.0076 51.6458 35.0148 51.6531C33.1273 51.6531 31.2398 51.6531 29.3523 51.6531C28.6232 51.6531 28.3419 51.374 28.3398 50.6354C28.3398 49.6472 28.3398 48.658 28.3398 47.6677C28.3398 46.949 28.6409 46.6552 29.369 46.6542C31.1919 46.6542 33.0145 46.6542 34.8367 46.6542C40.7742 46.6542 45.5753 42.5854 46.5305 36.7323C46.6191 36.1386 46.6602 35.5388 46.6534 34.9385C46.6648 31.1885 46.6596 27.4385 46.6586 23.6885C46.6586 23.5844 46.6492 23.4802 46.6409 23.3229H46.1378C45.4992 23.3229 44.8617 23.3229 44.2242 23.3229C43.8732 23.3229 43.5867 23.1896 43.4284 22.8594C43.3544 22.7131 43.3248 22.5483 43.3433 22.3855C43.3618 22.2226 43.4276 22.0686 43.5326 21.9427C43.5721 21.8906 43.6117 21.8385 43.6503 21.7875C45.1961 19.726 46.7367 17.6604 48.294 15.6083C48.4753 15.3687 48.7503 15.201 48.9815 15H49.3742C49.6003 15.2083 49.8617 15.3844 50.0461 15.625C50.7242 16.4958 51.3805 17.3823 52.0388 18.2677C53.0284 19.5997 54.0152 20.9337 54.9992 22.2698V22.7344Z" fill="#0F5A37"/>
<path d="M15 47.2656C15.2198 46.7948 15.5958 46.6291 16.1042 46.6406C16.8333 46.6635 17.5625 46.6406 18.3396 46.6406V46.1552C18.3396 42.2635 18.2594 38.3687 18.3729 34.4802C18.5302 29.0979 20.8729 24.776 25.1667 21.552C28.1365 19.3239 31.5271 18.3031 35.2354 18.3145C37.0063 18.3208 38.7771 18.3145 40.5479 18.3145C41.4083 18.3145 41.6615 18.5708 41.6625 19.4323C41.6625 20.3698 41.6625 21.3073 41.6625 22.2448C41.6625 23.0437 41.3875 23.3125 40.575 23.3145C38.5708 23.3208 36.5646 23.2854 34.5615 23.3385C29.2833 23.4802 24.6719 27.3531 23.6094 32.5302C23.4419 33.3622 23.3557 34.2085 23.3521 35.0573C23.325 38.7927 23.3396 42.5291 23.3406 46.2645C23.3406 46.3791 23.3521 46.4927 23.3604 46.651C24.1688 46.651 24.9594 46.6427 25.749 46.651C26.3521 46.6593 26.7344 47.0781 26.6385 47.6229C26.6034 47.7868 26.5322 47.9409 26.4302 48.0739C24.8115 50.2427 23.1868 52.4073 21.5563 54.5677C21.4219 54.7458 21.199 54.8552 21.0167 54.9968H20.625C20.4021 54.7885 20.1417 54.6073 19.9615 54.3718C18.2997 52.1656 16.6458 49.9534 15 47.7354V47.2656Z" fill="#0F5A37"/>
<path d="M35.0104 25C36.3244 25.0014 37.6251 25.2617 38.8384 25.766C40.0517 26.2703 41.1537 27.0088 42.0814 27.9392C43.0091 28.8697 43.7444 29.9738 44.2452 31.1886C44.746 32.4033 45.0025 33.7048 45 35.0188C44.9834 40.5208 40.4865 45 34.9875 44.9938C32.3326 44.9866 29.7891 43.9254 27.9163 42.0436C26.0434 40.1618 24.9945 37.6133 25 34.9583C25.011 32.3116 26.0709 29.7772 27.9473 27.9105C29.8238 26.0439 32.3637 24.9972 35.0104 25ZM36.5302 32.8385C37.0209 32.8281 37.2875 32.6521 37.424 32.3C37.4976 32.1436 37.5142 31.9664 37.471 31.799C37.4279 31.6317 37.3276 31.4846 37.1875 31.3833C36.9068 31.1506 36.5902 30.9648 36.25 30.8333C35.8865 30.7094 35.8084 30.5104 35.8334 30.1719C35.8425 29.9905 35.8123 29.8092 35.7448 29.6406C35.672 29.479 35.5482 29.3457 35.3925 29.261C35.2367 29.1764 35.0575 29.1451 34.8823 29.1719C34.6783 29.196 34.4912 29.2975 34.3598 29.4555C34.2284 29.6134 34.1626 29.8158 34.1761 30.0208C34.1886 30.4156 34.0531 30.5885 33.6948 30.7667C33.3945 30.9158 33.1285 31.1258 32.9137 31.3833C32.6989 31.6409 32.5401 31.9403 32.4473 32.2625C32.3545 32.5848 32.3298 32.9228 32.3748 33.2551C32.4197 33.5874 32.5333 33.9067 32.7084 34.1927C33.1546 34.9546 33.873 35.5193 34.7188 35.7729C35.1737 35.9073 35.5677 36.1956 35.8334 36.5885C36.0896 36.9677 36.0417 37.3177 35.7011 37.6302C35.4125 37.8927 35.0761 37.8865 34.749 37.7615C34.4275 37.6238 34.116 37.4641 33.8167 37.2833C33.4 37.049 32.9302 37.1323 32.6709 37.5C32.6047 37.5896 32.5578 37.692 32.5333 37.8007C32.5088 37.9093 32.5072 38.0219 32.5286 38.1312C32.5499 38.2406 32.5938 38.3442 32.6574 38.4357C32.721 38.5272 32.8029 38.6044 32.8979 38.6625C33.2081 38.8763 33.5393 39.0578 33.8865 39.2042C34.1084 39.2969 34.1781 39.4125 34.1677 39.6344C34.1561 39.8287 34.1719 40.0236 34.2146 40.2135C34.2467 40.3682 34.3272 40.5086 34.4445 40.6144C34.5617 40.7202 34.7096 40.7859 34.8667 40.8021C35.224 40.8583 35.525 40.7406 35.7 40.425C35.7937 40.24 35.8396 40.0344 35.8334 39.8271C35.8271 39.5469 35.8969 39.4042 36.1813 39.2833C36.4949 39.1473 36.7764 38.9467 37.0073 38.6947C37.2382 38.4426 37.4135 38.1447 37.5216 37.8204C37.6297 37.4961 37.6682 37.1526 37.6347 36.8124C37.6012 36.4722 37.4964 36.1428 37.3271 35.8458C36.8646 35.0406 36.1709 34.5396 35.3125 34.2C34.9084 34.0396 34.549 33.7313 34.2167 33.4375C34.0929 33.3355 34.0131 33.1899 33.9937 33.0307C33.9743 32.8715 34.0169 32.711 34.1125 32.5823C34.3209 32.2583 34.6177 32.0563 35 32.1656C35.3823 32.275 35.7136 32.4604 36.0677 32.6156C36.25 32.701 36.4354 32.7906 36.5302 32.8344V32.8385Z" fill="#0F5A37"/>
</g>
<defs>
<clipPath id="clip0_229_35">
<rect width="40" height="40" fill="white" transform="translate(15 15)"/>
</clipPath>
</defs>
</svg>
