<svg width="70" height="70" viewBox="0 0 70 70" fill="none" xmlns="http://www.w3.org/2000/svg">
<circle cx="35" cy="35" r="35" fill="#BCF5DB"/>
<g clip-path="url(#clip0_229_29)">
<path d="M22 48.0544V19.2907C22 17.7709 22.7689 16.998 24.2807 16.998H45.4651C46.9492 16.998 47.73 17.7808 47.73 19.2669C47.73 27.8482 47.7339 36.4281 47.7419 45.0068C47.7419 46.2902 46.8836 47.2518 45.5128 47.2458C38.5315 47.214 31.5501 47.2458 24.5668 47.2259C23.6509 47.2279 22.7867 47.3273 22 48.0544ZM25.0178 44.7326V31.5806C25.0178 31.064 24.8927 30.8296 24.6006 30.8574C24.1337 30.9031 24.2033 31.2726 24.2033 31.5885V44.818C24.2033 45.4915 24.2589 45.5452 24.9344 45.5452H40.1626C40.4268 45.5452 40.6155 45.428 40.6215 45.1478C40.6275 44.8677 40.4228 44.7286 40.1506 44.7267H25.0258L25.0178 44.7326ZM33.6302 37.5367C33.6302 35.6825 33.6302 33.8282 33.6302 31.9739C33.6302 31.4256 33.5269 31.3282 32.9706 31.3263C32.2256 31.3263 31.4786 31.3263 30.7336 31.3263C30.2767 31.3263 30.1495 31.4474 30.1495 31.8845C30.1495 35.6513 30.1495 39.4188 30.1495 43.187C30.1495 43.622 30.2846 43.7532 30.7256 43.7571C31.4707 43.7571 32.2157 43.7571 32.9627 43.7571C33.5269 43.7571 33.6302 43.6538 33.6302 43.0757C33.6329 41.2347 33.6329 39.3883 33.6302 37.5367ZM29.4462 39.4181C29.4462 38.1645 29.4462 36.9129 29.4462 35.6593C29.4462 35.2242 29.331 35.103 28.9078 35.097C28.1131 35.097 27.3184 35.097 26.5098 35.097C26.1522 35.097 25.9774 35.254 25.9774 35.6315C25.9774 38.1625 25.9774 40.6956 25.9774 43.2267C25.9774 43.6399 26.1125 43.7671 26.5357 43.771C27.2946 43.771 28.0535 43.771 28.8144 43.771C29.3389 43.771 29.4422 43.6658 29.4422 43.1373C29.4475 41.8962 29.4489 40.6565 29.4462 39.4181ZM34.3176 41.3373C34.3176 41.9631 34.3176 42.589 34.3176 43.2148C34.3176 43.626 34.4627 43.7651 34.8739 43.7691C35.6686 43.7691 36.4633 43.7691 37.2719 43.7691C37.6394 43.7691 37.8063 43.5903 37.8063 43.2307C37.8063 42.0049 37.8063 40.7791 37.8063 39.5532C37.8063 39.1877 37.6295 39.0188 37.2659 39.0208C36.4712 39.0208 35.6766 39.0208 34.868 39.0208C34.4468 39.0208 34.3196 39.1559 34.3156 39.5731C34.3137 40.1652 34.3176 40.7473 34.3176 41.3433V41.3373ZM40.4645 20.4112H42.4175C42.7135 20.4112 42.9738 20.3357 42.9718 19.99C42.9698 19.6444 42.6996 19.5788 42.4095 19.5808H38.5434C38.2533 19.5808 37.9851 19.6404 37.9891 19.998C37.9931 20.3556 38.2613 20.4112 38.5533 20.4112H40.4645ZM40.5182 24.341C39.8407 24.341 39.1632 24.341 38.4858 24.341C38.2116 24.341 37.999 24.4304 37.9891 24.7383C37.9792 25.0462 38.1997 25.1615 38.4917 25.1595C39.8162 25.1595 41.144 25.1595 42.4751 25.1595C42.7532 25.1595 42.9638 25.0661 42.9718 24.7621C42.9797 24.4582 42.7731 24.337 42.4691 24.339C41.8195 24.3449 41.1678 24.341 40.5182 24.341ZM40.4586 22.7794H42.4036C42.6936 22.7794 42.9638 22.7218 42.9638 22.3681C42.9638 22.0145 42.7036 21.9529 42.4056 21.9529C41.1182 21.9529 39.8301 21.9529 38.5414 21.9529C38.2474 21.9529 37.9871 22.0165 37.9811 22.3681C37.9752 22.7198 38.2513 22.7774 38.5394 22.7794H40.4586ZM40.5301 26.7171H38.5434C38.2513 26.7171 37.9851 26.7747 37.997 27.1343C38.009 27.4939 38.2732 27.5316 38.5652 27.5316C39.8526 27.5316 41.1407 27.5316 42.4294 27.5316C42.7294 27.5316 42.9817 27.4541 42.9777 27.1085C42.9738 26.7628 42.7314 26.7111 42.4473 26.7111C41.8076 26.7191 41.1678 26.7171 40.5301 26.7171ZM43.9254 20.4073C44.1737 20.4073 44.3069 20.4192 44.438 20.4073C44.6903 20.3814 44.9088 20.2483 44.8472 19.9861C44.8115 19.8311 44.6049 19.692 44.4499 19.5887C44.3486 19.5311 44.1916 19.5728 44.0525 19.5728C43.4724 19.5728 43.23 19.694 43.2698 19.998C43.3353 20.4827 43.7208 20.3993 43.9254 20.4073ZM44.0704 22.7655C44.1877 22.7655 44.3069 22.7655 44.4261 22.7655C44.6823 22.7516 44.8631 22.6383 44.8611 22.3681C44.8592 22.0979 44.6784 21.9708 44.4241 21.9589C44.1596 21.9263 43.8917 21.9337 43.6294 21.9807C43.5433 22.0127 43.4667 22.0659 43.4066 22.1354C43.3466 22.2048 43.305 22.2883 43.2857 22.3781C43.2857 22.5072 43.4844 22.6781 43.6334 22.7615C43.7526 22.8152 43.9254 22.7655 44.0704 22.7655ZM44.0704 25.1495C44.2175 25.1495 44.3943 25.2012 44.5035 25.1376C44.5831 25.0971 44.6538 25.041 44.7115 24.9728C44.7691 24.9046 44.8126 24.8255 44.8393 24.7403C44.823 24.6569 44.7853 24.5792 44.7299 24.5148C44.6745 24.4504 44.6034 24.4014 44.5234 24.3727C44.2221 24.3161 43.9128 24.3161 43.6115 24.3727C43.4784 24.3986 43.2797 24.627 43.2936 24.7423C43.3095 24.8893 43.4923 25.0542 43.6373 25.1396C43.7486 25.1952 43.9234 25.1436 44.0704 25.1436V25.1495ZM44.0704 26.727C43.9393 26.727 43.7804 26.6813 43.6731 26.7389C43.5196 26.8501 43.3796 26.9788 43.2559 27.1224C43.389 27.2614 43.5002 27.48 43.6532 27.5197C43.9224 27.5882 44.2045 27.5882 44.4737 27.5197C44.5609 27.4818 44.6378 27.4237 44.6979 27.3501C44.7581 27.2764 44.7997 27.1895 44.8194 27.0965C44.8313 26.9892 44.6009 26.8243 44.4479 26.7429C44.3625 26.6773 44.2075 26.723 44.0744 26.721L44.0704 26.727Z" fill="#0F5A37"/>
<path d="M47.7254 47.2417C47.7254 48.2748 47.7493 49.1807 47.7254 50.0847C47.6917 51.1257 46.9307 51.8886 45.8738 51.988C45.7407 51.9999 45.6076 51.9979 45.4765 51.9979H24.2564C23.6782 51.9979 23.1458 51.8966 22.6948 51.5052C22.4 51.2522 22.1874 50.9171 22.0841 50.5427C21.9807 50.1683 21.9914 49.7716 22.1147 49.4032C22.2369 49.0339 22.4672 48.7098 22.7757 48.4729C23.0842 48.2359 23.4567 48.097 23.8451 48.0741C24.0179 48.0741 24.1908 48.0741 24.3636 48.0741C31.2098 48.0741 38.0568 48.0741 44.9043 48.0741C45.8937 48.0741 46.8751 48.0721 47.7254 47.2417Z" fill="#0F5A37"/>
<path d="M32.7724 42.9325H30.9844V32.1824H32.7724V42.9325Z" fill="#0F5A37"/>
<path d="M28.6064 42.9326H26.8184V35.9592H28.6064V42.9326Z" fill="#0F5A37"/>
<path d="M35.1797 39.8691H36.9538V42.9188H35.1797V39.8691Z" fill="#0F5A37"/>
</g>
<defs>
<clipPath id="clip0_229_29">
<rect width="25.7419" height="35" fill="white" transform="translate(22 17)"/>
</clipPath>
</defs>
</svg>
