<svg width="70" height="70" viewBox="0 0 70 70" fill="none" xmlns="http://www.w3.org/2000/svg">
<circle cx="35" cy="35" r="35" fill="#BCF5DB"/>
<g clip-path="url(#clip0_215_3135)">
<path d="M57.8964 38.0814C57.875 38.3981 57.7875 38.7068 57.6395 38.9877C57.4915 39.2685 57.2863 39.5152 57.0371 39.7119C56.1054 40.476 55.168 41.2331 54.2561 42.0199C54.0985 42.1549 54.0431 42.4191 53.972 42.6321C53.938 42.7259 53.9948 42.848 53.972 42.9474C53.7064 44.1206 54.2774 44.8507 55.2006 45.4685C55.8597 45.9102 56.4505 46.4627 57.0471 46.9783C57.8993 47.7155 58.064 48.6628 57.5087 49.65C56.9197 50.7001 56.3222 51.745 55.7162 52.7846C55.2305 53.6212 54.2405 53.9592 53.2661 53.6084C52.1299 53.1994 51.0036 52.7733 49.8872 52.3301C49.579 52.2094 49.3318 52.1881 49.0662 52.4153C48.8992 52.576 48.7003 52.6999 48.4825 52.779C47.6757 53.019 47.4641 53.6141 47.3803 54.3683C47.2766 55.3 47.0863 56.2147 46.9386 57.1479C46.7511 58.3168 46.0139 58.9773 44.8422 58.9943C43.6704 59.0114 42.5015 59.0071 41.3325 58.9943C40.1963 58.9801 39.4662 58.3566 39.2716 57.2459C39.06 56.0429 38.8711 54.8313 38.6424 53.6354C38.579 53.4313 38.4521 53.2527 38.2802 53.1255C38.0927 52.9707 37.8129 52.9224 37.6397 52.7576C37.0005 52.1512 36.3543 52.2591 35.6214 52.5872C34.7692 52.9707 33.8744 53.2661 32.9923 53.5814C31.9044 53.9763 30.9811 53.6496 30.4002 52.6611C29.8193 51.6725 29.2228 50.6414 28.6504 49.623C28.0823 48.6287 28.2868 47.6587 29.1844 46.9243C30.0821 46.19 30.9911 45.4387 31.9171 44.7243C32.1941 44.5098 32.2907 44.2982 32.2325 43.9615C32.1745 43.719 32.1663 43.4673 32.2083 43.2215C32.3958 42.483 32.0421 42.0583 31.4854 41.6464C30.6744 41.0456 29.9088 40.3823 29.139 39.7304C28.2712 38.9946 28.1007 38.0515 28.6546 37.0673C29.2228 36.0484 29.8061 35.0357 30.4045 34.0292C30.9726 33.0633 31.8987 32.7239 32.9511 33.1045C34.0988 33.5193 35.235 33.9709 36.3869 34.3729C36.611 34.4229 36.8453 34.3954 37.0516 34.2948C37.3726 34.1527 37.6411 33.8829 37.9678 33.7636C38.516 33.5661 38.6779 33.1784 38.7447 32.6486C38.8867 31.5791 39.0856 30.5181 39.2702 29.4529C39.4662 28.3166 40.2176 27.6945 41.3751 27.6888C42.5327 27.6831 43.6789 27.6888 44.8308 27.6888C45.9827 27.6888 46.7397 28.3564 46.9286 29.4742C47.1175 30.592 47.3135 31.7467 47.484 32.883C47.5379 33.2451 47.6615 33.5022 48.0294 33.6357C48.2668 33.7099 48.4863 33.8322 48.6742 33.9951C49.221 34.5192 49.7664 34.4297 50.3999 34.1527C51.3075 33.7579 52.2463 33.4426 53.1781 33.0974C54.2732 32.6969 55.1864 33.0136 55.773 34.0022C56.3596 34.9907 56.9633 36.0134 57.5286 37.0374C57.7047 37.3556 57.7771 37.7277 57.8964 38.0814ZM32.508 50.8871C33.6443 50.461 34.7365 50.0903 35.7961 49.6471C36.725 49.2565 37.5331 49.3489 38.3299 49.9653C38.7326 50.2851 39.18 50.544 39.658 50.7337C40.7218 51.1271 41.1947 51.8785 41.324 52.9707C41.4532 54.0629 41.6819 55.1594 41.8708 56.2858C42.5881 56.2858 43.2599 56.2701 43.9303 56.2858C44.2513 56.2957 44.3564 56.1721 44.399 55.8682C44.5609 54.766 44.7598 53.6681 44.9274 52.5659C44.9707 52.1768 45.1185 51.8066 45.355 51.4945C45.5916 51.1825 45.9081 50.9402 46.271 50.7933C46.8114 50.5706 47.3235 50.2846 47.7964 49.9411C48.6486 49.275 49.5008 49.2082 50.4795 49.613C51.522 50.0477 52.5915 50.4141 53.6851 50.8217L54.9095 48.7353C53.9394 47.9342 53.0233 47.153 52.0787 46.4073C51.756 46.1744 51.5026 45.8582 51.3455 45.4925C51.1884 45.1268 51.1336 44.7253 51.1868 44.3308C51.2559 43.7507 51.2597 43.1647 51.1981 42.5838C51.0561 41.52 51.4169 40.7374 52.2705 40.1039C53.1738 39.4278 54.0203 38.6836 54.9109 37.9408L53.6809 35.8202C52.5034 36.2591 51.3601 36.6795 50.2224 37.1141C49.8629 37.2677 49.4692 37.3237 49.0811 37.2763C48.693 37.2289 48.3243 37.0799 48.0123 36.8443C47.4746 36.4698 46.9042 36.1446 46.3079 35.8728C45.9293 35.7212 45.5993 35.4692 45.3535 35.1437C45.1076 34.8183 44.9554 34.4319 44.9132 34.0263C44.7612 32.9582 44.5723 31.8958 44.3791 30.832C44.3536 30.69 44.2144 30.467 44.1192 30.4627C43.3664 30.4329 42.6108 30.4471 41.8623 30.4471C41.6422 31.7438 41.4263 32.9639 41.2317 34.1868C41.1024 34.9964 40.6422 35.5106 39.9164 35.8571C39.3222 36.1318 38.7521 36.4558 38.2121 36.8258C37.4934 37.3314 36.769 37.4323 35.9566 37.1184C34.9339 36.7235 33.9056 36.3372 32.8702 35.9821C32.7282 35.9324 32.4356 35.9892 32.366 36.0957C31.9811 36.688 31.6444 37.3101 31.2723 37.955C32.231 38.7447 33.1628 39.5315 34.113 40.2914C34.8345 40.8595 35.1072 41.5697 34.9836 42.4887C34.8955 42.9951 34.8873 43.5122 34.9595 44.0212C35.1669 45.1362 34.782 45.9344 33.9028 46.6005C33.0236 47.2666 32.1629 48.0237 31.278 48.7495L32.508 50.8871Z" fill="#0F5A37"/>
<path d="M15.565 14.4258C15.9485 14.5522 16.3334 14.6715 16.7126 14.8064C17.1799 14.9726 17.6415 15.1515 18.1045 15.3262C19.4127 15.8148 19.4169 15.8219 20.6001 15.0848C20.7486 14.9745 20.8501 14.8122 20.8841 14.6303C21.0475 13.7241 21.1867 12.8137 21.3273 11.9047C21.5275 10.6051 22.2022 10.0128 23.5117 10.0043C24.434 9.99858 25.3558 9.99858 26.2771 10.0043C27.4801 10.0128 28.1562 10.5923 28.3494 11.7683C28.4914 12.6773 28.6491 13.5849 28.784 14.4953C28.8337 14.832 29.0184 15.0052 29.2854 15.2197C30.041 15.8219 30.7569 15.7609 31.5664 15.3617C32.1797 15.0854 32.8091 14.8464 33.4512 14.6459C34.481 14.2837 35.3374 14.5933 35.9041 15.5407C36.4041 16.3759 36.8927 17.2176 37.3699 18.0661C37.9267 19.0603 37.769 19.9324 36.8998 20.6738C36.1896 21.2831 35.461 21.8811 34.7238 22.4606C34.4597 22.6679 34.4185 22.898 34.3673 23.2162C34.2054 24.2104 34.6187 24.8382 35.4155 25.3552C35.9467 25.7018 36.4098 26.1477 36.9012 26.5596C37.7534 27.2826 37.9224 28.1845 37.3657 29.1674C36.8846 30.0139 36.3951 30.8552 35.897 31.6913C35.3289 32.6514 34.4483 32.9597 33.3958 32.5747C32.4996 32.2452 31.6034 31.9114 30.7157 31.5592C30.4316 31.4442 30.2157 31.5166 29.9345 31.6274C29.0042 31.9896 28.6562 32.6514 28.6235 33.6158C28.6022 34.2649 28.4375 34.9112 28.3238 35.5546C28.1463 36.519 27.5029 37.1553 26.52 37.2008C25.3837 37.2533 24.2475 37.2562 23.1183 37.2008C22.1553 37.1567 21.5119 36.5076 21.3401 35.5233C21.1753 34.5817 21.0176 33.6386 20.8955 32.6912C20.8515 32.3475 20.6583 32.2097 20.4126 32.0095C19.6499 31.3888 18.9141 31.4584 18.0889 31.8674C17.4605 32.153 16.8143 32.3978 16.1544 32.6003C15.2554 32.9085 14.3804 32.623 13.8819 31.822C13.3138 30.9044 12.7722 29.9708 12.257 29.0211C11.7898 28.1689 11.963 27.2698 12.7101 26.6236C13.4572 25.9773 14.2299 25.3453 15.0082 24.7317C15.2568 24.5371 15.3008 24.3255 15.3491 24.0215C15.5096 23.0273 15.0949 22.4023 14.2981 21.891C13.7512 21.5359 13.2726 21.0757 12.7712 20.6553C11.9673 19.9792 11.777 19.0461 12.2869 18.1271C12.7968 17.2082 13.3223 16.3134 13.8592 15.4186C14.2398 14.7879 14.8335 14.4769 15.565 14.4258ZM34.721 28.2811C33.8958 27.5993 33.1189 26.9559 32.3391 26.3153C32.0646 26.1032 31.8511 25.8222 31.7202 25.501C31.5892 25.1797 31.5455 24.8295 31.5934 24.486C31.6593 23.9779 31.6631 23.4638 31.6048 22.9548C31.4557 21.9805 31.8008 21.2803 32.5621 20.7008C33.3021 20.1326 34.0037 19.5219 34.7238 18.9282C34.4085 18.3856 34.1259 17.8999 33.8347 17.4013C32.8646 17.7664 31.9343 18.1115 31.0139 18.4666C30.3109 18.7436 29.6774 18.6441 29.051 18.2308C28.5483 17.903 28.0255 17.607 27.4858 17.3445C26.8154 17.0122 26.4064 16.5179 26.2842 15.7722C26.1195 14.7638 25.9306 13.7596 25.7502 12.7398H23.9861C23.8043 13.761 23.6154 14.7666 23.4507 15.7751C23.4014 16.1172 23.2647 16.4407 23.0537 16.7144C22.8427 16.9882 22.5645 17.2028 22.2462 17.3374C21.7606 17.5515 21.2968 17.8122 20.8614 18.1158C20.1186 18.6697 19.3701 18.7535 18.5193 18.3998C17.6685 18.0462 16.7709 17.7394 15.8604 17.4056L14.9628 18.9424C15.7312 19.5759 16.4399 20.1895 17.1813 20.7618C17.9227 21.3342 18.2224 22.06 18.0804 22.9946C18.0193 23.3971 18.0193 23.8065 18.0804 24.209C18.231 25.1635 17.9469 25.8992 17.1742 26.4815C16.4016 27.0639 15.6971 27.6774 14.95 28.2882L15.8391 29.8207C16.8007 29.4685 17.731 29.1304 18.6585 28.7867C18.9948 28.6467 19.3619 28.5972 19.7233 28.6433C20.0846 28.6894 20.4276 28.8295 20.718 29.0495C21.1646 29.3654 21.6402 29.6384 22.1383 29.8648C22.4923 30.008 22.8008 30.2445 23.0312 30.5491C23.2615 30.8537 23.405 31.2151 23.4464 31.5947C23.5884 32.5662 23.7845 33.532 23.9592 34.5178C24.4492 34.5178 24.8753 34.4965 25.2971 34.5178C25.6408 34.5405 25.7459 34.4041 25.7914 34.0746C25.9078 33.2338 26.0754 32.4 26.2175 31.562C26.2606 31.1909 26.4032 30.8383 26.6302 30.5416C26.8573 30.2448 27.1602 30.0149 27.5071 29.8761C27.9934 29.6636 28.4553 29.3993 28.8849 29.0878C29.5822 28.5794 30.291 28.4998 31.0864 28.8038C31.9883 29.1532 32.9044 29.4656 33.8376 29.798L34.721 28.2811Z" fill="#0F5A37"/>
<path d="M43.0969 36.9265C44.7888 36.9268 46.4122 37.595 47.6141 38.7857C48.816 39.9765 49.4993 41.5935 49.5154 43.2854C49.5244 44.1333 49.3655 44.9746 49.0479 45.7609C48.7303 46.5471 48.2602 47.2628 47.6648 47.8665C47.0693 48.4703 46.3603 48.9502 45.5785 49.2787C44.7967 49.6072 43.9577 49.7778 43.1097 49.7805C41.4075 49.7799 39.7744 49.1073 38.5653 47.9092C37.3563 46.711 36.669 45.0841 36.6529 43.3819C36.6491 42.5341 36.8132 41.6939 37.1356 40.9098C37.4579 40.1256 37.9323 39.413 38.5313 38.8129C39.1302 38.2129 39.842 37.7373 40.6256 37.4136C41.4092 37.0898 42.2491 36.9243 43.0969 36.9265ZM39.3899 43.3251C39.3871 43.8123 39.4804 44.2953 39.6646 44.7464C39.8489 45.1974 40.1203 45.6077 40.4633 45.9537C40.8064 46.2996 41.2144 46.5745 41.6638 46.7625C42.1133 46.9505 42.5955 47.0479 43.0827 47.0492C44.0681 47.0492 45.0131 46.6583 45.7106 45.9622C46.408 45.2662 46.8007 44.3218 46.8026 43.3365C46.7925 42.3518 46.395 41.4106 45.6961 40.7168C44.9973 40.023 44.0533 39.6324 43.0685 39.6294C42.0933 39.6402 41.1613 40.0336 40.4732 40.7248C39.7852 41.416 39.3961 42.3498 39.3899 43.3251Z" fill="#0F5A37"/>
<path d="M19.1402 23.658C19.0792 20.583 21.6159 17.9582 24.698 17.9085C26.2126 17.8738 27.679 18.4412 28.7758 19.4863C29.8725 20.5314 30.51 21.9688 30.5483 23.4833C30.6194 26.608 28.0997 29.2555 25.009 29.3066C21.7608 29.3564 19.2042 26.8963 19.1402 23.658ZM27.8114 23.5827C27.8114 21.982 26.5018 20.6199 24.9522 20.6114C23.2478 20.6029 21.8659 21.9223 21.8502 23.5827C21.8502 24.3698 22.1613 25.1251 22.7158 25.6838C23.2703 26.2425 24.0231 26.5594 24.8102 26.5654C25.2045 26.5717 25.5961 26.499 25.9618 26.3515C26.3275 26.2041 26.6601 25.9849 26.9398 25.7069C27.2195 25.4289 27.4407 25.0978 27.5904 24.733C27.7401 24.3681 27.8152 23.977 27.8114 23.5827Z" fill="#0F5A37"/>
</g>
<defs>
<clipPath id="clip0_215_3135">
<rect width="45.8966" height="49" fill="white" transform="translate(12 10)"/>
</clipPath>
</defs>
</svg>
