<svg width="70" height="70" viewBox="0 0 70 70" fill="none" xmlns="http://www.w3.org/2000/svg">
<circle cx="35" cy="35" r="35" fill="#BCF5DB"/>
<g clip-path="url(#clip0_229_36)">
<path d="M36.3589 15V15.5434C36.3589 18.3221 36.3502 21.1018 36.3589 23.8816C36.3687 25.9528 37.6271 27.5763 39.569 28.036C39.9527 28.1191 40.3446 28.1585 40.7372 28.1533C43.4898 28.1631 46.2435 28.1533 48.9961 28.1533H49.5014V28.6043C49.5014 36.4828 49.5014 44.3606 49.5014 52.2377C49.5014 53.9764 48.4907 54.9892 46.7499 54.9903H22.747C21.0301 54.9903 20.001 53.9753 20.001 52.2735C20.001 40.7488 20.001 29.2241 20.001 17.6994C20.001 16.0139 21.0301 14.9935 22.7177 14.9924H36.3611L36.3589 15ZM42.5531 38.3639V51.6422H46.1391V38.3639H42.5531ZM32.8641 34.0856C32.9585 34.248 33.0649 34.4032 33.1825 34.5496C34.475 35.8486 35.7707 37.1435 37.0696 38.4345C37.638 39.0018 38.0379 39.0061 38.591 38.4508C40.2884 36.7556 41.9851 35.0589 43.6811 33.3608C43.7706 33.2782 43.8522 33.1872 43.9245 33.0891C44.0333 32.9234 44.0801 32.7246 44.0567 32.5278C44.0332 32.331 43.941 32.1487 43.7962 32.0133C43.6539 31.8859 43.4721 31.8111 43.2813 31.8014C43.0905 31.7917 42.9021 31.8477 42.7476 31.96C42.642 32.0446 42.5428 32.1368 42.4509 32.236C41.0216 33.664 39.5936 35.0937 38.1672 36.5252C38.065 36.6339 38.0194 36.7871 37.9498 36.9197L37.7553 36.8653C37.6774 36.7383 37.5894 36.6177 37.4924 36.5046C36.2209 35.2259 34.9462 33.9505 33.6683 32.6783C33.038 32.048 32.6903 32.047 32.06 32.6783L24.7509 39.9787C24.6518 40.0709 24.5602 40.1708 24.4771 40.2776C24.366 40.4331 24.3126 40.6224 24.3261 40.813C24.3396 41.0036 24.4191 41.1836 24.551 41.3219C24.6805 41.4637 24.8568 41.5541 25.0475 41.5767C25.2383 41.5992 25.4308 41.5523 25.5898 41.4447C25.7213 41.3479 25.8432 41.2387 25.9539 41.1187C28.141 38.9344 30.3267 36.7483 32.511 34.5605C32.6387 34.4093 32.7574 34.2508 32.8663 34.0856H32.8641ZM27.8099 28.8369C28.4109 28.6293 28.9629 28.5109 29.44 28.2566C30.2659 27.8219 30.6505 27.0699 30.6429 26.1451C30.6353 25.2204 30.2235 24.5271 29.3704 24.1402C28.8705 23.9131 28.3511 23.7316 27.8328 23.5262V21.1681L29.6432 21.9103L30.4408 20.7769C29.9757 20.5595 29.5856 20.3324 29.1705 20.1803C28.7554 20.0282 28.2913 19.9401 27.8328 19.8097L27.8002 19.2544H27.0395C27.0243 19.4718 27.0123 19.6576 27.0004 19.8347C26.7439 19.8782 26.5157 19.9054 26.2918 19.9575C25.1302 20.227 24.3608 21.1072 24.2717 22.2613C24.188 23.3339 24.7063 24.0815 25.8919 24.5575C26.2538 24.7031 26.632 24.8074 26.9982 24.9302V27.3372C26.1571 27.2079 25.4877 26.7939 24.8411 26.2603L23.9315 27.3405C24.8215 28.1512 25.8539 28.5728 27.034 28.7336V29.603H27.8143L27.8099 28.8369ZM29.7442 42.5824V51.6465H33.3401V42.5824H29.7442ZM23.3567 44.1733V51.6476H26.9362V44.1733H23.3567ZM36.1525 46.8901V51.6335H39.7527V46.8901H36.1525Z" fill="#0F5A37"/>
<path d="M38.0138 15.1912C38.2409 15.3411 38.4586 15.5048 38.6658 15.6813C39.9343 16.9244 41.1978 18.1727 42.4562 19.426C44.5093 21.4755 46.5573 23.5308 48.6003 25.5919C48.8427 25.8353 49.0448 26.1178 49.2654 26.383L49.21 26.4917H48.7883C46.1303 26.4917 43.4722 26.4917 40.8142 26.4917C39.0146 26.4917 38.0127 25.4908 38.0127 23.7032C38.0127 21.0466 38.0127 18.3893 38.0127 15.7312L38.0138 15.1912Z" fill="#0F5A37"/>
<path d="M27.8428 25.1802C28.6708 25.353 29.1827 25.8322 29.1359 26.3755C29.0903 26.8895 28.5328 27.3155 27.8428 27.3438V25.1802Z" fill="#0F5A37"/>
<path d="M27.0091 21.2366V23.2926C26.3006 23.248 25.7887 22.8123 25.792 22.2613C25.7953 21.6854 26.2712 21.2746 27.0091 21.2366Z" fill="#0F5A37"/>
</g>
<defs>
<clipPath id="clip0_229_36">
<rect width="29.5037" height="40" fill="white" transform="translate(20 15)"/>
</clipPath>
</defs>
</svg>
