<svg width="70" height="70" viewBox="0 0 70 70" fill="none" xmlns="http://www.w3.org/2000/svg">
<circle cx="35" cy="35" r="35" fill="#BCF5DB"/>
<g clip-path="url(#clip0_229_37)">
<path d="M35.8405 9.99997C36.7777 10.3439 37.1408 11.0228 37.0974 12.0073C37.0539 12.9918 37.0871 14.0133 37.0871 15.0566C39.9299 15.5506 42.6271 16.6708 44.9834 18.336C45.7671 17.5497 46.5291 16.7801 47.2975 16.0155C48.1145 15.2023 48.9903 15.2011 49.8124 16.0155C50.4815 16.6778 51.1464 17.3435 51.8069 18.0126C52.5945 18.8129 52.5945 19.6977 51.8069 20.4904C51.0667 21.2383 50.32 21.9812 49.5772 22.7266C49.546 22.7674 49.5174 22.8101 49.4915 22.8544C51.1043 25.1403 52.1955 27.7525 52.6879 30.5065C51.495 30.0807 50.3392 29.6332 49.1604 29.2599C48.533 29.0785 47.8914 28.9502 47.2426 28.8763C46.96 28.8367 46.8437 28.7152 46.7311 28.4723C44.7072 23.9655 41.2795 21.1846 36.4351 20.2002C29.0924 18.7183 21.604 23.8069 20.2258 31.1726C18.983 37.821 22.2612 43.9925 28.503 46.7708C28.5821 46.8078 28.6525 46.8611 28.7096 46.9272C28.7666 46.9933 28.8091 47.0707 28.8342 47.1543C29.0922 49.0036 29.6538 50.7977 30.4963 52.4641C30.5244 52.5191 30.5384 52.5804 30.5806 52.6955C29.1825 52.4916 27.8196 52.0935 26.5315 51.5129C25.2645 50.926 24.046 50.2343 22.7317 49.5516L20.6502 51.6407C19.6389 52.6533 18.8488 52.652 17.8374 51.6407C17.2161 51.0206 16.5921 50.4044 15.9772 49.7792C15.21 49.0005 15.21 48.1068 15.9772 47.3333C16.7443 46.5598 17.5434 45.7735 18.3361 44.9846C16.671 42.6285 15.5528 39.9304 15.063 37.0871C14.0402 37.0871 13.0174 37.0526 12.0073 37.0973C11.0228 37.1408 10.3452 36.7777 10 35.8405V31.9167C10.3836 31 11.0727 30.6522 12.0457 30.7046C12.8895 30.7494 13.7372 30.6931 14.581 30.7225C14.9646 30.7366 15.0988 30.61 15.1679 30.2405C15.6168 27.8539 16.529 25.5783 17.8528 23.5423C18.0062 23.3045 18.1609 23.0692 18.331 22.8097C17.5089 21.9927 16.6983 21.2038 15.9094 20.3932C15.2471 19.7143 15.2433 18.7938 15.8928 18.1238C16.6254 17.3682 17.3784 16.6318 18.1226 15.8889C18.3071 15.6865 18.5449 15.54 18.8087 15.4663C19.0726 15.3926 19.3519 15.3946 19.6146 15.4721C19.9447 15.5812 20.2449 15.7655 20.4917 16.0104C21.2844 16.7673 22.0438 17.5587 22.8148 18.336C25.1481 16.711 27.6438 15.6319 30.3825 15.1333C30.6292 15.0886 30.7213 14.9786 30.7174 14.7203C30.7034 13.8254 30.7469 12.9304 30.7021 12.0354C30.6548 11.0624 31 10.3733 31.9167 9.98975L35.8405 9.99997Z" fill="#0F5A37"/>
<path d="M31.123 45.0497C31.1294 37.3581 37.3879 31.1137 45.0591 31.1213C52.7304 31.129 59.0016 37.3862 58.9952 45.0651C58.9888 52.744 52.724 59.0012 45.0451 59.0012C41.3501 58.993 37.8093 57.5196 35.1993 54.9041C32.5893 52.2887 31.1234 48.7447 31.123 45.0497ZM45.0591 46.7118C45.4938 47.1568 45.8697 47.5467 46.2507 47.9316C46.6317 48.3164 47.0319 48.7294 47.4372 49.1129C47.6207 49.3046 47.8633 49.429 48.1261 49.4661C48.3888 49.5032 48.6564 49.4509 48.8858 49.3175C49.1177 49.1872 49.2973 48.9806 49.394 48.7328C49.4908 48.485 49.4987 48.2114 49.4164 47.9584C49.3174 47.7088 49.1672 47.4827 48.9753 47.2949C48.2491 46.5444 47.5011 45.8143 46.7046 45.0191C46.8798 44.8746 47.0242 44.7723 47.1483 44.6496C47.8054 43.9984 48.4588 43.3442 49.1083 42.687C49.2782 42.5269 49.3968 42.3198 49.4489 42.0922C49.501 41.8646 49.4844 41.6266 49.401 41.4085C49.336 41.2096 49.2164 41.033 49.056 40.8987C48.8955 40.7644 48.7005 40.6779 48.4933 40.649C48.0266 40.5621 47.6584 40.7602 47.3426 41.0837C46.5934 41.8381 45.8416 42.5898 45.0732 43.3595C44.9044 43.2061 44.7766 43.0885 44.6551 42.967C43.989 42.3034 43.3305 41.6309 42.6542 40.9763C42.5045 40.819 42.3122 40.7086 42.1009 40.6586C41.8895 40.6087 41.6682 40.6213 41.4639 40.695C41.2556 40.7552 41.0688 40.8735 40.9255 41.0361C40.7821 41.1987 40.6881 41.3989 40.6546 41.613C40.5625 42.0771 40.7568 42.4479 41.0829 42.7637C41.841 43.5117 42.5915 44.266 43.3625 45.0357C43.2219 45.1853 43.117 45.3016 43.0058 45.4129C42.3537 46.0675 41.7004 46.7216 41.0458 47.3754C40.721 47.7002 40.5548 48.0837 40.6622 48.5453C40.8834 49.4786 41.9727 49.7855 42.6925 49.095C43.4852 48.3407 44.2434 47.5429 45.0604 46.7157L45.0591 46.7118Z" fill="#0F5A37"/>
<path d="M28.6312 44.1369C25.0513 42.5144 21.9828 38.1111 22.3817 33.0136C22.5862 30.3913 23.6788 27.9171 25.4791 25.9994C27.2794 24.0817 29.6798 22.8352 32.284 22.4657C37.82 21.6845 42.4253 24.9256 44.1488 28.6333C35.1159 29.9311 29.9583 35.0759 28.6312 44.1369Z" fill="#0F5A37"/>
</g>
<defs>
<clipPath id="clip0_229_37">
<rect width="49" height="49" fill="white" transform="translate(10 10)"/>
</clipPath>
</defs>
</svg>
