<svg width="70" height="70" viewBox="0 0 70 70" fill="none" xmlns="http://www.w3.org/2000/svg">
<circle cx="35" cy="35" r="35" fill="#BCF5DB"/>
<g clip-path="url(#clip0_229_31)">
<path d="M46.7837 36.0318C45.175 35.3352 43.4365 34.9889 41.6837 35.0159C38.9294 35.0748 36.4466 35.9166 34.2805 37.6372C34.1609 37.7422 34.0183 37.8175 33.8642 37.857C33.7101 37.8966 33.5488 37.8992 33.3935 37.8647C30.816 37.4013 28.2263 37.3726 25.6256 37.6221C25.3823 37.6284 25.1461 37.5405 24.9661 37.3767C21.6909 34.2029 20.3268 30.2888 20.5681 25.7824C20.8999 19.5555 25.2705 14.1649 31.2877 12.5211C39.7876 10.2 48.5618 15.884 49.9067 24.5856C50.5278 28.5806 49.3351 32.9978 46.7837 36.0318ZM40.1139 19.901C40.0701 19.4047 39.8397 19.1552 39.4559 19.0551C38.9925 18.9372 38.7156 19.1922 38.4962 19.561C35.8749 24.1053 33.2532 28.6496 30.631 33.1939C30.3156 33.7422 30.4006 34.17 30.849 34.4277C31.2973 34.6855 31.7305 34.5539 32.0417 34.0164C34.6675 29.4758 37.2893 24.932 39.9069 20.3849C39.9878 20.2289 40.057 20.0672 40.1139 19.901ZM34.0145 21.9986C33.8774 21.5091 33.8061 20.9964 33.6032 20.5357C33.1919 19.5761 32.3954 19.0414 31.3521 19.0277C30.3088 19.014 29.5191 19.5404 29.0736 20.4946C28.5457 21.6243 28.5841 22.7581 29.2422 23.8247C29.4372 24.1418 29.7019 24.4104 30.0163 24.61C30.3306 24.8096 30.6862 24.935 31.0562 24.9766C31.4262 25.0182 31.8009 24.975 32.1517 24.8502C32.5025 24.7255 32.8203 24.5224 33.0809 24.2565C33.6923 23.6423 33.9281 22.8719 34.0145 21.9986ZM41.9113 31.5487C41.7824 31.0757 41.7097 30.5781 41.5123 30.1352C41.0805 29.1646 40.31 28.6189 39.2256 28.6162C38.1192 28.6162 37.3062 29.155 36.9141 30.1626C36.6931 30.7325 36.595 31.3427 36.6262 31.9531C36.7112 33.3515 37.701 34.3907 38.9198 34.51C40.5718 34.6704 41.8386 33.3926 41.9113 31.5487Z" fill="#0F5A37"/>
<path d="M41.9389 36.6416C47.8245 36.6526 52.5063 41.4798 52.4954 47.5243C52.4858 53.2714 47.7052 58.0177 41.9389 57.9999C35.8875 57.9821 31.1371 53.2111 31.1563 47.1761C31.1824 41.4318 36.0932 36.6307 41.9389 36.6416ZM40.9793 42.6327C40.8984 42.6588 40.8518 42.6794 40.8038 42.6889C39.2957 42.9727 38.358 44.1394 38.4869 45.5844C38.624 47.1418 39.6865 48.1221 41.274 48.1495C41.6661 48.1495 42.0596 48.1413 42.4531 48.1495C43.1056 48.1714 43.5361 48.5772 43.569 49.1832C43.606 49.8235 43.2167 50.28 42.5422 50.3568C42.3723 50.3737 42.2015 50.3796 42.0308 50.3746C41.1424 50.3746 40.2485 50.3746 39.3643 50.3746C38.9927 50.3746 38.6925 50.4801 38.5417 50.8489C38.2963 51.4289 38.6582 51.9745 39.3451 52.0088C39.8852 52.0362 40.4295 52.0088 40.9902 52.0088C40.9907 52.2462 41.0062 52.4834 41.0369 52.7189C41.1136 53.1069 41.3481 53.3633 41.7607 53.4044C41.9322 53.4326 42.1082 53.4001 42.2584 53.3125C42.4085 53.2249 42.5234 53.0878 42.5833 52.9246C42.6448 52.7487 42.6686 52.5619 42.6532 52.3762C42.6395 52.102 42.7259 51.9964 43.0083 51.9361C44.4697 51.6263 45.3389 50.428 45.2018 48.994C45.0647 47.56 43.9872 46.551 42.4914 46.5098C42.0473 46.4975 41.6017 46.5235 41.1589 46.4989C40.3911 46.455 39.9401 45.7764 40.1731 45.0443C40.339 44.5233 40.7051 44.2916 41.4235 44.2834C42.4311 44.2724 43.4402 44.2834 44.4492 44.2697C44.9126 44.2697 45.1689 43.9873 45.2128 43.5335C45.2268 43.4314 45.2199 43.3276 45.1927 43.2282C45.1655 43.1289 45.1184 43.036 45.0544 42.9553C44.9903 42.8747 44.9106 42.8078 44.82 42.7587C44.7295 42.7096 44.6299 42.6793 44.5273 42.6698C44.3067 42.6432 44.0845 42.6331 43.8624 42.6396C43.4758 42.6396 43.0892 42.6396 42.7149 42.6396C42.5778 41.5264 42.3941 41.2481 41.8553 41.244C41.285 41.2371 41.0931 41.5428 40.9806 42.6396L40.9793 42.6327Z" fill="#0F5A37"/>
<path d="M32.3963 39.3493C30.1233 42.9344 30.1233 42.9344 29.4789 47.2228C28.3822 47.2228 27.2922 47.2845 26.2105 47.2091C24.2912 47.072 22.4048 46.7539 20.6307 45.9752C20.0186 45.7141 19.4463 45.3679 18.9307 44.947C17.6585 43.8831 17.7174 42.3847 19.0267 41.3688C20.0179 40.5997 21.1832 40.2007 22.3746 39.8785C25.6553 38.9997 28.9813 38.9381 32.3963 39.3493Z" fill="#0F5A37"/>
<path d="M32.4272 55.3252C28.4514 55.7256 24.6044 55.6611 20.8727 54.3039C20.4742 54.1524 20.0886 53.969 19.7197 53.7555C18.4968 53.07 17.7798 52.0939 18.0608 50.6023C18.0704 50.6023 18.1143 50.5748 18.1307 50.5872C20.1666 52.0075 22.5 52.571 24.906 52.8383C26.4635 53.011 28.051 53.1454 29.6057 53.0316C30.6147 52.9589 31.1645 53.1687 31.5525 54.0763C31.7348 54.5013 32.0885 54.8536 32.4272 55.3252Z" fill="#0F5A37"/>
<path d="M18.0622 46.4126C21.5911 48.809 25.5806 48.8886 29.5921 48.9914C29.7799 49.7756 29.9677 50.5639 30.1733 51.4303C29.4303 51.4303 28.7201 51.4468 28.01 51.4303C25.7684 51.3659 23.542 51.1561 21.4129 50.3966C20.6949 50.1305 20.0036 49.7973 19.3482 49.4013C18.2363 48.7432 17.8648 47.7205 18.0622 46.4126Z" fill="#0F5A37"/>
<path d="M32.2979 22.0204C32.2979 22.795 31.8866 23.3653 31.33 23.3612C30.7734 23.3571 30.358 22.7566 30.3594 22.008C30.3607 21.2595 30.8008 20.6576 31.341 20.6659C31.8812 20.6741 32.302 21.2526 32.2979 22.0204Z" fill="#0F5A37"/>
<path d="M38.2129 31.5965C38.2444 31.4046 38.2581 31.251 38.2979 31.1043C38.4501 30.5463 38.7969 30.2269 39.2397 30.2516C39.7703 30.2804 40.0418 30.6409 40.1172 31.1029C40.1718 31.4683 40.155 31.8408 40.0678 32.1997C40.031 32.3965 39.9246 32.5734 39.768 32.698C39.6114 32.8227 39.4151 32.8867 39.2151 32.8783C38.7613 32.8783 38.4967 32.6042 38.3514 32.2025C38.2909 32.004 38.2447 31.8015 38.2129 31.5965Z" fill="#0F5A37"/>
</g>
<defs>
<clipPath id="clip0_229_31">
<rect width="34.4976" height="46" fill="white" transform="translate(18 12)"/>
</clipPath>
</defs>
</svg>
