<svg width="70" height="70" viewBox="0 0 70 70" fill="none" xmlns="http://www.w3.org/2000/svg">
<circle cx="35" cy="35" r="35" fill="#BCF5DB"/>
<g clip-path="url(#clip0_229_38)">
<path d="M15 38.1065V37.4841C15.2469 37.173 15.4657 36.838 15.7437 36.5589C22.716 29.5749 29.6876 22.5936 36.6585 15.6151C37.145 15.1276 37.6553 14.9471 38.3274 15.0135C39.3584 15.1172 40.3957 15.1608 41.4298 15.2209C44.8962 15.436 48.3627 15.6504 51.8291 15.864C52.6464 15.9148 53.081 16.3526 53.1319 17.1678C53.4181 21.6954 53.6909 26.2229 53.9938 30.7483C54.0384 31.4163 53.8444 31.9018 53.3715 32.3706C46.3411 39.3823 39.3176 46.4009 32.3011 53.4264C31.5107 54.2168 30.8998 54.2147 30.1053 53.4202C25.2952 48.6109 20.4852 43.7988 15.6752 38.984C15.4149 38.7288 15.223 38.3969 15 38.1065ZM34.5 40.1229L36.7239 39.0068C36.4988 38.5567 36.309 38.1459 36.0901 37.7497C35.9802 37.5422 35.9864 37.4136 36.1637 37.2466C36.6886 36.7453 37.2017 36.2326 37.703 35.7084C37.8721 35.53 38.0048 35.5331 38.204 35.641C38.6085 35.8609 39.0265 36.0559 39.458 36.2737C39.8356 35.5176 40.1913 34.8039 40.5595 34.0685C40.4351 33.997 40.3386 33.9358 40.238 33.886C38.064 32.7983 35.8892 31.7109 33.7138 30.6239C32.967 30.2515 32.5345 30.3272 31.936 30.9216C31.7285 31.1228 31.5315 31.324 31.3313 31.5273C30.7878 32.0781 30.7089 32.5438 31.0637 33.247C31.4547 34.0353 31.8509 34.8205 32.244 35.6068C32.9846 37.0983 33.7294 38.5898 34.5 40.1229ZM39.9538 26.2976L36.6056 26.0092C36.5299 26.8546 36.4583 27.6553 36.3847 28.482C37.5391 28.5857 38.6334 28.6894 39.7298 28.7745C40.0637 28.8004 40.2546 28.8782 40.2297 29.2661C40.2306 29.525 40.2521 29.7834 40.294 30.0389C40.376 30.8987 40.4569 31.7586 40.5409 32.632L43.0053 32.4069C42.9016 31.2773 42.8062 30.1976 42.7045 29.0618L46.0517 29.3553C46.1285 28.5255 46.2021 27.7186 46.2789 26.8857L42.4774 26.533C42.3581 25.2624 42.2419 24.0167 42.1216 22.7336L39.6509 22.9629C39.7515 24.0862 39.848 25.1649 39.9486 26.2976H39.9538ZM32.9442 42.1424L28.565 37.7787L30.2733 36.087L28.5878 34.3963L23.4203 39.5586L25.1348 41.2804C25.6617 40.7359 26.2198 40.1602 26.7944 39.5638L31.1508 43.9337L32.9442 42.1424ZM50.4734 21.2286C50.4745 20.901 50.4109 20.5764 50.2863 20.2734C50.1617 19.9704 49.9785 19.695 49.7473 19.463C49.516 19.2309 49.2412 19.0468 48.9386 18.9212C48.6361 18.7956 48.3117 18.7309 47.9841 18.7309C47.3289 18.7309 46.7 18.9892 46.234 19.4498C45.768 19.9103 45.5024 20.5361 45.4947 21.1913C45.491 21.5189 45.552 21.844 45.6742 22.148C45.7965 22.4519 45.9775 22.7288 46.2069 22.9627C46.4363 23.1965 46.7097 23.3828 47.0113 23.5108C47.3129 23.6388 47.6367 23.7061 47.9644 23.7086C48.2921 23.7112 48.6172 23.6491 48.9209 23.5257C49.2246 23.4024 49.5009 23.2202 49.7341 22.9898C49.9672 22.7594 50.1525 22.4852 50.2794 22.1829C50.4063 21.8807 50.4722 21.5564 50.4734 21.2286Z" fill="#0F5A37"/>
<path d="M34.715 34.9948L33.9941 33.552L35.55 34.3258L34.715 34.9948Z" fill="#0F5A37"/>
</g>
<defs>
<clipPath id="clip0_229_38">
<rect width="39" height="39.0229" fill="white" transform="translate(15 15)"/>
</clipPath>
</defs>
</svg>
