<svg width="70" height="70" viewBox="0 0 70 70" fill="none" xmlns="http://www.w3.org/2000/svg">
<circle cx="35" cy="35" r="35" fill="#BCF5DB"/>
<g clip-path="url(#clip0_215_3134)">
<path d="M23.7856 28.9172V28.4282C23.7856 25.1644 23.7856 21.9005 23.7856 18.6366C23.7856 15.8813 25.6547 14.0024 28.3966 14.0012C33.521 14.0012 38.6446 14.0012 43.7673 14.0012H44.2856V14.5061C44.2856 16.7178 44.2856 18.9292 44.2856 21.1402C44.2856 23.8295 46.178 25.712 48.8648 25.7169C51.0652 25.7169 53.2611 25.7169 55.4525 25.7169H56.0001V26.2389C56.0001 34.2751 56.0001 42.3121 56.0001 50.3499C56.0001 53.1358 54.1371 55.0024 51.3622 55.0024C46.2696 55.0024 41.1762 55.0024 36.082 55.0024H35.5209C38.7921 52.4085 40.7027 49.1483 41.2381 45.1302C41.6367 42.1328 41.0963 39.2797 39.7334 36.5732C37.1663 31.4867 31.0407 27.5469 23.7856 28.9172ZM35.5038 25.7169C36.9055 25.7169 38.3084 25.7169 39.7126 25.7169C40.6905 25.7169 41.3506 25.1216 41.3555 24.2598C41.3604 23.398 40.693 22.7929 39.726 22.7929C36.9047 22.7929 34.0837 22.7929 31.2632 22.7929C30.2975 22.7929 29.6362 23.4041 29.6447 24.272C29.652 25.1167 30.3122 25.7181 31.2485 25.7206C32.6678 25.7194 34.0858 25.7169 35.5038 25.7169ZM45.7428 30.1103C44.8125 30.1103 43.8822 30.1103 42.952 30.1103C42.0217 30.1103 41.3628 30.7215 41.3628 31.5662C41.3628 32.4109 42.0193 33.0331 42.952 33.0331C44.8264 33.0331 46.7007 33.0331 48.5751 33.0331C49.4981 33.0331 50.1569 32.4011 50.1484 31.5515C50.1386 30.7227 49.4846 30.1115 48.5861 30.1066C47.6339 30.1054 46.6877 30.1103 45.7428 30.1103ZM47.2097 40.3603C47.7133 40.3603 48.217 40.3737 48.7194 40.3603C49.0968 40.35 49.4557 40.1945 49.7214 39.9263C49.9871 39.6581 50.1392 39.2978 50.1459 38.9203C50.149 38.7291 50.1144 38.5393 50.044 38.3615C49.9737 38.1838 49.869 38.0216 49.7359 37.8844C49.6029 37.7471 49.4441 37.6374 49.2686 37.5616C49.0931 37.4857 48.9044 37.4452 48.7133 37.4424C47.7215 37.4228 46.7305 37.4228 45.7403 37.4424C45.5486 37.4427 45.3589 37.481 45.1821 37.555C45.0053 37.6291 44.8449 37.7374 44.7102 37.8738C44.5755 38.0102 44.4692 38.172 44.3974 38.3497C44.3256 38.5274 44.2897 38.7176 44.2918 38.9093C44.2937 39.2949 44.4474 39.6643 44.7196 39.9375C44.9919 40.2107 45.3608 40.3656 45.7464 40.3688C46.2293 40.3725 46.717 40.3615 47.2048 40.3603H47.2097ZM47.2366 44.761C46.7476 44.761 46.2586 44.7524 45.7697 44.761C44.914 44.7793 44.2808 45.4199 44.2893 46.2389C44.2951 46.6241 44.4522 46.9916 44.7267 47.262C45.0011 47.5323 45.371 47.6839 45.7562 47.6838C46.7342 47.6985 47.7097 47.6985 48.6827 47.6838C49.0688 47.6841 49.4393 47.5313 49.713 47.2588C49.9866 46.9864 50.141 46.6165 50.1423 46.2304C50.1423 45.8449 49.9906 45.4749 49.72 45.2004C49.4494 44.9259 49.0816 44.7689 48.6961 44.7634C48.2072 44.7439 47.7194 44.7561 47.2317 44.7561L47.2366 44.761Z" fill="#0F5A37"/>
<path d="M26.7378 31.5748C28.2818 31.5785 29.8099 31.8872 31.2342 32.4833C32.6585 33.0795 33.9509 33.9512 35.0372 35.0484C36.1236 36.1456 36.9823 37.4467 37.5642 38.8769C38.1461 40.3071 38.4396 41.8382 38.4278 43.3822C38.3972 49.8145 33.1017 55.0416 26.6449 55.0025C20.188 54.9634 14.9756 49.6947 15.0001 43.1927C15.0233 36.7884 20.3164 31.5491 26.7378 31.5748ZM23.9934 47.701C24.1609 47.6117 24.5509 47.5042 24.8039 47.2572C26.7842 45.3128 28.7458 43.3496 30.6886 41.3676C30.9063 41.1163 31.046 40.8071 31.0908 40.4777C31.1874 39.8665 30.8158 39.2883 30.2632 39.0303C29.9857 38.8968 29.6726 38.8558 29.37 38.9135C29.0675 38.9711 28.7914 39.1244 28.5824 39.3506C26.8841 41.0384 25.1906 42.731 23.502 44.4286C23.2221 44.7085 22.925 44.975 22.6696 45.2757C22.4754 45.485 22.3515 45.7497 22.3152 46.0329C22.2788 46.316 22.3317 46.6035 22.4666 46.8551C22.727 47.3942 23.1805 47.668 23.9934 47.701ZM31.1043 46.2133C31.1014 45.8278 30.9469 45.459 30.6742 45.1866C30.4015 44.9141 30.0326 44.7599 29.6471 44.7574C29.4524 44.7574 29.2597 44.7961 29.0801 44.8713C28.9005 44.9466 28.7377 45.0568 28.6011 45.1956C28.4646 45.3345 28.3571 45.4991 28.2848 45.6799C28.2125 45.8607 28.177 46.0541 28.1802 46.2487C28.1889 46.6344 28.3491 47.0011 28.6262 47.2695C28.9032 47.5378 29.2749 47.6863 29.6606 47.6826C30.0455 47.675 30.4121 47.5169 30.682 47.2423C30.9518 46.9676 31.1034 46.5983 31.1043 46.2133ZM25.2464 40.3652C25.2465 39.9795 25.0946 39.6094 24.8237 39.3348C24.5528 39.0603 24.1847 38.9035 23.7991 38.8983C23.414 38.896 23.0434 39.0452 22.7674 39.3137C22.4913 39.5822 22.332 39.9484 22.3236 40.3334C22.3205 40.528 22.3562 40.7213 22.4285 40.9019C22.5009 41.0826 22.6084 41.2471 22.745 41.3858C22.8815 41.5244 23.0442 41.6346 23.2237 41.7097C23.4033 41.7849 23.5959 41.8236 23.7905 41.8236C24.1762 41.8207 24.5452 41.666 24.8177 41.3931C25.0902 41.1202 25.2442 40.7509 25.2464 40.3652Z" fill="#0F5A37"/>
<path d="M54.9547 22.788H54.72C52.7385 22.788 50.7557 22.788 48.7742 22.788C47.8341 22.788 47.2192 22.1767 47.2156 21.2477C47.2156 19.2356 47.2156 17.2223 47.2156 15.2089C47.2156 15.1368 47.2241 15.0647 47.2241 15.061L54.9547 22.788Z" fill="#0F5A37"/>
</g>
<defs>
<clipPath id="clip0_215_3134">
<rect width="41" height="41.0073" fill="white" transform="translate(15 14)"/>
</clipPath>
</defs>
</svg>
