<svg width="80" height="80" viewBox="0 0 80 80" fill="none" xmlns="http://www.w3.org/2000/svg">
<circle cx="40" cy="40" r="40" fill="#B4FCDB"/>
<g clip-path="url(#clip0_237_5491)">
<path d="M48.7868 21.8448C49.1539 21.8448 49.4565 21.8448 49.7619 21.8448C51.3732 21.8784 52.3819 22.89 52.3848 24.5012C52.3848 28.5382 52.3848 32.5761 52.3848 36.6149C52.3671 36.8567 52.2555 37.0821 52.0737 37.2426C51.3255 37.8265 50.7121 38.5649 50.2753 39.4075C49.8384 40.2501 49.5885 41.1769 49.5425 42.1249C49.4964 43.0729 49.6555 44.0196 50.0086 44.9005C50.3618 45.7814 50.9008 46.5758 51.5889 47.2294C51.7215 47.3436 51.8256 47.4871 51.8927 47.6487C51.9599 47.8102 51.9883 47.9852 51.9756 48.1597C51.956 49.2806 51.9756 50.3846 51.9532 51.4971C51.9118 51.7282 51.8092 51.9439 51.6562 52.122C51.2947 52.6292 50.8772 53.0999 50.5493 53.6295C50.4148 53.8481 50.3196 53.9518 50.0618 53.949C49.2912 53.935 48.5206 53.9266 47.75 53.949C47.2769 53.9496 46.8106 54.0609 46.3883 54.2741C45.9659 54.4872 45.5993 54.7962 45.3177 55.1763C45.2198 55.3201 45.0847 55.4347 44.9268 55.5077C44.7688 55.5807 44.5941 55.6095 44.4211 55.591C38.912 55.5798 33.4012 55.5798 27.8884 55.591H27.5297C26.8936 55.591 26.507 55.9161 26.5126 56.4317C26.5182 56.9473 26.8964 57.2415 27.5493 57.2415C32.9911 57.2415 38.4329 57.2415 43.8746 57.2415H44.5836C44.5836 57.5217 44.5836 57.7571 44.5836 58.0037C44.5762 58.467 44.6995 58.9231 44.9393 59.3196C45.1792 59.716 45.526 60.0369 45.9398 60.2454C46.0054 60.2856 46.0623 60.3385 46.1071 60.4011C46.1518 60.4637 46.1836 60.5346 46.2004 60.6097C46.3125 61.3775 46.391 62.1508 46.4806 62.9635C46.4246 62.9635 46.2481 62.9803 46.0715 62.9803H24.7752C22.9987 62.9803 22.0039 61.9883 22.0039 60.2174V24.6946C22.0039 23.0301 22.668 22.2231 24.2877 21.8588C30.0395 20.5642 35.7895 19.265 41.5377 17.961C42.8687 17.6584 44.1997 17.3418 45.5391 17.0643C47.2652 16.7085 48.7195 17.877 48.7756 19.6507C48.7868 20.3625 48.7868 21.077 48.7868 21.8448ZM37.2083 28.2897C31.6405 28.2897 27.3728 32.5462 27.3448 38.1505C27.3196 43.4914 31.7694 47.9356 37.1523 47.958C42.5352 47.9804 47.1055 43.567 47.0271 38.2317C46.9346 32.0166 42.4736 28.3598 37.1971 28.3037L37.2083 28.2897ZM32.3774 21.7019L32.3914 21.7916H47.1447C47.1447 21.0882 47.1447 20.4241 47.1447 19.76C47.1279 18.8913 46.6095 18.4878 45.7605 18.6784L36.7376 20.7211L32.3774 21.7019ZM37.1579 52.2845H30.9932C30.856 52.2775 30.7185 52.2775 30.5813 52.2845C30.3741 52.298 30.1798 52.3898 30.0378 52.5412C29.8957 52.6926 29.8165 52.8923 29.8163 53.0999C29.8113 53.3098 29.887 53.5137 30.0277 53.6695C30.1685 53.8253 30.3635 53.9213 30.5729 53.9378C30.6746 53.9434 30.7766 53.9434 30.8783 53.9378H43.4627C43.5993 53.9449 43.7363 53.9392 43.8718 53.9209C44.0608 53.8937 44.234 53.8001 44.3603 53.6568C44.4866 53.5136 44.5578 53.3301 44.5612 53.1391C44.5697 52.9384 44.5037 52.7415 44.376 52.5864C44.2482 52.4312 44.0677 52.3287 43.869 52.2985C43.7152 52.2859 43.5605 52.2859 43.4067 52.2985L37.1579 52.2845Z" fill="#0F5A37"/>
<path d="M58.547 53.0637C59.8444 53.4168 59.9705 53.6045 60.2423 55.5856C61.4612 55.5856 62.6886 55.6164 63.9159 55.5856C65.7737 55.5268 66.1212 56.8634 65.8774 58.228C65.8354 58.4746 65.4431 58.6876 65.1769 58.8585C65.0536 58.937 64.8434 58.8781 64.6725 58.8781H47.6915C46.3437 58.8781 46.2232 58.7408 46.2204 57.3706C46.1947 57.0617 46.2591 56.752 46.4058 56.4789C46.5525 56.2059 46.7752 55.9812 47.047 55.8322C47.351 55.6816 47.6857 55.603 48.025 55.6024C49.3223 55.5772 50.6169 55.6024 51.9816 55.6024C51.8667 54.3387 52.1385 53.3327 53.618 53.1085V49.5106C53.618 48.8268 53.5956 48.1403 53.618 47.4594C53.6321 47.2397 53.5877 47.0202 53.4892 46.8233C53.3908 46.6263 53.2418 46.4591 53.0576 46.3385C52.5066 45.9157 52.0515 45.3808 51.7225 44.7691C51.3935 44.1574 51.1981 43.4828 51.1491 42.79C51.1001 42.0971 51.1986 41.4018 51.4383 40.7499C51.6779 40.0979 52.0532 39.5043 52.5392 39.0081C53.0086 38.5255 53.572 38.1444 54.1945 37.8881C54.8171 37.6319 55.4856 37.5061 56.1587 37.5184C56.8318 37.5307 57.4952 37.681 58.1079 37.9599C58.7207 38.2388 59.2697 38.6404 59.7211 39.1398C60.1718 39.6341 60.5164 40.2156 60.7334 40.8484C60.9504 41.4812 61.0353 42.1517 60.9827 42.8186C60.9302 43.4855 60.7414 44.1345 60.428 44.7255C60.1146 45.3165 59.6832 45.8369 59.1607 46.2545C58.9407 46.4118 58.7656 46.6238 58.6525 46.8695C58.5395 47.1152 58.4925 47.3861 58.5162 47.6555C58.5666 49.4517 58.547 51.2647 58.547 53.0637Z" fill="#0F5A37"/>
<path d="M47.8987 60.5369H64.224C64.5714 61.9996 63.8204 62.9775 62.3493 62.9803C58.2778 62.9803 54.2063 62.9355 50.1376 63C48.4731 63.028 47.6661 62.2266 47.8987 60.5369Z" fill="#0F5A37"/>
<path d="M36.3458 30.1392V37.265H33.129C33.1178 34.4909 34.4936 30.7809 36.3458 30.1392Z" fill="#0F5A37"/>
<path d="M33.0586 38.9688H36.3399V46.2543C35.9147 45.9291 35.513 45.5742 35.1378 45.1923C34.0562 43.9117 33.5826 42.3649 33.294 40.7481C33.1903 40.1709 33.1399 39.5936 33.0586 38.9688Z" fill="#0F5A37"/>
<path d="M38.1541 30.0635C38.5558 30.3835 38.9307 30.7359 39.275 31.1171C40.676 32.9077 41.0936 35.0401 41.2757 37.2818H38V30.1896L38.1541 30.0635Z" fill="#0F5A37"/>
<path d="M38.0352 46.1031V38.9717H41.2212C41.3333 41.1489 40.1003 45.2933 38.0352 46.1031Z" fill="#0F5A37"/>
<path d="M41.1914 30.9968C43.5788 32.2074 45.305 35.1356 45.2825 37.2736H42.9371C42.8639 35.0721 42.2653 32.92 41.1914 30.9968Z" fill="#0F5A37"/>
<path d="M33.0423 31.022C32.6444 32.0952 32.2017 33.0787 31.9214 34.1043C31.6412 35.1299 31.5348 36.1779 31.3442 37.2651H29.0156C29.3659 34.5331 30.7081 32.4847 33.0423 31.022Z" fill="#0F5A37"/>
<path d="M42.9288 38.9631H45.3499C45.0052 41.712 43.6518 43.7492 41.3008 45.1671C42.2962 43.2452 42.8523 41.1262 42.9288 38.9631Z" fill="#0F5A37"/>
</g>
<defs>
<clipPath id="clip0_237_5491">
<rect width="43.9516" height="46" fill="white" transform="translate(22 17)"/>
</clipPath>
</defs>
</svg>
