<svg width="80" height="80" viewBox="0 0 80 80" fill="none" xmlns="http://www.w3.org/2000/svg">
<circle cx="40" cy="40" r="40" fill="#B4FCDB"/>
<g clip-path="url(#clip0_271_5228)">
<path d="M50.9091 60H41.3719C40.4905 60 40.3138 59.8209 40.3138 58.9347C40.3138 55.5622 40.3138 52.1872 40.3138 48.8123C40.2889 47.3704 40.6247 45.9451 41.2907 44.6659C41.3799 44.4606 41.4208 44.2375 41.4101 44.0138C41.4101 38.8834 41.3791 33.7434 41.4268 28.6248C41.4603 24.9274 43.1537 22.2165 46.5334 20.6329C47.3986 20.2239 48.3446 20.0141 49.3017 20.0191C50.7085 20.0191 52.132 19.9283 53.515 20.1194C57.0213 20.5971 59.811 23.4179 60.3914 26.9147C60.4972 27.5557 60.5508 28.2044 60.5514 28.8541C60.5658 33.9679 60.5514 39.0816 60.5682 44.1954C60.5733 44.4786 60.6376 44.7577 60.7568 45.0146C61.2891 46.1387 61.5687 47.3656 61.5761 48.6093V59.0518C61.5761 59.7683 61.3372 60.0072 60.6207 60.0072C57.3835 60.0056 54.1463 60.0032 50.9091 60ZM51.0214 29.6304C50.5747 30.1487 50.1663 30.6933 49.6862 31.1686C48.6568 32.1884 47.3885 32.8238 46.0223 33.2657C45.7595 33.3492 45.6497 33.4711 45.6879 33.7434C45.728 34.2545 45.7949 34.7631 45.8885 35.2672C46.5907 38.1143 49.4402 39.8794 52.1965 39.1939C53.4026 38.8649 54.4612 38.136 55.1989 37.1266C55.9366 36.1173 56.3097 34.8873 56.2569 33.6383C56.2372 33.5607 56.1994 33.489 56.1467 33.4288C56.094 33.3686 56.0278 33.3217 55.9536 33.2919C53.9114 32.5849 52.1535 31.5101 51.0214 29.6304ZM59.7632 46.2041C56.749 47.0998 54.253 48.5448 52.2276 50.8831H56.4026C56.4026 50.1284 56.3907 49.4047 56.4026 48.6833C56.4004 48.5878 56.4173 48.4929 56.4523 48.404C56.4873 48.3151 56.5397 48.2341 56.6065 48.1658C56.6733 48.0975 56.753 48.0432 56.8411 48.0062C56.9291 47.9691 57.0237 47.95 57.1192 47.9501C57.2149 47.9475 57.3101 47.9642 57.3993 47.999C57.4884 48.0339 57.5697 48.0863 57.6383 48.1531C57.7068 48.2199 57.7613 48.2997 57.7985 48.3879C57.8357 48.4761 57.8549 48.5709 57.8548 48.6666C57.8668 48.8004 57.8548 48.9365 57.8548 49.0727V58.5287H60.0976C60.1108 58.4649 60.1196 58.4002 60.1239 58.3352C60.1239 54.977 60.1406 51.6212 60.1048 48.2654C60.0952 47.5942 59.8898 46.9326 59.7632 46.2041ZM41.7946 58.512H44.0446V57.0789C44.0446 54.3433 44.0446 51.6069 44.0446 48.8696C44.0446 48.4755 44.1186 48.1411 44.5223 47.9955C45.0191 47.8187 45.4777 48.1674 45.4777 48.7502C45.4944 49.4548 45.4777 50.1618 45.4777 50.8784H49.6408C47.582 48.5424 45.0884 47.0878 42.1935 46.2328C41.8903 47.0112 41.7402 47.8409 41.7517 48.6762C41.7517 51.8051 41.7517 54.934 41.7517 58.0629C41.7732 58.2086 41.7875 58.3543 41.7946 58.512ZM55.4759 41.8523C53.1638 40.4526 48.6257 40.4598 46.3638 41.8953C48.0899 42.8359 49.6282 44.0859 50.9019 45.5831C51.6304 44.8952 52.3088 44.1834 53.0635 43.5696C53.8183 42.9557 54.671 42.4183 55.4759 41.8523ZM45.5135 53.5941H56.3668V52.3998H45.5135V53.5941Z" fill="#0F5A37"/>
<path d="M24.8495 37.7322C23.4164 36.8198 22.4324 35.6446 21.9977 34.0802C21.8138 33.4162 21.606 32.9982 20.8631 32.7235C19.4038 32.1837 19.0336 30.3159 19.9937 29.0715C20.1453 28.8622 20.2324 28.6131 20.2445 28.355C20.2732 27.3709 20.2445 26.3868 20.2589 25.4052C20.2708 23.9721 21.1474 22.9427 22.5423 22.6513C22.6183 22.6264 22.6875 22.5844 22.7447 22.5285C22.8019 22.4726 22.8454 22.4043 22.8719 22.3288C23.2063 20.8575 24.1999 20.0096 25.6951 20.0168C27.0684 20.0168 28.4609 19.9594 29.8128 20.1433C32.9752 20.578 35.4974 23.4108 35.71 26.6042C35.7482 27.1488 35.7243 27.6957 35.7697 28.2379C35.7886 28.4348 35.8727 28.6197 36.0085 28.7634C36.7251 29.4537 37.0141 30.2753 36.7538 31.2355C36.6465 31.6731 36.4133 32.0697 36.083 32.3761C35.7528 32.6826 35.3399 32.8856 34.8955 32.96C34.8171 32.9803 34.7443 33.0182 34.6827 33.0707C34.621 33.1232 34.5721 33.1891 34.5396 33.2633C34.3853 34.1453 34.0512 34.9861 33.5581 35.7335C33.065 36.4809 32.4235 37.119 31.6734 37.608C31.6244 37.6452 31.5773 37.6851 31.5325 37.7274C32.1392 38.0355 32.7483 38.2911 33.3048 38.6326C36.5675 40.6318 38.2681 43.5601 38.3206 47.3817C38.3708 51.2558 38.3325 55.1299 38.3206 59.004C38.3206 59.7349 38.0818 59.9785 37.3365 59.9785H19.0001C18.2263 59.9785 17.9922 59.7397 17.9922 58.9849C17.9922 55.1633 17.9922 51.3346 17.9922 47.4987C17.9922 43.1445 20.4356 39.545 24.4841 37.897C24.5844 37.854 24.6776 37.8086 24.8495 37.7322ZM23.1394 30.6551H23.1513C23.1513 31.2618 23.1227 31.8684 23.1513 32.4703C23.2197 33.6741 23.7194 34.813 24.5589 35.6785C25.3985 36.5439 26.5217 37.078 27.7229 37.1828C30.3072 37.3643 32.6479 35.6972 33.0397 33.1893C33.257 31.7848 33.1639 30.3231 33.171 28.89C33.171 27.8916 32.6933 27.2921 31.7379 27.0031C30.7133 26.7209 29.6384 26.6719 28.5923 26.8598C27.7399 26.9817 26.8709 26.8268 26.113 26.4179C24.9785 25.8638 24.2381 26.1098 23.6792 27.0819C23.3329 27.6366 23.1477 28.2767 23.1442 28.9306C23.1465 29.5062 23.1394 30.0818 23.1394 30.6551ZM34.1861 41.088C34.093 41.2791 34.0237 41.4128 33.9473 41.5466C32.4139 44.7304 30.8948 47.9214 29.3399 51.1005C28.9909 51.7354 28.8255 52.4549 28.8622 53.1785C28.9028 53.7422 28.8622 54.3107 28.8622 54.8505H33.3024V47.8355C33.2928 47.6851 33.2928 47.5344 33.3024 47.384C33.3132 47.215 33.3873 47.0562 33.5099 46.9394C33.6325 46.8225 33.7946 46.7561 33.964 46.7535C34.1235 46.7343 34.2846 46.7743 34.4166 46.8658C34.5486 46.9574 34.6425 47.0942 34.6805 47.2503C34.7252 47.4257 34.7438 47.6068 34.7355 47.7877C34.7355 49.9803 34.7355 52.173 34.7355 54.3656V54.8433H36.8063C36.8063 52.1037 36.8803 49.3952 36.7848 46.6938C36.7514 44.5202 35.7936 42.6644 34.1861 41.088ZM22.1529 41.1214C22.1047 41.1484 22.0584 41.1787 22.0144 41.2122C21.9472 41.2722 21.8834 41.336 21.8233 41.4033C20.3324 42.9418 19.4878 44.9933 19.4635 47.1356C19.4229 49.6006 19.4516 52.0655 19.4635 54.54C19.4635 54.6546 19.4874 54.7788 19.4969 54.8696H21.5439V47.7758C21.5329 47.6247 21.5426 47.4728 21.5725 47.3243C21.6016 47.1586 21.6908 47.0095 21.823 46.9055C21.9552 46.8014 22.1212 46.7499 22.2891 46.7606C22.4662 46.7586 22.6372 46.8255 22.766 46.9471C22.8948 47.0688 22.9713 47.2357 22.9794 47.4127C22.9877 47.5487 22.9877 47.6851 22.9794 47.8211V54.8624H27.4172C27.4172 54.0909 27.4387 53.3529 27.4172 52.6148C27.4089 52.2856 27.3367 51.9611 27.2046 51.6594C26.1465 49.4214 25.0549 47.193 23.9921 44.9717C23.3822 43.6867 22.7692 42.4017 22.1529 41.1167V41.1214ZM27.4243 56.3767H23.0247V58.4857H27.4243V56.3767ZM33.2952 58.5072V56.3576H28.9219V58.5072H33.2952ZM19.485 56.3576V58.4833H21.52V56.3576H19.485ZM34.8191 56.3576V58.5072H36.8493V56.3576H34.8191ZM21.6537 29.7474C21.4494 29.7678 21.2602 29.8644 21.1239 30.018C20.9875 30.1716 20.9141 30.3709 20.9181 30.5763C20.909 30.7859 20.9799 30.9911 21.1165 31.1503C21.2531 31.3096 21.4452 31.4109 21.6537 31.4337V29.7474ZM34.6638 31.4457C34.8752 31.4233 35.0698 31.3201 35.2069 31.1576C35.344 30.9952 35.413 30.786 35.3995 30.5739C35.402 30.3711 35.3274 30.175 35.1908 30.0252C35.0543 29.8753 34.8659 29.7829 34.6638 29.7666V31.4457Z" fill="#0F5A37"/>
</g>
<defs>
<clipPath id="clip0_271_5228">
<rect width="43.5756" height="40" fill="white" transform="translate(18 20)"/>
</clipPath>
</defs>
</svg>
