<svg width="80" height="80" viewBox="0 0 80 80" fill="none" xmlns="http://www.w3.org/2000/svg">
<circle cx="40" cy="40" r="40" fill="#B4FCDB"/>
<g clip-path="url(#clip0_237_5490)">
<path d="M24.9961 43.4982C24.9961 37.8751 24.9961 32.2521 24.9961 26.629C24.9961 24.9109 25.9236 23.9912 27.6535 23.9912H51.9867C53.7427 23.9912 54.648 24.9031 54.648 26.672C54.648 37.8869 54.648 49.1004 54.648 60.3126C54.648 62.0998 53.7362 63.0013 51.9411 63.0013H27.6626C25.9079 63 24.9961 62.0803 24.9961 60.3178V43.4982ZM47.6229 39.1995C47.6217 38.1733 47.4182 37.1573 47.0241 36.2098C46.6299 35.2622 46.0528 34.4017 45.3258 33.6774C44.5989 32.953 43.7362 32.3791 42.7872 31.9885C41.8383 31.5978 40.8216 31.398 39.7953 31.4006C35.5474 31.3967 32.0303 34.9008 32.0303 39.1539C32.0225 43.4656 35.494 46.9906 39.7602 47.0023C40.7902 47.0107 41.8117 46.8151 42.7658 46.4268C43.7198 46.0384 44.5876 45.465 45.3189 44.7396C46.0502 44.0142 46.6307 43.1512 47.0268 42.2003C47.4229 41.2494 47.6268 40.2296 47.6268 39.1995H47.6229ZM39.7771 55.588H43.0441C44.0367 55.588 45.028 55.5958 46.0193 55.588C46.517 55.5814 46.8452 55.2532 46.8452 54.8064C46.8452 54.3596 46.5183 54.0548 46.018 54.0248C45.8878 54.0183 45.7575 54.0248 45.6273 54.0248H34.9456C34.4741 54.0248 33.9895 53.961 33.5375 54.0548C33.3901 54.0942 33.2531 54.1655 33.1363 54.2636C33.0195 54.3617 32.9257 54.4843 32.8614 54.6227C32.7911 54.8415 32.9656 55.2115 33.1467 55.4134C33.277 55.558 33.5922 55.5775 33.8254 55.5788C35.808 55.5932 37.7945 55.588 39.7771 55.588ZM39.7875 53.2432C40.7788 53.2432 41.7701 53.2432 42.7628 53.2432C43.3698 53.2432 43.7306 52.9384 43.7241 52.4525C43.7176 51.9666 43.3672 51.6866 42.7901 51.6853C40.8058 51.6853 38.8227 51.6853 36.841 51.6853C36.2704 51.6853 35.9213 51.9979 35.9291 52.4734C35.9369 52.9488 36.2808 53.238 36.8631 53.2419C37.8375 53.251 38.8119 53.2471 39.7875 53.2471V53.2432Z" fill="#0F5A37"/>
<path d="M30.3164 22.3395L37.2907 19.901C39.896 18.9917 42.5013 18.0829 45.1065 17.1745C46.8859 16.5545 48.4074 17.6435 48.4139 19.5375C48.4139 20.478 48.4139 21.4198 48.4139 22.3942H30.3203L30.3164 22.3395Z" fill="#0F5A37"/>
<path d="M41.392 38.3985H38.2656C38.3763 36.6816 38.5548 35.0116 39.3572 33.481C39.4614 33.283 39.6803 33.1449 39.8457 32.9795C39.9968 33.141 40.1909 33.2791 40.2938 33.468C40.9178 34.6169 41.1405 35.8792 41.2903 37.1583C41.3346 37.5583 41.3568 37.9608 41.392 38.3985Z" fill="#0F5A37"/>
<path d="M38.2578 40.0098H41.4076C41.3372 40.6611 41.3333 41.3332 41.1822 41.9637C40.9412 42.9681 40.6156 43.9515 40.2912 44.9324C40.2274 45.1252 40.002 45.2633 39.8509 45.4261C39.6855 45.262 39.468 45.1252 39.3611 44.9285C38.7411 43.7965 38.5222 42.5486 38.3698 41.2877C38.3151 40.8747 38.2943 40.4566 38.2578 40.0098Z" fill="#0F5A37"/>
<path d="M45.9522 38.4023H43.0056C42.8975 37.5569 42.8297 36.7193 42.676 35.8987C42.5223 35.078 42.2852 34.2782 42.082 33.4653C43.864 33.7923 45.9951 36.507 45.9522 38.4023Z" fill="#0F5A37"/>
<path d="M42.082 44.9428C42.2852 44.1261 42.5236 43.3224 42.6773 42.5017C42.831 41.681 42.8962 40.8656 43.0043 40.0137H45.9287C46.1137 41.7345 43.8836 44.595 42.082 44.9428Z" fill="#0F5A37"/>
<path d="M37.5682 33.468C37.365 34.2835 37.1266 35.0885 36.9716 35.9079C36.8166 36.7272 36.7528 37.544 36.6447 38.3946H33.7228C33.6994 36.2778 35.8266 33.8653 37.5682 33.468Z" fill="#0F5A37"/>
<path d="M36.5585 40.0059C36.8764 41.6993 37.1799 43.312 37.4808 44.909C35.9684 44.8295 33.6901 41.965 33.6914 40.0059H36.5585Z" fill="#0F5A37"/>
</g>
<defs>
<clipPath id="clip0_237_5490">
<rect width="29.6532" height="46" fill="white" transform="translate(25 17)"/>
</clipPath>
</defs>
</svg>
