<svg width="80" height="80" viewBox="0 0 80 80" fill="none" xmlns="http://www.w3.org/2000/svg">
<circle cx="40" cy="40" r="40" fill="#B4FCDB"/>
<g clip-path="url(#clip0_237_5489)">
<path d="M65.9993 47.8208H62.0944C61.9291 47.1021 61.7685 46.4601 61.6464 45.8132C61.5961 45.5353 61.4715 45.4611 61.208 45.4611C59.634 45.4611 58.0577 45.4611 56.4837 45.4754C56.3884 45.4926 56.2983 45.5312 56.2202 45.5885C56.1422 45.6458 56.0782 45.7202 56.0334 45.806C55.7938 46.3427 55.6069 46.9104 55.377 47.4543C55.3219 47.586 55.1685 47.7681 55.0583 47.7705C53.6784 47.792 52.2961 47.7849 50.8516 47.7849C50.9282 47.5812 50.9761 47.4423 51.0336 47.3057C53.0172 42.8067 55.0152 38.3125 56.9772 33.8038C57.4564 32.7306 58.199 32.2467 59.3465 32.2706C60.2593 32.2922 61.1744 32.2898 62.0872 32.2706C62.4489 32.2706 62.6046 32.3449 62.6885 32.7378C63.7106 37.446 64.7487 42.1503 65.8028 46.8506C65.8531 47.0757 65.937 47.2914 66.0041 47.5141L65.9993 47.8208ZM57.3749 42.2365H60.8582L59.6412 36.6642H59.5286C58.8291 38.5065 58.1176 40.3416 57.3845 42.2365H57.3749Z" fill="#0F5A37"/>
<path d="M39.6305 43.8034C40.5552 44.0861 41.4248 44.4167 42.3232 44.6084C43.3342 44.824 44.3739 44.9007 45.3872 44.5772C45.6932 44.4848 45.9804 44.3388 46.2353 44.146C46.374 44.0529 46.4889 43.9284 46.5706 43.7827C46.6524 43.637 46.6988 43.4741 46.706 43.3072C46.7132 43.1402 46.6811 42.9739 46.6123 42.8217C46.5434 42.6695 46.4397 42.5355 46.3096 42.4307C45.8883 42.0934 45.4349 41.7981 44.956 41.5491C44.2948 41.1754 43.5905 40.8712 42.9461 40.4711C39.5227 38.3414 40.6822 34.8365 42.8886 33.3776C44.6638 32.2037 46.6426 31.8803 48.71 32.036C49.5985 32.1341 50.4791 32.2942 51.3452 32.5151C51.4794 32.5439 51.683 32.7811 51.6663 32.896C51.5225 33.9142 51.338 34.9252 51.1584 35.984C50.0097 35.4277 48.7388 35.1714 47.4643 35.239C46.9103 35.2695 46.3669 35.4028 45.8616 35.6319C45.0111 36.0415 44.9369 36.8513 45.7011 37.3999C46.3687 37.8273 47.0579 38.2199 47.7661 38.5761C48.2908 38.848 48.801 39.1471 49.2945 39.4721C51.4099 40.9886 51.7309 43.6238 50.066 45.6409C49.2322 46.6121 48.1114 47.2933 46.8654 47.5862C44.3954 48.2522 41.9423 48.0653 39.5107 47.3466C39.1514 47.2412 39.0316 47.0831 39.1154 46.6998C39.3143 45.7343 39.4604 44.7545 39.6305 43.8034Z" fill="#0F5A37"/>
<path d="M18.2578 34.8222C21.0871 36.9615 23.5977 39.1918 24.5081 42.8045L26.2808 38.2935C27.0139 36.4225 27.7518 34.5539 28.4705 32.6757C28.4977 32.5474 28.5729 32.4343 28.6806 32.3595C28.7883 32.2848 28.9205 32.2539 29.0502 32.2732C30.3798 32.2924 31.7118 32.2732 33.1037 32.2732C32.4688 33.7585 31.8579 35.1839 31.247 36.6093C29.7186 40.1613 28.1934 43.7156 26.6713 47.2724C26.6319 47.4235 26.5391 47.5553 26.4101 47.6434C26.2811 47.7315 26.1245 47.7699 25.9694 47.7515C24.7716 47.7275 23.5738 47.7371 22.3759 47.7515C22.3195 47.7617 22.2616 47.7605 22.2056 47.7478C22.1497 47.7352 22.0969 47.7114 22.0504 47.6778C22.0038 47.6443 21.9646 47.6017 21.9349 47.5526C21.9052 47.5035 21.8857 47.4489 21.8776 47.3922C20.6958 43.3227 19.5067 39.2541 18.3105 35.1863C18.286 35.066 18.2684 34.9445 18.2578 34.8222Z" fill="#0F5A37"/>
<path d="M32.1758 47.7753C33.0622 42.5696 33.9366 37.4429 34.811 32.2922H39.0345C38.8453 33.4182 38.6608 34.513 38.4739 35.6078C37.8064 39.5255 37.1372 43.4384 36.4664 47.3465C36.4281 47.5693 36.4328 47.7753 36.1046 47.7729C34.823 47.7681 33.5389 47.7753 32.1758 47.7753Z" fill="#0F5A37"/>
<path d="M14 32.2516C14.1332 32.1977 14.2723 32.1599 14.4145 32.139C16.4771 32.139 18.5398 32.1174 20.6 32.139C21.8098 32.1534 22.2889 32.6013 22.5309 33.7872C22.9142 35.6558 23.3071 37.522 23.6928 39.3882C23.7168 39.5016 23.7224 39.618 23.7096 39.7332C21.7068 35.6606 18.2403 33.5332 14.0024 32.4217L14 32.2516Z" fill="#0F5A37"/>
</g>
<defs>
<clipPath id="clip0_237_5489">
<rect width="52" height="16.0077" fill="white" transform="translate(14 32)"/>
</clipPath>
</defs>
</svg>
