<svg width="80" height="80" viewBox="0 0 80 80" fill="none" xmlns="http://www.w3.org/2000/svg">
<circle cx="40" cy="40" r="40" fill="#B4FCDB"/>
<g clip-path="url(#clip0_237_5485)">
<path d="M60.4359 50.0605C60.384 50.2242 60.3298 50.3867 60.2791 50.5504C60.069 51.2376 59.6485 51.8415 59.0769 52.277C58.5053 52.7125 57.8114 52.9577 57.0931 52.9779C56.9583 52.9779 56.8234 52.9779 56.6885 52.9779C45.3774 52.9779 34.0674 52.9571 22.7574 52.9963C20.61 53.0033 18.9824 51.4068 19.0043 49.2525C19.055 44.0078 19.055 38.7636 19.0043 33.5197C18.9801 31.4368 20.0233 30.0225 21.7822 29.5557C21.7822 29.12 21.7753 28.6762 21.7822 28.2336C21.7915 27.7172 22.0358 27.4497 22.5488 27.4451C23.8836 27.4321 25.218 27.4321 26.552 27.4451C27.0511 27.4451 27.2851 27.7045 27.2989 28.2059C27.3093 28.622 27.2989 29.037 27.2989 29.5084C28.2441 29.5084 29.1559 29.5165 30.0653 29.4946C30.1449 29.4946 30.2601 29.3067 30.2959 29.1891C30.6739 27.716 31.0416 26.2394 31.4093 24.764C31.5696 24.1254 31.7309 23.9963 32.3891 23.9963H47.111C47.7392 23.9963 47.9098 24.1335 48.0631 24.749C48.4274 26.2118 48.7997 27.6722 49.1478 29.1384C49.2169 29.43 49.331 29.5188 49.6307 29.5176C51.9891 29.5038 54.3486 29.5096 56.7081 29.5096C58.6707 29.5096 59.8972 30.4574 60.3874 32.3532C60.4047 32.4034 60.4247 32.4527 60.4474 32.5007L60.4359 50.0605ZM59.0527 40.5475V40.1187C59.0527 37.8134 59.0527 35.508 59.0527 33.2027C59.0527 31.7377 58.2112 30.8974 56.7473 30.8974C45.3974 30.8974 34.0467 30.8974 22.6952 30.8974C21.2313 30.8974 20.3898 31.74 20.3898 33.2027C20.3898 38.5688 20.3898 43.9341 20.3898 49.2986C20.3898 50.7694 21.2221 51.6039 22.6952 51.6039C34.0459 51.6039 45.3962 51.6039 56.7462 51.6039C58.225 51.6039 59.0515 50.7775 59.0515 49.3055C59.0515 47.0002 59.0515 44.6948 59.0515 42.3895V41.9999C59.0033 41.9797 58.9531 41.965 58.9017 41.9561C55.1124 41.9561 51.3244 41.953 47.5375 41.9469C47.2931 41.9469 47.2643 42.0621 47.2366 42.265C47.1014 43.2693 46.7666 44.2364 46.2521 45.1093C45.7375 45.9823 45.0535 46.7435 44.2404 47.3482C43.4272 47.9529 42.5013 48.3888 41.5171 48.6303C40.533 48.8719 39.5105 48.9141 38.5098 48.7545C34.4109 48.124 31.5603 44.1876 32.2104 40.0553C32.5029 38.2623 33.4254 36.6324 34.8121 35.4587C36.1988 34.285 37.9587 33.6445 39.7754 33.6522C43.5147 33.6811 46.7249 36.4809 47.224 40.1752C47.2712 40.5268 47.4049 40.574 47.7058 40.5729C51.3459 40.5652 54.9857 40.5652 58.625 40.5729C58.7679 40.5671 58.8993 40.5556 59.063 40.5475H59.0527ZM39.7086 47.4635C41.3536 47.4651 42.9326 46.8165 44.1015 45.659C45.2704 44.5016 45.9345 42.929 45.9491 41.2841C45.9504 39.6331 45.2978 38.0489 44.1342 36.8777C42.9706 35.7065 41.3906 35.0437 39.7397 35.0343C38.0898 35.0373 36.5084 35.6941 35.3417 36.8608C34.1751 38.0274 33.5183 39.6088 33.5153 41.2587C33.5213 42.9027 34.1767 44.4777 35.3386 45.6407C36.5006 46.8037 38.075 47.4605 39.7189 47.4681L39.7086 47.4635ZM31.6399 29.4819H47.8049C47.4787 28.1748 47.1525 26.8976 46.8459 25.6158C46.7894 25.3795 46.6545 25.3692 46.4655 25.3692C41.9647 25.3692 37.4632 25.3692 32.9608 25.3692C32.7591 25.3692 32.6496 25.4107 32.5966 25.6354C32.2992 26.9103 31.9765 28.1748 31.6479 29.49L31.6399 29.4819ZM23.1655 29.4819H25.8777V28.8571H23.1655V29.4819Z" fill="#0F5A37"/>
<path d="M54.9035 36.4142C54.2557 36.4142 53.6091 36.4212 52.9624 36.4142C52.4103 36.4062 52.1728 36.1733 52.1671 35.6247C52.1579 34.7794 52.1579 33.9306 52.1671 33.0784C52.1671 32.5355 52.4218 32.2796 52.9578 32.2715C54.2642 32.2646 55.5705 32.2646 56.8769 32.2715C57.4129 32.2715 57.6757 32.5367 57.6837 33.0692C57.6922 33.9145 57.6922 34.7632 57.6837 35.6154C57.678 36.1514 57.4255 36.4016 56.8838 36.4096C56.2222 36.4212 55.5617 36.4142 54.9035 36.4142ZM53.5699 33.672V35.008H56.2752V33.672H53.5699Z" fill="#0F5A37"/>
<path d="M39.534 36.4247C40.048 36.397 40.3731 36.6287 40.4088 37.0483C40.4469 37.4863 40.1702 37.7526 39.6193 37.8079C37.9168 37.9819 36.7376 38.949 36.3756 40.4752C36.3271 40.7257 36.2936 40.979 36.2754 41.2336C36.2258 41.6808 35.9411 41.9633 35.5549 41.9414C35.1688 41.9195 34.8726 41.5956 34.9002 41.1253C35.0155 39.2591 35.8662 37.8344 37.5318 36.9757C38.1392 36.6621 38.8424 36.5353 39.5017 36.3232L39.534 36.4247Z" fill="#0F5A37"/>
</g>
<defs>
<clipPath id="clip0_237_5485">
<rect width="41.4408" height="29" fill="white" transform="translate(19 24)"/>
</clipPath>
</defs>
</svg>
