<svg width="80" height="80" viewBox="0 0 80 80" fill="none" xmlns="http://www.w3.org/2000/svg">
<circle cx="40" cy="40" r="40" fill="#B4FCDB"/>
<g clip-path="url(#clip0_240_8621)">
<path d="M63.9967 35.1843C63.8446 36.0856 63.7441 36.9991 63.5344 37.882C62.3769 42.7624 59.6326 46.511 55.3972 49.1817C55.3346 49.2197 55.2745 49.2528 55.174 49.3043C55.2844 48.3454 55.4291 47.4294 55.4806 46.5097C55.5112 45.9494 55.7184 45.5864 56.1305 45.2001C60.5755 41.042 62.2616 35.936 60.703 30.0538C59.1286 24.1041 55.1237 20.3311 49.0944 19.0877C43.3654 17.9056 38.4826 19.7314 34.5771 24.098C34.4825 24.2122 34.3647 24.3051 34.2315 24.3704C34.0983 24.4357 33.9528 24.472 33.8046 24.4769C32.7868 24.5628 31.7727 24.6927 30.6875 24.8129C30.8015 24.6241 30.8984 24.445 31.01 24.2819C34.2337 19.4494 38.7131 16.6794 44.5071 16.0724C44.6105 16.0539 44.7126 16.028 44.8124 15.9951H47.2906C47.9037 16.0846 48.5279 16.1631 49.1434 16.2649C56.1574 17.4261 61.9832 22.9257 63.5271 29.8637C63.7343 30.7981 63.8422 31.7546 63.9967 32.7V35.1843Z" fill="#0F5A37"/>
<path d="M46.4449 31.4651L36.3653 41.5435C36.3653 41.0162 36.3653 40.473 36.3653 39.9298C36.3579 39.053 35.7669 38.4252 34.9686 38.4387C34.1703 38.4522 33.6198 39.069 33.6136 39.9249C33.6087 41.5778 33.6087 43.23 33.6136 44.8813C33.6136 45.8058 34.1777 46.3773 35.0937 46.3797C36.7613 46.3863 38.4286 46.3863 40.0955 46.3797C40.9416 46.3797 41.5608 45.7801 41.5559 44.9978C41.551 44.2154 40.9342 43.6379 40.0844 43.6293C39.5387 43.6232 38.9931 43.6293 38.4903 43.6293L48.5208 33.6049C53.1008 38.424 55.0125 48.208 49.134 55.9112C42.9305 64.0484 31.2924 65.3813 23.5058 58.8934C15.6114 52.3159 14.7653 40.5809 21.6665 33.0568C28.6401 25.4713 39.7558 25.5817 46.4449 31.4651Z" fill="#0F5A37"/>
<path d="M51.9787 30.028L48.6017 33.4234L46.625 31.4419L50.0584 28.0244C49.3668 28.0244 48.8236 28.0244 48.2816 28.0244C47.4061 28.0158 46.7795 27.4309 46.793 26.6363C46.8065 25.8417 47.4196 25.2776 48.2718 25.2752C49.937 25.2686 51.6031 25.2686 53.2699 25.2752C54.1602 25.2752 54.7316 25.849 54.7414 26.7405C54.7471 28.4074 54.7471 30.0734 54.7414 31.7386C54.7414 32.597 54.1614 33.2101 53.379 33.2162C52.5967 33.2223 51.9971 32.597 51.991 31.7178C51.975 31.1807 51.9787 30.6473 51.9787 30.028Z" fill="#0F5A37"/>
</g>
<defs>
<clipPath id="clip0_240_8621">
<rect width="47" height="47.0049" fill="white" transform="translate(17 16)"/>
</clipPath>
</defs>
</svg>
