<svg width="80" height="80" viewBox="0 0 80 80" fill="none" xmlns="http://www.w3.org/2000/svg">
<circle cx="40" cy="40" r="40" fill="#B4FCDB"/>
<g clip-path="url(#clip0_237_5488)">
<path d="M51.801 58.2758C51.801 58.7259 51.801 59.1117 51.801 59.4975C51.7802 60.7041 51.0123 61.4757 49.8115 61.4757C41.8496 61.4757 33.8872 61.4757 25.9241 61.4757C25.4375 61.4951 24.963 61.3206 24.6048 60.9905C24.2467 60.6604 24.0342 60.2016 24.0141 59.715C24.0008 59.5694 24.0046 59.4219 24.0046 59.2762C24.0046 48.9542 24.0046 38.6329 24.0046 28.3122C23.9978 27.9804 24.0412 27.6495 24.1332 27.3306C24.234 26.9943 24.443 26.7007 24.7279 26.4954C25.0128 26.2902 25.3576 26.1849 25.7085 26.1959C26.187 26.1959 26.6541 26.1959 27.2007 26.1959C27.2007 25.7875 27.2007 25.4073 27.2007 25.0253C27.2007 23.745 27.9571 22.9961 29.2507 22.9961H53.0189C54.2311 22.9961 54.9611 23.7072 54.997 24.9175C54.997 25.0234 54.997 25.1312 54.997 25.2371C54.997 35.491 54.997 45.7456 54.997 56.0007C55.0008 56.2269 54.9895 56.4531 54.963 56.6778C54.9177 57.1138 54.7125 57.5176 54.387 57.8113C54.0615 58.105 53.6388 58.2678 53.2004 58.2682C52.7541 58.2947 52.3021 58.2758 51.801 58.2758ZM39.3741 41.6922C40.6979 43.7271 41.999 45.7109 43.2926 47.6985C43.6009 48.1713 43.9621 48.2299 44.3649 47.8385C44.8055 47.4111 45.2102 46.942 45.6755 46.5468C46.1407 46.1515 46.188 45.726 45.9724 45.1662C45.1214 42.9555 44.3101 40.7296 43.4666 38.5169C43.4117 38.4152 43.3965 38.2967 43.4241 38.1845C43.4517 38.0723 43.5201 37.9744 43.616 37.9098C44.4368 37.1685 45.2424 36.4101 46.0499 35.6518C46.3609 35.3854 46.5966 35.0421 46.7333 34.6561C46.87 34.2702 46.9031 33.8551 46.8291 33.4524C46.777 33.0314 46.6026 32.635 46.3277 32.312C46.0528 31.989 45.6893 31.7536 45.2821 31.6349C44.8591 31.4795 44.3994 31.4534 43.9615 31.5602C43.5237 31.667 43.1276 31.9017 42.8236 32.2344C42.0129 33.0628 41.2129 33.9031 40.4237 34.7554C40.3535 34.856 40.2479 34.9265 40.1281 34.9528C40.0082 34.9791 39.8828 34.9592 39.7769 34.8972C37.4678 33.9686 35.1511 33.059 32.8401 32.1323C32.6861 32.0514 32.509 32.026 32.3385 32.0605C32.1679 32.0949 32.0145 32.1871 31.904 32.3214C31.4255 32.8226 30.9225 33.3011 30.4384 33.7965C30.0128 34.2334 30.0601 34.6022 30.5707 34.9445C31.0133 35.2414 31.4615 35.5289 31.9078 35.8201L36.4693 38.7987C36.4409 38.8502 36.4086 38.8995 36.3728 38.9462C35.31 40.0809 34.249 41.2326 33.1768 42.3654C33.1239 42.4068 33.0628 42.4364 32.9975 42.4521C32.9323 42.4677 32.8644 42.4691 32.7985 42.4562C32.3295 42.3616 31.87 42.2009 31.3991 42.1385C31.1425 42.101 30.8812 42.1596 30.6653 42.303C30.2113 42.6949 29.7836 43.1163 29.385 43.5644C29.0502 43.9294 29.1372 44.3039 29.5741 44.544C30.3305 44.9601 31.1002 45.3629 31.8435 45.8017C32.0656 45.9362 32.2514 46.1232 32.3844 46.3463C32.8099 47.0688 33.1995 47.812 33.6023 48.5495C33.8954 49.0866 34.268 49.1471 34.7124 48.716C35.1133 48.3264 35.501 47.9198 35.9038 47.5321C35.9999 47.4498 36.0685 47.3401 36.1002 47.2177C36.132 47.0953 36.1255 46.9661 36.0816 46.8475C35.9435 46.3596 35.8263 45.8679 35.7223 45.3724C35.7105 45.3133 35.7115 45.2523 35.7252 45.1936C35.7389 45.1349 35.765 45.0798 35.8017 45.032C36.9837 43.9219 38.1581 42.825 39.3741 41.6922ZM28.4904 26.2016H41.4638C44.264 26.2016 47.0642 26.2016 49.8644 26.2016C50.7722 26.2016 51.4851 26.6801 51.7026 27.4574C51.7749 27.7549 51.8067 28.0609 51.7972 28.367C51.7972 37.7132 51.7972 47.0587 51.7972 56.4036V56.9974H52.8336C53.5711 56.9974 53.7167 56.8499 53.7167 56.1029V25.1463C53.7167 24.405 53.5919 24.2802 52.8657 24.2802H29.3831C29.2885 24.2802 29.194 24.2802 29.1032 24.2802C28.7401 24.2802 28.5131 24.4693 28.4942 24.8343C28.4734 25.2731 28.4904 25.7118 28.4904 26.2016ZM37.8536 56.2144H42.0142C42.9333 56.2144 43.8543 56.2144 44.7734 56.2144C44.8569 56.2222 44.941 56.2128 45.0208 56.1869C45.1005 56.1609 45.1741 56.1189 45.2369 56.0635C45.2998 56.008 45.3507 55.9403 45.3864 55.8645C45.4222 55.7886 45.442 55.7063 45.4448 55.6225C45.4512 55.5357 45.4398 55.4486 45.4111 55.3664C45.3824 55.2843 45.3371 55.2089 45.2781 55.145C45.219 55.0811 45.1474 55.0301 45.0677 54.9951C44.988 54.9602 44.902 54.942 44.815 54.9417C44.7085 54.936 44.6018 54.936 44.4954 54.9417H31.2572C31.1376 54.9331 31.0175 54.9331 30.8979 54.9417C30.7309 54.9586 30.5762 55.0371 30.4639 55.162C30.3517 55.2868 30.29 55.449 30.2908 55.6168C30.3065 55.7775 30.3802 55.9269 30.4983 56.0369C30.6164 56.147 30.7706 56.2101 30.9319 56.2144C31.0511 56.2144 31.1702 56.2144 31.2913 56.2144H37.8536ZM37.9028 53.0146C39.2361 53.0146 40.5674 53.0146 41.8988 53.0146C42.3376 53.0146 42.6023 52.7933 42.6269 52.4472C42.6553 52.0406 42.3376 51.7456 41.8421 51.7456C39.2171 51.7456 36.5928 51.7456 33.9692 51.7456C33.4567 51.7456 33.1824 51.9744 33.173 52.3848C33.1635 52.7952 33.4169 53.0221 33.9465 53.0221C35.2646 53.0184 36.5846 53.0165 37.9028 53.0165V53.0146Z" fill="#0F5A37"/>
</g>
<defs>
<clipPath id="clip0_237_5488">
<rect width="31" height="38.4777" fill="white" transform="translate(24 23)"/>
</clipPath>
</defs>
</svg>
