<svg width="80" height="80" viewBox="0 0 80 80" fill="none" xmlns="http://www.w3.org/2000/svg">
<circle cx="40" cy="40" r="40" fill="#B4FCDB"/>
<path d="M56.832 29.2917H24.1654C21.9102 29.2917 20.082 31.1199 20.082 33.3751V53.7917C20.082 56.0469 21.9102 57.8751 24.1654 57.8751H56.832C59.0872 57.8751 60.9154 56.0469 60.9154 53.7917V33.3751C60.9154 31.1199 59.0872 29.2917 56.832 29.2917Z" stroke="#0F5A37" stroke-width="2" stroke-linecap="round" stroke-linejoin="round"/>
<path d="M48.6654 57.875V25.2083C48.6654 24.1254 48.2352 23.0868 47.4694 22.321C46.7036 21.5552 45.665 21.125 44.582 21.125H36.4154C35.3324 21.125 34.2938 21.5552 33.528 22.321C32.7622 23.0868 32.332 24.1254 32.332 25.2083V57.875" stroke="#0F5A37" stroke-width="2" stroke-linecap="round" stroke-linejoin="round"/>
</svg>
