<svg width="60" height="58" viewBox="0 0 60 58" fill="none" xmlns="http://www.w3.org/2000/svg">
<g clip-path="url(#clip0_25_5754)">
<path d="M7.40666 41.7133C5.70862 39.9104 5.20216 37.86 6.20197 35.6276C7.20178 33.3952 9.09486 32.461 11.5796 32.5364V31.7972C11.5796 25.3033 11.5632 18.8079 11.5796 12.3124C11.5944 7.83945 13.4727 4.33519 17.2064 1.87173C19.0016 0.670896 21.1111 0.0260912 23.2709 0.0179829C27.0406 -0.00496357 30.7973 -4.74735e-05 34.5589 0.00159156C35.3997 0.00159156 35.657 0.285146 35.6587 1.18661C35.6587 4.38273 35.6587 7.57884 35.6587 10.775V11.5715H46.514C47.5646 11.5715 47.7744 11.778 47.776 12.8237C47.776 19.134 47.776 25.4443 47.776 31.7546V32.5315C50.2542 32.443 52.1637 33.3756 53.1848 35.6309C54.1896 37.8583 53.6929 39.9055 51.9654 41.7346C53.8159 42.1968 55.2435 43.159 56.2662 44.721C57.289 46.283 57.3824 48.063 57.2808 49.9659C57.6889 49.9659 58.0462 49.9544 58.4035 49.9659C59.0706 49.9905 59.3869 50.2937 59.3869 50.9493C59.3968 52.9161 59.3968 54.883 59.3869 56.8498C59.3869 57.5169 59.0722 57.8054 58.4035 57.8332C58.2609 57.8332 58.1183 57.8332 57.9741 57.8332H1.41272C1.24881 57.8332 1.08491 57.8332 0.921008 57.8332C0.327678 57.8037 0.0113422 57.5054 0.00642514 56.9121C-0.00450174 54.9245 -0.00450174 52.9369 0.00642514 50.9493C0.00642514 50.2937 0.334236 49.997 1.0046 49.9659C1.33241 49.9511 1.66021 49.9495 1.98802 49.9396C2.00441 49.9396 2.01916 49.9167 2.10931 49.8462C1.79297 45.8748 3.2763 42.9705 7.40666 41.7133ZM25.7917 39.7252C22.7644 37.0323 22.9693 33.3412 24.5493 31.1203C25.3711 29.9291 26.5872 29.0665 27.9831 28.6847C30.1663 28.0782 32.1184 28.6142 33.9082 30.0352V1.75536C33.7213 1.74061 33.5804 1.72258 33.4394 1.72258C30.1892 1.72258 26.9374 1.70946 23.6855 1.73241C22.9499 1.73043 22.2161 1.80458 21.4958 1.95368C16.5951 3.03216 13.3105 7.174 13.3006 12.2796C13.2875 18.9996 13.3006 25.7197 13.2875 32.4397C13.2697 32.6268 13.308 32.815 13.3977 32.9803C13.4873 33.1455 13.6241 33.2803 13.7907 33.3674C14.4261 33.7735 14.9667 34.3116 15.3758 34.9451C15.785 35.5786 16.053 36.2927 16.1619 37.0389C16.2707 37.7852 16.2177 38.5461 16.0066 39.27C15.7954 39.994 15.431 40.664 14.938 41.2347C14.8118 41.3822 14.6922 41.5347 14.6381 41.6002C15.5543 42.0919 16.523 42.4788 17.3015 43.0967C18.08 43.7146 18.6504 44.5685 19.306 45.2995C20.3583 42.269 22.5153 40.389 25.7917 39.7252ZM40.1004 45.2864C40.7561 44.5571 41.351 43.7015 42.1296 43.0852C42.9081 42.4689 43.8735 42.0919 44.7684 41.6101C44.6815 41.5085 44.5373 41.3413 44.3963 41.1725C42.3934 38.7713 42.9212 35.1277 45.5437 33.4313C45.7273 33.3339 45.878 33.1844 45.9769 33.0015C46.0758 32.8186 46.1184 32.6106 46.0993 32.4036C46.084 26.2988 46.0807 20.1928 46.0895 14.0858V13.3368H35.6964V14.0989C35.6964 19.8355 35.6964 25.5721 35.6964 31.3088C35.6964 31.866 35.6226 32.4479 35.7521 32.9757C36.3389 35.385 35.8176 37.4732 34.0885 39.2515C33.9492 39.3957 33.7803 39.5105 33.5378 39.7104C36.8945 40.389 39.0597 42.287 40.1004 45.2831V45.2864ZM57.6594 51.7262H1.76839V56.0877H57.6594V51.7262ZM38.7204 49.9233C38.7204 49.1168 38.7482 48.3596 38.7204 47.6057C38.5647 43.9883 35.9881 41.4544 32.3724 41.3872C30.5941 41.3527 28.8141 41.3462 27.0374 41.3872C24.2789 41.4544 22.3022 42.7722 21.168 45.293C20.5124 46.7681 20.7107 48.3367 20.7107 49.9216L38.7204 49.9233ZM18.0882 49.9314C18.0882 49.1939 18.144 48.4793 18.0768 47.7761C17.862 45.4815 16.146 43.6425 13.8694 43.4261C12.268 43.2753 10.6437 43.3737 9.03094 43.3327C5.86105 43.2557 3.19599 45.7912 3.91224 49.9314H18.0882ZM55.5909 49.9314C55.5909 49.2988 55.6057 48.7284 55.5909 48.1596C55.5172 45.7011 53.7405 43.6244 51.2934 43.4261C49.3675 43.2622 47.4187 43.4015 45.4797 43.4114C45.3165 43.4197 45.155 43.4495 44.9995 43.4999C42.3525 44.2342 40.856 46.5649 41.3707 49.9314H55.5909ZM34.254 34.7704C34.2603 34.171 34.1483 33.5762 33.9246 33.02C33.7008 32.4639 33.3696 31.9573 32.9499 31.5293C32.5303 31.1012 32.0303 30.7601 31.4787 30.5254C30.9271 30.2907 30.3346 30.167 29.7352 30.1614C29.1356 30.1575 28.5411 30.272 27.9857 30.4982C27.4304 30.7243 26.9251 31.0578 26.4988 31.4795C26.0725 31.9013 25.7336 32.4029 25.5014 32.9558C25.2693 33.5087 25.1485 34.1019 25.1459 34.7016C25.1368 35.3011 25.2468 35.8964 25.4696 36.4531C25.6924 37.0097 26.0235 37.5166 26.4437 37.9443C26.8639 38.372 27.3649 38.712 27.9175 38.9445C28.4702 39.1771 29.0635 39.2976 29.6631 39.299C30.2625 39.3053 30.8572 39.1929 31.413 38.9683C31.9687 38.7437 32.4745 38.4114 32.9013 37.9904C33.328 37.5695 33.6673 37.0682 33.8994 36.5156C34.1316 35.9629 34.2521 35.3698 34.254 34.7704ZM14.4889 37.819C14.4939 37.353 14.4065 36.8907 14.2318 36.4588C14.0571 36.0268 13.7985 35.6337 13.471 35.3022C13.1435 34.9708 12.7535 34.7075 12.3237 34.5276C11.8938 34.3477 11.4326 34.2547 10.9666 34.2541C9.00963 34.2344 7.42469 35.8554 7.42469 37.8747C7.44252 38.784 7.81024 39.6514 8.45132 40.2964C9.09241 40.9415 9.95751 41.3145 10.8667 41.338C12.8827 41.3495 14.4824 39.8055 14.4889 37.819ZM51.9474 37.819C51.9554 37.353 51.8706 36.8901 51.6979 36.4572C51.5252 36.0243 51.268 35.6302 50.9413 35.2978C50.6147 34.9653 50.2251 34.7013 49.7954 34.5209C49.3656 34.3406 48.9042 34.2477 48.4382 34.2475C46.4959 34.2279 44.9241 35.8063 44.9012 37.801C44.8799 39.7006 46.4419 41.315 48.3169 41.3314C50.3477 41.3495 51.9359 39.8203 51.9474 37.8255V37.819Z" fill="#489563"/>
<path d="M18.1375 18.0753C17.8099 18.0918 17.4817 18.0918 17.1541 18.0753C16.6411 18.0212 16.3084 17.7344 16.3346 17.1935C16.3608 16.6526 16.6804 16.374 17.2115 16.374C17.8441 16.3642 18.4784 16.3576 19.1127 16.374C19.6274 16.3904 20.0044 16.7543 19.9814 17.2132C19.9552 17.741 19.6438 18.0327 19.1242 18.0786C18.7964 18.1032 18.4686 18.0786 18.1408 18.0786L18.1375 18.0753Z" fill="#489563"/>
<path d="M18.1261 23.253C17.7982 23.253 17.4704 23.2743 17.1426 23.253C16.6313 23.2103 16.2887 22.8334 16.3231 22.3613C16.3608 21.8581 16.6509 21.5697 17.1541 21.5516C17.8097 21.5287 18.4653 21.5271 19.1209 21.5516C19.6356 21.5697 20.0077 21.945 19.9782 22.4056C19.9421 22.9317 19.634 23.2251 19.1095 23.2579C18.7817 23.271 18.4522 23.2546 18.1261 23.253Z" fill="#489563"/>
<path d="M18.1375 33.5969C17.8097 33.5969 17.4819 33.6133 17.1541 33.5969C16.6624 33.5657 16.3526 33.2871 16.3346 32.7773C16.3197 32.6688 16.3281 32.5584 16.3591 32.4533C16.3901 32.3482 16.4431 32.251 16.5145 32.1679C16.586 32.0849 16.6742 32.0179 16.7735 31.9715C16.8727 31.9251 16.9807 31.9004 17.0902 31.8988C17.8039 31.8488 18.5203 31.8488 19.2341 31.8988C19.3383 31.9022 19.4408 31.9268 19.5353 31.971C19.6298 32.0152 19.7143 32.0782 19.7837 32.1561C19.8531 32.2339 19.906 32.3251 19.9392 32.424C19.9723 32.5229 19.985 32.6275 19.9765 32.7315C19.9839 32.8401 19.969 32.9491 19.9326 33.0518C19.8962 33.1544 19.8391 33.2485 19.7649 33.3282C19.6907 33.4079 19.601 33.4716 19.5012 33.5153C19.4015 33.5589 19.2938 33.5817 19.1849 33.5821C18.8391 33.6116 18.4899 33.5821 18.1425 33.5821L18.1375 33.5969Z" fill="#489563"/>
<path d="M18.1408 12.8976C17.7937 12.9197 17.4455 12.9197 17.0984 12.8976C16.6165 12.8337 16.3116 12.5387 16.328 12.0273C16.3211 11.9178 16.3375 11.8082 16.3762 11.7056C16.4149 11.603 16.4751 11.5098 16.5526 11.4323C16.6301 11.3548 16.7233 11.2946 16.8259 11.2559C16.9285 11.2172 17.0381 11.2008 17.1476 11.2078C17.8207 11.1848 18.4948 11.1848 19.1701 11.2078C19.6815 11.2258 19.9634 11.5536 19.9765 12.0388C19.985 12.1423 19.9728 12.2466 19.9406 12.3454C19.9084 12.4442 19.8569 12.5357 19.789 12.6144C19.7211 12.6931 19.6382 12.7575 19.5452 12.8039C19.4522 12.8503 19.3509 12.8777 19.2472 12.8845C18.8805 12.9102 18.5127 12.9129 18.1457 12.8927L18.1408 12.8976Z" fill="#489563"/>
<path d="M29.0994 23.253C28.7716 23.253 28.4438 23.2759 28.116 23.253C28.0069 23.253 27.899 23.2313 27.7985 23.1891C27.698 23.1469 27.6069 23.085 27.5306 23.0072C27.4543 22.9293 27.3943 22.8371 27.3541 22.7357C27.3138 22.6344 27.2943 22.5261 27.2964 22.4171C27.2903 22.304 27.3076 22.1908 27.3474 22.0848C27.3872 21.9787 27.4485 21.882 27.5275 21.8009C27.6065 21.7197 27.7015 21.6558 27.8064 21.6132C27.9114 21.5706 28.024 21.5502 28.1373 21.5533C28.7929 21.5293 29.4485 21.5293 30.1041 21.5533C30.6368 21.573 30.9548 21.9188 30.9384 22.4138C30.922 22.9088 30.622 23.2022 30.1352 23.2513C29.796 23.2808 29.4469 23.2513 29.0994 23.253Z" fill="#489563"/>
<path d="M29.083 18.0752C28.7554 18.0925 28.4272 18.0925 28.0996 18.0752C27.5882 18.0195 27.2522 17.6294 27.3063 17.1606C27.3604 16.6919 27.6521 16.3821 28.1619 16.3755C28.8175 16.3657 29.4731 16.3575 30.1287 16.3755C30.6319 16.3919 30.9253 16.6804 30.9482 17.1951C30.9712 17.7097 30.6712 18.0064 30.1894 18.0719C29.8234 18.0998 29.456 18.1031 29.0896 18.0818L29.083 18.0752Z" fill="#489563"/>
<path d="M23.6054 23.2529C23.2776 23.2529 22.9498 23.2742 22.622 23.2529C22.5086 23.251 22.3969 23.2256 22.2939 23.1783C22.1908 23.1309 22.0987 23.0628 22.0234 22.978C21.9481 22.8933 21.8912 22.7939 21.8562 22.686C21.8213 22.5782 21.8091 22.4642 21.8205 22.3514C21.8549 21.8417 22.1483 21.5614 22.6482 21.545C23.3038 21.5237 23.9594 21.5221 24.615 21.545C25.1461 21.5647 25.4722 21.9138 25.4542 22.4039C25.4362 22.894 25.1411 23.1955 24.6527 23.2447C24.302 23.2791 23.9512 23.2513 23.6054 23.2529Z" fill="#489563"/>
<path d="M18.1277 28.4257C17.7999 28.4257 17.4721 28.447 17.1443 28.4257C16.6526 28.3831 16.3543 28.1061 16.3248 27.6062C16.3171 27.4932 16.3329 27.3798 16.3712 27.2731C16.4095 27.1665 16.4696 27.069 16.5475 26.9867C16.6255 26.9045 16.7196 26.8393 16.824 26.7953C16.9284 26.7512 17.0408 26.7294 17.1541 26.731C17.8097 26.7031 18.4654 26.7048 19.121 26.731C19.634 26.749 20.0093 27.126 19.9782 27.5866C19.9438 28.1094 19.6422 28.4061 19.1111 28.4372C18.7833 28.4536 18.4555 28.4372 18.1277 28.4372V28.4257Z" fill="#489563"/>
<path d="M29.1272 12.8975C28.7811 12.9156 28.4342 12.9156 28.0881 12.8975C27.5964 12.8418 27.2964 12.532 27.3112 12.0338C27.3259 11.5355 27.6095 11.2257 28.1209 11.2142C28.7929 11.1946 29.4682 11.1913 30.1418 11.2142C30.645 11.2339 30.9302 11.5322 30.9433 12.0338C30.9564 12.5353 30.6483 12.8336 30.168 12.8943C29.8215 12.9175 29.4739 12.9186 29.1272 12.8975Z" fill="#489563"/>
<path d="M29.1633 7.72312C28.8175 7.72312 28.4667 7.74934 28.1242 7.72312C27.603 7.67231 27.2883 7.36253 27.3129 6.83148C27.3358 6.33977 27.6407 6.04311 28.1455 6.03C28.8011 6.01525 29.4567 6.01361 30.1123 6.03C30.604 6.04311 30.9204 6.31191 30.9466 6.82329C30.9761 7.36909 30.663 7.66247 30.1484 7.72312C29.8203 7.7414 29.4914 7.7414 29.1633 7.72312Z" fill="#489563"/>
<path d="M23.6971 16.3707C24.0036 16.3707 24.3101 16.3592 24.615 16.3707C25.1198 16.3936 25.4148 16.6723 25.4443 17.1738C25.4722 17.6475 25.2149 18.0081 24.7592 18.0442C24.007 18.1048 23.2512 18.1048 22.499 18.0442C22.0466 18.0048 21.7926 17.6491 21.8221 17.1689C21.819 17.0658 21.8367 16.9631 21.8742 16.8669C21.9116 16.7708 21.968 16.6832 22.0401 16.6093C22.1121 16.5354 22.1983 16.4768 22.2935 16.4369C22.3887 16.3971 22.4909 16.3768 22.5941 16.3773C22.9596 16.351 23.33 16.3773 23.6971 16.3773V16.3707Z" fill="#489563"/>
<path d="M23.6562 11.2011C24.002 11.2011 24.3511 11.1798 24.6953 11.2011C24.8931 11.2037 25.0821 11.2838 25.2215 11.4241C25.361 11.5645 25.4398 11.7539 25.4411 11.9518C25.482 12.4222 25.2608 12.8057 24.7969 12.8451C24.0262 12.9082 23.2517 12.9082 22.481 12.8451C22.0204 12.809 21.786 12.437 21.8254 11.96C21.8249 11.8569 21.8452 11.7547 21.8851 11.6596C21.9249 11.5646 21.9836 11.4785 22.0575 11.4066C22.1314 11.3347 22.219 11.2784 22.3152 11.2411C22.4113 11.2039 22.514 11.1863 22.617 11.1896C22.9629 11.17 23.3103 11.1896 23.6578 11.1896L23.6562 11.2011Z" fill="#489563"/>
<path d="M23.5807 7.70997C23.2351 7.73131 22.8884 7.72802 22.5432 7.70013C22.0515 7.62965 21.7893 7.30676 21.8237 6.8003C21.8213 6.69689 21.8403 6.59409 21.8793 6.49828C21.9183 6.40248 21.9765 6.3157 22.0504 6.24333C22.1244 6.17095 22.2123 6.11453 22.3089 6.07754C22.4055 6.04056 22.5087 6.02381 22.6121 6.02832C23.2841 6.00537 23.9593 6.00701 24.6314 6.02832C25.1362 6.04307 25.4279 6.34137 25.4509 6.84784C25.4738 7.3543 25.1788 7.66735 24.6871 7.71488C24.3207 7.73457 23.9536 7.73457 23.5873 7.71488L23.5807 7.70997Z" fill="#489563"/>
<path d="M40.8677 18.0064C40.4202 18.0064 39.9711 18.0146 39.5237 18.0064C39.0008 17.9933 38.6681 17.736 38.6451 17.1869C38.6222 16.6379 38.9451 16.3248 39.4548 16.3051C40.4104 16.2674 41.3708 16.2707 42.3264 16.3051C42.44 16.3053 42.5522 16.3297 42.6556 16.3768C42.759 16.4238 42.8511 16.4923 42.9259 16.5778C43.0007 16.6633 43.0564 16.7637 43.0892 16.8725C43.1221 16.9812 43.1313 17.0957 43.1164 17.2082C43.0705 17.7114 42.7739 17.9819 42.274 17.9966C41.8052 18.0114 41.3364 17.9966 40.8677 17.9966V18.0064Z" fill="#489563"/>
<path d="M40.9152 21.4959C41.3626 21.4959 41.8117 21.4828 42.2575 21.4959C42.7853 21.514 43.1065 21.7959 43.1164 22.3318C43.1246 22.8318 42.8377 23.1628 42.3395 23.1792C41.3643 23.2104 40.3858 23.212 39.4105 23.1792C38.9155 23.1563 38.6336 22.8285 38.6467 22.3253C38.6599 21.8221 38.9532 21.532 39.4515 21.5058C39.9498 21.4795 40.4349 21.5058 40.9168 21.5058L40.9152 21.4959Z" fill="#489563"/>
<path d="M41.4774 26.6966C41.7413 26.6966 42.0068 26.6868 42.2707 26.6966C42.7706 26.7212 43.0705 26.9867 43.1017 27.4932C43.1328 27.9996 42.8492 28.3373 42.369 28.3815C41.7403 28.4364 41.1079 28.4364 40.4792 28.3815C39.9973 28.3389 39.7121 28.0078 39.7384 27.4981C39.7646 26.9884 40.0662 26.7212 40.5579 26.695C40.866 26.6851 41.1725 26.6983 41.4774 26.6966Z" fill="#489563"/>
</g>
<defs>
<clipPath id="clip0_25_5754">
<rect width="59.4018" height="57.83" fill="white"/>
</clipPath>
</defs>
</svg>
