<svg width="80" height="80" viewBox="0 0 80 80" fill="none" xmlns="http://www.w3.org/2000/svg">
<circle cx="40" cy="40" r="40" fill="#B4FCDB"/>
<g clip-path="url(#clip0_240_6109)">
<path d="M45.2682 66.0851H44.0993C44.0764 66.0671 44.056 66.0383 44.0308 66.0311C41.843 65.443 40.8445 64.1421 40.8433 61.8738V60.3245H40.2984C38.5918 60.3245 36.884 60.3245 35.1774 60.3245C31.8867 60.3136 29.376 57.8198 29.3472 54.529C29.3364 53.2989 29.3472 52.0687 29.3472 50.8386C29.3432 50.6144 29.3699 50.3907 29.4264 50.1737C29.5547 49.7408 29.8329 49.3678 30.2112 49.1214C30.5896 48.875 31.0433 48.7714 31.4911 48.8292C31.9388 48.887 32.3514 49.1024 32.6548 49.4367C32.9582 49.771 33.1326 50.2025 33.1468 50.6538C33.1696 51.8827 33.1468 53.1128 33.1576 54.343C33.1576 55.6955 33.9269 56.4696 35.2687 56.4732C36.9753 56.4732 38.6818 56.4732 40.3884 56.4732C40.5204 56.4732 40.6513 56.46 40.8373 56.4492V36.731C40.8373 33.7463 40.8373 30.7603 40.8373 27.7756C40.8433 26.0006 41.783 24.6552 43.4116 24.042C43.51 24.0059 43.6024 23.9543 43.6972 23.9111L43.6792 23.8475H43.4188C40.6801 23.8475 37.9402 23.8475 35.2003 23.8475C33.9449 23.8475 33.1732 24.6408 33.16 25.9106C33.16 26.4962 33.1684 27.0819 33.16 27.6664C33.136 28.7657 32.3199 29.5866 31.2662 29.6022C30.2125 29.6178 29.3736 28.7801 29.346 27.682C29.3304 26.9475 29.322 26.2118 29.3532 25.4773C29.4288 23.7071 30.2125 22.297 31.5794 21.194C32.4051 20.5268 33.3796 20.2051 34.3938 19.9939H56.5831C56.6959 20.0263 56.8087 20.0623 56.9227 20.0887C58.3209 20.4187 59.2822 21.2528 59.7898 22.6006C59.8774 22.8406 59.929 23.0806 59.9975 23.3207V58.9647C59.9794 58.9887 59.9506 59.0103 59.9458 59.0355C59.6002 60.7157 58.5381 61.6854 56.9455 62.2051C53.0439 63.482 49.159 64.7926 45.2682 66.0851Z" fill="#0F5A37"/>
<path d="M23.5948 41.1295H23.0019C20.6965 41.1295 18.391 41.1295 16.0868 41.1295C14.9694 41.1295 14.1593 40.4622 14.0189 39.4589C13.8569 38.2984 14.7546 37.2903 15.9787 37.2855C18.3286 37.2771 20.6785 37.2855 23.0283 37.2855H23.5948V36.7922C23.5948 35.112 23.608 33.4318 23.5948 31.7516C23.5852 30.8359 23.9164 30.1423 24.7673 29.7606C25.5474 29.4102 26.3155 29.6166 27.0404 30.3415C29.4879 32.7898 31.9329 35.2396 34.3756 37.6911C35.3357 38.6512 35.3357 39.7421 34.396 40.6914C31.9157 43.1869 29.4279 45.6784 26.9324 48.1659C25.8223 49.2712 24.0773 48.856 23.674 47.4038C23.6172 47.1556 23.5934 46.901 23.6032 46.6465C23.5972 44.9963 23.6032 43.3473 23.6032 41.6972L23.5948 41.1295Z" fill="#0F5A37"/>
</g>
<defs>
<clipPath id="clip0_240_6109">
<rect width="46" height="46.0852" fill="white" transform="translate(14 20)"/>
</clipPath>
</defs>
</svg>
