<svg width="80" height="80" viewBox="0 0 80 80" fill="none" xmlns="http://www.w3.org/2000/svg">
<circle cx="40" cy="40" r="40" fill="#B4FCDB"/>
<g clip-path="url(#clip0_301_2)">
<path d="M40.8683 61.9999C37.0455 61.9721 33.9195 61.7285 30.8806 60.8161C28.5191 60.1085 26.3562 59.0435 24.6502 57.2017C23.092 55.5212 22.2838 53.5062 22.0694 51.2452C21.7398 47.7895 22.6171 44.5604 24.008 41.4513C25.2997 38.5736 26.9996 35.9637 29.3394 33.8106C29.756 33.4382 30.1955 33.0922 30.6552 32.7746C31.4448 32.2088 32.3971 31.9153 33.3681 31.9385C37.9725 31.9713 42.5877 31.964 47.1981 31.9385C48.001 31.929 48.7895 32.1529 49.4675 32.5831C51.0088 33.5379 52.2277 34.8356 53.3109 36.2618C55.7015 39.4121 57.3676 42.9005 58.114 46.8032C58.6289 49.4956 58.5986 52.1588 57.4294 54.7069C56.2783 57.2284 54.2718 58.8593 51.8036 59.9789C49.4094 61.0694 46.8673 61.5674 44.2683 61.7964C42.9185 61.9188 41.5578 61.9612 40.8683 61.9999ZM45.5175 41.4659C45.5175 40.717 45.154 40.213 44.6027 40.0216C44.0078 39.8156 43.4286 40.001 43.013 40.568C40.4055 44.1222 37.8016 47.6817 35.2014 51.2464C34.7167 51.9092 34.8379 52.7271 35.4352 53.1851C36.0629 53.6588 36.8892 53.5328 37.3885 52.8531C39.9984 49.2989 42.6014 45.739 45.1976 42.1735C45.3757 41.919 45.4545 41.6016 45.5175 41.4659ZM41.5529 49.6434C41.5529 49.9124 41.5457 50.1402 41.5529 50.3704C41.5785 51.1483 41.8864 51.8903 42.4191 52.4578C42.9518 53.0253 43.6729 53.3794 44.4476 53.4541C45.9537 53.6249 47.4768 52.6192 47.8209 51.0986C47.9704 50.3439 48.0039 49.5709 47.9202 48.8061C47.7155 46.504 45.1055 45.2123 43.1245 46.4107C41.8946 47.1449 41.4487 48.2863 41.5529 49.6373V49.6434ZM38.8618 43.7862C38.8618 43.4918 38.8618 43.2652 38.8618 43.0386C38.8025 41.3701 37.466 40.0094 35.8327 39.9513C34.0915 39.8907 32.6508 41.0902 32.4848 42.7854C32.4255 43.3865 32.4255 43.992 32.4848 44.5932C32.606 45.8254 33.2833 46.7075 34.4114 47.1837C35.5576 47.6684 36.6687 47.5145 37.6538 46.739C38.6389 45.9636 38.9588 44.9191 38.8618 43.7801V43.7862Z" fill="#0F5A37"/>
<path d="M32.1094 18.8138C32.7673 18.8598 33.355 18.8695 33.9329 18.9459C35.4876 19.1758 37.0725 18.8247 38.3846 17.9596C38.7384 17.7306 39.097 17.5052 39.4557 17.2835C40.0833 16.8945 40.711 16.92 41.3338 17.298C41.8184 17.5973 42.3031 17.9111 42.7987 18.1995C44.0164 18.9071 45.3335 19.1228 46.7245 18.9592C47.1897 18.9047 47.6562 18.8732 48.1239 18.838C48.3053 18.8374 48.4865 18.8471 48.6668 18.8671C48.5517 19.2415 48.4717 19.5602 48.3566 19.8643C47.8234 21.2735 47.2661 22.6766 46.7463 24.0894C46.6457 24.3584 46.5197 24.4529 46.2301 24.4529C42.3346 24.4432 38.4391 24.4529 34.5424 24.4371C34.3861 24.4371 34.1341 24.3378 34.088 24.2215C33.4519 22.6087 32.8424 20.9863 32.2318 19.3639C32.1797 19.1832 32.1388 18.9995 32.1094 18.8138Z" fill="#0F5A37"/>
<path d="M40.3431 29.5516C37.9404 29.5516 35.5377 29.5577 33.1349 29.5516C32.0663 29.5516 31.3853 28.5907 31.79 27.6784C31.8727 27.474 32.0056 27.2938 32.1766 27.1547C32.3476 27.0155 32.5509 26.9218 32.7678 26.8823C32.946 26.8494 33.127 26.834 33.3082 26.8363C38.0224 26.8363 42.7374 26.8363 47.4532 26.8363C47.6344 26.8335 47.8153 26.8485 47.9936 26.8811C48.3152 26.9449 48.6031 27.1223 48.8049 27.3807C49.0066 27.6392 49.1087 27.9616 49.0926 28.289C49.0703 28.6168 48.9291 28.9251 48.6955 29.1561C48.4619 29.387 48.1519 29.5247 47.824 29.5431C47.2181 29.5722 46.6123 29.554 46.0065 29.554L40.3431 29.5516Z" fill="#0F5A37"/>
<path d="M45.2617 49.7246C45.2508 49.9209 45.2981 50.1621 45.2096 50.3305C45.1212 50.4989 44.8958 50.7049 44.7371 50.694C44.5784 50.6831 44.3287 50.4517 44.3009 50.2917C44.233 49.9049 44.233 49.5093 44.3009 49.1225C44.3364 49.0188 44.3969 48.9255 44.477 48.8507C44.5571 48.7759 44.6543 48.7219 44.7601 48.6935C44.897 48.6741 45.1321 48.9056 45.2157 49.0776C45.2993 49.2497 45.2508 49.4993 45.2617 49.7246Z" fill="#0F5A37"/>
<path d="M36.1375 43.722C36.1375 43.9025 36.192 44.1097 36.1229 44.2575C36.0381 44.4356 35.8418 44.6889 35.7049 44.6816C35.5244 44.6719 35.236 44.4647 35.2057 44.3023C35.1314 43.9021 35.1294 43.4917 35.1996 43.0907C35.2287 42.9247 35.5171 42.6908 35.6843 42.6969C35.8515 42.703 36.0478 42.9526 36.129 43.1392C36.2029 43.3003 36.1447 43.5245 36.1447 43.7208L36.1375 43.722Z" fill="#0F5A37"/>
</g>
<defs>
<clipPath id="clip0_301_2">
<rect width="36.4347" height="45" fill="white" transform="translate(22 17)"/>
</clipPath>
</defs>
</svg>
